<?xml version="1.0" encoding="utf-8"?>
<!-- Generator: Adobe Illustrator 23.0.0, SVG Export Plug-In . SVG Version: 6.00 Build 0)  -->
<svg version="1.1" id="Layer_1" xmlns="http://www.w3.org/2000/svg" xmlns:xlink="http://www.w3.org/1999/xlink" x="0px" y="0px"
	 viewBox="0 0 582.3 539.5" style="enable-background:new 0 0 582.3 539.5;" xml:space="preserve">
<style type="text/css">
	.st0{fill:#FFF7E3;}
	.st1{fill:#202020;}
</style>
<g>
	<g>
		<path class="st0" d="M16.3,501.7c-1.2,0-2.4-0.2-3.5-0.6c-3.9-1.5-7.5-4.2-9.7-7.6c-3-4.5-3.9-9-2.5-12.3c0.6-1.4,3.2-4.2,3.9-5
			c1.5-1.6,5.4-5.6,6.2-6.9c0.2-2.4,1.5-6.5,2.7-9.1c1.8-3.7,4.5-7.3,7.3-9.6c2.6-2.1,7.1-4.5,9.9-5.2c0.5-3.2,2.1-8.4,3.5-11.9
			c1.9-4.6,3.8-8.1,6.9-12.8c3.7-5.6,8-10.1,15.6-16.8c2.1-1.8,131.3-109.6,226.8-189l50.4-42l0.1-0.7c2-9,10.4-15.5,19.9-15.5
			c0.3,0,0.9,0,1.1,0c0.1-0.1,0.8-0.5,1-0.7c2.9-2.1,5.7-5.6,12.1-14.9c5.6-8.2,8-11.2,12.8-16c4.7-4.7,8.3-7.4,13.1-9.9
			c-0.3-0.7-0.6-1.6-0.8-2.3c-0.6,0.1-1.3,0.1-1.6,0.2c-1.1,0.1-2.2,0.2-3.3,0.2c-4.3,0-8.5-1-12.3-3c-7.8-4-12.8-11.9-14.4-22.9
			c-0.3-2-0.8-4-1.1-4.6c-1.8-4.3-2.3-7.4-2.3-14.1c0-4.9,0.1-6.6,0.8-9.7c4.7-21.6,21.1-42.6,40.9-52.4c6.7-3.3,11.2-4.5,24.1-6.4
			c1-0.1,2.1-0.2,3.3-0.2c2.6,0,5.3,0.3,7.7,0.9c7.4,1.9,13.1,6.8,16.6,14.2c0.3,0.6,0.5,1.2,0.7,1.6c0.1,0,0.1,0,0.2,0
			c0.5,0,1.2,0,1.9,0c0.9,0,1.7-0.1,2.4-0.1c2.2,0,3.5,0.2,5.2,0.7c4.3,1.1,7.6,2.8,10.9,5.9c2.1,1.9,4.9,3.6,24.8,15.3
			c14.2,8.3,22.6,13.1,23.6,13.6c6.7,2.8,10.9,9.2,12,18.1c2.3-0.5,4.6-0.8,6.8-0.8c6.1,0,11.5,2,15.7,5.7c2,1.8,4.6,5.5,5.9,8.6
			c1.9,4.6,2.5,8.5,2.5,17.2c0,6.2-0.1,8.2-0.6,10.7c-4.2,19.6-17.1,42.6-32.2,57.2c-8.5,8.2-15.7,12.1-22.5,12.1l-0.7,0
			c-1.7,0-2.4,0.2-2.5,0.3c-2.8,1-6.7,1.6-10.5,1.6c-2.1,0-3.9-0.2-5.4-0.5c-3.9-0.9-7.4-2.9-10.2-5.7c-3.9-3.8-6.1-8.4-7.3-14.7
			c-2.3,0.7-5.2,1.3-7.3,1.4c-0.6,0-1.1,0.1-1.7,0.1c-7.1,0-13.4-3.8-16.7-10.1c-0.2-0.4-0.6-1.2-0.7-1.3c-0.1-0.1-0.9-0.5-1.4-0.7
			c-2.8-1.3-5.6-3-7.3-4.3c-1.1,0.7-3.5,2-5.3,2.6c-0.2,0.2-0.4,0.6-0.6,1.1c-4.5,8.9-12,15.1-28.6,23.5
			c-9.5,4.8-13.8,7.5-17.7,11.3l-1.2,1.1l0,0.5c0,3-0.8,6.4-2.3,9.3c-3.3,6.4-9.4,10.3-17.2,10.9l-1.5,0.1L226.3,335.8
			c-47.5,44.9-137.7,130-139.2,131.1c-5.2,3.9-13,7.8-19.1,9.4c-2.7,0.7-4.2,0.9-7.2,1l-0.5,0c-0.2,0-1.6,0-2.8-0.1
			c-2.4,5.5-8.5,11.2-15,13.9c-3.7,1.5-6.1,2.1-10.1,2.3l-2.3,0.1l-3.4,2.7c-1,0.8-4.5,3.6-5.6,4.2
			C19.7,501.3,18.1,501.7,16.3,501.7z"/>
		<path class="st0" d="M364.1,203.8c6.8-0.5,12-3.8,14.8-9.3c1.2-2.4,1.9-5.4,1.9-8l0-1.7l2.1-2c4.2-4,8.7-6.9,18.4-11.8
			c15.9-8,23.2-13.9,27.3-22.2c0.7-1.4,1.4-2.4,1.7-2.4c0.7,0,4.4-1.8,5.6-2.6c1.3-1,1.5-1,2.8,0.1c1.6,1.2,4.4,2.9,7.1,4.2
			c2.2,1.1,2.3,1.2,3.5,3.3c3.1,5.8,8.9,9,15.5,8.4c2.6-0.2,6.4-1.1,8.5-1.9c0.7-0.3,1.3-0.4,1.3-0.4c0.1,0.1,0.3,1.4,0.6,2.9
			c1,5.9,3,10,6.5,13.5c2.4,2.4,5.5,4.1,8.8,4.9c3.8,0.9,10.4,0.4,14.2-0.9c0.9-0.3,2.3-0.5,4-0.4c6,0.1,12.5-3.5,20.6-11.2
			c14.6-14.1,27.3-36.6,31.4-55.6c0.5-2.2,0.5-3.9,0.5-10c-0.1-8.3-0.6-11.9-2.3-16.1c-1.1-2.6-3.4-6-5.1-7.5
			c-5.7-5-13.6-6.2-22.5-3.6c-0.6,0.2-0.6,0-0.9-2.1c-0.8-8.4-4.4-14.4-10.4-16.8c-0.6-0.2-11.3-6.4-23.9-13.7
			c-20.4-11.9-23-13.5-25.3-15.6c-3-2.7-5.9-4.3-9.7-5.2c-2.2-0.6-3.2-0.6-6.8-0.5c-2.6,0.1-4.3,0-4.3-0.2c0-0.2-0.6-1.6-1.4-3.1
			c-3.1-6.5-8.2-10.9-14.6-12.5c-3.1-0.8-7-1.1-9.7-0.6c-12.7,1.9-16.8,3-23.2,6.1c-19,9.4-34.8,29.6-39.3,50.3
			c-0.6,2.7-0.7,4.2-0.7,9.1c0,6.3,0.4,9,2.1,13c0.4,1,1,3.4,1.3,5.3c1.4,9.9,5.9,17.1,12.8,20.7c4.4,2.3,9,3.1,14,2.5
			c1.6-0.2,3.2-0.4,3.5-0.5c0.5-0.1,0.7,0.1,1,1.5c0.2,0.9,0.8,2.5,1.3,3.6l0.9,1.9l-2.4,1.2c-4.6,2.3-8,4.8-12.5,9.4
			c-4.6,4.7-7,7.6-12.5,15.6c-6.6,9.7-9.6,13.3-12.7,15.6c-1.7,1.3-1.9,1.3-3.9,1.3c-8.1,0-15.3,5.5-17,13.1l-0.4,1.6l-51.2,42.6
			c-98,81.6-224.7,187.3-226.7,189c-7.4,6.5-11.5,10.8-15.1,16.2c-3.1,4.5-4.8,7.9-6.6,12.3c-1.4,3.4-3,9-3.4,11.8l-0.2,1.4
			l-1.7,0.4c-2.3,0.5-6.6,2.7-9,4.6c-2.5,2.1-5,5.3-6.5,8.6c-1.2,2.6-2.5,6.8-2.5,8.3c0,0.9-1.6,2.8-7,8.4c-1.6,1.7-3.1,3.5-3.3,4.1
			c-1,2.3-0.1,5.9,2.2,9.4c1.9,2.8,5,5.3,8.3,6.5c1.9,0.7,4.1,0.6,5.7-0.4c0.6-0.4,3-2.2,5.3-4l4.1-3.3l3.3-0.2
			c3.6-0.2,5.8-0.7,9.1-2.1c6-2.5,11.9-8.1,13.7-13c0.5-1.4,0.6-1.4,1.4-1.2c0.5,0.1,2.5,0.2,4.3,0.2c2.7,0,4-0.2,6.5-0.9
			c5.7-1.6,13.2-5.3,18.1-8.9c1-0.7,63.5-59.6,139-130.9L361.5,204L364.1,203.8z"/>
		<path class="st0" d="M435.6,539.5c-4.3,0-7.7-0.1-9.4-0.2c-32.4-1.9-64.4-12.4-90.2-29.7c-36.1-24.1-58.2-59.2-60.7-96.3
			c-1.3-19,2.5-37.3,11.2-54.4c8.5-16.8,21.4-31.5,38.5-43.8c1.8-1.3,4.7-3.5,6.4-4.9c8-6.4,14.3-10.2,29-17.5
			c14.8-7.4,22.8-10.5,34.2-13.3c11.4-2.8,23.4-4.2,35.6-4.2c6.4,0,12.7,0.4,19,1.2c26.8,3.3,52.5,14,72.5,29.9
			c8.6,6.9,17,16,27.2,29.5c1.7,2.2,2.8,3.6,3,3.9c0,0-0.2-0.2-0.4-0.3c1.7,1.2,7.8,12,7.9,12.1c1.2,2.1,3.4,5.9,4.9,8.2
			c3.4,5.3,7.5,13.3,9.8,18.9c8.4,20.4,10.5,43,5.9,63.7c-3.6,16.1-10.9,31.1-21.8,44.7c-4.2,5.3-13.5,14.6-18.8,18.8
			c-24.8,19.7-55.1,31-90.3,33.6C446.4,539.4,440.3,539.5,435.6,539.5C435.6,539.5,435.6,539.5,435.6,539.5z"/>
		<path class="st0" d="M571.2,379.6c-2.2-5.5-6.3-13.3-9.5-18.5c-1.6-2.4-3.8-6.2-5-8.3c-2.1-3.7-6.5-10.8-7-11.1
			c-0.1-0.1-1.6-1.9-3.3-4.2c-10-13.2-18.2-22.2-26.6-28.9c-19.6-15.7-44.8-26.1-71-29.3c-17.9-2.2-36.5-1.2-53.5,3
			c-11.1,2.7-18.8,5.7-33.5,13.1c-14.5,7.2-20.7,10.9-28.5,17.2c-1.7,1.4-4.6,3.6-6.5,4.9c-16.7,12-29.3,26.3-37.6,42.7
			c-8.5,16.7-12.1,34.4-10.8,52.9c2.4,36.1,24.2,70.6,59.4,94c25.3,16.9,57.1,27.3,88.8,29.2c4.2,0.3,18.4,0.2,22.3-0.1
			c34.7-2.5,64.3-13.5,88.7-32.9c5.2-4.1,14.3-13.2,18.3-18.3c10.6-13.2,17.7-27.8,21.2-43.5C581.4,421.4,579.4,399.7,571.2,379.6z"
			/>
	</g>
	<g>
		<path class="st1" d="M14.4,493.6c-2.1-1.2-4.3-3.7-6.3-7.1c-0.4-0.8-0.8-1.2-0.8-0.9c0,0.9,1.5,3.6,2.7,5c1.2,1.3,4.5,3.7,5.2,3.7
			C15.3,494.2,15,493.9,14.4,493.6"/>
		<path class="st1" d="M10.3,482.3c0.2-0.1,0.5-0.1,0.6,0c0.1,0.1-0.1,0.2-0.4,0.1C10.1,482.5,10.1,482.4,10.3,482.3"/>
		<path class="st1" d="M12.2,481.2c0.3-0.3,0.4-0.3,0.7,0c0.3,0.3,0.2,0.4-0.4,0.4C11.9,481.6,11.9,481.5,12.2,481.2"/>
		<path class="st1" d="M13.6,480.3c0.1-0.2,0.4-0.3,0.6-0.3c0.2,0,0.5,0.1,0.6,0.3c0.1,0.2-0.2,0.3-0.6,0.3
			C13.8,480.6,13.5,480.5,13.6,480.3"/>
		<path class="st1" d="M15.3,479.4c0-0.5,0.5-0.6,1.1-0.2c0.6,0.4,0.5,0.4-0.3,0.4C15.7,479.7,15.3,479.6,15.3,479.4"/>
		<path class="st1" d="M16.7,478.3c-0.5-0.3-0.5-0.4-0.1-0.4c0.8,0,1.8,0.4,1.8,0.6C18.4,478.9,17.3,478.8,16.7,478.3"/>
		<path class="st1" d="M19,477.7c-2.1-0.8-2.6-1.1-2.2-1.4c0.2-0.2,0.7-0.1,1.8,0.4C20.2,477.4,20.5,478.2,19,477.7"/>
		<path class="st1" d="M31,471.5c-0.6-0.6-0.9-1.1-0.8-1.1c0.4,0,2.3,1.5,2.3,1.9C32.5,472.9,32.1,472.6,31,471.5"/>
		<path class="st1" d="M33,470.2c-0.7-0.7-1.1-1.3-1.1-1.4c0.2-0.2,2.7,1.9,2.7,2.3C34.7,471.7,34.2,471.4,33,470.2"/>
		<path class="st1" d="M36.7,469.4l-1.5-1.4l1.4,0.9c1.5,1,2.4,1.9,1.9,1.9C38.3,470.8,37.5,470.1,36.7,469.4"/>
		<path class="st1" d="M20.4,469.7c-1.4-0.8-1.2-1,0.4-0.4c0.6,0.2,1,0.6,1,0.8C21.8,470.6,21.8,470.6,20.4,469.7"/>
		<path class="st1" d="M25.6,469.7c-0.5-0.4-0.8-0.8-0.7-0.8c0.4,0,2.1,1,2.1,1.3C27,470.7,26.6,470.5,25.6,469.7"/>
		<path class="st1" d="M35.6,464.9c-1.4-1.4-1.5-1.5-0.6-1c1.2,0.7,2.7,2.2,2.4,2.5C37.3,466.4,36.5,465.8,35.6,464.9"/>
		<path class="st1" d="M36.5,461.7c-1.1-1-2-1.8-1.9-1.9c0.2-0.2,3.2,1.5,3.9,2.3c0.4,0.5,0.6,0.8,0.4,1
			C38.6,463.3,37.8,462.8,36.5,461.7"/>
		<path class="st1" d="M118.9,427.5c0.4-0.4,0.6-0.8,0.6-0.8c-0.1,0-0.5,0.4-0.9,0.8c-0.4,0.4-0.6,0.8-0.6,0.8
			C118.1,428.2,118.4,427.9,118.9,427.5"/>
		<g>
			<path class="st1" d="M49.2,447.4c0-0.5,8.5-13,10.9-16c5.5-6.9,12.8-14.3,20-20.4c7.4-6.2,24.8-19.8,24.8-19.4
				c0,0.1-0.3,0.5-0.6,0.7c-1.2,0.9-8,6.7-10.8,9.2c-15.9,14.5-22.8,21.4-31.9,31.7c-5.6,6.3-11,12.8-11.6,13.9
				C49.8,447.7,49.2,447.9,49.2,447.4"/>
			<path class="st1" d="M79.6,428.6c-0.3-0.5,0.3-1.4,3.9-4.8c6-5.8,28.2-25.4,45.1-39.9c3-2.6,7.3-6.4,9.6-8.3
				c4.3-3.8,19.4-17.2,33.1-29.1c8.4-7.3,24.1-20.9,33.9-29.3c2.8-2.4,9-7.8,13.8-12c7.8-6.9,8.6-7.4,6.9-5.4
				c-3,3.6-3.8,4.5-11.4,11.1c-3.9,3.5-9.2,8.2-11.9,10.6c-12.7,11.6-31.7,28.5-58.9,52.2c-5.5,4.8-11.4,10-13.1,11.6
				c-2.9,2.7-16.4,14.6-27.3,24.2c-11.7,10.3-21,17.9-23,19C80,428.7,79.7,428.8,79.6,428.6"/>
			<path class="st1" d="M366.6,178.2c-1.1-1.2-1.9-2.7-1.5-2.7c0.6,0,2.8,2.4,2.8,3C367.9,179.5,367.7,179.4,366.6,178.2"/>
			<path class="st1" d="M371.5,177.8c-0.9-1.1-2.5-3.5-2.3-3.7c0.3-0.3,3,3.1,3,3.6C372.2,178.4,372.1,178.4,371.5,177.8"/>
			<path class="st1" d="M356.8,174.9c-1.6-1-3-1.8-3.1-1.8c-0.1,0-0.3-0.2-0.3-0.5c0-0.7,0.6-0.5,2.9,1.1c2,1.4,3.9,3.1,3.5,3.1
				C359.7,176.8,358.4,175.9,356.8,174.9"/>
			<path class="st1" d="M356.5,169.9c-1.5-0.9-2.1-1.8-1.2-1.8c0.7,0,3.3,1.8,3.3,2.3C358.6,171.1,358.4,171,356.5,169.9"/>
			<path class="st1" d="M382.7,151.1c0-0.1,1.1-1.6,2.5-3.4c3.3-4.2,12.6-13.4,16.3-16.2c3.6-2.7,7.3-5.1,7.8-4.9
				c0.2,0.1-1.6,1.7-4.1,3.7c-4.7,3.8-13.6,11.9-19.2,17.7C384.2,149.8,382.7,151.2,382.7,151.1"/>
			<path class="st1" d="M499.8,139.4c0-0.4,1.3-3.7,1.8-4.8c1-2,4-6.5,4.2-6.3c0.4,0.4-3.6,8.8-4.9,10.5
				C500.5,139.3,499.8,139.7,499.8,139.4"/>
			<path class="st1" d="M492.5,132.4c0.2-2.2,4.6-11.4,5.5-11.4c0.4,0-0.6,2.4-2.5,6.2c-0.9,1.8-1.9,3.9-2.3,4.9l-0.7,1.7
				L492.5,132.4z"/>
			<path class="st1" d="M492.3,124.9c0.5-1.6,1.4-3.4,1.6-3.1c0.1,0.4-1.3,3.8-1.6,3.8C492.1,125.6,492.1,125.3,492.3,124.9"/>
			<path class="st1" d="M505.6,118.5c0-0.5,2.6-4.7,3.2-5.2c1-0.8,0.5,0.6-1.1,3C506.2,118.6,505.6,119.2,505.6,118.5"/>
			<path class="st1" d="M494.6,115.4c0-0.6,2.4-4.3,2.8-4.3c0.5,0,0.3,0.4-0.9,2.5C495.3,115.5,494.6,116.2,494.6,115.4"/>
			<path class="st1" d="M505,111.2c0-0.4,3.1-4.4,3.4-4.4c0.4,0-0.5,1.6-1.7,3.3C505.9,111.3,505,111.8,505,111.2"/>
			<path class="st1" d="M505,104.6c0-0.4,4.5-6.1,4.8-6.1c0.1,0,0.1,0.2,0.1,0.5c0,0.4-4.5,6-4.8,6C505.1,104.9,505,104.8,505,104.6
				"/>
			<path class="st1" d="M510.3,94.8c0-0.4,3.4-3.8,3.8-3.8c0.4,0-0.3,1-1.5,2.2C510.8,94.8,510.3,95.2,510.3,94.8"/>
			<path class="st1" d="M561.2,100.8c-0.1-8.3-0.6-11.9-2.3-16.1c-1.1-2.6-3.4-6-5.1-7.5c-5.7-5-13.6-6.2-22.5-3.6
				c-0.6,0.2-0.6,0-0.9-2.1c-0.8-8.4-4.4-14.4-10.4-16.8c-0.6-0.2-11.3-6.4-23.9-13.7c-20.4-11.9-23-13.5-25.3-15.6
				c-3-2.7-5.9-4.3-9.7-5.2c-2.2-0.6-3.2-0.6-6.8-0.5c-2.6,0.1-4.3,0-4.3-0.2c0-0.2-0.6-1.6-1.4-3.1c-3.1-6.5-8.2-10.9-14.6-12.5
				c-3.1-0.8-7-1.1-9.7-0.6c-12.7,1.9-16.8,3-23.2,6.1c-19,9.4-34.8,29.6-39.3,50.3c-0.6,2.7-0.7,4.2-0.7,9.1c0,6.3,0.4,9,2.1,13
				c0.4,1,1,3.4,1.3,5.3c1.4,9.9,5.9,17.1,12.8,20.7c4.4,2.3,9,3.1,14,2.5c1.6-0.2,3.2-0.4,3.5-0.5c0.5-0.1,0.7,0.1,1,1.5
				c0.2,0.9,0.8,2.5,1.3,3.6l0.9,1.9l-2.4,1.2c-4.6,2.3-8,4.8-12.5,9.4c-4.6,4.7-7,7.6-12.5,15.6c-6.6,9.7-9.6,13.3-12.7,15.6
				c-1.7,1.3-1.9,1.3-3.9,1.3c-8.1,0-15.3,5.5-17,13.1l-0.4,1.6l-51.2,42.6c-98,81.6-224.7,187.3-226.7,189
				c-7.4,6.5-11.5,10.8-15.1,16.2c-3.1,4.5-4.8,7.9-6.6,12.3c-1.4,3.4-3,9-3.4,11.8l-0.2,1.4l-1.7,0.4c-2.3,0.5-6.6,2.7-9,4.6
				c-2.5,2.1-5,5.3-6.5,8.6c-1.2,2.6-2.5,6.8-2.5,8.3c0,0.9-1.6,2.8-7,8.4c-1.6,1.7-3.1,3.5-3.3,4.1c-1,2.3-0.1,5.9,2.2,9.4
				c1.9,2.8,5,5.3,8.3,6.5c1.9,0.7,4.1,0.6,5.7-0.4c0.6-0.4,3-2.2,5.3-4l4.1-3.3l3.3-0.2c3.6-0.2,5.8-0.7,9.1-2.1
				c6-2.5,11.9-8.1,13.7-13c0.5-1.4,0.6-1.4,1.4-1.2c0.5,0.1,2.5,0.2,4.3,0.2c2.7,0,4-0.2,6.5-0.9c5.7-1.6,13.2-5.3,18.1-8.9
				c1-0.7,63.5-59.6,139-130.9L361.5,204l2.6-0.2c6.8-0.5,12-3.8,14.8-9.3c1.2-2.4,1.9-5.4,1.9-8l0-1.7l2.1-2
				c4.2-4,8.7-6.9,18.4-11.8c15.9-8,23.2-13.9,27.3-22.2c0.7-1.4,1.4-2.4,1.7-2.4c0.7,0,4.4-1.8,5.6-2.6c1.3-1,1.5-1,2.8,0.1
				c1.6,1.2,4.4,2.9,7.1,4.2c2.2,1.1,2.3,1.2,3.5,3.3c3.1,5.8,8.9,9,15.5,8.4c2.6-0.2,6.4-1.1,8.5-1.9c0.7-0.3,1.3-0.4,1.3-0.4
				c0.1,0.1,0.3,1.4,0.6,2.9c1,5.9,3,10,6.5,13.5c2.4,2.4,5.5,4.1,8.8,4.9c3.8,0.9,10.4,0.4,14.2-0.9c0.9-0.3,2.3-0.5,4-0.4
				c6,0.1,12.5-3.5,20.6-11.2c14.6-14.1,27.3-36.6,31.4-55.6C561.2,108.6,561.3,106.9,561.2,100.8z M465.3,30.1
				c1.1-0.1,2.8,0.1,3.6,0.3c1.7,0.4,40.9,23.1,40.5,23.4c-0.1,0.1-1,0.3-1.9,0.5c-0.9,0.2-1.8,0.4-2,0.3c-0.2,0-9.8-5.5-21.4-12.2
				l-21-12.2L465.3,30.1z M460.2,57.8c2,1.3,4.8,3.1,6.2,4.2c1.4,1,4.3,3.1,6.5,4.6c2.1,1.5,4.6,3.3,5.5,3.9l1.6,1.2l-2,2.1
				c-1.1,1.1-2.7,2.9-3.5,3.8l-1.6,1.8l-3.4-1.6c-1.9-0.9-3.4-1.6-3.4-1.4c0,0.1,1.2,1.2,2.8,2.4l2.8,2.2l-1.4,1.8
				c-0.8,1-1.5,1.9-1.6,1.9c-0.1,0.1-2.7-1.4-5.7-3.3c-3.1-1.8-12.8-7.8-21.6-13.1c-13.1-8-16-9.8-15.8-10.2c1-1.7,0.8-1.8,4.6,0.6
				c1.9,1.2,6.2,4,9.5,6.1c3.3,2.2,6.2,4,6.5,4.1c1.6,0.8-5.8-4.9-13.5-10.4c-2.6-1.8-4.7-3.5-4.7-3.6c0-0.6,4.8-6.2,8.2-9.7
				l3.4-3.5l1,0.6c0.6,0.4,10.4,6.3,21.8,13.3c11.4,7,20.8,12.8,20.9,12.9c0,0.1-0.3,0.5-0.8,0.9l-0.9,0.6l-1.4-0.9
				c-0.7-0.5-3.3-2.1-5.7-3.7c-4.6-3-12-7.3-16.6-9.7C454.6,54,455.4,54.7,460.2,57.8z M450.8,24.2c3.8-0.7,10.2-0.2,12.2,0.9
				c0.2,0.1-1.8,0.2-4.5,0.2c-4,0-5.4,0.1-7.8,0.7c-3.6,0.9-8.3,2.8-8.2,3.2c0.1,0.2-1.1,1.1-2.6,2.1c-3.6,2.4-6.8,5.1-9.2,8
				c-1.1,1.3-1.9,2.4-1.8,2.4c0.1,0,1.9-1.5,4.1-3.4c2.1-1.9,4.9-4.1,6.2-5c2.5-1.7,3.8-2.5,2.3-1.4c-2,1.6-5.7,4.9-8,7.4
				c-2.4,2.6-6.9,7.9-6.9,8.3c0,0.1,1.9-1.7,4.2-4c2.3-2.3,5.3-5.1,6.5-6.2c1.5-1.3,0.4,0-3.1,3.5c-7.2,7.4-11.6,12.9-16.3,20.7
				c-2.4,4-6.1,11.4-7.9,15.7c-1.3,3.3-3.9,10.6-3.9,11.2c0,0.2-0.2,0.7-0.4,1.3c-0.2,0.5-0.6,1.5-0.8,2.1c-0.6,1.8-0.7,1.1-0.3-1.2
				c0.5-2.8,2.6-9.2,4.1-12.6c0.7-1.5,1.6-3.9,2.1-5.2c0.5-1.4,1.1-3,1.4-3.7c0.3-0.6,0.5-1.2,0.4-1.3c-0.4-0.4-6.2,12.3-6.9,15.1
				c-0.3,1.1-0.9,3.3-1.4,4.9c-0.5,1.6-1.1,4.2-1.4,5.8c-0.3,1.6-0.6,3.1-0.8,3.4c-0.4,0.7-0.1-2.7,0.8-8.5c0.4-2.6,0.7-4.9,0.7-5
				c-0.2-0.5-1.8,5.2-2.8,9.9c-0.8,3.8-0.9,4.8-1,10.4c0,3.4-0.1,6.2-0.1,6.2c-0.2,0-1.1-5.2-1.4-8.1C397.4,87.2,404,67,415.4,51
				C425.7,36.6,439.3,26.3,450.8,24.2z M366.3,65l-0.9,3.4l0-1.7c0-2.8,1.1-8.4,2.5-12.8c1.5-4.6,5.1-11.9,7.9-16.2
				c5-7.5,11.3-14.1,18.4-19.3c0.7-0.5-0.4,0.8-2.5,2.8c-10.6,10.6-18.9,23.8-23.6,37.4C367.6,60.3,366.8,63.2,366.3,65z
				 M386.5,72.5c-0.3-0.3,3.6-9.7,6.4-15.3c1.5-3.1,2.6-5.5,2.4-5.5c-0.5,0.3-3.4,5.3-6,10.5c-1.7,3.4-3,6.5-4.1,9.9
				c-0.9,2.8-1.9,5.2-2.2,5.5c-0.3,0.3-0.6,0.4-0.6,0.2c0-0.5,4-11.8,5.3-15c0.7-1.7,1.2-3.1,1.1-3.2c-0.1-0.1-1.4,2.5-2.9,5.7
				c-2.6,5.3-4.3,9.6-4.9,11.9c-0.2,0.7-0.8,1.5-0.8,1.1c0-0.7,3.6-10.5,4.4-12.2c0.6-1.3,1.1-2.3,1-2.4c-0.6-0.6-7,11.5-7.7,14.5
				c-0.1,0.5-0.4,0.8-0.6,0.8s-0.4-0.1-0.4-0.1c0-0.5,2.7-7.7,3.7-10.1c0.7-1.6,1.5-3.4,1.7-3.9c0.8-1.7,0.3-1.1-1.6,2
				c-2,3.3-3.7,6.5-4.5,8.8c-0.4,1-0.6,1.4-0.9,1.1c-0.2-0.2-0.1-1.1,0.5-3c0.8-2.4,1.3-3.8,3.1-8.2l0.5-1.2l-0.9,1
				c-0.5,0.5-1.7,2.7-2.8,4.8c-1.1,2.1-1.9,3.5-1.9,3.2c0-0.4,0.5-2.3,1.1-4.3c0.6-2,1.1-3.8,1.1-4c0-0.6-0.9,0.6-2,2.7
				c-0.8,1.5-1.1,1.9-1.1,1.4c0-0.4-0.1-1-0.3-1.3c-0.2-0.5-0.4,0-0.7,1.7c-1.3,5.8-1.5,8.4-1.5,15.8c0,4,0,7.3-0.1,7.3
				c0,0-0.4-1.3-0.8-2.8c-0.6-2.5-0.7-3.6-0.7-9.3c0-5.8,0.1-6.9,0.8-10.3c1.7-8,3.4-12.9,7.3-20.8c2.8-5.8,7.1-12.6,11-17.4
				c3.1-3.9,11.3-11.9,15-14.7c4-3,8.9-5.8,12.6-7.3c7.5-3,15.1-3.5,20.1-1.2l1.3,0.6l-1.4-0.2c-2.8-0.4-9.3-0.2-12.6,0.5
				c-3.5,0.7-8.4,2.8-6.6,2.8l0.9,0l-1.2,1.1c-0.7,0.6-1.2,1.1-1.1,1.1c0.1,0,1.2-0.4,2.6-0.9c1.3-0.5,2.5-0.9,2.6-0.9
				s-1.1,0.9-2.8,2c-1.6,1.1-3,2.2-3,2.3c0,0.2,1.8-0.6,3.9-1.7c3.9-2,6-2.8,2.9-1.1c-2,1.1-6.3,4.2-7.1,5c-0.3,0.4,0.6,0,2.4-1
				c3.1-1.7,6.5-3.2,6.5-3c0,0.1-1,0.8-2.2,1.6c-3.2,2.1-8.3,6-8.3,6.4c0,0.2,0.2,0.2,0.5-0.1c1.7-1.4,12.4-7.4,13.2-7.3
				c0.1,0-1.1,0.7-2.7,1.6c-5.4,2.9-14.3,9.2-13.8,9.7c0.1,0.1,1.2-0.5,2.6-1.3c5.4-3.4,14.5-8.3,14.8-8c0.1,0.1,0.1,0.2,0,0.2
				c-0.1,0.1-1.5,0.8-3.2,1.6c-4.3,2.2-9.7,5.8-13.2,8.9c-1.6,1.5-3,2.7-3,2.8c0,0.1,1.2-0.7,2.7-1.8c1.5-1.1,3.9-2.7,5.3-3.7
				c3.1-2,10.7-6,11-5.7c0.3,0.3-0.5,0.7-4,2.6c-1.9,0.9-4.7,2.6-6.3,3.8c-3.1,2.2-8.6,7.3-10.3,9.4c-1.1,1.4-1.1,1.4,3.3-2.3
				c5.3-4.5,8.9-7.1,13.5-9.7c3.1-1.7,2.4-0.7-1.1,1.7c-3.4,2.3-9.1,6.8-12.1,9.6c-4.5,4.2-10.2,11.4-13.6,17.4
				c-1.6,2.7-5.8,11.6-6.9,14.6C388.5,69.1,386.7,72.7,386.5,72.5z M397.3,78.6c-1.2,4.1-1.6,5.3-1.9,5c-0.2-0.2,1.5-7.3,2.9-12.2
				c0.7-2.3,1.2-4.1,1.1-4.1c-0.5,0-4.5,10.9-5.4,14.8c-0.5,2-0.8,3.1-1.1,3.1c-0.3,0-0.4-0.3-0.2-1.1c0.6-3.4,1.2-5.9,2.3-9.7
				c0.7-2.3,1.2-4.3,1.1-4.4c-0.2-0.2-3.6,8.6-4.1,11c-0.3,1.3-0.6,2.4-0.8,2.4c-0.1,0-0.1-0.3-0.1-0.7c0.2-1.4,0.8-5,0.9-5.6
				c0.1-0.5,0.1-0.5-0.1-0.2c-0.7,1.2-1.9,6.5-2.4,10.6c-0.6,5.7-1,6.9-1,3.1c-0.1-8,2.1-19.2,5.2-27.3
				c4.7-11.9,13.6-23.8,23.7-31.3c3.8-2.8,4.2-3.1,2.1-1.1c-2.7,2.5-3.1,3.5-0.7,1.7c3.2-2.4,3.2-2.1,0.1,1.1
				c-1.8,1.8-3.3,3.5-3.3,3.7c0,0.2,0.5-0.2,1.1-0.7c2.1-1.9,5.3-4.3,7.9-6c3.3-2.1,4.4-2.4,1.6-0.6c-3,2.1-7.5,6.5-10.4,10.3
				c-3.3,4.3-3.5,4.6-1.1,2c2.8-3.2,5.7-5.9,8.2-7.9c3.5-2.8,3.6-2.6,0.2,0.8C410.5,48.2,402.3,62,397.3,78.6z M23,478.8
				c-0.3-0.2-1-0.3-1.5-0.3c-0.7,0-0.8,0.1-0.4,0.4c0.2,0.2,0.7,0.7,0.9,1c0.4,0.6,0.4,0.6,0,0.3c-0.3-0.2-1-0.4-1.7-0.6
				c-1.2-0.2-1.2-0.2-0.7,0.4c1,1.2,0.9,1.4-0.2,0.7c-1.9-1-2.2-0.8-0.9,0.6c1.2,1.3,1,1.7-0.4,0.7c-0.8-0.6-2.2-1-2.2-0.7
				c0,0.1,0.5,0.7,1.2,1.4l1.1,1.2l-2.1-0.9c-1.1-0.5-2.2-0.9-2.3-0.9c-0.1,0,0.6,0.9,1.6,1.9c1,1.1,1.5,1.6,1.1,1.3
				c-0.8-0.7-4-2.3-4.6-2.3c-0.2,0,0.4,0.7,1.4,1.6c0.9,0.9,1.8,1.8,2,2.1c0.4,0.7,0.4,0.7-1.8-0.8c-1.1-0.7-2.6-1.6-3.5-1.9
				c-0.9-0.3-1.7-0.6-1.8-0.6c-0.1-0.1,1.4-1.9,5-5.6c2.7-2.9,3.1-3.1,3.9-3c1.6,0.4,4,1.6,5.3,2.8C23.7,478.6,24,479.4,23,478.8z
				 M45.4,467.3c-1.5-1.1-3.9-2.5-3.9-2.2c0,0.1,0.7,1.1,1.5,2.1c2.1,2.5,3.5,4.5,3.3,4.6c-0.1,0.1-1.3-0.7-2.7-1.7
				c-3.9-2.7-4.4-2.8-2.3-0.6c1,1.1,2.3,2.7,2.9,3.5c0.6,0.9,1.3,1.8,1.6,2.2c1.2,1.3,0,1-1.6-0.5c-1.7-1.5-3.5-2.8-3.8-2.8
				c-0.1,0,0.4,1,1.2,2.1c2.1,3.3,2.7,4.7,2.3,5.1c-0.2,0.2-0.5,0.2-0.8-0.4c-0.5-0.7-4.3-4.5-6-6c-1-0.9-1-0.9-0.6-0.2
				c0.2,0.4,0.9,1.5,1.5,2.4c0.9,1.4,2.8,5.9,2.8,6.6c0,0.6-0.7,0.1-1.2-0.9c-0.6-1.2-3.8-5.4-5-6.4c-0.8-0.7-0.8-0.7,0.9,2.1
				c1.5,2.4,2.7,6.7,1.9,6.7c-0.1,0-0.5-0.7-0.8-1.6c-0.7-2.3-2.5-4.8-5.3-7.6c-2.4-2.4-2.6-2.4-1,0c1,1.5,2.4,4.9,3,7.4
				c0.2,0.9,0.3,1.7,0.2,1.8c-0.2,0.2-0.2,0.1-0.8-2.2c-0.2-0.8-0.7-2.1-1.1-2.8c-1.2-2.1-4.4-5.1-7.1-6.8l-0.9-0.6l1.1,1.3
				c2.8,3.4,3.4,4.3,4.3,6.5c0.5,1.3,0.9,2.3,0.8,2.4c-0.1,0.1-0.6-0.7-1.2-1.8c-1.9-3.7-5.2-6.5-8.9-7.9c-2-0.7-2.1-1-1.4-3.8
				c1.6-6.5,6.7-12.3,12.5-14.4c3-1.1,3.9-1,7.7,0.9c2.6,1.3,3.7,2.1,5.4,3.8c1.2,1.2,2.1,2.2,2,2.3c-0.1,0.1-1.4-0.7-3-1.7
				c-3-1.9-3.9-2.2-2.1-0.8c1.6,1.3,3.7,3.5,4.6,4.7l0.7,1.1l-0.7-0.6c-2.1-1.7-7.4-5-7.4-4.5c0,0.2,1.6,1.9,3.5,4
				C46.1,466.8,47.7,469.1,45.4,467.3z M103.4,442c-7.5,7.1-15,14.2-16.7,15.8c-3.7,3.5-7.3,5.9-12.3,8.4c-4,1.9-6.5,2.8-9.8,3.6
				c-2.1,0.5-6.2,0.6-7.6,0.2c-0.5-0.1-0.8-0.6-1.1-1.4l-0.4-1.2l3.3,0c2.8,0,4-0.2,8-1.3c5.8-1.5,7.3-2.1,11.3-4.3
				c4.7-2.6,7.1-4.3,10.4-7.3c1.7-1.5,4.1-3.7,5.4-4.9c1.3-1.2,4.5-4,7-6.3c6.3-5.7,10.9-9.8,12.1-10.7c0.6-0.4,1.7-1.4,2.6-2.2
				c0.8-0.8,1.5-1.3,1.5-1.2C117,429,110.9,434.9,103.4,442z M342.3,202.4c-14.8,13.1-58.4,52.7-89.7,81.3
				c-6,5.5-18.8,17.2-28.3,25.9c-9.6,8.7-23.1,21.1-30.1,27.4c-7,6.4-17.8,16.2-24,21.9c-6.3,5.7-13.8,12.5-16.8,15.3
				c-3,2.7-8.5,7.8-12.3,11.3c-3.8,3.5-11.2,10.3-16.5,15.1c-10.4,9.6-22,20.1-34.8,31.7c-0.8,0.8-2.6,2.4-4,3.6
				c-8.5,7.7-18.2,14.2-25.5,17.2c-1.5,0.6-2.8,1.1-2.9,1.1c-0.1,0,1-0.6,2.4-1.4c1.4-0.8,3.8-2.2,5.2-3.2
				c2.3-1.6,13.3-10.2,14.5-11.4c0.9-0.9-1,0.2-4.6,2.8c-2,1.4-4.4,3-5.5,3.7c-3.2,1.9-17.8,8.8-18.7,8.8c-0.1,0,1.6-1.7,3.8-3.8
				c4.8-4.6,8.4-8.2,9-9c0.6-0.8-1.3,0.6-6.1,4.3c-4.1,3.2-11.8,8.3-11.8,7.9c0-0.2,0.3-0.8,0.6-1.5c0.3-0.6,1.1-2.5,1.7-4.2
				c0.6-1.7,2.1-4.8,3.3-7c1.2-2.2,2.1-4,2-4.1c-0.1-0.1-4,5.3-8.1,11.4c-1.2,1.8-2.3,3.2-2.5,3.2c-0.2,0-0.4,0-0.4-0.1
				c0-0.7,3.8-11.2,5.5-14.9c4.9-11.2,8.4-16,21.6-29.4c2.3-2.3,4.1-4.3,4-4.4c-0.2-0.2-13.1,12.5-16.5,16.4
				c-5.7,6.3-9,11.2-12.2,17.5c-2,4.1-4.7,10.5-5,12.2c-0.2,1-0.4,1.1-1.2,0.5c-0.6-0.4-0.6-0.6-0.2-2.7c0.7-3.7,2.4-8.8,4.5-13.1
				c4.4-9,9.5-15.2,19.4-23.7c10.7-9.1,275.3-229.5,276.4-230.3c0.6-0.4,1.3-0.5,3.2-0.4c1.3,0.1,2.8,0.3,3.3,0.5l0.9,0.4l-5,5
				c-4.4,4.3-4.8,4.8-3.5,4.1c0.9-0.5,2.2-1.3,3.1-2c0.9-0.6,2.5-1.7,3.7-2.4l2.2-1.3l-1.7,1.7c-0.9,1-5,4.6-8.9,8.1
				c-4,3.5-9.7,8.6-12.8,11.3c-3.1,2.7-8.2,7.3-11.6,10.2c-3.3,2.9-8.5,7.4-11.6,10.2c-22,19.6-39.2,34.6-80,69.7
				c-18.8,16.2-38.7,33.2-49.3,42.4c-4,3.4-9.5,8.2-12.2,10.5c-2.8,2.3-5,4.3-5,4.4c0,0.5,3.2-2,13.7-11c6.6-5.6,17.4-14.8,24-20.5
				c6.6-5.6,18.2-15.5,25.7-21.9c42.7-36.4,51.9-44.1,86.7-72.9c5.2-4.3,12.4-10.2,15.9-13.2c14-11.7,20.6-17.2,23.3-19.4l2.8-2.3
				l-2.7,2.5c-1.5,1.4-4.5,4.1-6.8,6.1c-8.6,7.5-16.6,14.6-20.1,17.8c-3.5,3.2-11.7,10.6-16.9,15c-1.3,1.1-2.3,2.1-2.2,2.1
				c0.3,0,5.1-3.8,10.3-8.1c11.4-9.6,20.2-16.7,26.2-21.3c3.6-2.8,8.5-6.5,10.8-8.2c2.3-1.7,3.9-2.8,3.5-2.4
				c-0.8,0.9-8.9,8.4-10.9,10c-2.6,2.1-6.9,6.1-6.7,6.3c0.1,0.1,2.1-1.2,4.4-2.9c2.3-1.7,5.6-4,7.2-5c1.6-1.1,4-2.7,5.3-3.6
				C349.5,196,349.3,196.2,342.3,202.4z M374.9,181.6c-0.4-0.7-0.9-1.3-1.1-1.3c-0.5-0.1-0.5,0.6-0.1,4.4c0.2,1.5,0.2,3.3,0.1,3.8
				c-0.2,1-0.2,1-0.9-1.1c-0.7-2.3-2.1-5.2-2.9-6c-0.8-0.9-1-0.3-0.4,1.1c0.9,2,1.3,4.4,1,6.7l-0.2,2.1l-1.6-3.5
				c-0.9-1.9-2-4.1-2.6-4.9c-1.9-2.7-2.9-2.9-1.3-0.2c2,3.4,2.3,4.4,2.3,8.7c0,2.5-0.1,4.2-0.4,4.6c-0.3,0.6-0.4,0.5-0.4-0.5
				c0-4.6-2.7-10.4-6.9-14.8c-1.4-1.5-2.6-2.1-1.7-0.9c2,2.7,3.2,4.7,4,6.3c1.1,2.3,1.8,6.6,1.3,7.7l-0.3,0.7l0-0.7
				c0-0.4-0.4-1.8-0.9-3.2c-3-8.3-10.8-15.1-18.6-16.4c-1.3-0.2-2.3-0.5-2.3-0.6c0-0.3,3.1-0.3,5.6,0.1c1.1,0.2,2.9,0.7,4,1.1
				c2.7,1.1,2.9,1.2,2.2,0.6c-1.2-1-7.1-3.8-8.9-4.2c-1-0.2-1.7-0.6-1.7-0.7c0.2-0.5,2.2-0.6,5.2,0c1.6,0.3,2.9,0.4,3,0.4
				c0.2-0.2-1.6-1.3-3.6-2.1c-1.1-0.4-2.1-0.9-2.1-1.1c-0.1-0.2,0.3-0.5,0.7-0.7c0.6-0.3,1.2-0.4,3.3,0c1.4,0.2,2.8,0.4,3.1,0.5
				c1.2,0.4,0.4-0.5-1.1-1.3c-0.9-0.5-1.7-1-1.7-1.1c0-0.3,1.2-0.6,2.5-0.6c0.6,0,2.6,0.5,4.5,1c1.9,0.6,3.5,0.9,3.5,0.9
				c0-0.1-0.6-0.6-1.3-1.1l-1.3-0.9l1.2,0.2c1.9,0.3,5.4,1.8,7.4,3.1c2.6,1.7,6.3,5.5,7.8,8c1.3,2.2,2.2,4.9,2.2,6.3
				C375.6,182.7,375.5,182.7,374.9,181.6z M415.5,157.8c-3.5,2.7-9.7,6.4-15.8,9.4c-8,3.9-14,7.6-17.9,10.9
				c-0.9,0.8-1.7,1.4-1.9,1.4c-0.1,0-0.4-0.5-0.6-1c-0.3-1.1-0.3-1.1,1.7-2.6c4.5-3.4,7.3-5,12.1-7c6.6-2.7,17.2-8.4,23-12.3
				C419.1,154.7,418.8,155.2,415.5,157.8z M416.7,137.2c-4.7,6.7-9.1,10.7-20.5,18.8c-8.6,6.1-11.6,8.3-13.8,10.2
				c-1.1,0.9-2,1.6-2.1,1.6c-0.3-0.2,9.7-10.3,11.8-11.9c1.2-0.9,2.1-1.8,2.1-1.8c-0.2-0.2-9.8,6.9-12.9,9.6c-1.2,1-3.2,2.9-4.5,4.1
				l-2.3,2.3l-2-2c-1.7-1.8-5.7-4.8-6.8-5.1c-0.2-0.1,1.1-2,3.2-4.7c1.9-2.5,4.3-5.8,5.2-7.2c0.9-1.4,2.3-3.6,3.2-4.8
				c0.9-1.2,1.7-2.4,1.9-2.6c0.8-1.4-1.1,0.8-3.9,4.6c-1.8,2.3-4.4,5.5-6,7c-3.2,3.3-6.9,6.4-7.3,6.1c-0.1-0.1,0.9-1.4,2.3-2.9
				c1.4-1.5,4.1-4.9,6.1-7.7c1.9-2.8,4.8-6.8,6.3-8.9c7.5-10.7,13.4-16.2,21.1-20.1c3.5-1.7,6.5-2.8,8.8-3l1.8-0.1l-1.7,0.7
				c-5.2,2.2-8.8,4.5-12.8,7.9c-3.6,3.1-4.4,4-1.3,1.6c3-2.3,5.5-3.8,9.7-5.5c3-1.2,11.1-3.5,12.3-3.5c0.6,0,3.3,1.8,5.1,3.3l1.2,1
				l-1.3,2.7c-0.7,1.5-2.7,4.7-4.3,7.1c-1.6,2.4-2.9,4.5-2.8,4.5c0.2,0.3,8.2-8.3,9.6-10.3c0.3-0.4,0.5-0.6,0.5-0.4
				C422.7,128.2,419.7,133,416.7,137.2z M438.7,132.5c-0.3,1.6-0.8,1.7-0.8,0.2c0-1.3-0.4-2.8-0.7-2.8c-0.1,0-0.3,0.5-0.3,1.1
				c0,1.4-0.6,4.2-0.9,4.2c-0.1,0-0.3-0.8-0.4-1.8c-0.2-1.9-1.4-6.2-1.8-6.2c-0.1,0-0.2,0.2-0.1,0.4c0.5,1.3,0.7,5.6,0.4,7.4
				c-0.4,2.5-0.8,2.9-0.9,0.8c-0.1-2.8-1-6.2-2.4-9.3c-0.8-1.7-1.5-3-1.6-3c-0.1,0,0.2,1.1,0.8,2.6c1.3,3.3,1.8,5.6,1.6,8.7
				c-0.1,2.7-0.3,2.6-0.8-0.5c-0.7-4.5-4-10.5-7.6-13.7c-4-3.7-7.9-5.7-12.1-6.3l-1.8-0.3l2.3,0c2.5,0,4.3,0.4,7.3,1.6
				c2.3,0.9,2.4,0.5,0.1-0.8c-2.3-1.3-4.7-2.1-7.4-2.4c-2-0.2-2.7-0.2-4.5,0.3c-2.5,0.7-2.3,0.3,0.3-0.6c2-0.7,6.6-1,9.4-0.5
				c1.3,0.2,1.3,0.2,0.8-0.2c-0.7-0.6-4-1.6-6.2-1.9l-1.5-0.2l0.9-0.4c0.6-0.3,1.6-0.4,3.5-0.2c1.7,0.1,2.6,0.1,2.6-0.1
				c0-0.2-0.3-0.4-0.6-0.5c-0.3-0.1,0.2-0.2,1.2-0.2c2.3,0,5.9,0.9,8.5,2.2C435,114.5,440.1,123.7,438.7,132.5z M453.1,111.7
				c-0.5,1.2-1,2.2-1,2.2c-0.1,0-9.4-5.4-20.7-12.1c-14.6-8.6-20.6-12.2-20.6-12.6c0-0.3,0.1-0.5,0.3-0.5c0.5,0,15.8,8.1,23.8,12.6
				c1,0.6,1.8,0.9,1.9,0.9c0.1-0.1-2.7-1.9-6.1-4c-3.4-2.1-9-5.7-12.4-7.9c-3.4-2.2-6.3-4.1-6.4-4.1c-0.3-0.1,2.6-8.4,3.3-9.4
				c0,0,1.4,0.5,3,1.2c1.6,0.7,3.1,1.2,3.1,1.1c0.1-0.1-0.4-0.6-1.1-1.1c-0.7-0.5-1.8-1.5-2.7-2.3l-1.4-1.3l1-2.1
				c0.6-1.2,1.1-2.2,1.3-2.3c0.5-0.3,12.1,6.3,18.5,10.6c3,2,5.7,3.6,5,2.9c-0.4-0.4-6.4-4.6-9.2-6.5c-3.7-2.5-12-8.5-12.5-9.1
				c-0.4-0.4-0.3-0.7,0.5-2.2c0.5-1,1.1-1.6,1.3-1.5c0.2,0.1,4.9,2.9,10.3,6.3c20.6,12.7,32.1,19.8,32.2,19.9c0,0.1-0.7,1.3-1.6,2.7
				c-0.9,1.4-2.5,4-3.4,5.7c-1,1.7-1.9,3.2-2,3.3c-0.3,0.3-2-0.6-6.4-3.6c-5.1-3.4-17.3-10.6-16.3-9.6c0.2,0.2,4.2,2.9,8.9,6.1
				c8.5,5.7,12.8,8.7,12.8,9c0,0.1-1.9,3.9-2,4.1c-0.1,0.1-1.3-0.5-2.7-1.3c-2.6-1.4-3.5-1.6-1.6-0.3c0.6,0.4,1.6,1.2,2.3,1.9
				l1.3,1.2L453.1,111.7z M462,119.9c-1.1,3.1-2.2,5.9-2.5,6.4c-0.4,0.7-0.4,0.7-0.3-0.6c0.4-2.6,2.3-9.4,3.4-12.2
				c0.6-1.5,2.5-5.5,4.2-8.9c3.5-7,3.2-6.9-0.9,0.1c-4.5,7.7-5.7,10.9-8.1,20.3c-0.7,2.9-1.4,5.3-1.6,5.3c-1.2,0,2.1-12.9,5-20.2
				c1.6-3.8,0.8-2.9-1.7,2.1c-1.8,3.6-3.6,8.4-4.2,11.4c-0.6,2.6-0.9,2.8-0.9,0.4c0-4.5,1.4-8.8,5.4-16.9
				c11.9-23.9,32.4-44.4,48.5-48.6c5.2-1.4,9.7-0.8,12.9,1.6c1.3,0.9,2.9,3.4,3.7,5.4l0.5,1.4l-1.1-1.4c-2.8-3.4-4.8-4.6-8.3-5.3
				c-3.8-0.7-9,0.6-15.5,3.8c-4.3,2.1-4.5,2.3-4.4,3.1c0.1,0.8-0.2,1.1-3.3,3.4c-3.8,2.8-8.4,7.3-11.5,11.4c-1.1,1.5-2,2.8-2,2.8
				c0.1,0.1,2.3-2.1,5-4.8c4.3-4.3,8.6-8,8.9-7.7c0.1,0.1-2.1,2.4-4.7,5.2c-3,3.2-6.4,7.2-9.2,10.9
				C470.1,100.8,466.6,107.1,462,119.9z M479.8,129.3c-0.7,1.9-1.8,5.1-2.3,7c-1.2,4.3-1.4,3.8-0.3-1.2c1.5-6.9,3.8-13.6,7.5-20.8
				c0.9-1.8,1.5-3.2,1.4-3.1c-1.1,1.1-7,12.7-8.9,17.7c-0.8,2.1-1.6,4-1.8,4.2c-0.2,0.2-0.2,0.1-0.1-0.1c0.1-0.3,0.6-2.3,1.1-4.5
				c0.5-2.2,1.7-5.9,2.7-8.3c0.9-2.3,1.6-4.3,1.6-4.4c-0.2-0.2-3.4,5.6-4.3,7.7c-1,2.3-2.9,8.2-3.2,9.8c-0.4,2.1-0.6,1.5-0.4-0.9
				c1.2-11.7,7.5-26,16.1-36.6c4.6-5.7,11.5-11.8,16.9-14.8c3.2-1.8,3.8-1.9,1.6-0.3c-2.6,2-6.2,5.4-6,5.6c0.1,0.1,1.1-0.4,2.3-1.1
				c2.5-1.5,8.6-4.5,9.7-4.8c0.4-0.1-0.3,0.5-1.5,1.4c-3.9,2.7-6.9,5.4-10.5,9.4c-5.1,5.7-5.9,6.6-5.8,6.7c0.1,0.1,1.6-1.3,3.5-3
				c6.9-6.3,11.5-9.7,6.4-4.7c-5.8,5.7-10.1,10.9-14.5,17.5C486.7,114.2,482.2,122.9,479.8,129.3z M502.6,147.1
				c-1.5,4.4-3.1,11.2-3.1,13.4c0,1-0.5,2.9-0.6,2.3c0-0.1-0.3-1.7-0.5-3.4c-0.5-3.1-0.5-10.3,0.1-14.1c0.1-0.9,0.1-1.5-0.1-1.5
				c-0.2,0-0.5,0.7-0.8,1.5c-1.9,5.4-2.1,5.7-1.3,1.3c1.1-5.6,2.5-11.7,3.6-14.7c1-2.8,2.1-7.2,1.9-7.2c-0.2,0-0.7,1-3,6.5
				c-1.9,4.6-2.6,6.1-4.2,10.4c-0.8,2.1-1.5,3.7-1.6,3.7c-0.3-0.3,0.6-4.1,1.6-7.3c0.6-1.8,1.1-3.8,1.2-4.6l0.2-1.4l-0.9,1.9
				c-0.5,1.1-1.3,3.1-1.8,4.5c-0.5,1.4-1.2,3.5-1.7,4.7c-0.5,1.2-1.4,3.9-2.1,6.2c-0.7,2.2-1.4,4.3-1.7,4.5
				c-0.6,0.5-0.6,1.1,0.7-5.7c0.4-2.4,1.1-5.3,1.4-6.6c0.3-1.3,0.6-2.6,0.6-3.1l0-0.8l-0.5,0.9c-0.5,0.9-2,4.7-3.5,9
				c-0.5,1.3-0.9,2.3-0.9,2.2c0-0.1,0.3-2.2,0.8-4.6c0.9-5.1,2.1-9.5,3.8-14.3c0.7-1.9,1.2-3.6,1.1-3.7c-0.1-0.1-0.9,1.3-1.7,3.1
				c-2.9,6.1-4.6,10-4.8,10.7c-0.1,0.4-0.3,0.6-0.3,0.6c-0.1-0.1,2-7,3.7-11.8c0.6-1.7,2-5.1,3.1-7.5c1.1-2.4,2-4.5,1.9-4.6
				c-0.1-0.1-4.3,6.4-6.1,9.6c-0.6,1-1.4,2.7-1.9,3.8c-1,2.4-1.1,1.7-0.3-1.5c1.1-4.2,4.8-11.5,9.7-18.9
				C505.3,94,520,81.4,532.9,77.7c5.2-1.5,11.4-1.3,14.9,0.5c2,1,5.6,4.4,5.2,4.8c-0.1,0.1-0.8-0.4-1.6-1c-3.3-2.6-6.3-3.5-11.5-3.6
				c-3.2,0-3.8,0.1-6.6,1c-1.7,0.6-4,1.5-5.1,2c-4.2,2.1-11,6.6-10.3,6.8c0.2,0.1,1.3-0.3,2.6-0.8c1.2-0.5,2.3-0.9,2.4-0.8
				c0.1,0.1-0.6,0.7-1.5,1.4c-1.9,1.5-7.8,7.7-7.5,7.9c0.1,0.1,1.1-0.6,2.3-1.6c3.1-2.4,12.2-7.8,12.5-7.5c0.1,0.1-1.2,1.1-2.7,2.2
				c-1.6,1.1-4.1,3.3-5.6,4.8c-3.1,3-9.1,9.9-9.1,10.4c0,0.2,0.1,0.2,0.2,0c0.3-0.4,7.7-6.7,9.9-8.5c0.8-0.6,2.3-1.8,3.5-2.6
				c2-1.4,1.8-1.1-3.6,4.5c-5.3,5.5-7.5,8.2-9.4,11.5c-0.8,1.3-0.9,2.2-0.3,1.8c0.2-0.1,1.5-1.5,2.8-3c3.2-3.6,7.5-8.1,8.2-8.5
				c0.3-0.2-0.6,1.2-2.1,3c-2.9,3.7-7.1,10.1-8.3,12.9c-0.4,1-1.4,2.9-2.2,4.2c-1.3,2.3-1.6,3.3-1.2,3.8c0.1,0.1,0.8-0.8,1.4-2
				c1.6-2.9,2.8-4.5,8.1-10.7c5-5.9,9.2-10,13.4-13.3c6.9-5.4,10.9-7.4,15.6-7.6l2.8-0.1l-2.3,0.7c-3.1,1-5.4,2.1-8.6,4.2
				C525.4,103.8,509.4,126.8,502.6,147.1z M540.6,130.2c-2.2,1.6-6.2,6-8.5,9.2c-2.7,3.8-3.1,4.2-3.1,3.8c0-0.5,5.5-8.6,7.4-11
				c2.3-2.9,5.5-5.8,8-7.4c1.9-1.2,2.4-1.8,2.4-2.6c0-0.9-6.5,3.6-10.4,7.3l-2.3,2.2l1-1.7c2.4-4,5.7-7.5,10.1-10.4
				c1.8-1.2,2.6-1.9,2.6-2.3c0-0.3-0.1-0.6-0.2-0.6c-0.1,0-1.1,0.5-2.3,1.1c-2.4,1.2-6.5,3.9-8.6,5.7c-0.7,0.6-1.4,1.1-1.5,1.1
				c-0.6-0.6,9.2-9.4,12.5-11c0.6-0.3,1-0.8,1.1-1.3c0.1-0.4,0.1-0.8,0.1-0.8c-0.3,0-5.3,3-7.1,4.2c-3.1,2.1-7.9,7.1-10.9,11.3
				c-1.4,2-2.7,3.6-2.8,3.6c-0.4,0,0.4-1.3,4.1-6.7c3.3-4.8,7.2-9.1,10.2-11.1c4.8-3.2,9.2-5.2,9.8-4.3c0.7,1.1,0,5.3-1.8,10.9
				c-0.6,1.9-1.2,3.6-1.3,3.7c-0.1,0.2-0.2,0.5-0.2,0.6c0,0.2-0.6,1.5-1.3,3c-0.7,1.5-1.3,2.8-1.3,2.9c0,0.1-0.9,1.7-1.9,3.6
				c-2.6,4.6-5.9,9.5-9.3,13.8c-1.6,1.9-3.2,3.9-3.7,4.3c-1,0.9-0.9,0.8,1.8-2.8c2.5-3.2,4.6-6.4,6.6-9.9c1.8-3.1,5.4-10.6,5.3-10.7
				C544.8,127.6,542.3,129,540.6,130.2z M524.4,146.2c-0.6,1.4-1.5,3.5-2,4.5c-0.5,1-1.3,3.6-1.8,5.8c-1,3.9-1.4,4.4-1.4,1.7
				c0-1.8,0.9-6.2,1.6-8.2c1.4-3.7,10.4-18.3,10.9-17.8c0.1,0.1,0,0.3-0.1,0.6C530.9,133.6,525.5,143.8,524.4,146.2z M526.4,148.6
				c-0.9,2.3-2,5.3-2.3,6.5c-0.4,1.3-0.7,2.4-0.8,2.5c-0.4,0.4,0-3.8,0.4-4.8c1-2.5,3.9-8.5,4.1-8.5
				C527.9,144.4,527.3,146.3,526.4,148.6z M510.2,157.6c-0.3,1-0.2-0.9,0.3-3.3c1.7-8.9,9.1-24,15.9-32.2c3.1-3.7,7.8-8.7,10.6-10.9
				c2.7-2.2,10.7-7.1,12.4-7.6c0.8-0.2,0.6,0-4.9,3.5c-3.1,2-7.3,6.1-12,11.7c-4,4.8-5.6,6.8-9.6,12.8c-5.3,7.8-7.5,12.1-10.5,20.2
				C511.2,154.8,510.3,157.4,510.2,157.6z M514.2,163.5c-0.1,0.4-0.1-0.6-0.1-2.2c0.1-2.7,0.2-3.2,1.7-6.9c1.8-4.4,4-9,4.2-8.8
				c0.1,0.1-0.1,0.6-0.4,1.2c-1.2,2.4-3.6,8.9-4.4,12.2C514.7,161.1,514.2,163.1,514.2,163.5z M554.4,118c-3.8,12-11.8,26.5-20,36.4
				c-3.5,4.2-9.2,8.8-14,11.2c-1.9,1-3.3,1.6-3.3,1.4c0-0.1,1-0.7,2.1-1.5c3.4-2.3,7.5-5.8,10.3-9.1c11.5-13.1,19.3-25.6,24.9-40.2
				C556.1,112.1,556.1,112.8,554.4,118z"/>
			<path class="st1" d="M431.8,124.2c-0.8-1.5-1-2-0.5-2c0.4,0,1.2,1.3,1.4,2.4C433,126,432.8,125.8,431.8,124.2"/>
			<path class="st1" d="M434.3,121.7c-0.8-1.3-2.3-3.4-3.3-4.7c-1-1.3-2-2.5-2.1-2.7c-0.2-0.2-0.2-0.4,0-0.4c0.6,0,3.7,3.1,5,5
				c1.1,1.7,2.4,4.8,2.1,5.1C435.8,124,435.1,123,434.3,121.7"/>
			<path class="st1" d="M425.8,120.4c-1.8-1.8-2.3-2.6-1.9-2.6c0.4,0,2.8,2.1,3.5,3.1C428.4,122.5,427.4,122.1,425.8,120.4"/>
			<path class="st1" d="M422.5,114.7c-2.6-1.9-3-2.7-0.7-1.5c2,1,4.5,3.4,3.6,3.4C425.2,116.7,423.9,115.8,422.5,114.7"/>
			<path class="st1" d="M421.3,110.5c-2.6-1.5-2.7-1.6-1.4-1.3c1.2,0.2,3.4,1.4,4,2.1C424.7,112.1,423.7,111.8,421.3,110.5"/>
			<path class="st1" d="M472,93.9c0-0.4,4-5.3,4.3-5.3c0.5,0-0.1,0.9-1.9,2.9C472.5,93.9,472,94.3,472,93.9"/>
			<path class="st1" d="M404.9,78.4c0-1.5,3.7-9.6,4.2-9.1c0.1,0.1-1.1,3.1-3.8,9C404.9,79.2,404.9,79.2,404.9,78.4"/>
			<path class="st1" d="M412.9,67.4c0-0.2,0.1-0.4,0.3-0.5c0.2-0.1,0.3-0.1,0.3,0.1c0,0.2-0.1,0.4-0.3,0.5
				C413,67.6,412.9,67.6,412.9,67.4"/>
			<path class="st1" d="M415.6,62.6c0-0.4,1.9-3.6,3.7-6.3c1.8-2.6,3.9-5,3.6-3.9c-0.2,0.7-2.8,4.5-5.2,7.8
				C415.6,63,415.6,62.9,415.6,62.6"/>
			<path class="st1" d="M420.9,51.4c0-0.3,2.5-3.6,4-5.3c1.4-1.6,1.2-0.4-0.2,1.3C422.8,49.6,420.9,51.6,420.9,51.4"/>
			<path class="st1" d="M392.9,71.6c0.4-1.7,1.6-4.2,1.7-3.6c0.1,0.4-1.4,4.5-1.8,4.8C392.7,72.8,392.7,72.3,392.9,71.6"/>
			<path class="st1" d="M397,67.1c0.1-0.3,0.5-1.5,0.9-2.6c0.7-2.1,2.7-5.9,3.2-6.2c0.4-0.3-0.4,1.8-2.1,5.4
				c-0.9,1.8-1.6,3.4-1.6,3.6c0,0.2-0.2,0.4-0.4,0.4C396.9,67.6,396.9,67.4,397,67.1"/>
			<path class="st1" d="M400.7,64.1c0.4-1.9,3.6-7.8,6.3-11.9c1.6-2.3,3-4.4,3.3-4.6c0.9-0.7,0.5,0.6-0.6,2.1c-2,2.7-5.5,8.5-7,11.4
				C400.9,64.7,400.4,65.4,400.7,64.1"/>
			<path class="st1" d="M407.9,47.5c1-1.8,4.5-6.6,4.8-6.6c0.6,0,0,0.9-2.3,3.8C407.5,48.2,407.4,48.3,407.9,47.5"/>
			<path class="st1" d="M409.5,41.9c0-0.7,5-6.3,5.6-6.3c0.5,0-1.5,2.6-3.6,4.6C410.4,41.3,409.5,42.1,409.5,41.9"/>
			<path class="st1" d="M379.9,61c0-1.1,2.8-5.6,3.5-5.7c0.3,0-2.4,5.2-3.1,5.8C380,61.6,379.9,61.5,379.9,61"/>
			<path class="st1" d="M377.6,59.8c1.5-2.6,2.9-4.6,2.9-4.1c0,0.8-2.7,5.4-3.3,5.5C376.8,61.2,376.9,61,377.6,59.8"/>
			<path class="st1" d="M383,61c0-0.4,2.6-5.3,3.5-6.5c1.3-1.8,1.7-1.7,0.7,0.1c-0.5,0.8-1.5,2.6-2.2,4C383.7,60.8,383,61.7,383,61"
				/>
			<path class="st1" d="M387,58.1c0-0.8,4.2-7.7,4.7-7.7c0.1,0,0.1,0.3-0.2,0.7c-0.2,0.4-1.3,2.2-2.4,4
				C387.3,58.3,387,58.7,387,58.1"/>
			<path class="st1" d="M391,54.8c0-0.5,5.3-9.1,7.7-12.4c1.4-1.9,3.1-4.1,3.9-4.9c1.3-1.2,1.4-1.3,0.6-0.3
				c-2.1,2.7-7.1,10.1-9.4,13.8C391.3,54.9,391,55.3,391,54.8"/>
			<path class="st1" d="M391.3,47.8c0-0.4,3.3-4.9,4.9-6.7c2-2.3,1.4-0.7-0.7,2C393,46.3,391.3,48.2,391.3,47.8"/>
			<path class="st1" d="M397.5,47.6c0-0.3,0.5-1.3,1.2-2.2c1.3-2,5-6.3,5.4-6.3c0.2,0-5.2,7.6-6.1,8.6C397.5,48,397.5,48,397.5,47.6
				"/>
			<path class="st1" d="M395.2,39.5c3.6-4.8,10.4-11.7,11.6-11.7c0.1,0-0.8,0.9-2,2.1c-1.3,1.1-3.9,3.8-5.9,6
				c-2,2.2-3.7,3.9-3.8,3.9C395,39.9,395,39.7,395.2,39.5"/>
			<path class="st1" d="M400.6,36.2c0.5-1,6.1-6.6,6.3-6.4c0.1,0.1-1.1,1.6-2.8,3.3c-1.7,1.7-3.1,3.3-3.1,3.4
				c-0.1,0.2-0.2,0.3-0.4,0.3S400.4,36.6,400.6,36.2"/>
			<path class="st1" d="M404.7,27.2c3.4-3.3,6.6-5.9,6.6-5.5c0,0.4-8.7,8.2-9.3,8.3C401.8,30.1,403,28.8,404.7,27.2"/>
			<path class="st1" d="M404.9,24.9c1.4-1.6,6.5-6,6.7-5.8c0.2,0.2-0.9,1.4-4.1,4.2C404.6,25.7,403.5,26.5,404.9,24.9"/>
			<path class="st1" d="M405.6,22c0.2-0.4,5.5-5.2,5.8-5.2c0.6,0-0.1,0.7-2.5,2.8C405.9,22.2,405.4,22.6,405.6,22"/>
			<path class="st1" d="M463.9,68.1c-1.3-0.8-2.8-1.6-3.2-1.9c-0.4-0.3-4.4-2.8-8.8-5.6c-7.3-4.6-14.8-9.8-14.5-10.1
				c0.2-0.2,3.6,1.7,8.9,5.1c5.6,3.6,20.6,13.7,20.6,13.9C466.8,69.7,466.2,69.4,463.9,68.1"/>
		</g>
		<g>
			<path class="st1" d="M420.5,524.5c-4.7-0.3-10.8-1.1-14.9-1.8c-3-0.6-4.6-1.2-2.2-0.8c5.9,0.9,18.2,1.4,32.2,1.4
				c6.3,0,11.6,0.1,11.7,0.1c0.2,0.2-2,0.8-4.8,1.1C439.4,524.9,426.3,524.9,420.5,524.5"/>
			<path class="st1" d="M401.1,521.6c0.2-0.1,0.5-0.1,0.6,0c0.1,0.1-0.1,0.2-0.4,0.1C400.9,521.7,400.8,521.7,401.1,521.6"/>
			<path class="st1" d="M467.7,518.7c0-0.1,2.2-0.7,4.8-1.3c5.5-1.4,17.1-5.2,21.9-7.2c10.8-4.6,22.6-11.2,31.8-17.7
				c2.3-1.6,5.3-3.8,6.7-4.7c1.4-1,3.7-2.8,5.1-4c6.7-5.9,6.7-5.2-0.1,1.5c-9.7,9.6-23.1,18.1-38.6,24.9c-5.1,2.2-8.9,3.5-16.3,5.6
				C476.1,517.7,467.7,519.4,467.7,518.7"/>
			<path class="st1" d="M374,514.6c-6.9-2.7-13.4-5.9-21-10.3c-15.9-9.3-21.8-13.9-35.7-27.4c-2.1-2.1-3.7-3.8-3.5-3.8
				c0.2,0,2.5,1.9,5.1,4.3c16.6,15.1,36.9,28.7,54.1,36.2c2.2,0.9,4.1,1.8,4.1,1.9C377.4,515.8,376.4,515.5,374,514.6"/>
			<path class="st1" d="M402.4,515.4c0.3-0.1,0.7-0.1,0.9,0c0.2,0.1,0,0.1-0.5,0.1C402.3,515.5,402.1,515.5,402.4,515.4"/>
			<path class="st1" d="M394,513.4c-12.8-3.3-20-5.8-29.5-10.2c-5.3-2.5-15.1-8-15.1-8.5c0-0.2,2.1,0.7,10.2,4.7
				c7,3.4,12.6,5.9,18.6,8.1c3.1,1.1,19.6,6.4,22.3,7.1c1.2,0.3,1.8,0.7,0.9,0.6C401.1,515.3,397.8,514.4,394,513.4"/>
			<path class="st1" d="M431.5,510.5c-6.9-0.5-29.5-4.6-30.4-5.5c-0.1-0.1,0.2-0.1,0.6,0c1.5,0.4,14.7,2.4,19.4,3
				c13.4,1.7,22.9,1.5,38.8-1.1c8.6-1.4,19.5-3.9,29.9-6.8c3.2-0.9,17-6,20.6-7.7c0.6-0.3,1.1-0.4,1.2-0.3
				c0.4,0.4-16.9,8.1-21.3,9.5c-13.4,4.3-28,7.4-41,8.7C445,510.6,435.7,510.8,431.5,510.5"/>
			<path class="st1" d="M361.2,491.5c-13.2-6.9-20.1-11.3-28.2-18.1c-6-5-13.3-12.9-17-18.3c-2-3-1.4-2.6,1.5,1
				c8.6,10.5,23,22,42,33.5c3.3,2,6.1,3.8,6.3,3.9C366.6,494.2,365.2,493.5,361.2,491.5"/>
			<path class="st1" d="M334.9,479.7c-5.8-4.1-13.3-10.8-12.8-11.5c0.1-0.2,1.5,0.9,3.4,2.5c1.7,1.6,5,4.4,7.2,6.2
				c2.2,1.9,4.1,3.6,4.2,3.8C337.1,481.2,337.1,481.3,334.9,479.7"/>
			<path class="st1" d="M546.5,480.4c0.1-0.2,1.4-1.6,2.7-3.2c1.4-1.5,2.9-3.3,3.5-4c1.5-1.8,1.5-1.1,0,1.1
				c-1.4,2.1-5.5,6.5-6.1,6.5C546.4,480.8,546.3,480.6,546.5,480.4"/>
			<path class="st1" d="M533,477.7c0-0.7,5-4.8,5.6-4.5c0.5,0.3-0.9,1.7-3.3,3.4C533.4,478,533,478.2,533,477.7"/>
			<path class="st1" d="M549.7,466.4c1.4-2,3.3-4.1,3.8-4.1c0.4,0,0.4,0.1,0.1,0.6c-0.4,0.9-4.3,4.9-4.7,4.9
				C548.9,467.8,549.2,467.2,549.7,466.4"/>
			<path class="st1" d="M306.3,458.9c-3.1-3.6-5.8-7.7-5-7.7c0.4,0,2.2,2.1,4.1,4.8C308.9,461.2,309.3,462.5,306.3,458.9"/>
			<path class="st1" d="M310.4,447.1c-1.2-1.6-3.4-5.1-4.8-7.6c-1.5-2.8-3.6-7.9-3.4-8.4c0.1-0.2,0.9,1.1,1.9,3
				c1.5,2.8,7,12.9,7.5,13.8c0.1,0.1,0,0.2-0.2,0.2C311.3,448.1,310.8,447.7,310.4,447.1"/>
			<path class="st1" d="M289.8,436.9c-1-1.6-3.9-9.6-3.9-10.9c0-1.1,0.6-1.1,1.1,0c0.6,1.4,3.6,11.4,3.5,11.5
				C290.3,437.6,290,437.3,289.8,436.9"/>
			<path class="st1" d="M571.2,379.6c-2.2-5.5-6.3-13.3-9.5-18.5c-1.6-2.4-3.8-6.2-5-8.3c-2.1-3.7-6.5-10.8-7-11.1
				c-0.1-0.1-1.6-1.9-3.3-4.2c-10-13.2-18.2-22.2-26.6-28.9c-19.6-15.7-44.8-26.1-71-29.3c-17.9-2.2-36.5-1.2-53.5,3
				c-11.1,2.7-18.8,5.7-33.5,13.1c-14.5,7.2-20.7,10.9-28.5,17.2c-1.7,1.4-4.6,3.6-6.5,4.9c-16.7,12-29.3,26.3-37.6,42.7
				c-8.5,16.7-12.1,34.4-10.8,52.9c2.4,36.1,24.2,70.6,59.4,94c25.3,16.9,57.1,27.3,88.8,29.2c4.2,0.3,18.4,0.2,22.3-0.1
				c34.7-2.5,64.3-13.5,88.7-32.9c5.2-4.1,14.3-13.2,18.3-18.3c10.6-13.2,17.7-27.8,21.2-43.5C581.4,421.4,579.4,399.7,571.2,379.6z
				 M356.6,303.6c12.3-8.2,27.1-14.4,42.2-17.7c8.3-1.8,8.5-2.2-2.4,5c-5.3,3.5-11.8,7.7-14.3,9.3c-5.4,3.4-4.9,3.1-4.8,3.2
				c0.2,0.2,21.6-12.2,28-16.2c4.1-2.6,5.8-3.4,6.9-3.6c3.5-0.6,11.5-1,18-0.9l6.9,0.1l-3.8,2.4c-7.9,4.9-19.1,11.8-35.4,21.7
				c-27.2,16.6-37.3,22.9-37.3,23.4c0,0.2,0.1,0.1,2.9-1.7c5.9-3.9,47.2-28.1,60.6-35.5c7-3.9,13.8-7.8,15.1-8.6l2.3-1.5l3.3,0.3
				c3.7,0.4,9.5,1.2,10.1,1.4c0.6,0.2-11.6,10.5-12.9,11c-0.2,0.1-0.3,0.2-0.2,0.4c0.4,0.4,12.8-7.1,15.9-9.6c1.1-0.9,1.5-1,2.3-0.9
				c1.2,0.3,6.6,1.6,8.3,2l1.2,0.3l-4,2.7c-2.2,1.5-6.1,4.2-8.8,6c-2.7,1.8-4.7,3.3-4.6,3.3c0.4,0,8.8-4.9,14.7-8.5l4.7-2.9l3.5,1.1
				c6,1.9,15.6,5.8,15.6,6.3c0,0.1-6.6,4.9-14.6,10.6c-26.4,18.9-66.1,48.1-65.8,48.4c0.1,0.1,5.2-3.4,28.6-20.1
				c11.8-8.4,29.1-20.3,43.6-30c3.9-2.6,7.9-5.4,9-6.2l2-1.5l2.7,1.4c1.5,0.8,3.3,1.7,4,2.1l1.3,0.8l-1.9,1.5
				c-1.1,0.8-4.3,3.4-7.2,5.7c-2.9,2.3-6,4.8-7,5.5c-1,0.7-1.7,1.4-1.6,1.5c0.1,0.1,11.9-7.8,17.1-11.5c2-1.4,2.3-1.6,2.9-1.3
				c1.3,0.7,4.8,3,4.8,3.2c0,0.1-2.4,2.4-4.5,4.2c-1.5,1.3-0.5,0.9,3-1.1l3.3-2l3.2,2.4c4.2,3.1,7,5.4,6.9,5.7
				c-0.1,0.2-6.1,5.3-8.5,7.1c-0.9,0.7-1.6,1.3-1.5,1.4c0.1,0.1,10-5.7,11.1-6.5c0.5-0.4,0.6-0.4,1.3,0c0.4,0.3,0.7,0.6,0.7,0.7
				c0,0.5-8.2,6.6-15.5,11.5c-8.5,5.7-18.7,13-18.5,13.2c0.1,0.1,2.5-1.4,5.5-3.3c15-9.8,19.5-12.6,22.9-14.6c2-1.2,4.6-2.8,5.7-3.5
				c1.9-1.2,2-1.2,2.6-0.8c0.4,0.4,0.5,0.6,0.2,0.9c-0.6,0.6-11.2,7.8-20.9,14.2c-32.7,21.6-55.5,36.9-55.4,37
				c0.1,0.1,1.8-0.9,3.8-2.2c2-1.3,9.8-6.2,17.4-10.9c7.5-4.7,20.4-12.9,28.6-18.2c20.4-13.1,23.6-15.3,25.9-17
				c1.1-0.8,2.2-1.5,2.3-1.5c0.7,0,9.7,10.8,9.7,11.7c0,0.1-1.3,1.2-2.9,2.4c-1.6,1.2-2.9,2.2-2.9,2.3c0,0.1,1.6-0.6,3.6-1.5
				c2-0.9,3.6-1.6,3.7-1.6c1,1,7.5,12.6,7.5,13.3c0,0.1-1.1,1.1-2.5,2.3c-1.4,1.1-4.3,3.7-6.6,5.6c-2.2,1.9-5.1,4.3-6.4,5.4
				c-1.3,1-2.3,1.9-2.2,2c0.2,0.2,11.7-7.5,16.1-10.8l2.8-2.1l0.9,2.3c1,2.5,3.1,8.5,3.1,9c0,0.2-2.8,2.5-6.1,5.1
				c-3.3,2.6-8.5,6.6-11.4,8.9c-2.9,2.3-8.4,6.6-12.3,9.5c-3.9,3-12,9.2-17.9,13.9c-6,4.7-11.2,8.8-11.5,9c-0.4,0.3-0.6,0.5-0.5,0.6
				c0.1,0.1,1.9-1.1,4-2.7c2.1-1.5,7.3-5.3,11.6-8.4c10.1-7.3,40.1-29.8,42.8-32l2.1-1.8l0.4,1.3c0.7,2.5,1.6,7.5,1.7,9.8l0.2,2.3
				l-15.7,12.5c-8.6,6.9-20.6,16.3-26.6,20.9c-6,4.6-16.3,12.6-22.8,17.7c-6.5,5.1-13.6,10.6-15.7,12.1c-4,3-5.1,3.9-3.5,3
				c2.7-1.6,9.7-6.8,48.4-36c2.4-1.8,8.7-6.5,14-10.5c9.7-7.2,18-13.7,20.6-16c0.7-0.7,1.4-1.1,1.6-1c0.3,0.3,0.3,11.1,0,12.2
				c-0.2,0.8-6.1,6.2-12.1,11c-3.2,2.6-3.6,3-2.9,2.7c0.4-0.1,11.3-7.5,13.9-9.5c0.6-0.4,0.6-0.4,0.4,1.1c-1.2,8.6-5.3,20.1-10,28.3
				c-17,29.6-49.4,49-89.4,53.6c-4.9,0.6-21.5,0.9-26.5,0.4c-24.5-2-47-9.5-66.3-22.1c-24.3-15.8-41.1-38.8-46.3-63.6
				c-0.9-4.4-1.7-10.6-1.7-13.1l0-1.9l5.3-4.1c2.9-2.2,6.5-4.8,8-5.8c1.5-1,2.6-1.8,2.5-1.9c-0.2-0.2-10.1,5.1-13.4,7.1
				c-1.1,0.7-2.1,1.3-2.3,1.4c-0.4,0.2,0-7.8,0.6-11.6C318.8,341.1,333.7,318.9,356.6,303.6z M306,353.9c2.9-6.5,8.3-15.7,11.2-19
				l0.8-0.9l-0.6,0.9c-1.2,1.9-6,11.3-7.8,15.4c-5.9,13.3-7.9,21.1-8.2,31.9c-0.2,7.3,0.6,16.6,1.8,22c1,4.3,2.5,9.3,3.1,10
				c0.3,0.4,0.3,0.4,0.1-0.1c-0.6-1.7-2.3-11-2.8-15c-0.4-3.5-0.5-6-0.4-11.6c0.2-7.4,0.7-11.6,2.2-18.5c0.9-4,2.7-10,2.8-9.5
				c0.1,0.2-0.2,1.6-0.5,3.2c-1.7,8-2.2,19.8-1.1,27.6c1.9,13.7,5.8,24.8,13.1,37c3,5,4.1,6.4,1.7,2c-8.3-14.7-12.7-28.8-13.6-44.2
				c-0.2-3.8,0.2-10.6,1-15.3c1.2-7.4,2.2-9.9,1.6-4.2c-0.6,6.3-0.7,17.2-0.1,21.7c2.5,21.5,12.6,41.8,29.3,58.6
				c18.2,18.3,42.8,31.1,70.4,36.6c29,5.8,59.2,2.9,85.2-8.2c30.7-13.1,52.8-36.6,61.1-64.8c1.9-6.6,2.8-12.1,3.5-22
				c0.2-3.2,0.2-3.1,0.3,2.8c0.1,13.6-2.2,23.2-9.8,40.8c-0.7,1.6-1.2,3-1.1,3c0.1,0.2,1.6-2.4,3.4-6.1c2.3-4.7,6.1-13.9,7-17
				c1.1-4.2,1-2.1-0.2,3.4c-2.5,11.3-5,17.5-11.4,28c-1.5,2.5-6.9,9.6-10.4,13.6c-3.2,3.7-2.6,3.3,2-1.4c6.9-6.9,10-11.1,14.8-19.4
				c3.9-6.9,6-12.3,7.6-19.4c0.4-1.8,0.8-3.2,0.8-3.1c0.1,0.4-1,5.5-2,8.7c-9.4,31.9-36.3,57.4-73.6,69.8
				c-12.6,4.2-25.4,6.7-39.4,7.6c-4.4,0.3-15.1,0.4-18.6,0.1c-12.5-0.8-23.2-2.5-33.6-5.2c-50.7-13.3-88.2-49.1-95.5-91
				C297.1,386.4,299.2,369,306,353.9z M574.8,425.8c-0.3,9.5-2.8,20.5-6.8,30.4c-12.8,31.5-41,55.9-78.9,68.2
				c-10.5,3.4-21.6,5.7-34.4,7.2c-4.2,0.5-25.1,0.9-28.5,0.6c-0.7-0.1-3-0.3-5.2-0.4c-20.6-1.7-42.7-7.7-61.6-16.9
				c-38-18.3-65.1-49-73.9-83.7c-2.2-8.7-3.1-15.6-3.1-25c0-17.3,4.2-33,12.8-48.1c3-5.3,4.3-7,2-2.6c-4.3,8.2-9.6,22.3-11.1,29.4
				c-0.2,1.2-0.6,3.3-0.8,4.6c-0.2,1.4-0.5,3.8-0.8,5.5c-0.2,1.7-0.6,6.1-0.7,9.9c-0.2,5.5-0.1,7.5,0.3,10.6
				c0.6,4.3,0.8,5.2,1.1,5.2c0.1,0,0.2-0.7,0.3-1.6c0.3-6.5,0.8-14,1-14.5c0.1-0.4,0.3,1.2,0.4,3.8c0.3,6.6,0.7,9.3,2.5,16.6
				c1.8,7.1,4,13.5,6.1,18c1.6,3.2,2.7,5,1.7,2.5c-2.6-6.2-6.1-19-6.7-24.5c-0.4-3.4-0.8-26.1-0.5-25.9c0.1,0.1,0.3,2.5,0.5,5.2
				c1,18,5,31.8,13.4,45.8c2.3,3.9,7.4,11,10.7,14.7c2.7,3.1,4.2,4.2,2.1,1.5c-7.3-9.5-14.1-23.1-18.1-36
				c-1.2-3.8-2.6-10.6-3.3-15.3c-0.8-6.2-1.4-17.7-0.9-17.1c0.1,0.1,0.4,1.8,0.6,3.8c1.9,17,8.8,34.2,19.5,48.6
				c21.1,28.5,56,48.6,95.6,55.1c62.6,10.3,123.8-15.1,148.1-61.5c1.1-2.1,2.4-4.9,3-6.3c0.9-2.2,1.8-3.9,1.4-2.6
				c-4.2,13.1-7.5,19.4-17,32.5c-3.8,5.2-4.1,5.8-2,3.6c2.7-2.8,9.5-11.2,11.7-14.5c4-5.9,8.8-17.1,10.9-25.6
				c1.5-6,3.2-16.3,3.7-22.5c0.1-0.9,0.1,0.9,0,4c-0.3,14.2-4.6,30.7-12,45.7c-1.5,3.1-1.6,3.3-0.7,2.4c1.3-1.5,5.8-8.6,7.2-11.3
				c1.5-2.9,2.8-6.4,3.9-9.8c1.1-3.5,0.9-1.5-0.4,3.4c-2,7.7-5.9,18-9,23.8c-1,1.9-1.8,3.5-1.7,3.6c0.1,0.1,0.9-1,1.9-2.4
				c0.9-1.4,2.7-4,3.9-5.8c5.7-8.4,10-21,11.7-34.2C574.9,422,574.9,422.2,574.8,425.8z"/>
			<path class="st1" d="M438.1,495.8c-3.1-0.2-7.6-0.5-9.9-0.7c-4.1-0.4-4-0.4,7.2-0.4c12.3,0,17.9-0.3,26.5-1.5
				c5.7-0.8,16.3-2.9,22.8-4.5c6.7-1.6,5.5-0.8-2.1,1.4c-9.1,2.6-15.3,4-22.2,4.9c-3.8,0.5-13.2,1.1-15.4,1.1
				C444.4,496.1,441.3,496,438.1,495.8"/>
			<path class="st1" d="M401.7,491.6c-8.6-1.8-16.6-4.3-24.2-7.7c-3.5-1.5-14-6.8-14-7c0-0.2,0.8,0.1,4.5,1.8c1.7,0.8,3.8,1.7,4.8,2
				c0.9,0.4,4.4,1.8,7.6,3.1c8.7,3.6,14.2,5.4,24.6,7.7c0.9,0.2,1.6,0.5,1.5,0.6C406.3,492.6,406.7,492.6,401.7,491.6"/>
			<path class="st1" d="M443.3,489.8c-0.5-0.2,0.1-0.3,2.3-0.3c8.7-0.1,23.1-2.2,31.4-4.7c7.6-2.2,20-6.8,25-9.2
				c2-1,5.8-3.1,8.4-4.6c6.2-3.7,9.3-5.4,9.5-5.2c0.5,0.5-12.3,8.5-18.2,11.3c-3.6,1.7-14.3,5.9-20,7.8c-5.7,1.8-11.3,3.1-20.4,4.3
				C456.4,489.8,444.7,490.2,443.3,489.8"/>
			<path class="st1" d="M413.1,488.9c-2.9-0.3-9.7-1.5-12.6-2.1c-5.8-1.4-20.1-6.5-24.6-8.7c-2.2-1.1-7.3-4.2-7.1-4.3
				c0.1-0.1,2.3,0.9,5,2.1c4.7,2.2,16.2,6.5,23.1,8.7c5,1.6,8,2.3,14.6,3.5C416.9,488.9,417.6,489.3,413.1,488.9"/>
			<path class="st1" d="M520.3,471.6c0.8-0.7,10.9-8.4,11.1-8.4c0.1,0,0.1,0.2,0.1,0.4c0,0.6-3.5,3.4-7.7,6.2
				C520.4,472.1,519,472.8,520.3,471.6"/>
			<path class="st1" d="M348.4,467.9c-1.4-0.6-13.1-9.4-16.3-12.3c-4.2-3.9-12.2-13.7-16-19.9c-2.8-4.5-7.8-14.6-7.3-15
				c0.1-0.1,1,1.6,2.2,3.8c3.7,7,9.2,15,15.4,22.5c4.5,5.3,11.5,12.2,17.7,17.1c2.6,2.1,4.8,3.8,4.9,3.9
				C349.2,468.2,349,468.2,348.4,467.9"/>
			<path class="st1" d="M356.3,467c-7.4-4.1-16.2-11.4-23.4-19.3c-4.8-5.3-5.7-6.7-1.9-2.8c5.2,5.3,20.1,17.8,25.8,21.5
				c1,0.6,1.8,1.2,1.8,1.3C358.6,468,357.7,467.7,356.3,467"/>
			<path class="st1" d="M530.6,456.5c0-0.6,2.5-2.9,3.1-2.9c0.6,0,0.1,1-1,2C531.5,456.7,530.6,457.1,530.6,456.5"/>
			<path class="st1" d="M536.1,450c0.2-0.3,1.8-2.1,3.6-4.1c1.8-2,4.1-4.5,5-5.6c1.8-2.2,2.4-2.5,1.3-0.7
				c-2.1,3.6-8.7,10.9-9.7,10.9C535.9,450.6,535.9,450.5,536.1,450"/>
			<path class="st1" d="M436.7,476.9c-0.5-0.1-2.7-0.2-4.8-0.4c-7.9-0.7-17.8-2.4-26.4-4.6c-7.6-2-20.6-6.6-27.4-9.8
				c-5-2.4-13.3-7-17.6-9.8c-2.2-1.5-4.4-2.8-4.8-3c-0.4-0.2-0.9-0.6-1.1-0.8c-0.1-0.2-1.6-1.6-3.3-2.9c-1.7-1.4-4-3.3-5.1-4.3
				c-1.1-1-3.8-3.5-6.1-5.5c-2.2-2-4.2-4-4.4-4.3c-0.4-0.8-0.9-1.1,4.7,3.3c2.3,1.8,4.3,3.5,4.5,3.6c0.2,0.2,2-0.7,5-2.3
				c2.6-1.4,4.6-2.5,4.6-2.3c-0.1,0.1-1,1-2.2,1.9c-1.1,0.9-2.8,2.3-3.6,3.1l-1.6,1.5l0.7,0.5c0.4,0.3,2.2,1.6,4.1,2.9l3.4,2.4
				l2.3-1.6c1.3-0.9,4.9-3.5,8.1-5.8c3.1-2.3,8.4-6,11.7-8.3c3.3-2.3,8.1-5.5,10.6-7.3c2.5-1.7,4.7-3.1,4.8-3c0.1,0.1,0.1,0.2,0,0.3
				c-5.5,4.2-8,6.2-12.9,10.2c-3.3,2.7-8.3,6.7-11.1,8.9c-6.2,4.8-10.2,8.2-10.2,8.5c0,0.4,8.5,5.5,9.2,5.5c0.2,0,0.9-0.4,1.6-0.9
				c1.7-1.1,7.8-4.7,8.1-4.7c0.1,0-1.3,1.5-3.2,3.3c-1.9,1.8-3.4,3.4-3.4,3.7c0,0.4,5.9,3.3,10.1,5l1.9,0.8l1.5-1
				c0.8-0.6,4.6-3.5,8.5-6.6c11.7-9.2,30.7-23.6,27.9-21.2c-0.8,0.7-8.4,7-17,13.9c-8.6,7-16.3,13.4-17.2,14.2l-1.7,1.5l1.1,0.5
				c0.6,0.2,3.2,1.2,5.9,2.1l4.8,1.6l2.1-1.6c1.2-0.9,4.3-3,6.9-4.7c2.6-1.7,5-3.4,5.3-3.6c0.3-0.3,0.6-0.4,0.7-0.3
				c0.1,0.1-4.5,4.3-10.1,9.2c-0.9,0.8-1.6,1.5-1.7,1.7c-0.1,0.4,2.1,1.1,8.1,2.5l4.6,1.1l1.7-1.6c2.3-2.2,5-4.4,13.7-10.8
				c13.9-10.3,38.7-29.1,45.3-34.2c4.7-3.7,5.1-4,5.1-3.8c0,0.4-18.3,15-34.5,27.6c-8,6.2-17.9,14.3-25.5,20.9
				c-2.3,2-2.8,2.5-2.3,2.7c0.7,0.3,9.9,1.8,10.8,1.8c0.4,0,1.6-0.6,2.6-1.3c3.2-2.2,9.5-6.2,9.6-6c0.1,0.1-1.2,1.3-2.9,2.8
				c-1.6,1.5-3.5,3.2-4.2,3.9l-1.2,1.2l1.9,0.2c4.8,0.5,9.6,0.8,12.7,0.8c3.2,0,3.3,0,4.8-1c3-2.1,24.8-18.3,29.1-21.6
				c1.4-1.1,2.6-1.9,2.7-1.9c0.1,0.1-0.2,0.4-0.6,0.7c-0.4,0.3-4.3,3.6-8.7,7.2c-4.4,3.6-10.6,8.8-13.9,11.4c-3.3,2.6-6,4.8-6,5
				c0,0.2,2.1,0.1,8.8-0.5l4-0.4l2.1-1.7c2.1-1.7,10.6-7.7,12.3-8.7c1.1-0.7,0.7-0.3-5.8,5.6c-2.3,2.1-4.2,3.9-4.1,4
				c0.4,0.5,16.6-3.1,21.6-4.7c3.6-1.2,15.7-5.9,18.3-7.1c1.3-0.6,2.7-1.3,3-1.4l0.6-0.3l-0.6,0.5c-2.2,1.7-18.6,8.9-27.4,11.9
				c-9.8,3.4-20.1,5.3-32.8,6.1C448.2,477.1,438.8,477.1,436.7,476.9"/>
			<path class="st1" d="M423.2,421.7c0.2-0.1,1.5-1.1,2.9-2.2c1.4-1.1,6.6-5.1,11.6-8.9c4.9-3.8,13.9-10.7,19.9-15.3
				c44.1-33.4,49.3-37.3,52.8-39.8c3.7-2.6,6.9-4.5,7.1-4.3c0.1,0.1-1.2,1.2-2.9,2.4c-1.6,1.2-4.5,3.4-6.2,4.9
				c-8.8,7.2-24.3,19.2-34.7,26.7c-2.6,1.8-10.6,7.7-17.9,13.1c-21.5,15.8-32.3,23.7-32.7,23.7C423,421.9,423,421.8,423.2,421.7"/>
			<path class="st1" d="M372.2,404.2c0-0.1,0.9-0.7,1.9-1.4c1.1-0.7,8.1-5.9,15.6-11.6c21.8-16.2,42.8-31.3,56.9-40.9
				c9.3-6.3,15.3-10.6,20-14.1c5-3.8,6.4-4.6,4.5-2.8c-4.5,4.3-16.2,13-32.8,24.6c-8.6,6-45.3,31.9-54.2,38.2
				C374.5,403.1,372.2,404.7,372.2,404.2"/>
			<path class="st1" d="M372,356.4c31.7-21.1,53.5-35.2,53.5-34.5c0,0.6-19.7,14.3-31.3,21.7c-21.9,14-43,27.2-43.5,27.2
				C350.5,370.8,360.1,364.3,372,356.4"/>
			<path class="st1" d="M569.3,432c-0.1-0.3-0.2-0.2-0.2,0.2c0,0.3,0.1,0.5,0.1,0.4C569.4,432.5,569.4,432.3,569.3,432"/>
		</g>
	</g>
</g>
<g>
	<g>
		<path class="st1" d="M548.8-202.8c3.2,0,3.2-5,0-5C545.6-207.8,545.6-202.8,548.8-202.8L548.8-202.8z"/>
	</g>
</g>
</svg>
