<?xml version="1.0" encoding="utf-8"?>
<!-- Generator: Adobe Illustrator 23.0.0, SVG Export Plug-In . SVG Version: 6.00 Build 0)  -->
<svg version="1.1" id="Layer_1" xmlns="http://www.w3.org/2000/svg" xmlns:xlink="http://www.w3.org/1999/xlink" x="0px" y="0px"
	 viewBox="0 0 283.9 394.5" style="enable-background:new 0 0 283.9 394.5;" xml:space="preserve">
<style type="text/css">
	.st0{fill:#FFF7E3;}
</style>
<g>
	<path class="st0" d="M141.6,62c53.1,0,108-10.3,108-27.5S194.7,7,141.6,7s-108,10.3-108,27.5S88.5,62,141.6,62z M141.6,23
		c9.2,0,18.1,0.3,26.5,0.8L115.4,58l0.2,0.3c-16.2-1-30.5-2.8-42.3-5.3l49-29.6C128.4,23.1,134.9,23,141.6,23z M76.4,25.6l-0.3-10.1
		c12.4-2.4,27.3-4.2,44.2-5l0.3,10C103.8,21.2,89.1,22.9,76.4,25.6z M116,23.7L69.3,51.9l0.2,0.3c-12.8-2.9-22.3-6.5-27.7-10.3
		C57.1,31.7,82,25.6,116,23.7z M120.1,58.5l53-34.4c17.7,1.3,33.5,3.6,46.4,6.9l-32.7,25.2l0.2,0.3c-13.4,1.5-28.7,2.4-45.4,2.4
		C134.1,59,126.9,58.8,120.1,58.5z M243.5,40.1c-6.9,6.4-25.2,12.4-51.4,15.8l31-23.9C231.3,34.3,238.2,37,243.5,40.1z M173.9,21.1
		l0.2-9.9c19,1.5,35,4.2,47.1,7.5l-0.1,9.5C208,24.8,192,22.4,173.9,21.1z M246.6,34.5c0,1.1-0.4,2.2-1.1,3.3
		c-5.6-3.4-12.8-6.3-21.5-8.7l0.1-9.4C238.5,24,246.6,29.3,246.6,34.5z M171.1,11l-0.1,9.9c-9.3-0.6-19.1-0.9-29.3-0.9
		c-6.2,0-12.2,0.1-18,0.3l-0.3-10c5.9-0.2,12-0.4,18.3-0.4C152,10,161.9,10.4,171.1,11z M73.1,16.1l0.3,10.2
		C59.2,29.5,47.8,34,39.3,39.8c-1.8-1.8-2.7-3.5-2.7-5.3C36.6,27.8,50.1,20.9,73.1,16.1z"/>
	<path class="st0" d="M283.2,146.9c-1.1-13.7-2.6-14.6-3.5-15.1c-1.2-15.3-3-28.8-5.7-44.2c1.6-2.7,2.3-5.5,1.8-8.3
		c0-0.2-2.2-12-5.1-20.8c0,0,0,0,0-0.1l0,0c-1.4-4.5-3-8.1-4.6-9.1c-0.3-0.2-0.7-0.2-1-0.2c-1.9-6.5-4-12.6-6.1-18.1
		C253.5,13.4,203.9,0,141.6,0C78.5,0,28.5,13.8,23.9,31.8c-0.9,1.6-3.5,7.1-6.9,20.9C9.7,57.5,7.4,77.8,7.4,78
		c-0.3,3.3,0.7,6.6,2.9,9.8l-0.2,0l-0.4,2.5c-2.3,13.6-4.5,26.5-5.8,44.2c-4.7,4.2-4,21.8-3.4,29.4c0.2,2.3,0.9,4.5,2.1,6.8
		c-0.1,4.8,0,10.9,0,15.4c0.1,24.7,1.7,41,5.9,61.3C4,255.1,11.5,276,15,283c0.7,1.4,1.8,2.9,3.3,4.7l0,0.1
		c3.6,12.7,7,24.8,10.2,34.2c0,0,0,0,0,0c-2.2,8.2,5.8,21.1,9.3,24.9c0.4,0.4,1.1,1,1.9,1.8l-0.1,0c0.2,0.4,0.4,0.8,0.6,1.3
		c6.2,12.8,19.6,24.4,37.8,32.5c17.9,7.9,38.8,12.1,60.8,12.1c1.2,0,2.5,0,3.7,0c50.5-1.1,88.9-17,105.2-43.8l0,0
		c1.5-1.3,2.7-2.6,3.8-3.7c3-3.4,9.6-20,8.3-25.7c-0.1-0.2-0.2-0.5-0.3-0.7c2.6-7.7,4.1-15.3,5.7-23.1c0.8-3.9,1.6-7.9,2.6-12.1
		c0.6-0.6,1.2-1.2,1.8-1.8c2.7-3.1,8.2-18.9,8.1-28.1c0-0.2,0.1-0.4,0.1-0.6l-0.1,0c-0.1-2-0.5-3.6-1.2-4.7
		c3.6-26.3,5.5-56.5,5-81.7c1.5-2.6,2.3-5.2,2.5-7.7C283.9,160.2,283.8,153.7,283.2,146.9z M239.5,193.4
		c-22.7,8.8-50.2,14.4-77.6,15.9c1.5-1.2,3.2-3.1,4.4-5.7c1,0,1.9-0.1,2.9-0.2c0.7-0.1,1.4-0.2,2.1-0.2c0.7-0.1,1.4-0.2,2-0.7
		c-0.7-0.4-1.4-0.6-2.1-0.6c-0.7-0.1-1.4-0.1-2.1-0.2c-0.7,0-1.4-0.1-2.1-0.1c0.3-1.1,0.6-2.2,0.7-3.5c1.5,0,3-0.1,4.4-0.2
		c1-0.1,1.9-0.2,2.9-0.2c1-0.1,1.9-0.2,2.9-0.7c-1-0.4-1.9-0.6-2.9-0.6c-1-0.1-1.9-0.1-2.9-0.2c-1.4-0.1-2.9-0.1-4.3-0.1
		c0-1.3-0.1-2.6-0.3-3.7c0.9,0,1.9-0.1,2.8-0.2c0.7-0.1,1.4-0.2,2.1-0.2c0.7-0.1,1.4-0.2,2-0.7c-0.7-0.4-1.4-0.6-2.1-0.6
		c-0.7-0.1-1.4-0.1-2.1-0.2c-1.1-0.1-2.2-0.1-3.3-0.1c-0.5-1.6-1.3-2.9-2.1-4.1c1.9,0,3.8-0.1,5.6-0.2c1.2-0.1,2.4-0.2,3.7-0.3
		c1.2-0.1,2.4-0.2,3.7-0.7c-1.2-0.4-2.5-0.5-3.7-0.6c-1.2-0.1-2.4-0.1-3.7-0.1c-2.4-0.1-4.9-0.1-7.3,0l0,0c-0.7-0.6-1.4-1.2-2.1-1.7
		c27.4-1.8,49.6-7.1,64.2-11.7c21.4-6.6,39.3-15.4,49.1-24.2c2.8-2.5,4.2-5.1,5-7.7c0.1,0.9,0.3,2,0.4,3.1c-0.3,1.3-1.1,2.7-2,4
		c-1.1,1.5-2.4,2.9-3.8,4.3c-1.4,1.4-2.8,2.6-4.3,3.9l-2.3,1.8c-0.8,0.6-1.5,1.3-2.3,1.8c1-0.1,1.9-0.6,2.8-1c0.9-0.5,1.7-1,2.5-1.6
		c1.6-1.1,3.2-2.3,4.7-3.6c1.5-1.3,2.9-2.7,4.2-4.4c0.3-0.4,0.5-0.7,0.8-1.1c0.1,1.3,0.2,2.5,0.3,3.8c-0.4,1-1,2-1.7,2.9
		c-1,1.4-2.3,2.8-3.5,4.1c-1.3,1.3-2.6,2.5-4,3.7l-2.1,1.8l-1,0.9l-0.5,0.4c-0.1,0.1-0.2,0.1-0.3,0.2c-0.1,0-0.2,0.2-0.3,0.1
		c0,0.1,0.1,0.1,0.1,0.1c0.1,0,0.1,0,0.2,0c0.1,0,0.2,0,0.4-0.1c0.2-0.1,0.5-0.1,0.7-0.2c0.4-0.2,0.9-0.4,1.3-0.6
		c0.8-0.5,1.6-1,2.4-1.5c1.5-1.1,3-2.3,4.4-3.5c1.4-1.2,2.7-2.6,3.9-4.1c0.1-0.1,0.2-0.3,0.3-0.4c0.1,1.3,0.1,2.5,0.2,3.6
		c-0.4,1.1-1.1,2.2-1.9,3.3c-1.2,1.6-2.7,3.1-4.2,4.6c-1.5,1.4-3.1,2.8-4.8,4.1l-2.5,1.9l-1.3,1l-0.6,0.5c-0.1,0.1-0.2,0.1-0.3,0.2
		c-0.1,0-0.3,0.2-0.3,0.1c0,0.1,0.1,0.1,0.2,0.1c0.1,0,0.1,0,0.2,0c0.1,0,0.3-0.1,0.4-0.1c0.3-0.1,0.5-0.1,0.8-0.2
		c0.5-0.2,1-0.4,1.5-0.6c1-0.5,1.9-1,2.8-1.6c1.8-1.2,3.5-2.5,5.2-3.8c1.7-1.4,3.2-2.9,4.6-4.6c0.1-0.2,0.2-0.3,0.4-0.5
		C279.7,171.6,264,183.9,239.5,193.4z M259,265.3c-10.5,8.5-26.1,17.2-48.9,23.3c2.2-26.7,3.1-54.9,2.7-83.7c2.6-0.6,5.1-1.3,7.6-2
		c0,1.9,0,3.9,0,5.8c0,2.1,0,4.2,0.1,6.4l0.1,6.4c0,2.1,0.2,4.2,0.6,6.4c0.5-2.1,0.6-4.2,0.7-6.4l0.3-6.4c0.1-2.1,0.1-4.2,0.2-6.4
		c0.1-2.1,0.1-4.2,0.1-6.4l0,0c2.2-0.6,4.3-1.3,6.4-1.9c0,0.9,0,1.8,0,2.6c0,1.5,0,2.9,0.1,4.4l0.1,4.4c0,1.5,0.2,2.9,0.6,4.4
		c0.5-1.5,0.6-2.9,0.7-4.4l0.3-4.4c0.1-1.5,0.1-2.9,0.2-4.4c0-1.1,0-2.2,0.1-3.3c1.7-0.6,3.4-1.1,5.1-1.7c0,1.6,0,3.3,0,4.9
		c0,2.4,0,4.9,0.1,7.3l0.1,7.3c0,2.4,0.2,4.9,0.6,7.3c0.5-2.4,0.6-4.9,0.7-7.3l0.3-7.3c0.1-2.4,0.1-4.9,0.2-7.3
		c0-1.9,0.1-3.8,0.1-5.7c0.9-0.3,1.8-0.7,2.7-1c1.3-0.5,2.6-1,3.8-1.6c0,0.4,0,0.9,0,1.3c0,1.3,0,2.5,0.1,3.8l0.1,3.8
		c0,1.3,0.2,2.5,0.6,3.8c0.5-1.2,0.6-2.5,0.7-3.8l0.3-3.8c0.1-1.3,0.1-2.5,0.2-3.8c0-0.7,0-1.5,0-2.2c1.9-0.8,3.8-1.7,5.6-2.5
		c0,1.3,0,2.6,0,3.9c0,2.1,0,4.2,0.1,6.4l0.1,6.4c0,2.1,0.2,4.2,0.6,6.4c0.5-2.1,0.6-4.2,0.7-6.4l0.3-6.4c0.1-2.1,0.1-4.2,0.2-6.4
		c0-1.6,0.1-3.3,0.1-4.9c1.4-0.7,2.7-1.4,4.1-2.1c0,1.1,0,2.2,0,3.3c0,1.5,0,3.1,0.1,4.6l0.2,4.6c0.1,1.5,0.2,3.1,0.6,4.7
		c0.5-1.5,0.6-3.1,0.7-4.6l0.2-4.6c0.1-1.5,0.1-3.1,0.1-4.6c0-1.5,0-3,0-4.4c1.5-0.8,2.9-1.7,4.2-2.5
		C264.7,211.2,263,238.3,259,265.3z M154.2,310c-0.4,9-8.3,10.9-8.7,10.9l0,0c-1.2,0-2.4,0-3.6,0c-32.5-0.3-57.6-5.4-75.3-10.9
		c0,0,0,0,0,0l-0.1,0c-5-1.5-9.4-3.1-13.2-4.6c-20.2-8-32.3-17.4-35.5-23.3c0.6,0.5,1.2,1,1.8,1.5c1.7,1.3,3.4,2.5,5.2,3.6
		c0.9,0.6,1.8,1.1,2.8,1.5c0.5,0.2,1,0.4,1.5,0.6c0.3,0.1,0.5,0.2,0.8,0.2c0.1,0,0.3,0.1,0.4,0.1c0.1,0,0.1,0,0.2,0
		c0.1,0,0.2,0,0.2-0.1c-0.1,0.1-0.2,0-0.3-0.1c-0.1-0.1-0.2-0.1-0.3-0.2l-0.6-0.4l-1.3-0.9l-2.5-1.8c-1.7-1.2-3.3-2.5-4.9-3.8
		c-1.5-1.4-3-2.7-4.3-4.3c-0.3-0.4-0.7-0.9-1-1.3c-0.3-0.8-0.6-1.6-0.9-2.4c0.6,0.5,1.2,1,1.8,1.4c1.5,1.1,3,2,4.6,2.9
		c0.8,0.4,1.6,0.8,2.4,1.1c0.4,0.2,0.9,0.3,1.3,0.4c0.2,0.1,0.5,0.1,0.7,0.1c0.1,0,0.2,0,0.4,0c0.1,0,0.3,0,0.3-0.2
		c0,0.1-0.2,0-0.3,0c-0.1,0-0.2-0.1-0.3-0.1c-0.2-0.1-0.4-0.2-0.6-0.3l-1.1-0.7l-2.2-1.4c-1.5-1-2.9-2-4.2-3.1
		c-1.3-1.1-2.6-2.3-3.6-3.6c-0.3-0.4-0.6-0.8-0.9-1.3c-0.3-0.9-0.5-1.7-0.7-2.6c0-0.1,0-0.1,0-0.2l-0.1,0c-0.1-0.5-0.3-1-0.4-1.5
		c0.8,0.8,1.6,1.5,2.5,2.2c1.5,1.2,3.1,2.4,4.8,3.4c0.8,0.5,1.7,1,2.6,1.4c0.4,0.2,0.9,0.4,1.4,0.6c0.2,0.1,0.5,0.1,0.7,0.2
		c0.1,0,0.2,0.1,0.4,0.1c0.1,0,0.1,0,0.2,0c0.1,0,0.2,0,0.1-0.1c-0.1,0.1-0.2,0-0.3-0.1c-0.1-0.1-0.2-0.1-0.3-0.2l-0.6-0.4l-1.2-0.9
		l-2.3-1.7c-1.5-1.1-3-2.3-4.4-3.6c-1.4-1.3-2.7-2.6-3.9-4.1c-0.2-0.3-0.5-0.7-0.7-1c-0.7-3.8-1-7.3-0.7-9.8
		c3.1,6.3,7.9,12.6,11.4,15.8c10.3,9.5,23.1,16.7,39,21.9c21.8,7.2,49.9,10.7,83.7,10.5l0,0.1c0,0,4.7,0.1,7.7,3.2
		C153.6,304.4,154.4,306.9,154.2,310z M152.7,323.8c0,1.9,0.1,3.7,0.2,5.6c0.1,2.2,0.2,4.3,0.3,6.5l0.4,6.5c0.1,2.2,0.3,4.3,0.8,6.5
		c0.4-2.2,0.5-4.3,0.5-6.5l0-6.5c0-2.2,0-4.3,0-6.5c0-1.9-0.1-3.8-0.1-5.6c2.4-0.1,4.8-0.2,7.2-0.4c0,0.7,0,1.4,0,2.1
		c0.1,1.3,0.1,2.6,0.2,4l0.2,4c0.1,1.3,0.2,2.6,0.7,4c0.4-1.3,0.6-2.6,0.6-4l0.2-4c0.1-1.3,0.1-2.6,0.1-4c0-0.7,0-1.5,0-2.2
		c2.5-0.2,5-0.4,7.4-0.7c0,1.6,0,3.3,0.1,4.9c0.1,2.1,0.1,4.2,0.2,6.3l0.3,6.3c0.1,2.1,0.2,4.2,0.7,6.3c0.4-2.1,0.5-4.2,0.6-6.3
		l0.1-6.3c0.1-2.1,0-4.2,0.1-6.3c0-1.7,0-3.4,0-5.1c2.4-0.3,4.7-0.6,7-0.9c0,1.3,0.1,2.5,0.1,3.8c0.1,1.5,0.1,3.1,0.3,4.6l0.3,4.6
		c0.1,1.5,0.3,3.1,0.8,4.6c0.4-1.6,0.5-3.1,0.5-4.7l0.1-4.7c0-1.6,0-3.1,0-4.7c0-1.4-0.1-2.7-0.1-4.1c1.9-0.3,3.7-0.6,5.5-0.9
		c0,0.9,0,1.8,0,2.6c0,1.5,0,2.9,0,4.4l0.1,4.4c0,1.5,0.1,2.9,0.6,4.4c0.5-1.4,0.6-2.9,0.7-4.3l0.3-4.3c0.1-1.4,0.1-2.9,0.2-4.3
		c0-1,0.1-2,0.1-3.1c2.1-0.4,4.1-0.8,6.1-1.2c-0.1,0.9-0.1,1.7-0.1,2.6c0,1.4-0.1,2.8-0.1,4.1l-0.1,4.2c0,1.4,0,2.8,0.4,4.2
		c0.5-1.4,0.8-2.7,0.9-4.1l0.5-4.1c0.2-1.4,0.3-2.8,0.4-4.1c0.1-1.1,0.2-2.1,0.2-3.2c2.3-0.5,4.5-1,6.6-1.6
		c-1.5,12.7-3.3,25.3-5.4,37.5c-14,3.5-31,5.9-51.5,6.3c-3,0.1-5.9,0.1-8.7,0.1c-0.6-11.9-1.1-24.3-1.6-36.7c1.6,0,3.2,0.1,4.8,0.1
		c0.6,0,1.2,0,1.8,0c0,1.6,0,3.1,0.1,4.7c0.1,1.8,0.1,3.7,0.2,5.5l0.3,5.5c0.1,1.8,0.3,3.7,0.8,5.5c0.4-1.8,0.5-3.7,0.5-5.5l0.1-5.5
		c0-1.8,0-3.7,0-5.5c0-1.5,0-3.1-0.1-4.6C148.1,323.9,150.4,323.9,152.7,323.8z M213.4,322.6c0.5-0.8,0.7-1.6,0.9-2.4
		c0.2-0.8,0.3-1.6,0.4-2.4c0.2-1.4,0.4-2.9,0.6-4.3c2.4-0.8,4.7-1.5,6.9-2.3c-0.1,0.6-0.1,1.3-0.2,1.9c-0.1,1.5-0.3,3.1-0.3,4.6
		l-0.3,4.6c-0.1,1.5-0.1,3.1,0.2,4.7c0.6-1.5,0.9-3,1.1-4.5l0.7-4.6c0.2-1.5,0.4-3.1,0.6-4.6c0.1-0.9,0.2-1.9,0.3-2.8
		c0.6-0.2,1.3-0.5,1.9-0.7c1.2-0.5,2.4-0.9,3.6-1.4c-0.1,1-0.1,2-0.2,3c0,0.9-0.1,1.9-0.1,2.8c0,0.9,0,1.9,0.4,2.9
		c0.5-0.9,0.8-1.8,0.9-2.8c0.2-0.9,0.3-1.9,0.5-2.8c0.2-1.4,0.4-2.7,0.5-4.1c1.7-0.7,3.3-1.4,5-2.2c-0.1,0.5-0.1,1.1-0.2,1.6
		c-0.1,1.5-0.3,3.1-0.3,4.6l-0.3,4.6c-0.1,1.5-0.1,3.1,0.2,4.7c0.6-1.5,0.9-3,1.1-4.5l0.7-4.6c0.2-1.5,0.4-3.1,0.6-4.6
		c0.1-0.9,0.2-1.9,0.3-2.8c1.6-0.8,3.2-1.5,4.7-2.3c-0.1,1.1-0.3,2.3-0.4,3.4c-0.1,0.9-0.1,1.8-0.2,2.7c-0.1,0.9-0.1,1.8,0.3,2.7
		c0.6-0.8,0.8-1.7,1-2.6c0.2-0.9,0.4-1.7,0.6-2.6c0.3-1.6,0.6-3.2,0.8-4.8c2.7-1.5,5.3-3,7.8-4.5c-2.5,12.2-5.5,24.7-9,37
		c-9.1,7.2-22.7,14.7-42.4,20c2.1-12.3,3.8-24.9,5.3-37.5c2-0.5,3.9-1.1,5.8-1.7c-0.1,1.2-0.2,2.3-0.2,3.5c0,0.8,0,1.6,0,2.4
		C213,320.9,213,321.7,213.4,322.6z M128.2,365.2c-1.5-0.1-3-0.2-4.5-0.2c-0.9,0-1.8,0-2.7,0c-0.9,0-1.8,0.1-2.7,0.5
		c0.9,0.5,1.7,0.7,2.6,0.8c0.9,0.1,1.8,0.3,2.7,0.4c1.1,0.1,2.3,0.3,3.4,0.4c-0.3,0.6-0.5,1.3-0.7,2c-0.5,0-0.9,0-1.4,0
		c-0.5,0-1.1,0.1-1.6,0.1c-0.5,0-1.1,0.1-1.7,0.6c0.5,0.5,1.1,0.6,1.6,0.8c0.5,0.1,1.1,0.2,1.6,0.3c0.4,0.1,0.9,0.1,1.3,0.2
		c0,0.6,0,1.2,0.1,1.7c-1.2-0.1-2.5-0.1-3.7-0.1c-0.9,0-1.8,0-2.7,0c-0.9,0-1.8,0.1-2.7,0.5c0.9,0.5,1.7,0.7,2.6,0.8
		c0.9,0.1,1.8,0.3,2.7,0.4c1.5,0.2,3,0.3,4.5,0.4c0.5,1.1,1.2,2,2.1,2.8c-59.7-4.9-88.7-32.5-89-32.8c-0.6-0.6-1.3-1.4-1.9-2.4
		c1.4,1.1,2.9,2.1,4.5,3.1c0.8,0.5,1.7,1,2.6,1.5c0.5,0.2,0.9,0.4,1.4,0.6c0.2,0.1,0.5,0.1,0.7,0.2c0.1,0,0.3,0.1,0.4,0.1
		c0.1,0,0.1,0,0.2,0c0.1,0,0.2,0,0.1-0.1c-0.1,0.1-0.2,0-0.3-0.1c-0.1-0.1-0.2-0.1-0.3-0.2l-0.6-0.4l-1.2-0.9l-2.4-1.7
		c-1.6-1.1-3.1-2.4-4.6-3.7c-1.4-1.3-2.8-2.6-4-4.1c-0.2-0.2-0.3-0.4-0.5-0.7c-0.2-0.4-0.4-0.8-0.6-1.2c0.8,0.8,1.7,1.6,2.6,2.3
		c1.6,1.2,3.2,2.4,4.9,3.4c0.8,0.5,1.7,1,2.6,1.5c0.5,0.2,0.9,0.4,1.4,0.6c0.2,0.1,0.5,0.1,0.7,0.2c0.1,0,0.3,0.1,0.4,0.1
		c0.1,0,0.1,0,0.2,0c0.1,0,0.2,0,0.1-0.1c-0.1,0.1-0.2,0-0.3-0.1c-0.1-0.1-0.2-0.1-0.3-0.2l-0.6-0.4l-1.2-0.9l-2.4-1.7
		c-1.6-1.1-3.1-2.4-4.6-3.7c-1.4-1.3-2.8-2.6-4-4.1c-0.6-0.7-1.1-1.5-1.5-2.3c-0.4-0.8-0.6-1.6-0.5-2.3l-0.2,0
		c-0.1-0.4-0.1-0.8-0.1-1.2c23.6,24.9,53.2,36.3,98.8,37.6C129.3,364,128.7,364.6,128.2,365.2z M136.8,381.4c0.2,3.4,0.4,6.7,0.6,10
		c-18.9-0.2-37.1-3.7-52.5-9.6c-1.2-3.6-2.4-7.3-3.6-11.1c16.8,5.8,34.9,9.3,54.1,10.3C135.8,381.2,136.3,381.3,136.8,381.4z
		 M26.4,294.6c0.2,0.9,0.4,1.8,0.6,2.7c0.4,1.4,0.7,2.9,1.1,4.3l1.2,4.2c0.4,1.4,0.8,2.8,1.6,4.2c0.1-1.5-0.1-3-0.3-4.4l-0.8-4.3
		c-0.2-1.4-0.6-2.9-0.8-4.3c0-0.2-0.1-0.4-0.1-0.6c1.4,0.9,3,1.9,4.6,2.9c0.4,1.8,0.8,3.6,1.2,5.4c0.3,1.2,0.6,2.3,0.9,3.5
		c0.3,1.2,0.7,2.3,1.3,3.4c0.2-1.3,0.1-2.5-0.1-3.7c-0.2-1.2-0.3-2.4-0.5-3.6c-0.2-1.2-0.4-2.5-0.6-3.7c1.5,0.8,3.1,1.7,4.8,2.5
		c0.2,1.9,0.5,3.8,0.9,5.7c0.2,1.2,0.4,2.3,0.7,3.5c0.2,1.2,0.5,2.3,1.1,3.5c0.3-1.2,0.3-2.4,0.2-3.6c-0.1-1.2-0.2-2.4-0.3-3.6
		c-0.1-1.5-0.3-2.9-0.4-4.4c1.3,0.6,2.6,1.2,4,1.8c0.1,1.2,0.2,2.3,0.4,3.5c0.2,1.4,0.4,2.9,0.6,4.3l0.7,4.3
		c0.2,1.4,0.5,2.8,1.1,4.2c0.3-1.5,0.3-2.9,0.2-4.4l-0.3-4.3c-0.1-1.4-0.2-2.9-0.3-4.3c-0.1-0.8-0.2-1.6-0.2-2.4
		c1.2,0.5,2.4,1,3.6,1.5c1,0.4,2,0.8,3,1.2c0.1,1,0.2,1.9,0.3,2.9c0.2,1.4,0.4,2.9,0.6,4.3l0.7,4.3c0.2,1.4,0.5,2.8,1.1,4.2
		c0.3-1.5,0.3-2.9,0.2-4.4l-0.3-4.3c-0.1-1.4-0.2-2.9-0.3-4.3c-0.1-0.6-0.1-1.3-0.2-1.9c2.1,0.8,4.3,1.5,6.7,2.3
		c2.3,13,5.1,25.7,8.2,37.8c-15.9-6.3-29-15.5-40.6-28.2c-2.9-8.3-6-19-9.2-30.4C23.7,292.6,25,293.6,26.4,294.6z M74.3,315.4
		c0,1.2,0.1,2.5,0.2,3.7c0.1,1.4,0.2,2.9,0.3,4.3l0.4,4.3c0.1,1.4,0.3,2.9,0.9,4.3c0.4-1.5,0.4-2.9,0.4-4.3l0-4.3
		c0-1.4-0.1-2.9-0.1-4.3c0-1-0.1-2-0.1-3.1c1.7,0.4,3.5,0.9,5.3,1.3c0.1,1.8,0.2,3.5,0.3,5.3c0.1,1.1,0.2,2.3,0.3,3.4
		c0.1,1.1,0.3,2.3,0.8,3.4c0.4-1.2,0.5-2.3,0.5-3.5c0-1.1,0.1-2.3,0.1-3.4c0-1.6,0-3.2,0-4.7c1.9,0.4,4,0.8,6,1.2
		c0,1.7,0,3.4,0.1,5.1c0.1,1.1,0.1,2.2,0.2,3.2c0.1,1.1,0.2,2.2,0.7,3.2c0.5-1.1,0.6-2.2,0.6-3.2c0.1-1.1,0.1-2.2,0.2-3.2
		c0.1-1.6,0.1-3.2,0.1-4.8c2.1,0.4,4.2,0.7,6.3,1.1c0,0.9,0,1.8,0.1,2.7c0.1,1.4,0.1,2.8,0.2,4.2l0.3,4.2c0.1,1.4,0.3,2.8,0.8,4.2
		c0.4-1.4,0.5-2.8,0.5-4.3l0.1-4.2c0-1.4,0-2.8,0-4.2c0-0.8,0-1.5,0-2.3c2.6,0.4,5.4,0.8,8.2,1.1c0.1,1.4,0.2,2.7,0.3,4.1
		c0.1,1,0.2,2,0.4,3c0.1,1,0.3,2,0.8,3c0.4-1,0.5-2.1,0.5-3.1c0-1,0-2,0-3c0-1.3,0-2.5-0.1-3.8c2.2,0.2,4.4,0.5,6.7,0.7
		c0.1,1.5,0.2,2.9,0.4,4.4c0.1,1,0.2,2,0.4,3c0.1,1,0.3,2,0.8,3c0.4-1,0.5-2.1,0.5-3.1c0-1,0-2,0-3c0-1.4,0-2.7-0.1-4.1
		c2.4,0.2,4.8,0.4,7.2,0.5c0,1.4,0,2.7,0.1,4.1c0.1,1.8,0.1,3.7,0.2,5.5l0.3,5.5c0.1,1.8,0.3,3.7,0.8,5.5c0.4-1.8,0.5-3.7,0.5-5.5
		l0.1-5.5c0-1.8,0-3.7,0-5.5c0-1.3,0-2.6-0.1-4c2.1,0.1,4.1,0.2,6.3,0.3c0.5,12.5,1,24.8,1.6,36.7c-0.1,0-0.1,0-0.2,0.1
		c-23.8-0.3-43.3-3.1-59.8-9c-3.2-12.3-6.1-25.1-8.4-38.1C69.5,314.1,71.8,314.7,74.3,315.4z M44.8,194.5
		C22.3,186.7,7.5,176.6,4.1,167c1.2,1.2,2.4,2.3,3.7,3.3c1.7,1.3,3.4,2.5,5.2,3.6c0.9,0.6,1.8,1.1,2.8,1.5c0.5,0.2,1,0.4,1.5,0.6
		c0.3,0.1,0.5,0.2,0.8,0.2c0.1,0,0.3,0.1,0.4,0.1c0.1,0,0.1,0,0.2,0c0.1,0,0.2,0,0.2-0.1c-0.1,0.1-0.2,0-0.3-0.1
		c-0.1-0.1-0.2-0.1-0.3-0.2l-0.6-0.4l-1.3-0.9l-2.5-1.8c-1.7-1.2-3.3-2.5-4.9-3.8c-1.5-1.4-3-2.7-4.3-4.3c-0.5-0.6-0.9-1.2-1.3-1.8
		c-0.1-0.9-0.1-1.8-0.2-2.8c1.1,1.2,2.3,2.3,3.6,3.3c1.5,1.1,3,2,4.6,2.9c0.8,0.4,1.6,0.8,2.4,1.1c0.4,0.2,0.9,0.3,1.3,0.4
		c0.2,0.1,0.5,0.1,0.7,0.1c0.1,0,0.2,0,0.4,0c0.1,0,0.3,0,0.3-0.2c0,0.1-0.2,0-0.3,0c-0.1,0-0.2-0.1-0.3-0.1
		c-0.2-0.1-0.4-0.2-0.6-0.3l-1.1-0.7l-2.2-1.4c-1.5-1-2.9-2-4.2-3.1c-1.3-1.1-2.6-2.3-3.6-3.6c-0.5-0.6-0.9-1.3-1.2-2
		c0-1,0-1.9,0-2.9c1.2,1.4,2.5,2.6,3.9,3.6c1.5,1.1,3,2,4.6,2.9c0.8,0.4,1.6,0.8,2.4,1.1c0.4,0.2,0.9,0.3,1.3,0.4
		c0.2,0.1,0.5,0.1,0.7,0.1c0.1,0,0.2,0,0.4,0c0.1,0,0.3,0,0.3-0.2c0,0.1-0.2,0-0.3,0c-0.1,0-0.2-0.1-0.3-0.1
		c-0.2-0.1-0.4-0.2-0.6-0.3l-1.1-0.7l-2.2-1.4c-1.5-1-2.9-2-4.2-3.1c-1.3-1.1-2.6-2.3-3.6-3.6c-0.6-0.7-1.1-1.5-1.4-2.3
		c0.1-4.2,0.5-7.8,1.2-10.2c1.5,5.4,4.8,10.5,9,14c32.3,26.9,96.2,30.3,131.3,29.9c3.5,0,6.9-0.1,10.2-0.3c0.5,0.1,10.4,2.4,10,13.2
		c-0.4,10.9-9.3,13.1-9.6,13.1l0,0.1c-3.6,0.1-7.1,0.2-10.6,0.1C107.7,209.4,72.2,203.9,44.8,194.5z M69.5,112.6
		c-0.2,1.6-0.3,3.3-0.4,4.9c-0.1,2.1-0.3,4.2-0.5,6.3l-0.4,6.3c-0.1,2.1-0.2,4.2,0.1,6.4c0.6-2.1,1-4.2,1.2-6.2l0.8-6.3
		c0.3-2.1,0.5-4.2,0.7-6.3c0.2-1.6,0.3-3.2,0.4-4.7c1.8,0.3,3.7,0.6,5.6,0.9c-0.1,1.5-0.1,3-0.1,4.5c0,0.9,0,1.8,0.1,2.8
		c0,0.9,0.1,1.9,0.5,2.8c0.5-0.9,0.7-1.8,0.8-2.7c0.1-0.9,0.2-1.8,0.3-2.8c0.2-1.4,0.3-2.8,0.3-4.2c1.7,0.3,3.4,0.5,5.1,0.7
		c-0.1,1-0.2,2-0.2,3c-0.1,1.3-0.1,2.5-0.2,3.8l-0.1,3.8c0,1.3,0,2.5,0.4,3.8c0.6-1.2,0.8-2.5,0.9-3.7l0.5-3.8
		c0.2-1.3,0.3-2.5,0.4-3.8c0.1-1,0.2-1.9,0.2-2.9c2.1,0.3,4.3,0.5,6.5,0.8c-0.1,1.5-0.1,3-0.1,4.5c0,0.9,0,1.8,0.1,2.8
		c0,0.9,0.1,1.9,0.5,2.8c0.5-0.9,0.7-1.8,0.8-2.7c0.1-0.9,0.2-1.8,0.3-2.8c0.2-1.5,0.3-2.9,0.4-4.4c1.6,0.2,3.1,0.3,4.7,0.5
		c-0.1,2-0.1,4.1-0.1,6.1c0,1.2,0,2.4,0.1,3.6c0,1.2,0.1,2.4,0.5,3.6c0.5-1.2,0.7-2.4,0.8-3.6c0.1-1.2,0.2-2.4,0.3-3.6
		c0.2-2,0.3-4,0.4-6c1.7,0.2,3.5,0.3,5.2,0.4c0,1.2-0.1,2.4,0,3.6c0,0.9,0,1.8,0.1,2.8c0,0.9,0.1,1.9,0.5,2.8
		c0.5-0.9,0.7-1.8,0.8-2.7c0.1-0.9,0.2-1.8,0.3-2.8c0.1-1.2,0.2-2.4,0.3-3.5c1.5,0.1,2.9,0.2,4.4,0.3c0,1.2-0.1,2.4-0.1,3.7
		c0,1.6,0,3.2,0,4.8l0.1,4.8c0,1.6,0.1,3.2,0.6,4.8c0.5-1.6,0.6-3.2,0.7-4.8l0.3-4.8c0.1-1.6,0.1-3.2,0.2-4.8c0-1.2,0.1-2.4,0.1-3.6
		c1.7,0.1,3.4,0.2,5.1,0.3c0,1.6,0,3.2,0,4.8c0,1.8,0,3.7,0.1,5.5l0.2,5.5c0.1,1.8,0.2,3.7,0.6,5.5c0.5-1.8,0.6-3.7,0.7-5.5l0.2-5.5
		c0.1-1.8,0.1-3.7,0.2-5.5c0-1.6,0-3.1,0-4.7c3,0.1,5.9,0.2,8.9,0.3c-0.1,21,0,41.8,0.1,61.9c-32.1-0.5-56.1-4.3-74-9.3l0.8,0
		c0.8-19.9,2.4-40.1,4.8-59.9C64.9,111.8,67.2,112.2,69.5,112.6z M121.8,102.7c0.4-9.5,7.3-12.2,9-12.7c3.6,0.1,7.2,0.1,10.9,0.1
		c52.4,0,102-11.1,120.6-27c2.7-2.3,3.8-4.8,4.3-7.2l0.1,0c0.5,1.3,1,2.9,1.5,4.6c-0.4,0.9-1,1.8-1.6,2.7c-1.1,1.5-2.4,2.9-3.8,4.3
		c-1.4,1.4-2.8,2.6-4.3,3.9l-2.3,1.8c-0.8,0.6-1.5,1.3-2.3,1.8c1-0.1,1.9-0.6,2.8-1c0.9-0.5,1.7-1,2.5-1.6c1.6-1.1,3.2-2.3,4.7-3.6
		c1.5-1.3,2.9-2.7,4.2-4.4c0.3-0.4,0.5-0.7,0.8-1.1c0.2,0.8,0.4,1.6,0.7,2.4c-0.2,1.4-1.1,2.9-2.1,4.2c-1,1.4-2.3,2.8-3.5,4.1
		c-1.3,1.3-2.6,2.5-4,3.7l-2.1,1.8l-1,0.9l-0.5,0.4c-0.1,0.1-0.2,0.1-0.3,0.2c-0.1,0-0.2,0.2-0.3,0.1c0,0.1,0.1,0.1,0.1,0.1
		c0.1,0,0.1,0,0.2,0c0.1,0,0.2,0,0.4-0.1c0.2-0.1,0.5-0.1,0.7-0.2c0.4-0.2,0.9-0.4,1.3-0.6c0.8-0.5,1.6-1,2.4-1.5
		c1.5-1.1,3-2.3,4.4-3.5c1.4-1.2,2.7-2.6,3.9-4.1c0.5-0.6,0.9-1.3,1.3-2c0.2,0.8,0.4,1.5,0.5,2.2c-0.4,1.2-1.1,2.4-1.9,3.5
		c-1,1.4-2.3,2.8-3.5,4.1c-1.3,1.3-2.6,2.5-4,3.7l-2.1,1.8l-1,0.9l-0.5,0.4c-0.1,0.1-0.2,0.1-0.3,0.2c-0.1,0-0.2,0.2-0.3,0.1
		c0,0.1,0.1,0.1,0.1,0.1c0.1,0,0.1,0,0.2,0c0.1,0,0.2,0,0.4-0.1c0.2-0.1,0.5-0.1,0.7-0.2c0.4-0.2,0.9-0.4,1.3-0.6
		c0.8-0.5,1.6-1,2.4-1.5c1.5-1.1,3-2.3,4.4-3.5c1.4-1.2,2.7-2.6,3.9-4.1c0.4-0.5,0.7-1,1-1.5c0.3,1.3,0.5,2.6,0.7,3.7
		c-0.4,1.1-1.1,2.1-1.8,3.1c-1,1.4-2.3,2.8-3.5,4.1c-1.3,1.3-2.6,2.5-4,3.7l-2.1,1.8l-1,0.9l-0.5,0.4c-0.1,0.1-0.2,0.1-0.3,0.2
		c-0.1,0-0.2,0.2-0.3,0.1c0,0.1,0.1,0.1,0.1,0.1c0.1,0,0.1,0,0.2,0c0.1,0,0.2,0,0.4-0.1c0.2-0.1,0.5-0.1,0.7-0.2
		c0.4-0.2,0.9-0.4,1.3-0.6c0.8-0.5,1.6-1,2.4-1.5c1.5-1.1,3-2.3,4.4-3.5c1.4-1.2,2.7-2.6,3.9-4.1c0.2-0.2,0.4-0.5,0.6-0.8
		c-0.2,2.1-1.1,4.2-2.9,6.3c-13.4,15.7-68.6,27.6-128.3,27.6c-3.4,0-6.8,0-10.1-0.1l0,0C131.2,115.4,121.4,113.2,121.8,102.7z
		 M130.5,87C130.5,87,130.5,87,130.5,87C106.7,86.5,85,84.2,67,80.6c1-6.2,2.1-12.3,3.3-18.4c0.9,0.2,1.8,0.4,2.7,0.6
		c-0.2,2.1-0.4,4.2-0.5,6.3c-0.1,1.2-0.1,2.3-0.2,3.5c-0.1,1.2-0.1,2.3,0.3,3.5c0.6-1.1,0.8-2.2,1-3.4c0.2-1.1,0.4-2.3,0.6-3.4
		c0.3-2,0.6-4,0.8-6.1c1.7,0.3,3.5,0.7,5.3,1c0,1,0,2,0,3c0,0.7,0.1,1.5,0.1,2.2c0,0.7,0.1,1.5,0.6,2.2c0.5-0.7,0.6-1.4,0.8-2.2
		c0.1-0.7,0.2-1.5,0.3-2.2c0.1-0.9,0.2-1.8,0.3-2.7c1.5,0.3,3.1,0.5,4.7,0.7c-0.1,1.2-0.1,2.4,0,3.5c0,0.7,0.1,1.5,0.1,2.2
		c0,0.7,0.1,1.5,0.6,2.2c0.5-0.7,0.6-1.4,0.8-2.2c0.1-0.7,0.2-1.5,0.3-2.2c0.1-1.1,0.2-2.2,0.3-3.3c1.5,0.2,3,0.4,4.5,0.6
		c-0.1,1.8-0.1,3.6-0.1,5.4c0,1.1,0,2.2,0,3.4c0,1.1,0.1,2.2,0.5,3.4c0.5-1.1,0.7-2.2,0.8-3.3c0.1-1.1,0.3-2.2,0.4-3.3
		c0.2-1.8,0.3-3.5,0.4-5.3c2.1,0.3,4.2,0.5,6.4,0.7c0,0.6,0,1.2,0,1.9c0,0.5,0.1,0.9,0.1,1.4c0,0.5,0.1,0.9,0.6,1.4
		c0.5-0.4,0.6-0.9,0.7-1.4c0.1-0.5,0.2-0.9,0.3-1.4c0.1-0.6,0.2-1.2,0.2-1.8c1.6,0.2,3.3,0.3,4.9,0.4c-0.1,1.9-0.2,3.8-0.2,5.7
		c0,1.1,0,2.2,0,3.4c0,1.1,0.1,2.2,0.5,3.4c0.5-1.1,0.7-2.2,0.8-3.3c0.1-1.1,0.3-2.2,0.4-3.3c0.2-1.9,0.3-3.8,0.4-5.7
		c1.9,0.1,3.8,0.3,5.8,0.4c-0.1,1.3-0.1,2.6-0.1,3.9c0,0.8,0,1.7,0.1,2.5c0,0.8,0.1,1.7,0.5,2.5c0.5-0.8,0.7-1.6,0.8-2.4
		c0.1-0.8,0.2-1.6,0.3-2.5c0.2-1.3,0.3-2.6,0.3-3.9c1.5,0.1,3,0.2,4.5,0.2c-0.1,2-0.2,3.9-0.2,5.9c0,1.1,0,2.2,0,3.4
		c0,1.1,0.1,2.2,0.5,3.4c0.5-1.1,0.7-2.2,0.8-3.3c0.1-1.1,0.3-2.2,0.4-3.3c0.2-2,0.3-3.9,0.4-5.9c2,0.1,4,0.1,6,0.2L131,87
		C130.9,87,130.7,87,130.5,87L130.5,87z M26,50.5c0.6-0.6,0.9-1.2,1.1-1.8c0.2-0.6,0.5-1.3,0.7-1.9c0.2-0.8,0.5-1.5,0.7-2.3
		c0.8,0.8,1.7,1.6,2.7,2.4c-0.4,1.9-0.7,3.8-1,5.7c-0.2,1.1-0.3,2.2-0.4,3.2c-0.1,1.1-0.2,2.2,0,3.3c0.7-1,1-2,1.3-3.1
		c0.3-1,0.6-2.1,0.8-3.1c0.4-1.5,0.7-3.1,1-4.7c1.1,0.8,2.4,1.6,3.7,2.3c-0.2,0.9-0.3,1.9-0.4,2.8C36,53.8,36,54.4,36,54.9
		c0,0.6,0,1.1,0.3,1.8c0.6-0.5,0.8-1,1-1.5c0.2-0.5,0.4-1.1,0.5-1.6c0.2-0.7,0.4-1.4,0.5-2.2c1.3,0.7,2.6,1.3,4.1,2
		c-0.1,0.8-0.3,1.6-0.3,2.4C42,56.4,42,57,41.9,57.6c0,0.6,0,1.1,0.3,1.8c0.6-0.5,0.8-1,1-1.5c0.2-0.5,0.4-1.1,0.5-1.6
		c0.2-0.6,0.4-1.3,0.5-2c1.4,0.6,2.8,1.2,4.3,1.7c-0.3,1.3-0.5,2.6-0.6,3.9c-0.1,0.8-0.2,1.6-0.3,2.4c-0.1,0.8-0.1,1.6,0.2,2.4
		c0.6-0.7,0.9-1.4,1.1-2.2c0.2-0.8,0.5-1.5,0.7-2.3c0.3-1.2,0.6-2.4,0.9-3.6c1.5,0.5,3.1,1.1,4.7,1.6c-0.2,0.9-0.3,1.7-0.4,2.6
		c-0.1,0.6-0.1,1.1-0.1,1.7c0,0.6,0,1.1,0.3,1.8c0.6-0.5,0.8-1,1-1.5c0.2-0.5,0.4-1.1,0.5-1.6c0.2-0.8,0.4-1.6,0.6-2.3
		c1.3,0.4,2.6,0.7,3.9,1.1c-0.4,1.8-0.7,3.7-0.9,5.5c-0.2,1.1-0.3,2.2-0.4,3.2c-0.1,1.1-0.2,2.2,0,3.3c0.7-1,1-2,1.3-3.1
		c0.3-1,0.6-2.1,0.8-3.1c0.4-1.8,0.8-3.6,1.2-5.4c1.5,0.4,3,0.7,4.5,1.1c-1.2,6.1-2.3,12.3-3.3,18.5c-18.6-4-32.8-9.5-40.5-16.1
		c-3.4-2.9-3.7-6-4-9.3l0-0.1c1.9-7.6,3.5-12.7,4.7-16.1c0.5,1.4,1.3,2.8,2.4,4.1c-0.3,1.2-0.5,2.5-0.7,3.7c-0.1,0.7-0.2,1.4-0.3,2
		C25.7,49,25.7,49.7,26,50.5z M137.5,69c0.1,1.1,0.1,2.2,0.2,3.3c0.1,0.9,0.2,1.8,0.3,2.8c0.1,0.9,0.3,1.8,0.8,2.7
		c0.4-0.9,0.5-1.9,0.6-2.8c0-0.9,0.1-1.9,0.1-2.8c0-1.1,0-2.2,0-3.3c0.7,0,1.4,0,2.1,0c0.7,0,1.3,0,1.9,0c0.1,1,0.1,2,0.2,3
		c0.1,0.9,0.2,1.8,0.3,2.8c0.1,0.9,0.3,1.8,0.8,2.7c0.4-0.9,0.5-1.9,0.6-2.8c0-0.9,0.1-1.9,0.1-2.8c0-1,0-2,0-2.9
		c1.6,0,3.2,0,4.8-0.1c0,0.7,0.1,1.4,0.1,2c0.1,1.3,0.2,2.7,0.3,4l0.4,4c0.1,1.3,0.3,2.7,0.8,4c0.4-1.4,0.5-2.7,0.5-4l0-4
		c0-1.3,0-2.7-0.1-4c0-0.7-0.1-1.3-0.1-2c1.3,0,2.6-0.1,3.9-0.1c0,0.9,0.1,1.8,0.2,2.7c0.1,0.7,0.1,1.4,0.2,2.2
		c0.1,0.7,0.2,1.4,0.7,2.2c0.4-0.7,0.6-1.4,0.6-2.2c0.1-0.7,0.1-1.4,0.2-2.2c0.1-0.9,0.1-1.8,0.1-2.7c1.5-0.1,3-0.1,4.5-0.2
		c0.1,1.8,0.2,3.6,0.4,5.4c0.1,1.2,0.2,2.3,0.4,3.5c0.1,1.2,0.3,2.3,0.8,3.5c0.4-1.2,0.5-2.4,0.5-3.5c0-1.2,0-2.3,0-3.5
		c0-1.8,0-3.6-0.1-5.4c1.5-0.1,3-0.2,4.5-0.3c0.1,1,0.1,2,0.3,3c0.1,0.7,0.2,1.4,0.3,2.1c0.1,0.7,0.3,1.4,0.7,2.1
		c0.4-0.7,0.5-1.4,0.6-2.1c0-0.7,0.1-1.4,0.1-2.1c0-1,0-2.1,0-3.1c1.5-0.1,2.9-0.2,4.4-0.3c0.1,1.9,0.2,3.7,0.4,5.6
		c0.1,1,0.2,2,0.4,3c0.1,1,0.3,2,0.8,3c0.4-1,0.5-2,0.5-3c0-1,0.1-2,0.1-3c0-1.9,0-3.8-0.1-5.7c1.1-0.1,2.2-0.2,3.3-0.3
		c0,1.1,0.1,2.2,0.2,3.2c0.1,0.7,0.2,1.3,0.2,2c0.1,0.7,0.2,1.3,0.7,2c0.4-0.7,0.6-1.3,0.6-2c0.1-0.7,0.1-1.3,0.2-2
		c0.1-1.1,0.1-2.3,0.1-3.4c1.2-0.1,2.5-0.3,3.7-0.4c0.1,1.4,0.2,2.9,0.3,4.3c0.1,1,0.2,2,0.4,3c0.1,1,0.3,2,0.8,3c0.4-1,0.5-2,0.5-3
		c0-1,0.1-2,0.1-3c0-1.5,0-3-0.1-4.4c1.6-0.2,3.1-0.4,4.7-0.6c0.1,1.6,0.3,3.2,0.5,4.8c0.1,0.9,0.3,1.9,0.4,2.8
		c0.1,0.9,0.3,1.9,0.9,2.8c0.4-1,0.4-1.9,0.4-2.9c0-0.9,0-1.9,0-2.8c0-1.6-0.1-3.3-0.3-4.9c1.7-0.2,3.4-0.5,5.1-0.8
		c0.7,6.6,1.3,12.2,1.9,17.5c-17.3,3.1-37.6,5-60.3,5c-2.6,0-5.1,0-7.7-0.1L134,68.9C135.1,69,136.3,69,137.5,69z M206,63.6
		c0.1,1.5,0.3,3.1,0.5,4.6c0.1,0.9,0.3,1.9,0.4,2.8c0.1,0.9,0.3,1.9,0.9,2.8c0.4-1,0.4-1.9,0.4-2.9c0-0.9,0-1.9,0-2.8
		c0-1.6-0.1-3.2-0.3-4.8c1.4-0.3,2.8-0.6,4.1-0.9c0.1,0.6,0.2,1.2,0.3,1.8c0.1,0.6,0.3,1.3,0.4,1.9c0.1,0.6,0.3,1.2,0.8,1.8
		c0.4-0.7,0.5-1.3,0.5-2c0-0.6,0-1.3,0-1.9c0-0.7,0-1.3-0.1-2c1.3-0.3,2.7-0.6,3.9-0.9c0.1,1.4,0.3,2.7,0.5,4.1
		c0.1,0.9,0.3,1.9,0.4,2.8c0.1,0.9,0.3,1.9,0.9,2.8c0.4-1,0.4-1.9,0.4-2.9c0-0.9,0-1.9,0-2.8c0-1.5-0.1-3-0.2-4.5
		c1.2-0.3,2.4-0.6,3.5-0.9c0.1,0.9,0.2,1.8,0.4,2.8c0.1,0.6,0.3,1.3,0.4,1.9c0.1,0.6,0.3,1.2,0.8,1.8c0.4-0.7,0.5-1.3,0.5-2
		c0-0.6,0-1.3,0-1.9c0-1.1-0.1-2.1-0.2-3.2c1.2-0.3,2.3-0.7,3.4-1c0.1,1.4,0.3,2.7,0.5,4.1c0.1,0.9,0.3,1.9,0.4,2.8
		c0.1,0.9,0.3,1.9,0.9,2.8c0.4-1,0.4-1.9,0.4-2.9c0-0.9,0-1.9,0-2.8c0-1.5-0.1-3-0.2-4.6c1.3-0.4,2.5-0.9,3.7-1.3
		c0.1,0.5,0.1,0.9,0.2,1.4c0.1,0.5,0.2,1.1,0.3,1.6c0.1,0.5,0.3,1.1,0.8,1.6c0.4-0.6,0.5-1.1,0.5-1.7c0-0.5,0.1-1.1,0.1-1.6
		c0-0.7,0-1.3,0-2c1.2-0.5,2.3-0.9,3.4-1.4c0.1,0.7,0.2,1.4,0.3,2.1c0.1,0.6,0.3,1.2,0.4,1.8c0.1,0.6,0.3,1.2,0.8,1.7
		c0.4-0.6,0.5-1.2,0.5-1.8c0-0.6,0-1.2,0-1.8c0-0.9-0.1-1.9-0.2-2.8c0.7-0.3,1.3-0.6,1.9-0.9c1.6,5.4,3.1,10.9,4.6,16.3
		c-10.4,5-25.1,9.7-43.2,13.2c-0.6-5.3-1.2-10.9-1.9-17.5C204.1,63.9,205.1,63.7,206,63.6z M249.8,48.5c0.3,1.1,0.5,2.2,0.9,3.3
		c0.2,0.8,0.5,1.6,0.8,2.5c0.3,0.8,0.6,1.6,1.2,2.4c0.3-0.9,0.2-1.8,0.1-2.6c-0.1-0.8-0.2-1.7-0.4-2.5c-0.2-1.4-0.5-2.8-0.8-4.1
		c0.8-0.6,1.6-1.3,2.3-1.9c0.2,0.9,0.5,1.9,0.8,2.8c0.2,0.8,0.5,1.6,0.8,2.5c0.3,0.8,0.6,1.6,1.2,2.4c0.3-0.9,0.2-1.8,0.1-2.6
		c-0.1-0.8-0.2-1.7-0.4-2.5c-0.2-1.4-0.5-2.7-0.8-4.1c1.4-1.6,2.5-3.2,3.2-4.9c1.8,5,3.4,10.5,5,16.3c-0.3,2-1.1,3.9-3.3,5.7
		c-2.4,2-5.6,4.1-9.4,6.1c-1.4-5.4-3-11-4.6-16.4C247.6,49.9,248.7,49.2,249.8,48.5z M144.6,180.5c-3.6,0-7.1,0-10.6,0
		c-0.1-20.1-0.2-40.9-0.1-61.9c1.4,0,2.7,0,4.1,0c0,0.9,0,1.8,0,2.7c0,1.4,0.1,2.8,0.1,4.3l0.2,4.3c0.1,1.4,0.2,2.8,0.7,4.3
		c0.5-1.4,0.6-2.8,0.7-4.3l0.2-4.3c0.1-1.4,0.1-2.8,0.1-4.3c0-0.9,0-1.8,0-2.7c0.6,0,1.1,0,1.7,0c1.1,0,2.1,0,3.2,0
		c0,0.6,0,1.3,0,1.9c0,1.4,0.1,2.8,0.1,4.3l0.2,4.3c0.1,1.4,0.2,2.8,0.7,4.3c0.5-1.4,0.6-2.8,0.7-4.3l0.2-4.3
		c0.1-1.4,0.1-2.8,0.1-4.3c0-0.7,0-1.3,0-2c1.5,0,3,0,4.5-0.1c0,1.5,0,3,0,4.5c0.1,2,0.1,4.1,0.2,6.1l0.2,6.1c0.1,2,0.2,4.1,0.7,6.1
		c0.4-2,0.6-4.1,0.6-6.1l0.2-6.1c0.1-2,0.1-4.1,0.1-6.1c0-1.5,0-3,0-4.5c2.4-0.1,4.7-0.1,7.1-0.2c0,1.6,0,3.1,0.1,4.7
		c0,1,0.1,2,0.2,3.1c0.1,1,0.2,2,0.6,3.1c0.5-1,0.6-2,0.7-3.1c0.1-1,0.2-2,0.2-3.1c0.1-1.6,0.2-3.2,0.2-4.8c1.7-0.1,3.4-0.2,5.1-0.3
		c0,1.5,0,2.9,0.1,4.4c0.1,1.8,0.1,3.6,0.2,5.4l0.2,5.4c0.1,1.8,0.2,3.6,0.7,5.4c0.4-1.8,0.6-3.6,0.6-5.4l0.2-5.4
		c0.1-1.8,0.1-3.6,0.1-5.4c0-1.5,0-3,0-4.5c1.4-0.1,2.9-0.2,4.3-0.3c0.1,1.6,0.3,3.1,0.5,4.7c0.1,1,0.3,2,0.4,3.1c0.1,1,0.3,2,0.9,3
		c0.4-1.1,0.4-2.1,0.4-3.1c0-1,0-2.1,0-3.1c0-1.6-0.1-3.1-0.2-4.7c1.7-0.1,3.4-0.3,5.1-0.4c0,1.3,0,2.6,0.1,3.8
		c0.1,1.5,0.1,3.1,0.2,4.6l0.2,4.6c0.1,1.5,0.2,3.1,0.7,4.6c0.4-1.6,0.6-3.1,0.6-4.6l0.2-4.6c0.1-1.5,0.1-3.1,0.1-4.6
		c0-1.3,0-2.7,0-4c1.3-0.1,2.7-0.3,4-0.4c0,1.5,0,3,0.1,4.4c0,1,0.1,2,0.2,3.1c0.1,1,0.2,2,0.6,3.1c0.5-1,0.6-2,0.7-3.1
		c0.1-1,0.2-2,0.2-3.1c0.1-1.6,0.2-3.1,0.2-4.7c1.2-0.1,2.5-0.3,3.7-0.4c0,1.3,0,2.6,0.1,3.9c0.1,1.5,0.1,3.1,0.2,4.6l0.2,4.6
		c0.1,1.5,0.2,3.1,0.7,4.6c0.4-1.6,0.6-3.1,0.6-4.6l0.2-4.6c0.1-1.5,0.1-3.1,0.1-4.6c0-1.4,0-2.8,0-4.2c1.7-0.2,3.4-0.4,5.1-0.7
		c0,0.9,0.1,1.8,0.1,2.8c0.1,1.4,0.2,2.9,0.3,4.3l0.4,4.3c0.1,1.4,0.3,2.9,0.8,4.3c0.4-1.5,0.5-2.9,0.5-4.3l0.1-4.3
		c0-1.4,0-2.9,0-4.3c0-1-0.1-2-0.1-3c1.2-0.2,2.3-0.3,3.5-0.5c1.8,20.6,3.1,39.6,3.8,58.2C187.3,177.5,164.3,180.2,144.6,180.5z
		 M212,171.7c-0.8-18.5-2-37.5-3.8-58c1.1-0.2,2.2-0.4,3.2-0.5c0.2,1.7,0.5,3.4,0.8,5.1c0.2,1,0.4,2,0.6,3c0.2,1,0.5,2,1,3
		c0.3-1.1,0.3-2.1,0.3-3.1c-0.1-1-0.1-2-0.2-3.1c-0.1-1.8-0.3-3.5-0.5-5.2c1.4-0.2,2.8-0.5,4.1-0.8c0.2,1.4,0.3,2.8,0.5,4.2
		c0.2,1.5,0.4,3.1,0.7,4.6l0.8,4.6c0.3,1.5,0.6,3,1.2,4.5c0.3-1.6,0.2-3.1,0.1-4.7l-0.4-4.6c-0.1-1.5-0.3-3.1-0.4-4.6
		c-0.1-1.4-0.3-2.9-0.5-4.3c1-0.2,1.9-0.4,2.8-0.6c0.2,1.2,0.4,2.5,0.6,3.7c0.2,1,0.4,2,0.6,3c0.2,1,0.5,2,1,3
		c0.3-1.1,0.3-2.1,0.3-3.1c-0.1-1-0.1-2-0.2-3.1c-0.1-1.3-0.2-2.6-0.4-3.9c1.1-0.2,2.2-0.5,3.3-0.7c0.2,1.4,0.3,2.8,0.5,4.2
		c0.2,1.5,0.4,3.1,0.7,4.6l0.8,4.6c0.3,1.5,0.6,3,1.2,4.5c0.3-1.6,0.2-3.1,0.1-4.7l-0.4-4.6c-0.1-1.5-0.3-3.1-0.4-4.6
		c-0.2-1.5-0.3-3-0.5-4.5c1-0.2,1.9-0.5,2.8-0.7c0.2,1.3,0.4,2.7,0.6,4c0.2,1,0.4,2,0.6,3c0.2,1,0.5,2,1,3c0.3-1.1,0.3-2.1,0.3-3.1
		c-0.1-1-0.1-2-0.2-3.1c-0.1-1.4-0.2-2.9-0.4-4.3c0.9-0.2,1.9-0.5,2.8-0.8c0.1,1.3,0.3,2.6,0.5,3.8c0.2,1.5,0.4,3.1,0.7,4.6l0.8,4.6
		c0.3,1.5,0.6,3,1.2,4.5c0.3-1.6,0.2-3.1,0.1-4.7l-0.4-4.6c-0.1-1.5-0.3-3.1-0.4-4.6c-0.1-1.4-0.3-2.8-0.5-4.1
		c1-0.3,1.9-0.6,2.8-0.8c0.2,1.3,0.4,2.5,0.6,3.8c0.2,1,0.4,2,0.6,3c0.2,1,0.5,2,1,3c0.3-1.1,0.3-2.1,0.3-3.1c-0.1-1-0.1-2-0.2-3.1
		c-0.1-1.4-0.2-2.8-0.4-4.2c0.9-0.3,1.9-0.6,2.8-0.9c0.2,1.3,0.3,2.7,0.5,4c0.2,1.5,0.4,3.1,0.7,4.6l0.8,4.6c0.3,1.5,0.6,3,1.2,4.5
		c0.3-1.6,0.2-3.1,0.1-4.7l-0.4-4.6c-0.1-1.5-0.3-3.1-0.4-4.6c-0.2-1.5-0.3-2.9-0.5-4.4c0.9-0.3,1.9-0.7,2.8-1
		c0.2,1.4,0.4,2.9,0.7,4.3c0.2,1,0.4,2,0.6,3c0.2,1,0.5,2,1,3c0.3-1.1,0.3-2.1,0.3-3.1c-0.1-1-0.1-2-0.2-3.1
		c-0.1-1.6-0.3-3.2-0.5-4.8c0.9-0.4,1.7-0.7,2.6-1.1c3.2,16.9,5.6,34,7,51C249.4,160.3,231.4,167,212,171.7z M265.5,150.1
		c-1.5-16.8-3.8-33.7-7.1-50.4c1-0.5,2.1-1,3-1.5c0.1,0.8,0.2,1.5,0.3,2.3c0.2,1.5,0.4,3.1,0.7,4.6l0.8,4.6c0.3,1.5,0.6,3,1.2,4.5
		c0.3-1.6,0.2-3.1,0.1-4.7l-0.4-4.6c-0.1-1.5-0.3-3.1-0.4-4.6c-0.1-1-0.2-2.1-0.4-3.1c1-0.6,1.9-1.1,2.7-1.7
		c0.2,1.2,0.4,2.4,0.6,3.7c0.2,1,0.4,2,0.6,3c0.2,1,0.5,2,1,3c0.3-1.1,0.3-2.1,0.3-3.1c-0.1-1-0.1-2-0.2-3.1
		c-0.1-1.6-0.3-3.2-0.5-4.7c1.4-1.1,2.6-2.1,3.6-3.2c2.7,15.5,4.4,29.4,5.5,45.3c-0.5,3-1.6,5.8-4.6,8.6
		C270.4,146.6,268,148.4,265.5,150.1z M64.4,203.3c0,2.6,0.1,5.2,0.1,7.7c0.1,2.8,0.1,5.6,0.3,8.4l0.3,8.4c0.1,2.8,0.3,5.6,0.8,8.4
		c0.4-2.8,0.5-5.6,0.5-8.4l0.1-8.4c0-2.8,0-5.6,0-8.4c0-2.4,0-4.8-0.1-7.2c2,0.5,4.1,0.9,6.1,1.4l-0.2,0c0,2.4,0,4.9,0.1,7.3
		c0.1,1.2,0.1,2.4,0.2,3.7c0.1,1.2,0.2,2.4,0.7,3.7c0.5-1.2,0.6-2.5,0.7-3.7c0.1-1.2,0.1-2.4,0.2-3.7c0.1-2.3,0.2-4.6,0.1-7
		c1.6,0.3,3.1,0.6,4.7,0.9c0,1.6,0,3.1,0.1,4.7c0.1,1.6,0.1,3.2,0.2,4.8l0.3,4.8c0.1,1.6,0.2,3.2,0.7,4.8c0.4-1.6,0.5-3.2,0.6-4.8
		l0.1-4.8c0.1-1.6,0-3.2,0.1-4.8c0-1.4,0-2.9,0-4.3c2.4,0.4,4.8,0.9,7.2,1.2c-0.1,2.3-0.1,4.6-0.1,6.9c0,1.2,0.1,2.4,0.1,3.6
		c0,1.2,0.1,2.4,0.6,3.6c0.5-1.2,0.6-2.4,0.8-3.5c0.1-1.2,0.2-2.4,0.3-3.6c0.2-2.2,0.3-4.4,0.3-6.6c1.4,0.2,2.7,0.4,4.1,0.6
		c-0.1,1.4-0.1,2.8-0.1,4.3c0,1.5,0,3.1,0,4.6l0.1,4.6c0,1.5,0.1,3.1,0.5,4.7c0.5-1.5,0.7-3.1,0.8-4.6L96,218
		c0.1-1.5,0.2-3.1,0.3-4.6c0.1-1.3,0.1-2.7,0.1-4c2,0.3,4,0.5,6,0.8c-0.1,2-0.1,4-0.1,5.9c0,1.2,0,2.4,0.1,3.6
		c0,1.2,0.1,2.4,0.5,3.6c0.5-1.2,0.7-2.4,0.8-3.5c0.1-1.2,0.2-2.4,0.3-3.6c0.2-1.9,0.3-3.8,0.4-5.8c1.1,0.1,2.2,0.2,3.4,0.4
		c0,2-0.1,4-0.1,6c0,2.1,0,4.2,0,6.2l0.1,6.2c0,2.1,0.1,4.2,0.6,6.2c0.5-2.1,0.6-4.1,0.7-6.2l0.3-6.2c0.1-2.1,0.1-4.1,0.2-6.2
		c0.1-1.9,0.1-3.9,0.1-5.8c2.2,0.2,4.3,0.4,6.5,0.6l-0.5,0c0,2.4,0,4.7,0,7.1c0,2.4,0,4.7,0.1,7.1l0.2,7.1c0.1,2.4,0.2,4.7,0.6,7.1
		c0.5-2.4,0.6-4.7,0.7-7.1l0.2-7.1c0.1-2.4,0.1-4.7,0.2-7.1c0-2.3,0.1-4.7,0-7c1.7,0.1,3.3,0.2,5,0.4c0,2.9-0.1,5.7,0,8.6
		c0,3,0,6,0.1,9l0.1,9c0,3,0.1,6,0.6,9c0.5-3,0.6-6,0.7-9l0.3-9c0.1-3,0.1-6,0.2-9c0.1-2.8,0.1-5.6,0.1-8.4c2.2,0.1,4.4,0.2,6.6,0.3
		c0.4,28.9,1,57.1,1.8,84c-17.6-0.2-44.9-1.8-70.2-9.9c-3.7-27.3-5.6-55.9-5.7-85.1C59.6,202.1,62,202.7,64.4,203.3z M136.2,296.4
		c-0.8-26.8-1.4-55.1-1.8-83.9c2.3,0.1,4.7,0.1,7,0.2c0,1,0,1.9,0,2.9c0,1.8,0.1,3.7,0.1,5.5l0.2,5.5c0.1,1.8,0.2,3.7,0.7,5.5
		c0.5-1.8,0.6-3.7,0.7-5.5l0.2-5.5c0.1-1.8,0.1-3.7,0.1-5.5c0-1,0-1.9,0-2.9c0.4,0,0.8,0,1.3,0c0.9,0,1.8,0,2.6,0c0.5,0,1.1,0,1.6,0
		c0,2,0,4,0,5.9c0.1,2.6,0.1,5.3,0.2,7.9l0.2,7.9c0.1,2.6,0.2,5.3,0.7,7.9c0.4-2.6,0.6-5.3,0.6-7.9l0.2-7.9c0.1-2.6,0.1-5.3,0.1-7.9
		c0-2,0-4,0-6c2.4,0,4.7-0.1,7.1-0.2c0,0.7,0,1.4,0,2.1c0,1.3,0,2.6,0.1,4l0.2,4c0.1,1.3,0.2,2.6,0.6,4c0.5-1.3,0.6-2.6,0.7-3.9
		l0.2-4c0.1-1.3,0.1-2.6,0.2-4c0-0.7,0-1.5,0-2.2c1.7-0.1,3.4-0.2,5.1-0.3c0,1.9,0,3.8,0.1,5.7c0.1,2.3,0.1,4.6,0.2,6.9l0.2,6.9
		c0.1,2.3,0.2,4.6,0.7,6.9c0.4-2.3,0.6-4.6,0.6-6.9l0.2-6.9c0.1-2.3,0.1-4.6,0.1-6.9c0-1.9,0-3.9,0-5.8c1.4-0.1,2.9-0.2,4.3-0.3
		c0,0.7,0.1,1.4,0.1,2c0.1,1.3,0.2,2.6,0.3,3.9l0.4,3.9c0.1,1.3,0.3,2.6,0.9,3.9c0.4-1.3,0.4-2.7,0.4-4l0-4c0-1.3-0.1-2.6-0.1-4
		c0-0.7-0.1-1.4-0.1-2.1c1.7-0.2,3.4-0.3,5.1-0.5c0,1.6,0,3.3,0.1,4.9c0.1,2,0.1,4,0.2,6l0.2,6c0.1,2,0.2,4,0.7,6c0.4-2,0.6-4,0.6-6
		l0.2-6c0.1-2,0.1-4,0.1-6c0-1.7,0-3.4,0-5.1c1.3-0.2,2.7-0.3,4-0.5c0,0.6,0,1.2,0,1.7c0,1.3,0,2.6,0.1,4l0.2,4
		c0.1,1.3,0.2,2.6,0.6,4c0.5-1.3,0.6-2.6,0.7-3.9l0.2-4c0.1-1.3,0.1-2.6,0.2-4c0-0.7,0-1.4,0-2.1c2-0.3,4-0.6,6-0.9
		c0,1.7,0,3.4,0.1,5.1c0.1,2,0.1,4,0.2,6l0.2,6c0.1,2,0.2,4,0.7,6c0.4-2,0.6-4,0.6-6l0.2-6c0.1-2,0.1-4,0.1-6c0-1.8,0-3.6,0-5.4
		c2.3-0.4,4.5-0.8,6.8-1.2c0,2.2,0,4.5,0,6.7c0,2.8,0.1,5.6,0.1,8.4l0.2,8.4c0.1,2.8,0.2,5.6,0.7,8.4c0.5-2.8,0.6-5.6,0.6-8.4
		l0.2-8.4c0.1-2.8,0.1-5.6,0.1-8.4c0-2.4,0-4.8,0-7.1c2.2-0.5,4.5-1,6.7-1.5c0.3,28.8-0.6,57-2.8,83.8c-16.7,4.1-37.2,6.8-62.1,7
		C142.5,296.4,139.6,296.4,136.2,296.4z M141.6,3c58.1,0,107.8,12.5,114.3,28.1l-0.1,0c0.2,0.4,0.3,0.8,0.5,1.2
		c0.2,0.7,0.3,1.4,0.3,2.2c0,17.1-52.7,31.5-115,31.5s-115-14.4-115-31.5S79.3,3,141.6,3z M16.9,56.9c0.4,3,1.3,6.3,4.8,9.3
		C37.3,79.5,76,88.2,125,89.9c-1.2,0.9-2.4,2.2-3.5,3.8c-1.1-0.1-2.2-0.2-3.2-0.2c-1.3,0-2.5-0.1-3.8-0.1l-3.8,0
		c-1.3,0-2.5,0-3.8,0.4c1.2,0.5,2.5,0.8,3.7,0.9l3.8,0.5c1.3,0.2,2.5,0.2,3.8,0.4c0.8,0.1,1.5,0.1,2.3,0.2c-0.5,1.1-0.9,2.3-1.2,3.6
		c-1,0-2-0.1-3-0.1c-0.8,0-1.6,0-2.3,0.1c-0.8,0-1.6,0.1-2.4,0.5c0.7,0.5,1.5,0.7,2.3,0.8c0.8,0.1,1.5,0.2,2.3,0.3
		c0.9,0.1,1.9,0.2,2.8,0.3c-0.1,0.5-0.1,1-0.1,1.5c0,0.6,0,1.2,0,1.7c-0.7,0-1.5-0.1-2.2-0.1c-1.3,0-2.5-0.1-3.8-0.1l-3.8,0
		c-1.3,0-2.5,0-3.8,0.4c1.2,0.5,2.5,0.8,3.7,0.9l3.8,0.5c1.3,0.2,2.5,0.2,3.8,0.4c0.8,0.1,1.7,0.1,2.6,0.2c0.2,1.3,0.6,2.5,1.1,3.6
		c-0.8,0-1.6,0-2.4,0c-0.7,0-1.4,0-2.1,0.1c-0.7,0-1.4,0.1-2.1,0.5c0.7,0.5,1.3,0.7,2,0.8c0.7,0.1,1.4,0.2,2.1,0.3
		c1.2,0.2,2.5,0.3,3.7,0.4c1,1.4,2.1,2.5,3.3,3.4c-52.9-1.9-97-12.7-110.4-27.4c-1.7-1.9-2.8-3.8-3.4-5.7c0.2,0.2,0.4,0.4,0.7,0.6
		c1.5,1.3,3.1,2.4,4.8,3.4c1.7,1,3.4,1.9,5.1,2.7c0.9,0.4,1.8,0.8,2.7,1.1c0.5,0.2,0.9,0.3,1.4,0.4c0.2,0.1,0.5,0.1,0.7,0.1
		c0.1,0,0.2,0,0.4,0c0.1,0,0.3,0,0.4-0.1c-0.1,0.1-0.2,0-0.3-0.1c-0.1-0.1-0.2-0.1-0.3-0.2l-0.6-0.4l-1.2-0.7L22,87.9
		c-1.6-0.9-3.3-2-4.8-3c-1.5-1.1-3.1-2.2-4.4-3.4c-0.7-0.6-1.3-1.3-1.8-1.9c-0.2-0.3-0.4-0.7-0.6-1c0-0.1,0-0.1,0-0.2
		c0.1-0.7,0.2-2,0.5-3.7c0.3,0.3,0.6,0.6,1,0.9c1.3,1.1,2.7,2.1,4.2,2.9c1.5,0.8,2.9,1.5,4.5,2.2c0.8,0.3,1.5,0.6,2.3,0.8
		c0.4,0.1,0.8,0.2,1.2,0.3c0.2,0,0.4,0,0.6,0.1c0.1,0,0.2,0,0.3,0c0.1,0,0.3,0,0.3-0.1c-0.1,0.1-0.2,0-0.3,0c-0.1,0-0.2-0.1-0.3-0.1
		l-0.5-0.3l-1.1-0.6l-2.1-1.1c-1.4-0.8-2.8-1.6-4.1-2.5c-1.3-0.9-2.6-1.8-3.7-2.9c-0.5-0.5-1.1-1.1-1.4-1.7
		c-0.1-0.2-0.2-0.4-0.3-0.6c0.2-1.1,0.5-2.4,0.8-3.6c0.5,0.7,1,1.2,1.6,1.8c1.3,1.1,2.7,2.1,4.2,2.9c1.5,0.8,2.9,1.5,4.5,2.2
		c0.8,0.3,1.5,0.6,2.3,0.8c0.4,0.1,0.8,0.2,1.2,0.3c0.2,0,0.4,0,0.6,0.1c0.1,0,0.2,0,0.3,0c0.1,0,0.3,0,0.3-0.1
		c-0.1,0.1-0.2,0-0.3,0c-0.1,0-0.2-0.1-0.3-0.1l-0.5-0.3L25.2,75l-2.1-1.1c-1.4-0.8-2.8-1.6-4.1-2.5c-1.3-0.9-2.6-1.8-3.7-2.9
		c-0.5-0.5-1.1-1.1-1.4-1.7c-0.4-0.6-0.6-1.2-0.5-1.6l-0.2,0C14.1,62,15.3,58.9,16.9,56.9z M12.6,90.8l0-0.2
		c0.6,0.6,1.1,1.1,1.8,1.7c-0.1,1-0.2,2-0.3,3c-0.1,1.3-0.2,2.6-0.3,3.9l-0.2,3.9c-0.1,1.3-0.1,2.6,0.2,3.9c0.6-1.2,0.9-2.5,1.1-3.8
		l0.6-3.8c0.2-1.3,0.4-2.6,0.5-3.8c0.1-0.6,0.1-1.2,0.2-1.7c1,0.8,2.1,1.5,3.3,2.3c-0.2,1.9-0.4,3.8-0.5,5.7
		c-0.1,2.1-0.3,4.2-0.5,6.3l-0.4,6.3c-0.1,2.1-0.2,4.2,0.1,6.4c0.6-2.1,1-4.2,1.2-6.2l0.8-6.3c0.3-2.1,0.5-4.2,0.7-6.3
		c0.2-1.6,0.3-3.1,0.4-4.7c3.6,2.1,7.8,4.1,12.6,5.9c-0.2,1.8-0.4,3.7-0.5,5.6c-0.1,2.1-0.3,4.2-0.5,6.3l-0.4,6.3
		c-0.1,2.1-0.2,4.2,0.1,6.4c0.6-2.1,1-4.2,1.2-6.2l0.8-6.3c0.3-2.1,0.5-4.2,0.7-6.3c0.2-1.7,0.3-3.3,0.5-5c1.7,0.6,3.4,1.2,5.2,1.8
		c-0.1,1.2-0.2,2.5-0.3,3.7c-0.1,1.6-0.2,3.3-0.3,4.9l-0.2,4.9c-0.1,1.6-0.1,3.3,0.2,5c0.6-1.6,0.9-3.2,1.1-4.8l0.6-4.9
		c0.2-1.6,0.4-3.3,0.6-4.9c0.1-1.1,0.2-2.2,0.3-3.3c2.2,0.7,4.4,1.3,6.7,1.9c-0.2,1.9-0.3,3.9-0.5,5.8c-0.2,2.3-0.3,4.6-0.5,7
		l-0.4,7c-0.1,2.3-0.2,4.7,0,7c0.7-2.3,1-4.6,1.3-6.9l0.8-6.9c0.3-2.3,0.5-4.6,0.7-7c0.2-1.8,0.3-3.7,0.5-5.5
		c2.6,0.7,5.2,1.3,7.9,1.9c-2.4,19.8-4,39.9-4.8,59.9c-20.7-6-32.8-13.6-39.6-19.2c-4.4-3.7-7.6-9.3-8.6-14.9
		C8,117.9,10.2,104.7,12.6,90.8z M5.4,175c0.9,1.1,1.9,2.2,3,3.2c0,1.5,0,3,0.1,4.5c0.1,1.7,0.1,3.3,0.2,5l0.3,5
		c0.1,1.7,0.2,3.3,0.7,5c0.4-1.7,0.6-3.3,0.6-5l0.2-5c0.1-1.7,0-3.3,0.1-5c0-0.9,0-1.8,0-2.7c1.6,1.3,3.4,2.7,5.3,4
		c0,2.2,0.1,4.3,0.2,6.5c0.1,2.7,0.2,5.4,0.3,8.1l0.4,8.1c0.1,2.7,0.3,5.4,0.8,8.1c0.4-2.7,0.5-5.4,0.5-8.2l0-8.2
		c0-2.7,0-5.4-0.1-8.1c0-1.7-0.1-3.4-0.1-5.2c1.5,0.9,3,1.8,4.6,2.7c0,1.3,0,2.5,0.1,3.8c0.1,1.7,0.1,3.3,0.2,5l0.3,5
		c0.1,1.7,0.2,3.3,0.7,5c0.4-1.7,0.6-3.3,0.6-5l0.2-5c0.1-1.7,0-3.3,0.1-5c0-0.9,0-1.8,0-2.7c1.9,1,3.9,1.9,5.9,2.9l-0.1,0
		c0,2.7,0.1,5.4,0.2,8.1c0.1,2.7,0.2,5.4,0.3,8.1l0.4,8.1c0.1,2.7,0.3,5.4,0.8,8.1c0.4-2.7,0.5-5.4,0.5-8.2l0-8.2
		c0-2.7,0-5.4-0.1-8.1c0-2.4-0.1-4.8-0.1-7.3c1.7,0.7,3.5,1.5,5.4,2.2c0,1.8,0.1,3.5,0.1,5.3c0.1,2.1,0.1,4.2,0.3,6.3l0.3,6.3
		c0.1,2.1,0.3,4.2,0.8,6.3c0.4-2.1,0.5-4.2,0.5-6.3l0.1-6.3c0-2.1,0-4.2,0-6.3c0-1.5-0.1-3-0.1-4.5c1.4,0.5,2.8,1,4.2,1.5
		c0.9,0.3,1.8,0.6,2.7,0.9c0,2.5,0,5.1,0,7.6c0,3.1,0,6.2,0.1,9.3l0.2,9.3c0,3.1,0.2,6.2,0.6,9.3c0.5-3.1,0.6-6.2,0.7-9.3l0.3-9.3
		c0.1-3.1,0.1-6.2,0.2-9.3c0-2.3,0-4.6,0.1-6.9c1.9,0.6,3.8,1.2,5.8,1.8c0.1,29.1,1.9,57.6,5.5,84.8c-13.4-4.6-26.1-11.2-36.3-20.6
		c-3.7-3.4-9.4-11.3-12.1-18c-0.1-0.2-0.2-0.3-0.3-0.4c-4.1-19.9-5.6-36-5.7-60.4C5.4,182.8,5.4,178.8,5.4,175z M45.4,353
		c5.3,3.7,13.2,8.5,23.7,13.1c3,1.3,6,2.5,9.1,3.7l-0.4,0.1c1.1,3.6,2.2,7.1,3.4,10.6C65.2,373.6,52.4,364.1,45.4,353z M142.6,391.5
		c-0.7,0-1.5,0-2.2,0c-0.2-3.4-0.4-6.8-0.6-10.2c1.7,0.1,3.4,0.1,5.1,0.1c0.7,0,1.4,0,2.1,0c18.2,0,34.2-2.2,47.9-5.6
		c-0.6,2.8-1.2,5.7-1.8,8.5C178.4,388.6,161.4,391.1,142.6,391.5z M196.5,383.3c0.6-2.8,1.2-5.5,1.7-8.3c18-4.8,31.9-11.7,41.4-18
		C229.7,368.4,215,377.3,196.5,383.3z M249.3,345c-10.6,11.8-46,34-104.4,33.4c-3.1,0-6.1-0.1-9-0.3c-2.9-0.9-7-3-6.8-7.2
		c0.3-4.4,4.2-6.5,6.8-7.3c3.8,0,7.6,0,11.6-0.1c66.7-1.5,96.6-23.2,109.2-37.5c-0.2,1.1-0.5,2.4-0.9,3.7l-0.1,0
		c-0.2,1.5-1.1,3-2.1,4.4c-1,1.4-2.3,2.8-3.5,4.1c-1.3,1.3-2.6,2.5-4,3.7l-2.1,1.8l-1,0.9l-0.5,0.4c-0.1,0.1-0.2,0.1-0.3,0.2
		c-0.1,0-0.2,0.2-0.3,0.1c0,0.1,0.1,0.1,0.1,0.1c0.1,0,0.1,0,0.2,0c0.1,0,0.2,0,0.4-0.1c0.2-0.1,0.5-0.1,0.7-0.2
		c0.4-0.2,0.9-0.4,1.3-0.6c0.8-0.5,1.6-1,2.4-1.5c1.5-1.1,3-2.3,4.4-3.5c0.6-0.5,1.1-1.1,1.7-1.7C251.7,341,250.3,343.9,249.3,345z
		 M262.3,297c-1.8,8.7-3.4,17-6.6,25.6c-1.9,2.3-4.2,4.8-7.2,7.4c3.2-12,6.1-24,8.5-35.9c0.5-0.4,1-0.7,1.5-1.1
		c-0.1,0.4-0.1,0.7-0.2,1.1c-0.2,1.3-0.4,2.6-0.6,3.9l-0.5,3.9c-0.2,1.3-0.3,2.6-0.1,4c0.7-1.2,1-2.5,1.3-3.7l0.9-3.8
		c0.3-1.3,0.6-2.5,0.8-3.8c0.2-1,0.4-2.1,0.6-3.1c1.1-0.8,2.1-1.6,3-2.4C263.4,291.7,262.8,294.3,262.3,297z M267.3,281.6
		c-6.1,6.8-20.4,17-42.3,25.4c-15.7,6-40.6,12.9-72.9,13.9c0.7-0.6,1.3-1.2,2-1.9c1.3,0,2.5-0.1,3.8-0.2c0.7-0.1,1.4-0.1,2.1-0.2
		c0.7-0.1,1.4-0.2,2.1-0.7c-0.7-0.5-1.4-0.6-2.1-0.6c-0.7-0.1-1.4-0.1-2.1-0.2c-0.8-0.1-1.6-0.1-2.4-0.1c0.4-0.8,0.8-1.7,1.1-2.7
		c1.8,0,3.6-0.1,5.4-0.2c1-0.1,1.9-0.1,2.9-0.2c1-0.1,1.9-0.2,2.9-0.7c-1-0.5-1.9-0.6-2.9-0.6c-1-0.1-1.9-0.1-2.9-0.2
		c-1.7-0.1-3.3-0.1-5-0.1c0.1-0.7,0.2-1.4,0.2-2.1c0-0.5,0-0.9,0-1.3c1,0,1.9-0.1,2.9-0.2c0.7-0.1,1.4-0.1,2.1-0.2
		c0.7-0.1,1.4-0.2,2.1-0.7c-0.7-0.5-1.4-0.6-2.1-0.6c-0.7-0.1-1.4-0.1-2.1-0.2c-1-0.1-2.1-0.1-3.1-0.1c-0.2-1.4-0.6-2.7-1.3-3.8
		c1.5,0,3-0.1,4.5-0.2c1.2-0.1,2.4-0.1,3.7-0.2c1.2-0.1,2.4-0.2,3.7-0.7c-1.2-0.4-2.4-0.6-3.7-0.6c-1.2-0.1-2.4-0.1-3.7-0.2
		c-2-0.1-3.9-0.1-5.9-0.1c-0.1-0.2-0.3-0.3-0.4-0.5c-0.5-0.5-1-0.9-1.5-1.3c77-2.2,109.3-28.9,122.1-45.5l0.1,0
		c0.2,1.1,0.1,2.6,0,4.3c-0.3,0.6-0.7,1.2-1.1,1.8c-1.1,1.6-2.4,3.1-3.8,4.6c-1.4,1.5-2.8,2.9-4.3,4.2l-2.2,2l-1.1,1l-0.6,0.5
		c-0.1,0.1-0.2,0.2-0.3,0.2c-0.1,0.1-0.2,0.2-0.3,0.1c0,0.1,0.1,0.1,0.2,0.1c0.1,0,0.1,0,0.2,0c0.1,0,0.3-0.1,0.4-0.1
		c0.2-0.1,0.5-0.2,0.7-0.3c0.5-0.2,0.9-0.5,1.4-0.7c0.9-0.5,1.7-1.1,2.5-1.8c1.6-1.3,3.2-2.6,4.7-4c1.1-1,2.1-2.1,3.1-3.3
		c-0.2,0.9-0.3,1.7-0.6,2.6c-0.4,0.9-1,1.9-1.6,2.8c-1,1.4-2.3,2.8-3.5,4.1c-1.3,1.3-2.6,2.5-4,3.7l-2.1,1.8l-1,0.9l-0.5,0.4
		c-0.1,0.1-0.2,0.1-0.3,0.2c-0.1,0-0.2,0.2-0.3,0.1c0,0.1,0.1,0.1,0.1,0.1c0.1,0,0.1,0,0.2,0c0.1,0,0.2,0,0.4-0.1
		c0.2-0.1,0.5-0.1,0.7-0.2c0.4-0.2,0.9-0.4,1.3-0.6c0.8-0.5,1.6-1,2.4-1.5c1.5-1.1,3-2.3,4.4-3.5c0.9-0.8,1.7-1.6,2.5-2.5
		c-0.4,1.2-0.7,2.4-1.1,3.5c-0.2,0.3-0.4,0.6-0.6,0.9c-1.2,1.6-2.7,3.1-4.2,4.6c-1.5,1.4-3.1,2.8-4.8,4.1l-2.5,1.9l-1.3,1l-0.6,0.5
		c-0.1,0.1-0.2,0.1-0.3,0.2c-0.1,0-0.3,0.2-0.3,0.1c0,0.1,0.1,0.1,0.2,0.1c0.1,0,0.1,0,0.2,0c0.1,0,0.3-0.1,0.4-0.1
		c0.3-0.1,0.5-0.1,0.8-0.2c0.5-0.2,1-0.4,1.5-0.6c1-0.5,1.9-1,2.8-1.6c1.8-1.2,3.5-2.5,5.2-3.8c0.5-0.4,1.1-0.9,1.6-1.4
		C268.2,280.3,267.8,281.1,267.3,281.6z M273.4,250.3c-0.2,0.2-0.3,0.4-0.5,0.7c-2.5,3.4-5.9,7.3-10.4,11.3
		c3.7-26.7,5.4-53.5,4.8-79.8c0.9-0.6,1.8-1.3,2.6-1.9c0,1.2,0,2.4,0,3.6c0.1,2.1,0.1,4.2,0.2,6.4l0.3,6.4c0.1,2.1,0.2,4.2,0.7,6.4
		c0.4-2.1,0.5-4.3,0.6-6.4l0.1-6.4c0.1-2.1,0-4.2,0.1-6.4c0-1.7,0-3.4,0-5.1c1-0.8,1.9-1.6,2.7-2.4c0,0.7,0,1.4,0,2.1
		c0,1.5,0,3.1,0.1,4.6l0.2,4.6c0.1,1.5,0.2,3.1,0.6,4.7c0.5-1.5,0.6-3.1,0.7-4.6l0.2-4.6c0.1-1.5,0.1-3.1,0.1-4.6c0-1.3,0-2.7,0-4
		c0.7-0.7,1.3-1.4,1.9-2.1C278.7,197.1,276.8,225.5,273.4,250.3z"/>
	<path class="st0" d="M140.5,102.4c0-3.4-2.7-6.1-6.1-6.1s-6.1,2.7-6.1,6.1s2.7,6.1,6.1,6.1S140.5,105.8,140.5,102.4z M131.3,102.4
		c0-1.7,1.4-3.1,3.1-3.1c1.7,0,3.1,1.4,3.1,3.1c0,1.7-1.4,3.1-3.1,3.1C132.7,105.6,131.3,104.2,131.3,102.4z"/>
	<path class="st0" d="M152,202.9c3.4,0,6.2-2.8,6.2-6.2c0-3.4-2.8-6.2-6.2-6.2s-6.2,2.8-6.2,6.2C145.8,200.1,148.6,202.9,152,202.9z
		 M152,193.4c1.8,0,3.2,1.5,3.2,3.2s-1.5,3.2-3.2,3.2s-3.2-1.5-3.2-3.2S150.2,193.4,152,193.4z"/>
	<path class="st0" d="M142.6,304.7c-3.2,0-5.8,2.5-5.8,5.5s2.6,5.5,5.8,5.5s5.8-2.5,5.8-5.5S145.8,304.7,142.6,304.7z M142.6,312.8
		c-1.6,0-2.8-1.1-2.8-2.5s1.3-2.5,2.8-2.5s2.8,1.1,2.8,2.5S144.1,312.8,142.6,312.8z"/>
	<path class="st0" d="M139.8,366.5c-3,0-5.5,2.2-5.5,4.9s2.5,4.9,5.5,4.9s5.5-2.2,5.5-4.9S142.9,366.5,139.8,366.5z M139.8,373.3
		c-1.4,0-2.5-0.9-2.5-1.9c0-1.1,1.2-1.9,2.5-1.9s2.5,0.9,2.5,1.9C142.3,372.5,141.2,373.3,139.8,373.3z"/>
</g>
</svg>
