<?xml version="1.0" encoding="utf-8"?>
<!-- Generator: Adobe Illustrator 23.0.0, SVG Export Plug-In . SVG Version: 6.00 Build 0)  -->
<svg version="1.1" id="Layer_1" xmlns="http://www.w3.org/2000/svg" xmlns:xlink="http://www.w3.org/1999/xlink" x="0px" y="0px"
	 viewBox="0 0 64 64" style="enable-background:new 0 0 64 64;" xml:space="preserve">
<style type="text/css">
	.st0{fill:#EBDBB7;}
</style>
<path class="st0" d="M32.2,20.3c-7.2,0-13,5.8-13,12.9s5.8,12.9,13,12.9s13-5.8,13-12.9S39.4,20.3,32.2,20.3z M32.2,41.5
	c-4.7,0-8.5-3.8-8.5-8.4s3.8-8.4,8.5-8.4s8.5,3.8,8.5,8.4S36.8,41.5,32.2,41.5L32.2,41.5z M48.8,19.7c0,1.7-1.4,3-3,3
	c-1.7,0-3-1.3-3-3s1.4-3,3-3C47.4,16.7,48.8,18.1,48.8,19.7z M57.4,22.8c-0.2-4-1.1-7.6-4.1-10.5s-6.6-3.9-10.6-4.1
	c-4.2-0.2-16.8-0.2-21,0c-4.1,0.2-7.7,1.1-10.7,4s-3.9,6.5-4.1,10.5c-0.2,4.2-0.2,16.6,0,20.8C7.1,47.5,8,51.1,11,54
	s6.6,3.9,10.6,4.1c4.2,0.2,16.8,0.2,21,0c4.1-0.2,7.7-1.1,10.6-4.1c3-2.9,3.9-6.5,4.1-10.5C57.6,39.4,57.6,26.9,57.4,22.8L57.4,22.8
	z M52,48c-0.9,2.2-2.6,3.9-4.8,4.8c-3.3,1.3-11.3,1-15,1s-11.6,0.3-15-1c-2.2-0.9-3.9-2.6-4.8-4.8c-1.3-3.3-1-11.2-1-14.8
	s-0.3-11.5,1-14.8c0.9-2.2,2.6-3.9,4.8-4.8c3.3-1.3,11.3-1,15-1s11.6-0.3,15,1c2.2,0.9,3.9,2.6,4.8,4.8c1.3,3.3,1,11.2,1,14.8
	S53.3,44.7,52,48z"/>
</svg>
