<?xml version="1.0" encoding="utf-8"?>
<!-- Generator: Adobe Illustrator 23.0.0, SVG Export Plug-In . SVG Version: 6.00 Build 0)  -->
<svg version="1.1" id="Layer_1" xmlns="http://www.w3.org/2000/svg" xmlns:xlink="http://www.w3.org/1999/xlink" x="0px" y="0px"
	 viewBox="0 0 203 197.5" style="enable-background:new 0 0 203 197.5;" xml:space="preserve">
<style type="text/css">
	.st0{fill:#FFF7E3;}
</style>
<g>
	<path class="st0" d="M70.1,15.6c0.4-0.2,0.8-0.1,1.2,0c-0.1-0.1-0.2-0.3-0.3-0.3c12.8-4.5,26.6-6,40-4.6c0.4-3.4,0.8-6.7,1.3-10.1
		c-2.8-0.3-5.7-0.4-8.5-0.6h-4.2c-9.1,0.2-18.3,1.5-27.1,4.1C63.6,6.7,55,10.5,47.1,15.3c1.9,2.8,3.8,5.7,5.7,8.5
		C58.3,20.5,64.1,17.7,70.1,15.6z"/>
	<path class="st0" d="M174.6,30.3C158.7,14.2,137.4,3.7,115,0.9c-0.4,3.4-0.8,6.7-1.2,10.1c20,2.6,39.1,11.9,53.3,26.3
		C169.5,34.9,172,32.6,174.6,30.3z"/>
	<path class="st0" d="M184.5,62.4c4.4,9.5,7.1,19.8,7.8,30.2c3.5-0.2,6.9-0.4,10.4-0.5c-0.4-5.2-1.1-10.3-2.3-15.4
		c-3.9-16.6-12.3-32-24-44.4c-2.5,2.4-5.1,4.6-7.6,7C175.3,46,180.6,53.8,184.5,62.4z"/>
	<path class="st0" d="M13.9,74.4c-3.3-1-6.6-1.9-9.9-2.9c-6.3,21.2-5,44.6,3.7,65c3.2-1.3,6.4-2.7,9.6-4
		C9.5,114.2,8.3,93.3,13.9,74.4z"/>
	<path class="st0" d="M202.9,94.7c-3.5,0.2-6.9,0.4-10.4,0.6c0.5,11.3-1.3,22.7-5.2,33.3c-2.9,8-7,15.5-12.1,22.4
		c2.8,2,5.6,4.1,8.3,6.1c2.4-3.2,4.6-6.6,6.6-10.1C199.2,131.1,203.6,112.8,202.9,94.7z"/>
	<path class="st0" d="M61.6,178.5c-1.6,3-3.1,6-4.7,9c20.5,9.8,44.2,12.5,66.4,7.8c-0.8-3.3-1.6-6.6-2.4-9.9
		C101,189.6,79.9,187.2,61.6,178.5z"/>
	<path class="st0" d="M50.5,25.3c-1.9-2.8-3.8-5.7-5.7-8.5c-8.5,5.6-16.2,12.5-22.7,20.3C14.5,46.5,8.5,57.3,4.7,68.9
		c3.3,1,6.6,1.9,10,2.9C20.9,52.8,33.9,36.2,50.5,25.3z"/>
	<path class="st0" d="M18.3,134.9c-3.2,1.3-6.4,2.6-9.6,4c9.3,20.4,25.8,37.3,45.7,47.5c1.6-3,3.1-6,4.7-9
		C41.3,168.2,26.6,153.1,18.3,134.9z"/>
	<path class="st0" d="M123.5,184.8c0.8,3.3,1.6,6.6,2.4,9.9c21.9-5.2,42-17.9,56-35.6c-2.8-2-5.6-4.1-8.3-6.1
		C161,168.8,143.1,180.1,123.5,184.8z"/>
	<path class="st0" d="M100.7,50.3c1.6,0.1,3.1,0.1,4.7,0.1c-0.3-0.3-0.6-0.7-1-1c0-2.3,0.1-4.5,0.2-6.8c0.3-0.3,0.7-0.7,1-1
		c-0.3-0.3-0.6-0.6-0.9-0.9c0.1-3.5,0.2-7,0.3-10.5c0.4-0.3,0.7-0.7,1.1-1c-1.6,0-3.1-0.1-4.7-0.1c0.3,0.3,0.6,0.7,0.9,1
		c-0.1,3.5-0.1,7.1-0.3,10.6c-0.3,0.3-0.6,0.6-0.9,0.9c0.3,0.3,0.6,0.7,0.9,1c0,2.3-0.1,4.5-0.1,6.8C101.4,49.6,101,49.9,100.7,50.3
		z"/>
	<path class="st0" d="M94.9,38.6c-0.2-1.5-0.5-3-0.8-4.5c-0.5-2.3-2.9-4-5.2-3.8c-1.7,0.2-3.4,0.6-5.2,0.9c0.4,0.3,0.7,0.5,1.1,0.8
		c0.6,3.5,1.3,6.9,1.9,10.4c-0.3,0.4-0.5,0.7-0.8,1.1c0.4,0.2,0.7,0.5,1.1,0.7c0.4,2.2,0.8,4.4,1.2,6.6c-0.2,0.4-0.5,0.8-0.7,1.2
		c1.5-0.3,3.1-0.6,4.6-0.8c-0.4-0.3-0.8-0.5-1.1-0.8c-0.4-2.1-0.8-4.2-1.1-6.3c0.3-0.1,0.6-0.1,0.9-0.2c1,1.8,1.9,3.7,2.9,5.5
		c0.4,0.5-0.1,1-0.2,1.5c1.5-0.3,3.1-0.6,4.6-0.8c-0.6-0.4-1.4-0.5-1.7-1.3c-1-2-2.1-4-3.1-6C94.3,41.8,95.1,40.2,94.9,38.6z
		 M91.8,40.3c-0.5,0.9-1.6,1.1-2.5,1.2c-0.5-2.8-1-5.5-1.5-8.3c0.9-0.2,1.9-0.4,2.7,0.3c1.1,0.7,1,2.2,1.3,3.4
		C92,38,92.6,39.3,91.8,40.3z"/>
	<path class="st0" d="M113.1,41.1c-0.1,0.4-0.1,0.9-0.2,1.3c0.4,0.1,0.9,0.1,1.3,0.2c0.4,0.6,0.9,1.1,1.2,1.8c0.3,0.6,0,1.3-0.1,1.9
		c-0.2,0.8-0.3,1.9-1.1,2.3c-0.8,0.5-1.8,0.1-2.2-0.7c-0.3-0.6-0.1-1.2,0-1.8c-0.9,0-1.9,0.1-2.8,0.1c-0.4,1.9,0.6,4.1,2.4,4.9
		c1.8,0.9,4.1,0.4,5.3-1.2c0.7-0.8,0.8-1.8,1.1-2.8c0.2-1,0.5-2,0.3-3c-0.2-1.2-1.1-2.1-1.8-3.1c0.1-0.4,0.1-0.9,0.2-1.3
		c-0.4-0.1-0.9-0.1-1.3-0.2c-0.5-0.8-1.5-1.6-1.3-2.7c0.1-0.9,0.3-1.8,0.6-2.6c0.4-1,1.9-1.2,2.6-0.3c0.6,0.6,0.4,1.4,0.3,2.2
		c0.9-0.1,1.9-0.1,2.8-0.1c0.2-1.3,0-2.7-0.9-3.7c-1.5-1.9-4.6-2.1-6.3-0.5c-1.4,1.2-1.5,3.2-1.9,4.9
		C111,38.4,112.1,39.9,113.1,41.1z"/>
	<path class="st0" d="M77.4,46.8c0.5,0.3,1.2,0.3,1.4,0.9c0.8,2,1.6,3.9,2.4,5.9c-0.2,0.4-0.4,0.8-0.5,1.3c1.5-0.6,2.9-1.2,4.3-1.8
		c-0.4-0.2-0.9-0.4-1.3-0.6c-0.8-2.1-1.7-4.2-2.6-6.3c0.2-0.4,0.3-0.8,0.5-1.2c-0.4-0.2-0.8-0.3-1.2-0.5c-1.3-3.3-2.6-6.5-4-9.8
		c0.2-0.4,0.4-0.9,0.5-1.3c-1.5,0.6-2.9,1.2-4.3,1.8c0.5,0.3,1.2,0.3,1.4,1c1.3,3.1,2.5,6.2,3.8,9.4C77.8,46,77.6,46.4,77.4,46.8z"
		/>
	<path class="st0" d="M119.2,53.2c1.4,0.7,2.8,1.4,4.2,2.1c-0.1-0.4-0.3-0.8-0.4-1.3c0.9-1.9,1.9-3.9,2.9-5.8c1,0.5,1.9,1,2.9,1.5
		c-1,1.9-1.9,3.8-2.8,5.7c-0.4,0.1-0.9,0.3-1.3,0.4c1.4,0.7,2.8,1.4,4.2,2.1c-0.1-0.4-0.3-0.9-0.4-1.3c1-2,2-4.1,3.1-6.1
		c0.4-0.1,0.8-0.3,1.2-0.4c-0.1-0.4-0.3-0.8-0.4-1.3c1.6-3.1,3.1-6.3,4.7-9.5c0.5-0.1,0.9-0.3,1.4-0.4c-1.4-0.7-2.8-1.4-4.2-2.1
		c0.1,0.4,0.3,0.9,0.4,1.3c-1.5,3-3,6-4.5,9.1c-1-0.5-1.9-1-2.9-1.5c1.5-3,3-6.1,4.5-9.1c0.4-0.1,0.9-0.3,1.3-0.4
		c-1.4-0.7-2.8-1.4-4.2-2.1c0.1,0.4,0.3,0.9,0.4,1.3c-1.6,3.2-3.2,6.3-4.7,9.5c-0.4,0.1-0.8,0.3-1.2,0.4c0.1,0.4,0.3,0.8,0.4,1.3
		c-1,2-2,4.1-3.1,6.1C120.1,52.9,119.7,53,119.2,53.2z"/>
	<path class="st0" d="M144,66.1c1.5,0.4,3.1-0.7,3.2-2.2c0.3-1.8-1.6-3.5-3.4-2.9c-0.8,0.2-1.5,0.9-1.7,1.7
		C141.6,64,142.6,65.7,144,66.1z"/>
	<path class="st0" d="M56.9,66.9c1.6,0.8,3.6-0.4,3.7-2.1c0.3-1.7-1.6-3.4-3.2-2.8c-0.8,0.2-1.5,0.9-1.8,1.7
		C55,64.8,55.7,66.3,56.9,66.9z"/>
	<path class="st0" d="M169.7,78.9c-0.4-1.5-0.8-3-1.2-4.6c-0.2,0.4-0.5,0.9-0.7,1.3c-3.3,1.3-6.6,2.7-9.9,4
		c-0.4-0.2-0.7-0.4-1.1-0.5c-0.3,0.5-0.4,1.2-1,1.4c-1.8,0.8-3.7,1.5-5.5,2.3c-0.6,0.3-1.1-0.2-1.6-0.3c0.4,1.5,0.8,3,1.1,4.5
		c0.3-0.4,0.5-0.7,0.8-1.1c3.5-0.4,7.1-0.8,10.6-1.1c-3.3,1.3-6.6,2.7-9.9,4c-0.4-0.2-0.8-0.4-1.2-0.6c0.4,1.5,0.8,3,1.1,4.6
		c0.3-0.4,0.5-0.7,0.8-1.1c2.3-0.3,4.6-0.5,6.9-0.7c0.4,0.3,0.8,0.5,1.1,0.8c0.2-0.3,0.5-0.7,0.7-1c3.5-0.4,7.1-0.7,10.6-1.1
		c0.4,0.3,0.8,0.6,1.2,0.9c-0.4-1.5-0.8-3.1-1.2-4.6c-0.3,0.4-0.5,0.7-0.8,1.1c-3.5,0.4-7,0.7-10.5,1.1c3.3-1.3,6.5-2.7,9.8-4
		c0.4,0.2,0.8,0.4,1.2,0.5c-0.4-1.5-0.7-3-1.1-4.5c-0.3,0.4-0.5,0.7-0.8,1.1c-3.5,0.4-7.1,0.8-10.6,1.1c3.1-1.3,6.2-2.5,9.3-3.8
		C168.5,78.2,169.1,78.7,169.7,78.9z"/>
	<path class="st0" d="M37,79.2c0.6-0.6,1.5-0.3,2.2-0.1c0.1-0.9,0.1-1.9,0.1-2.8c-1-0.2-2-0.2-2.9,0.2c-1.5,0.6-2.6,2.1-2.7,3.7
		c-0.2,1.9,1,3.9,2.8,4.5c1.4,0.4,2.8,1.1,4.3,0.9c1.1-0.1,1.9-0.8,2.8-1.3c0.5-0.3,1,0.1,1.6,0.1c0.1-0.4,0.2-0.9,0.3-1.3
		c0.7-0.4,1.3-0.9,2.1-1.1c1,0,2,0.4,2.9,0.7c1.1,0.3,1.5,1.8,0.7,2.6c-0.6,0.7-1.6,0.6-2.4,0.3c0,1-0.1,1.9-0.1,2.9
		c1.6,0.4,3.5,0,4.6-1.3c1.4-1.6,1.4-4.2,0-5.7c-1.1-1.4-3-1.6-4.6-2.1c-1.7-0.5-3.3,0.5-4.7,1.4c-0.4-0.1-0.8-0.2-1.3-0.3
		c-0.1,0.4-0.2,0.9-0.3,1.3c-0.7,0.4-1.4,1-2.2,1.1c-1-0.1-2-0.5-2.9-0.8C36.3,81.5,36,79.8,37,79.2z"/>
	<path class="st0" d="M122.4,110.1c1.8-1.7,2.7-4.4,2.1-6.9c-0.4-1.5-1.3-2.8-2.4-3.8c1.6-1.4,2.7-3.5,2.6-5.7
		c0-2.3-1.3-4.5-3.1-5.8c-2.1-1.5-4.9-1.9-7.3-1.2c0.7-2.3,0.3-4.9-1.2-6.7c-1.9-2.5-5.5-3.7-8.5-2.8c-1.4,0.4-2.7,1.2-3.7,2.2
		c-0.9-0.9-2-1.6-3.2-2c-3.1-1.1-6.9-0.1-9,2.5c-1.5,1.9-2,4.5-1.3,6.8c-1.6-0.4-3.3-0.4-4.8,0c-2.9,0.8-5.4,3.4-5.6,6.5
		c-0.3,2.3,0.9,4.6,2.6,6.1c-1.2,1.1-2.1,2.5-2.5,4.1c-0.6,2.5,0.5,5.3,2.5,7c2.1,1.8,5.2,2.4,7.8,1.6c-0.7,2.2-0.3,4.8,1.1,6.6
		c1.9,2.6,5.4,3.7,8.5,2.9c1.5-0.4,2.8-1.2,3.9-2.2c0.9,0.8,1.9,1.6,3.1,2c3.1,1.2,6.9,0.2,9-2.4c1.6-1.9,2.1-4.6,1.4-6.9
		C117.1,112.8,120.3,112.1,122.4,110.1z M89.2,80.2c2.2-2.8,6.5-3.5,9.5-1.6c0.8,0.4,1.3,1.2,2.1,1.6c1.1-1,2.3-2,3.8-2.4
		c3.5-1,7.7,0.9,8.8,4.4c0.5,1.5,0.5,3.2-0.1,4.7c-5.4,2.3-9.3,6.9-12.6,11.6c-3.3-4.7-7.2-9.3-12.6-11.6
		C87.2,84.8,87.6,82.1,89.2,80.2z M112.9,88c-2.5,4.5-6.9,7.7-11.2,10.4C104.8,94.3,108.2,90.2,112.9,88z M99.8,98.4
		c-4.3-2.8-8.6-5.9-11.2-10.4C93.3,90.2,96.8,94.3,99.8,98.4z M80.4,110.2c-1.8-1.3-3-3.5-2.8-5.8c0.1-2,1.4-3.8,2.9-5
		c-1.1-1.1-2.3-2.3-2.7-3.8c-0.7-2.3,0.2-5,2-6.5c2.1-1.9,5.2-2.4,7.9-1.5c2.6,5.3,7.5,8.8,12.3,11.8c-3.4,2.1-6.8,4.5-9.5,7.6
		c-1.1,1.3-2.1,2.7-2.8,4.2C85.2,112,82.4,111.7,80.4,110.2z M99.8,100.3c-3,4.1-6.5,8.2-11.2,10.4C91.1,106.2,95.5,103,99.8,100.3z
		 M112.5,118.3c-1.9,2.5-5.5,3.5-8.4,2.4c-1.3-0.5-2.4-1.3-3.3-2.3c-1.2,1-2.4,2.1-3.9,2.5c-3,0.9-6.5-0.4-8.2-3
		c-1.2-1.8-1.4-4.2-0.6-6.1c5.4-2.3,9.3-6.9,12.6-11.6c3.3,4.6,7.2,9.3,12.6,11.6C114.3,113.8,113.9,116.4,112.5,118.3z
		 M101.8,100.3c4.3,2.8,8.6,5.9,11.2,10.4C108.2,108.5,104.8,104.4,101.8,100.3z M113.9,111.1c-1.5-3.3-4.2-5.8-6.9-8
		c-1.7-1.4-3.5-2.6-5.4-3.7c3.4-2.1,6.6-4.4,9.3-7.3c1.2-1.3,2.3-2.8,3-4.5c2-0.7,4.2-0.6,6.1,0.3c1.8,0.8,3.3,2.4,3.8,4.4
		c0.4,1.5,0.2,3.3-0.6,4.7c-0.5,1-1.4,1.7-2.2,2.5c1.1,1,2.2,2.1,2.6,3.6c0.8,2.4-0.1,5.1-1.9,6.7
		C119.7,111.6,116.5,112.1,113.9,111.1z"/>
	<path class="st0" d="M30.7,100.4c1.2,0.5,2.4,1,3.6,1.5c-0.3-0.6-1-1.2-0.9-2c0-0.7,0.1-1.4,0.1-2.1c2.8,0.2,5.5,0.3,8.3,0.4
		c0.7-0.1,1,0.6,1.4,1c0.3-0.3,0.7-0.6,1-0.9c2.3,0.1,4.5,0.2,6.8,0.3c0.3,0.3,0.6,0.7,0.9,1c0.1-1.6,0.2-3.1,0.2-4.7
		c-0.3,0.3-0.7,0.6-1,0.9c-2.3-0.1-4.5-0.2-6.8-0.3c-0.3-0.3-0.6-0.7-0.9-1c-0.3,0.3-0.7,0.6-1,0.9c-2.9-0.2-5.9-0.3-8.8-0.4
		c0.1-0.8,0-1.7,0.2-2.5c0.2-0.5,0.7-0.9,1-1.4c-1.3,0.4-2.5,0.8-3.8,1.2C30.9,95.1,30.8,97.7,30.7,100.4z"/>
	<path class="st0" d="M171.6,103.3c0.3,0.4,0.6,0.7,0.9,1.1c0.1-1.6,0.2-3.1,0.4-4.7c-0.3,0.3-0.7,0.6-1,0.9
		c-3.5-0.2-7-0.5-10.5-0.8c-0.3-0.3-0.6-0.7-0.9-1c-0.4,0.3-0.7,0.6-1.1,0.9c-2.2-0.2-4.5-0.3-6.7-0.5c-0.3-0.4-0.6-0.7-0.9-1.1
		c-0.1,1.6-0.2,3.1-0.4,4.7c0.5-0.3,0.9-1,1.6-0.9c2,0.1,3.9,0.3,5.9,0.4c-0.1,1.1-0.2,2.2-0.2,3.2c-2.1-0.1-4.2-0.3-6.4-0.5
		c-0.3-0.4-0.6-0.7-0.9-1c-0.1,1.6-0.2,3.1-0.3,4.7c0.5-0.3,0.9-1,1.5-0.9c2,0.1,4,0.3,6,0.4c0.6,0,0.9,0.7,1.3,1
		c0.3-0.3,0.7-0.6,1-0.9c3.3,0.3,6.7,0.5,10,0.7c0.7,0,1,0.7,1.5,1.1c0.1-1.6,0.2-3.1,0.3-4.7c-0.4,0.3-0.7,0.6-1.1,0.9
		c-3.4-0.3-6.7-0.5-10.1-0.8c0.1-1.1,0.2-2.2,0.2-3.2C164.9,102.7,168.2,103,171.6,103.3z"/>
	<path class="st0" d="M34.1,118c3.3-0.7,6.6-1.4,10-2.1c0.6-0.1,1,0.4,1.5,0.6c0.2-0.4,0.5-0.7,0.7-1.1c2.2-0.5,4.4-0.9,6.6-1.4
		c0.4,0.2,0.8,0.5,1.2,0.7c-0.7-3.2-1.3-6.3-2-9.5c-1.1,0.7-2.2,1.4-3.3,2.1c0.4,0.1,0.7,0.3,1.1,0.4c0.3,1.3,0.6,2.6,0.8,3.9
		c-1.5,0.3-3,0.7-4.6,1c-0.2-0.9-0.4-1.9-0.6-2.8c0.2-0.5,0.4-1,0.7-1.5c-1.4,0.9-2.8,1.8-4.2,2.7c0.4,0.1,0.7,0.3,1.1,0.4
		c0.1,0.6,0.3,1.2,0.4,1.8c-2.7,0.6-5.5,1.2-8.2,1.8c-0.3-1.5-0.7-3.1-1-4.6c0.2-0.5,0.4-1,0.7-1.5c-1.1,0.7-2.2,1.4-3.3,2.1
		c0.6,2.7,1.2,5.5,1.7,8.2C33.6,118.8,33.8,118.4,34.1,118z"/>
	<path class="st0" d="M169.2,121.8c0.4-1.5,0.9-3,1.3-4.5c-0.4,0.2-0.8,0.4-1.2,0.7c-3.4-1-6.8-2-10.1-3c-0.2-0.4-0.4-0.8-0.6-1.2
		c-0.4,0.2-0.8,0.4-1.2,0.6c-2.2-0.6-4.4-1.3-6.6-1.9c-0.2-0.4-0.4-0.8-0.6-1.2c-0.4,1.5-0.9,3-1.3,4.5c0.4-0.2,0.8-0.4,1.2-0.6
		c2.2,0.6,4.4,1.3,6.6,1.9c0.2,0.4,0.4,0.8,0.6,1.2c0.5-0.2,1-0.7,1.6-0.5c3.2,0.9,6.4,1.9,9.6,2.8C168.8,121,169,121.4,169.2,121.8
		z"/>
	<path class="st0" d="M39.6,132.3c1.3,0.8,3,0.7,4.4,0c1.1-0.6,2.4-1,3.2-2c0.7-0.9,0.9-2.1,1.2-3.2c0.4-0.2,0.8-0.4,1.2-0.7
		c-0.2-0.4-0.4-0.8-0.6-1.2c0.3-0.9,0.3-2.1,1.3-2.6c0.8-0.4,1.6-0.8,2.4-1.1c1.1-0.4,2.3,0.8,2,1.9c-0.2,0.8-0.9,1.1-1.5,1.5
		c0.6,0.7,1.2,1.4,1.9,2.1c0.8-0.5,1.7-1.2,2-2.2c0.8-1.8,0.3-4.1-1.4-5.3c-1.3-1-3.2-1.2-4.6-0.4c-1.2,0.6-2.5,1-3.4,2.1
		c-0.8,0.9-1,2.1-1.3,3.3c-0.4,0.2-0.8,0.4-1.2,0.6c0.2,0.5,0.8,1,0.5,1.6c-0.2,0.7-0.3,1.4-0.8,2c-0.6,0.5-1.3,0.7-1.9,1.1
		c-0.6,0.3-1.2,0.6-1.8,0.3c-0.8-0.3-1.3-1.4-0.9-2.2c0.3-0.6,0.9-0.8,1.4-1.1c-0.6-0.7-1.3-1.4-1.9-2.2c-1,0.6-1.9,1.4-2.2,2.6
		C36.9,129,37.8,131.3,39.6,132.3z"/>
	<path class="st0" d="M161.4,131.6c-0.7,0.3-1.3-0.2-1.9-0.4c-0.2,0.9-0.5,1.8-0.6,2.8c1.1,0.5,2.4,0.6,3.6,0.2
		c1.9-0.7,3.1-2.8,2.7-4.8c-0.2-1.4-1.1-2.6-2.4-3.2c-1.2-0.6-2.3-1.4-3.7-1.5c-1.2-0.1-2.3,0.5-3.4,0.9c-0.4-0.2-0.8-0.4-1.2-0.5
		c-0.2,0.4-0.4,0.8-0.5,1.2c-0.8,0.3-1.5,0.7-2.3,0.7c-1-0.3-2-0.9-2.9-1.4c-0.9-0.6-0.8-2.1,0.2-2.6c0.7-0.5,1.6-0.1,2.2,0.3
		c0.2-0.9,0.4-1.9,0.6-2.8c-1.4-0.6-3.1-0.6-4.4,0.2c-2,1.2-2.6,4-1.4,5.9c0.9,1.5,2.7,2.1,4.1,2.9c1.6,0.7,3.3,0.1,4.8-0.6
		c0.4,0.2,0.8,0.4,1.2,0.5c0.2-0.4,0.4-0.8,0.6-1.2c0.8-0.3,1.5-0.7,2.4-0.7c0.7,0.2,1.3,0.6,1.9,0.9c0.5,0.3,1.2,0.5,1.4,1.1
		C162.8,130.2,162.3,131.4,161.4,131.6z"/>
	<path class="st0" d="M155.3,144.6c0,0.4,0.1,0.9,0.1,1.3c1-1.1,2-2.2,3-3.4c-0.6,0-1.3,0.2-1.7-0.3c-2.5-2.2-5-4.5-7.5-6.7
		c0-0.4-0.1-0.9-0.1-1.3c-0.4,0-0.9,0-1.3,0.1c-1.7-1.5-3.4-3.1-5.1-4.6c0-0.4,0-0.9,0-1.3c-1,1.1-2,2.3-3,3.4
		c0.4,0,0.8-0.1,1.3-0.1c1.6,1.4,3.2,2.9,4.9,4.3c-0.2,0.3-0.5,0.5-0.7,0.8c-2.1-0.9-4.1-1.9-6.2-2.8c-0.1-0.4-0.1-0.7-0.2-1.1
		c-1,1.1-2,2.3-3,3.4c0.6-0.1,1.3-0.4,2-0.1c1.7,0.7,3.3,1.5,5,2.3c0.8,0.4,1.8,0.6,2.3,1.4c2.2,3,4.4,6.1,6.6,9.1
		c0,0.5-0.1,0.9-0.1,1.4c1-1.1,2-2.3,3-3.4c-0.4,0-0.8-0.1-1.2-0.1c-2-2.8-4.1-5.6-6.1-8.4c0.2-0.2,0.4-0.5,0.6-0.7
		C150.2,140.1,152.7,142.3,155.3,144.6z"/>
	<path class="st0" d="M58.6,132.1c0.9-0.8,2.5-0.3,2.7,0.9c0.2,0.9-0.5,1.6-1.1,2.1c0.8,0.5,1.5,1.1,2.2,1.6c1-0.9,1.7-2.3,1.5-3.7
		c-0.1-1.9-1.6-3.5-3.5-3.9c-1.3-0.3-2.7,0.1-3.7,1c-1,0.8-2.1,1.5-2.8,2.7c-0.6,1.1-0.5,2.3-0.5,3.5c-0.3,0.3-0.7,0.6-1,0.9
		c0.3,0.3,0.6,0.6,0.9,1c-0.1,1,0.2,2.3-0.7,3c-0.7,0.6-1.3,1.2-2.1,1.6c-1,0.6-2.4-0.4-2.3-1.5c0-0.8,0.6-1.3,1.1-1.7
		c-0.8-0.5-1.5-1.1-2.2-1.6c-0.9,0.9-1.6,2.1-1.6,3.4c0,2,1.5,3.9,3.5,4.2c1.4,0.3,2.8-0.2,3.9-1.1c0.9-0.8,2.1-1.5,2.6-2.6
		c0.6-1.1,0.4-2.3,0.5-3.5c0.3-0.3,0.6-0.6,0.9-0.9c-0.3-0.3-0.6-0.6-0.8-0.9c-0.1-0.5,0-1,0-1.5C56.1,133.6,57.6,133,58.6,132.1z"
		/>
	<path class="st0" d="M76.1,142.3c-1.3-0.9-2.5-1.9-3.8-2.8c0,0.4,0,0.8,0.1,1.2c-0.9,0.9-1.7,1.8-2.6,2.7c-0.5-0.4-1-0.8-1.6-1.2
		c0.6-1.1,1.2-2.2,1.8-3.3c0.4-0.1,0.8-0.2,1.3-0.3c-1.2-0.9-2.5-1.9-3.8-2.8c0.1,0.5,0.2,0.9,0.3,1.4c-1.1,2-2.2,4.1-3.3,6.1
		c-0.4,0.1-0.8,0.2-1.2,0.3c0.1,0.5,0.2,0.9,0.3,1.4c-1.7,3.1-3.4,6.3-5.1,9.4c-0.4,0.1-0.8,0.2-1.3,0.3c1.3,0.9,2.5,1.9,3.8,2.8
		c0-0.4,0-0.9-0.1-1.3c2.5-2.5,5-5,7.6-7.6c0.5,0,0.9-0.1,1.4-0.1c0-0.4,0-0.8-0.1-1.2c1.7-1.6,3.2-3.3,4.9-4.9
		C75.1,142.4,75.6,142.4,76.1,142.3z M64.9,148.4c0.7-1.2,1.3-2.4,2-3.6c0.3,0.2,0.6,0.5,0.9,0.7C66.9,146.4,65.9,147.4,64.9,148.4z
		"/>
	<path class="st0" d="M135.2,158c1.1,0.8,2.2,1.5,3.2,2.3c2.3-1.5,4.6-3.1,7-4.7c-0.5-0.1-0.9-0.2-1.3-0.3c-1.9-2.9-3.9-5.9-5.9-8.8
		c0.1-0.4,0.2-0.9,0.2-1.3c-0.4-0.1-0.9-0.2-1.3-0.3c-1.3-1.9-2.5-3.8-3.8-5.7c0.1-0.4,0.2-0.9,0.3-1.3c-2.7,1.8-5.4,3.6-8.1,5.4
		c1.1,0.8,2.1,1.5,3.2,2.3c0-0.4,0-0.8,0-1.1c1.1-0.7,2.2-1.5,3.3-2.2c0.9,1.3,1.7,2.6,2.6,3.9c-0.8,0.5-1.5,1.1-2.4,1.5
		c-0.5,0.1-1.1,0-1.6,0c1.3,1,2.7,1.9,4,2.9c0-0.4,0-0.8,0-1.2c0.5-0.3,1-0.7,1.5-1c1.5,2.3,3.1,4.7,4.7,7c-1.2,0.8-2.3,1.6-3.5,2.4
		C136.6,158.2,135.8,157.9,135.2,158z"/>
	<path class="st0" d="M130.2,164.6c-0.5-0.2-1-0.3-1.6-0.5c-1.9-3.1-3.9-6.3-5.8-9.4c0.1-0.3,0.3-0.6,0.4-0.9
		c-0.4-0.2-0.8-0.4-1.2-0.6c-0.7-2-1.4-4-2.1-6c-0.3-0.6,0.3-1.1,0.4-1.6c-1.5,0.5-3,1-4.4,1.5c0.4,0.2,0.8,0.4,1.2,0.6
		c0.7,2,1.4,4,2.1,5.9c0.3,0.6-0.2,1.2-0.4,1.7c0.3,0.1,0.6,0.3,0.9,0.5c0.4,3.7,0.8,7.3,1.2,11c-0.3,0.4-0.6,0.9-0.9,1.3
		c1.5-0.5,3-1,4.4-1.5c-0.3-0.2-0.6-0.5-0.9-0.7c-0.3-2.1-0.5-4.2-0.8-6.3c1.1,1.8,2.2,3.6,3.3,5.4c-0.1,0.4-0.2,0.7-0.3,1.1
		C127.3,165.6,128.8,165.1,130.2,164.6z"/>
	<path class="st0" d="M97.2,153c-1.9,0.5-2.4,3.1-1,4.4c1.4,1.5,4.2,0.6,4.5-1.4C101.2,154,99.1,152.3,97.2,153z"/>
</g>
</svg>
