<?xml version="1.0" encoding="utf-8"?>
<!-- Generator: Adobe Illustrator 23.0.0, SVG Export Plug-In . SVG Version: 6.00 Build 0)  -->
<svg version="1.1" id="Layer_1" xmlns="http://www.w3.org/2000/svg" xmlns:xlink="http://www.w3.org/1999/xlink" x="0px" y="0px"
	 viewBox="0 0 501.7 394.5" style="enable-background:new 0 0 501.7 394.5;" xml:space="preserve">
<style type="text/css">
	.st0{fill:#FFF7E3;}
	.st1{fill:#202020;}
</style>
<g>
	<g>
		<path class="st0" d="M219.5,394.5c-1.8,0-4.2,0-5.3-0.1c-8.1-0.8-13.5-2.1-26-6.1c-2.8-0.9-14.4-4.6-26.5-8.3l-14.5-4.6
			c-16.8-5.3-42.6-13.4-66.7-20.9c-34.5-10.8-59.5-18.6-61.1-19.1c-2.3-0.6-8.6-2.7-10.2-3.5c-3.4-1.7-5.8-5.1-7.2-10.5
			c-1.9-7-2.6-11.3-1.6-15.6c1.5-6.5,6.1-9,15.8-12.3c3.1-1,25.6-7.3,54.8-15.3c0,0,64.1-17.6,69.5-19.1
			c50.8-13.9,71.1-19.5,77.4-21.3c0.5-6.1,1.8-22.7,3.4-43.5c1.9-25.3,4.3-57.5,5.4-71.5c1-14,2.8-37.2,3.8-51.6
			c1.6-22.2,2.1-27,2.6-29.7c0.8-4.1,1.7-6.6,4.3-9.3c4.2-4.2,9.4-5.4,26.3-7.3c11.9-1.4,36.2-4.2,71.5-8.2l53.7-6.2
			c28.4-3.3,56.6-6.5,65.2-7.5c10.6-1.2,17.6-2.1,18.4-2.2c1.2-0.3,3.5-0.5,5.1-0.5c1.5-0.1,4-0.2,5.5-0.3c0.6,0,1.2-0.1,1.7-0.1
			c9.9,0,15.7,5.3,16.7,15.5c0.4,4.3,0.1,10.2-2.4,42.4c-0.9,11.5-6.6,84.8-8.2,104.6c-2.9,37.5-7.1,90.5-8.2,104.6
			c-1.7,21.5-1.7,22.3-3.5,25.6c-1.3,2.4-4.7,5.8-7.3,7.2c-1.9,1-4.3,1.8-6.4,2.2c-1.2,2.1-3.2,4.1-4.8,5.4c-1.4,1.4-2.9,2-69.9,27
			c0,0-93.8,35-110.2,41.1c-16.4,6.1-33.5,12.5-38.1,14.2c-9.8,3.7-11.4,4.3-14.7,4.7C226.4,394.4,221.9,394.5,219.5,394.5z"/>
		<path class="st0" d="M495.2,57.5c-0.9,11.5-6.6,84.8-8.2,104.6c-2.9,37.5-7.1,90.5-8.2,104.6c-1.6,21-1.7,21.5-3,24.1
			c-0.9,1.7-3.7,4.5-5.6,5.5c-1.8,1-4.2,1.7-6,1.9c-1.2,0.1-1.3,0.2-1.6,1.1c-0.6,1.5-2.5,3.7-4.2,4.9c-2.3,1.7,8.9-2.6-95.4,36.3
			c-29.6,11-67.2,25.1-83.6,31.2c-16.4,6.1-33.5,12.5-38.1,14.2c-9.8,3.7-11.1,4.1-13.8,4.4c-1.9,0.2-10.9,0.3-12.9,0.1
			c-7.8-0.8-12.8-2-25.1-5.9c-3-1-14.9-4.7-26.5-8.3c-11.6-3.6-48.1-15.1-81.2-25.5c-33.1-10.4-60.7-19-61.3-19.1
			c-2-0.5-8.1-2.5-9.4-3.2c-2.4-1.2-4-3.7-5.1-7.9c-1.9-7.3-2.3-10.6-1.6-13.7c1-4.3,3.7-6.2,13.2-9.4c3.1-1,25.8-7.4,54.6-15.3
			c27.2-7.5,58.4-16,69.5-19.1c67.9-18.6,79.9-22,80.1-22.1c0.1-0.1,1.7-20.9,3.6-46.2c1.9-25.3,4.3-57.5,5.4-71.5
			c1-14,2.8-37.2,3.8-51.6c1.6-21.6,2-26.7,2.5-29.3c0.7-3.8,1.4-5.4,3.2-7.2c3.1-3.2,7.2-4.2,24-6.2c16.5-1.9,56.7-6.5,116.8-13.4
			c31-3.6,64.1-7.4,73.6-8.5c9.4-1.1,17.9-2.1,18.8-2.3c0.9-0.2,2.9-0.4,4.4-0.5c1.6-0.1,4.1-0.2,5.6-0.3
			c8.9-0.5,13.4,3.2,14.3,11.8C498,19.8,497.6,25.8,495.2,57.5z"/>
	</g>
	<path class="st1" d="M214.7,390.5c-7.8-0.8-12.8-2-25.1-5.9c-3-1-14.9-4.7-26.5-8.3c-11.6-3.6-48.1-15.1-81.2-25.5
		c-33.1-10.4-60.7-19-61.3-19.1c-2-0.5-8.1-2.5-9.4-3.2c-2.4-1.2-4-3.7-5.1-7.9c-1.9-7.3-2.3-10.6-1.6-13.7c1-4.3,3.7-6.2,13.2-9.4
		c3.1-1,25.8-7.4,54.6-15.3c27.2-7.5,58.4-16,69.5-19.1c67.9-18.6,79.9-22,80.1-22.1c0.1-0.1,1.7-20.9,3.6-46.2
		c1.9-25.3,4.3-57.5,5.4-71.5c1-14,2.8-37.2,3.8-51.6c1.6-21.6,2-26.7,2.5-29.3c0.7-3.8,1.4-5.4,3.2-7.2c3.1-3.2,7.2-4.2,24-6.2
		c16.5-1.9,56.7-6.5,116.8-13.4c31-3.6,64.1-7.4,73.6-8.5c9.4-1.1,17.9-2.1,18.8-2.3c0.9-0.2,2.9-0.4,4.4-0.5
		c1.6-0.1,4.1-0.2,5.6-0.3c8.9-0.5,13.4,3.2,14.3,11.8c0.4,3.9,0.1,10-2.4,41.6c-0.9,11.5-6.6,84.8-8.2,104.6
		c-2.9,37.5-7.1,90.5-8.2,104.6c-1.6,21-1.7,21.5-3,24.1c-0.9,1.7-3.7,4.5-5.6,5.5c-1.8,1-4.2,1.7-6,1.9c-1.2,0.1-1.3,0.2-1.6,1.1
		c-0.6,1.5-2.5,3.7-4.2,4.9c-2.3,1.7,8.9-2.6-95.4,36.3c-29.6,11-67.2,25.1-83.6,31.2c-16.4,6.1-33.5,12.5-38.1,14.2
		c-9.8,3.7-11.1,4.1-13.8,4.4C225.7,390.7,216.7,390.7,214.7,390.5L214.7,390.5z M226.5,386.3c1.4-0.1,3.1-0.5,4.2-0.9
		c1-0.4,12.8-4.7,26.2-9.7c13.4-5,45.5-17,71.4-26.6c63-23.5,119.4-44.6,123.2-46c2.9-1.1,5.2-2.2,4.9-2.5c-0.1-0.1-2.5,0.5-5.6,1.4
		c-1.1,0.3-1.2,0.3-1.2-0.1c0-0.3,0.4-0.6,1.4-1c0.8-0.3,2-0.9,2.7-1.2c2-0.9,5.5-2.7,4.9-2.5c-1.3,0.3-7.3,2.2-10.7,3.2
		c-2.1,0.7-5.2,1.6-6.7,2.1c-1.6,0.5-4.9,1.5-7.3,2.3c-2.5,0.8-4.6,1.5-4.7,1.5c-0.1,0-0.2-0.2-0.2-0.4c0-0.5,5.1-2.7,12.1-5.3
		c1.6-0.6,4.8-1.8,7-2.8c2.3-1,6-2.4,8.2-3.2c2.9-1,4-1.6,4.1-1.9c0.1-0.3,0-0.4-0.7-0.2c-3,0.6-7.4,1.4-8.7,1.5
		c-3,0.2-1.6-0.8,4.6-3.3c1.4-0.6,3.2-1.2,3.9-1.4c1.2-0.4,1.3-0.4,1.3-1.1v-0.7l-1.1,0.3c-1.2,0.4-3.9,1-9.7,2.4
		c-2.3,0.5-4.6,1-5.1,1.2c-3.7,0.9-4.9,0.9-4.4,0.3c0.1-0.1,1.3-0.6,2.8-1.1c1.5-0.5,5.1-1.9,8-3.2c2.9-1.3,6.2-2.7,7.2-3.1
		c1.8-0.7,2.1-1,1.7-1.6c-0.1-0.2-0.5-0.2-1.5,0.2c-5.5,2-13,4.3-16.5,5.2c-2.3,0.6-5.5,1.5-7,2c-3.2,1-3.4,1.1-3.4,0.6
		c0-0.4-0.1-0.3,4.3-1.9c6-2.1,7.8-2.8,12.6-5c2.6-1.2,5.9-2.6,7.4-3.2c1.4-0.6,2.7-1.1,2.8-1.2c0.1-0.1,0-0.4-0.2-0.7
		c-0.4-0.5-0.4-0.5-1.3-0.1c-0.5,0.2-28.4,10.9-62,23.7c-33.6,12.9-67,25.7-74.3,28.4c-7.3,2.8-24.8,9.5-39,14.9
		c-14.2,5.4-31.4,12-38.2,14.6c-20.9,8-21.9,8.3-27.9,8.5l-3.4,0.1l-3.9-1c-2.1-0.5-4.4-1.2-5-1.4c-0.6-0.2-15.6-4.6-33.2-9.7
		c-17.6-5.1-44.6-12.9-59.8-17.3C57.1,324,9.4,310.2,8.8,310.1c-0.5-0.1-0.6-0.1-0.6,0.2c0,0.2,0.9,0.6,2,1.1
		c2.5,1,7.9,3.4,10.9,4.8c1.3,0.6,2.9,1.3,3.6,1.6c1.7,0.7,4.1,1.9,4.3,2.2c0.3,0.5-0.4,0.4-2.5-0.2c-1.2-0.4-3.4-1-4.8-1.4
		c-1.4-0.4-3.3-0.9-4.3-1.3c-3-1-8.4-2.4-8.5-2.3c-0.2,0.2,0.3,0.6,1.6,1c0.8,0.3,3.8,1.5,6.7,2.8c5.2,2.2,9.4,4,14.1,5.8
		c2.2,0.8,3,1.4,2.6,1.7c-0.1,0.1-1.7-0.3-6.8-1.9c-2.2-0.7-15-4.7-16.9-5.3c-0.3-0.1-0.4,0-0.2,0.4c0.1,0.4,0.9,0.8,3.5,1.7
		c1.8,0.7,6.8,2.7,11.1,4.4c6,2.4,18.3,7,18.8,7c0,0,0.1,0.2,0.1,0.5c0,0.4-0.1,0.5-0.4,0.3c-0.2-0.1-1.1-0.4-1.9-0.6
		c-0.8-0.2-3.8-1.2-6.6-2.2c-6.7-2.2-7.9-2.6-15.8-4.6c-6.1-1.6-7.8-1.8-4.8-0.6c1.2,0.5,5.6,1.7,7.9,2.2c0.7,0.2,1.4,0.4,1.6,0.5
		c0.3,0.2,26.2,8.4,124.8,39.3c25.5,8,47.7,14.9,49.5,15.5c6.3,2,11.9,3.2,17.7,3.7C217.7,386.6,224.4,386.5,226.5,386.3
		L226.5,386.3z M204.8,376.2c-1.1-0.2-81.4-25.5-81.8-25.8c-0.5-0.3-0.9-1.1-0.9-1.8c0-0.8,1-1.7,1.9-1.7c0.6,0,79.9,24.7,81.9,25.6
		C208.1,373.4,207.2,376.7,204.8,376.2L204.8,376.2z M248.2,372.7c0-0.2,1-0.9,2.4-1.6c2.4-1.2,12.1-5.4,12.5-5.4
		c0.6,0,0.1,0.7-0.8,1.2c-2.7,1.4-13.5,6.2-14,6.2C248.2,373.1,248.1,372.9,248.2,372.7L248.2,372.7z M167.8,371.3
		c-1.5-0.3-1.7-0.5-1.8-0.9c-0.1-0.5,0-0.5,0.9-0.4c1.4,0.2,3.4,1.1,3.4,1.4C170.3,371.8,170,371.8,167.8,371.3L167.8,371.3z
		 M156.1,367.5c-2.4-0.7-5.7-1.8-7.4-2.3c-4.2-1.3-7.5-2.5-7.5-2.9c0-0.2,0.2-0.3,0.4-0.3c0.2,0,2.8,0.8,5.9,1.8
		c3,1,7.3,2.4,9.6,3.1c3,1,4.1,1.4,4.2,1.7C161.3,369.1,161,369.1,156.1,367.5L156.1,367.5z M154.1,364c-1.2-0.4-1.5-0.6-1.5-0.9
		c0-0.5,0.4-0.5,1.9,0.1c0.9,0.4,1.3,0.6,1.3,0.9c0,0.2,0,0.4-0.1,0.4C155.7,364.5,155,364.3,154.1,364L154.1,364z M252.2,363.3
		c0-0.4,1.9-1.5,5.2-2.9c1.5-0.6,4.6-2,6.9-3c2.3-1,4.3-1.8,4.4-1.7c0.6,0.4-0.4,1-5.3,3.3c-4,1.9-10.6,4.7-10.9,4.7
		C252.3,363.6,252.2,363.5,252.2,363.3L252.2,363.3z M271.2,363.3c-0.1-0.2-0.1-0.5,0-0.6c0.4-0.6,8.3-3.8,8.7-3.6
		c0.3,0.2,0.1,0.8-0.2,0.8c-0.1,0-1.9,0.8-4,1.8c-2.1,1-3.9,1.8-4.1,1.9C271.4,363.6,271.3,363.5,271.2,363.3L271.2,363.3z
		 M263.1,362.9c0-0.3,0.5-0.7,2.2-1.5c4.1-2,9.7-4.4,14.6-6.3c18.6-7.2,22.3-8.6,22.5-8.5c0.4,0.4-0.4,0.8-3,2
		c-4.7,2.1-19.3,8.2-23.9,9.9c-2.3,0.9-5.4,2.1-6.7,2.7c-3.8,1.6-5.2,2.1-5.4,2.1C263.2,363.4,263.1,363.2,263.1,362.9L263.1,362.9z
		 M142.1,360.4c-10.3-3.2-14.3-4.7-14.3-5.1c0-0.3,0.2-0.4,0.6-0.4c0.3,0,5,1.5,10.3,3.3c7.5,2.5,9.7,3.4,9.7,3.7
		c0,0.2-0.1,0.4-0.2,0.4C148.1,362.2,145.3,361.4,142.1,360.4L142.1,360.4z M135.4,361c-0.5-0.2-3.3-1.1-6.1-2
		c-2.9-0.9-7.2-2.3-9.6-3.1c-2.4-0.8-5.2-1.7-6.3-2c-1.6-0.5-1.9-0.7-2-1c0-0.3,0-0.5,0.1-0.5c0.6,0,8.3,2.4,16,5.1
		c10.2,3.5,9.6,3.2,9.6,3.6C137.1,361.4,136.6,361.4,135.4,361L135.4,361z M291.7,357.6c-0.2-0.4,0.2-0.7,2.6-1.9
		c8.4-4,20.9-9.4,25.7-11.1c2.2-0.8,2.3-0.8,2.3-0.3c0,0.6-4.6,2.7-21.1,9.7C292.8,357.5,291.8,357.9,291.7,357.6L291.7,357.6z
		 M274,353.2c0-0.4,0.5-0.7,2.3-1.6c1.3-0.6,2.3-1.1,2.4-1.1c0,0,0.1,0.2,0.1,0.4c0,0.5-0.4,0.8-2.6,2
		C274.7,353.8,274,353.9,274,353.2L274,353.2z M96.1,348.3c-7.1-2.1-7.4-2.3-7.4-2.8c0-0.4,0.1-0.4,0.4-0.3c0.2,0.1,2.4,0.7,4.8,1.4
		c4.8,1.4,5.2,1.6,5.2,2C99.1,349.2,98.7,349.1,96.1,348.3L96.1,348.3z M108.6,347.3c-4.4-1.2-25.5-7.7-25.7-8
		c-0.4-0.4-0.5-1.4-0.1-1.9c0.2-0.2,0.6-0.4,1-0.4c0.6,0,25.2,7.3,26.5,7.9c0.8,0.4,1.1,1.2,0.7,1.9
		C110.4,347.5,109.9,347.7,108.6,347.3L108.6,347.3z M306.4,344.7c0.1-0.5,0.3-0.7,2-1.3c2.2-0.8,2.3-0.8,2.3-0.3
		c0,0.3-3.4,2.2-4.1,2.2C306.4,345.3,306.3,345.1,306.4,344.7L306.4,344.7z M82.9,344c-0.5-0.2-0.9-0.5-0.9-0.7
		c0-0.4,0.3-0.4,1.4-0.1c0.6,0.2,0.8,0.4,0.8,0.7C84.3,344.5,84.1,344.5,82.9,344L82.9,344z M114.9,343.9c-0.9-0.2-3.4-1-5.5-1.8
		c-3.5-1.2-4.5-1.7-4.1-2.1c0.1-0.1,3.7,0.7,9.8,2.3c1.9,0.5,2.7,1,2.5,1.7C117.5,344.5,116.9,344.5,114.9,343.9L114.9,343.9z
		 M325.9,341.9c0-0.3,0.3-0.6,1.3-0.9c1.5-0.6,1.7-0.6,1.7-0.1c0,0.4-2,1.5-2.6,1.5C326.1,342.3,325.9,342.1,325.9,341.9
		L325.9,341.9z M69.6,341.3c-4.7-1.5-9.2-3.3-9.3-3.7c-0.1-0.6,0.8-0.4,5.3,1.1c5.2,1.8,6.9,2.5,6.9,3
		C72.5,342.2,72.4,342.2,69.6,341.3L69.6,341.3z M315.9,341.3c0-0.4,0.5-0.7,2.6-1.4c1.8-0.6,2.4-0.7,2.4-0.2c0,0.2-0.7,0.6-1.9,1.1
		C316.5,341.7,315.9,341.8,315.9,341.3L315.9,341.3z M99.2,339.2c-0.1-0.1-0.8-0.3-1.5-0.5c-1.3-0.4-1.8-1-0.8-1
		c0.8,0,3.4,1,3.5,1.3C100.5,339.3,99.8,339.4,99.2,339.2L99.2,339.2z M336.5,336.6c-0.2-1-0.3-1.8-0.3-1.9c0.3-0.3,10.3-4,10.6-4
		c0.2,0,0.5,0.7,0.8,1.8c0.2,0.9,0.4,1.7,0.3,1.8c-0.2,0.2-10.3,4-10.6,4C336.9,338.4,336.8,338,336.5,336.6L336.5,336.6z
		 M50.2,335.5c-3.4-0.6-4.6-1.3-3.9-2c0.5-0.6,6.1,1.3,6.4,2.1C52.8,335.9,52.5,335.9,50.2,335.5L50.2,335.5z M53.1,332.4
		c-3.3-1-3.6-1.1-3.6-1.6c0-0.3,0.1-0.5,0.3-0.5c0.5,0,6.6,2.1,6.9,2.4c0.3,0.2,0.4,0.9,0.1,0.8C56.8,333.5,55.1,333,53.1,332.4
		L53.1,332.4z M73.9,332.2c-6.6-1.7-9.3-2.5-14.7-4.1c-3.5-1.1-4.4-1.4-4.4-1.7c0-0.2,0.1-0.4,0.3-0.4c0.5,0,7.8,2,16,4.4
		c6.8,2,8.2,2.5,8.2,2.8c0,0.2-0.1,0.4-0.2,0.4C79.1,333.5,76.7,332.9,73.9,332.2L73.9,332.2z M353.3,332.1c-0.2-0.8-1-6.8-0.8-6.9
		c0.2-0.2,9.9-4.1,10.2-4.1c0.2,0,0.3,0.2,0.4,0.5c0.2,0.9,0.8,6.7,0.8,6.8c0,0-2.2,0.9-4.9,1.9c-2.6,1-5,1.9-5.2,2
		C353.6,332.4,353.4,332.3,353.3,332.1L353.3,332.1z M41.9,328.7c-0.2-0.1-1.2-0.3-2.1-0.5c-1.7-0.3-2.2-0.7-1.6-1.3
		c0.2-0.2,0.7-0.2,2.4,0.4c1.7,0.6,2.1,0.8,2.1,1.1C42.7,329,42.6,329,41.9,328.7L41.9,328.7z M368.9,326c0-0.2-0.1-1.9-0.3-3.8
		c-0.2-1.8-0.2-3.4-0.1-3.5c0.6-0.4,9.8-3.8,9.9-3.7c0.2,0.1,0.8,7.2,0.7,7.3c-0.1,0.1-9.9,4-10,4
		C368.9,326.4,368.9,326.2,368.9,326L368.9,326z M50.1,325.7c-1-0.1-1.1-0.2-1.2-0.6c-0.1-0.4,0-0.5,0.5-0.5c0.7,0,2.2,0.6,2.2,0.9
		C51.6,325.8,51.3,325.8,50.1,325.7L50.1,325.7z M44.1,325.4c-0.3-0.1-0.8-0.2-1.2-0.3c-0.7-0.1-0.9-0.7-0.3-1
		c0.4-0.2,1.8,0.3,2.1,0.7C45.1,325.3,44.7,325.6,44.1,325.4L44.1,325.4z M35.2,322.7c-0.3-0.1-1-0.3-1.4-0.3
		c-0.7-0.1-0.9-0.2-0.9-0.7c0-0.5,0.1-0.6,0.7-0.4c1.3,0.3,2.7,1,2.7,1.4C36.4,322.9,36.1,323,35.2,322.7L35.2,322.7z M397.5,314.4
		c0-0.4,0.9-0.9,4.3-2.5c2.3-1.1,4.8-2.3,5.4-2.5c1-0.4,1.5-0.9,1.2-1.1c-0.1-0.1-0.5,0-1,0.2c-0.9,0.3-1.2,0.3-1.2-0.1
		c0-0.1,0.6-0.5,1.3-0.9c0.7-0.4,1.5-1.1,1.8-1.5c0.7-0.9,1.8-1.5,2.8-1.5c0.4,0,1.4-0.2,2.3-0.5c0.9-0.3,2.2-0.6,2.7-0.7
		c0.9-0.1,1-0.1,0.9,0.2c0,0.2-0.7,0.7-1.7,1.1c-1.4,0.6-1.6,0.8-1.3,1c0.3,0.3,0.5,0.3,1.2,0.1c2.4-0.6,9-2.8,12.2-3.9
		c2-0.7,3.6-1.3,3.7-1.3c0.1,0,0.1,0.2,0.1,0.4c0,0.4-0.7,0.7-4.9,2.3c-4.1,1.6-11.3,5.1-11.3,5.6c0,0.4,0.1,0.4,2.7-0.3
		c1.6-0.4,1.7-0.5,1.7-0.1c0,0.3-0.9,0.8-3.3,2c-3.3,1.6-3.3,1.6-5.4,1.6l-2,0l0.1-0.6c0.1-0.9-0.7-0.8-3.7,0.3
		c-1.5,0.6-3.8,1.4-5.2,2c-1.4,0.5-2.7,1-2.9,1.1C397.6,314.8,397.5,314.7,397.5,314.4L397.5,314.4z M423.6,306.8
		c-0.2-0.3,0.1-0.6,0.9-1.1c0.9-0.5,1-0.5,1,0c0,0.3-0.3,0.6-0.8,0.8C423.8,307,423.8,307,423.6,306.8L423.6,306.8z M440.5,304.8
		c0-0.4,4.1-1.9,4.7-1.7c1.1,0.4-1.1,1.6-3.6,1.9C440.7,305.1,440.5,305.1,440.5,304.8L440.5,304.8z M435.9,299.4
		c-0.6-0.6,0.2-1.2,2.1-1.8c1.1-0.3,1.2-0.3,1.2,0.1c0,0.3-0.5,0.7-1.5,1.1C436,299.6,436.1,299.6,435.9,299.4L435.9,299.4z
		 M429.4,295.5c0-0.4,4.5-1.9,4.8-1.6c0.4,0.4-0.1,0.7-2,1.3C430,295.9,429.4,296,429.4,295.5L429.4,295.5z M422,294.4
		c-0.2-0.4,0.2-0.7,1.9-1.4c1.8-0.8,2.3-0.8,2.3-0.2c0,0.4-0.4,0.6-2,1.1C422.9,294.4,422.1,294.6,422,294.4L422,294.4z
		 M220.8,365.4c3.4-0.7-1.8,1.2,106.9-40.4c18.6-7.1,54.5-20.8,79.8-30.5c25.3-9.7,46.2-17.7,46.3-17.8c0.1-0.1,0.1-0.2-0.1-0.2
		c-0.2,0-4.2-0.5-8.9-1.1c-4.7-0.6-14.8-2-22.4-3c-7.6-1-27.8-3.7-44.8-6c-17-2.3-35.9-4.8-42-5.7c-32.5-4.4-100.6-13.5-101.5-13.7
		c-1-0.1-1.6-0.2-7.8-1l-3.9-0.5l-16.8,4.6c-9.3,2.5-46.8,12.9-83.5,22.9C85.6,283,48.6,293.2,40,295.5c-19.1,5.3-25.2,7.2-28.5,8.9
		c-1.3,0.7-2.9,2.2-2.7,2.4c0.1,0.1,10.3,3.1,77.3,22.5c46.5,13.5,123.6,35.8,125,36.3C212.6,366,218.4,365.9,220.8,365.4
		L220.8,365.4z M150.3,328.6c3.5-1.1,5.8-2.2,5.9-2.7c0.1-0.5-1.3-1-6.3-2.3c-2.2-0.6-6.3-1.7-9.1-2.6c-7.5-2.3-16.5-4.6-19-5.1
		c-2.5-0.4-4.2-0.3-6.7,0.4c-1.5,0.4-12.2,4.3-12.4,4.5c-0.3,0.3,0.9,0.9,3.7,1.8c1.8,0.6,4.4,1.5,5.8,2.1c6.2,2.4,8.2,3.2,8.1,3.3
		c-0.2,0.2-17.3-5.6-17.8-6.1c-0.6-0.5-0.6-1.7,0-2c1.4-0.8,13.6-5.4,15.3-5.8c2-0.5,2.1-0.5,4.4-0.1c2.6,0.4,11.8,3,17.5,4.8
		c7.7,2.5,15.6,5.1,16.3,5.5c1.5,0.7,1.4,2.2-0.2,3.1c-0.8,0.5-7,2.2-7.9,2.2C147.4,329.6,148.6,329.2,150.3,328.6L150.3,328.6z
		 M165.3,323.4c-8.9-2-19.8-4.7-32-8c-8.5-2.3-9-2.5-9-3.8c0-0.9,0.2-1.1,2.2-1.7c1-0.3,9.6-3.3,19-6.6c11.1-3.9,17.8-6.2,18.9-6.3
		c3.7-0.6,5.9-0.1,31.8,7.1c12.4,3.4,15.7,4.4,16,4.8c0.5,0.6,0.5,1.7,0,2.2c-0.6,0.6-2.5,1.4-5.3,2.2c-1.3,0.4-4.4,1.3-6.9,2.1
		c-2.4,0.7-5.8,1.7-7.5,2.2c-8.8,2.3-14.2,3.7-16.4,4.3c-1.4,0.4-2.5,0.7-2.5,0.6c-0.1,0,4.8-1.5,10.8-3.3c6-1.8,13.7-4.1,17.1-5.2
		c10.4-3.2,11.8-4,8.8-4.5c-0.5-0.1-10-2.3-21.2-4.9c-23.8-5.6-22.6-5.4-27.5-3.9c-2.3,0.8-12.7,3.8-34,10c-1.4,0.4-2.5,0.8-2.5,1
		c0.1,0.4-1.1,0.1,31.1,8.9c5.5,1.5,10.5,2.8,11.3,2.9c1,0.1,1.7,0,3.3-0.5c2.7-0.8,3-0.7,0.5,0.1C169,323.9,168,324,165.3,323.4
		L165.3,323.4z M302.8,317.6c-0.8-0.1-2.1-0.3-3-0.5c-0.8-0.2-4.2-0.9-7.4-1.5c-8.7-1.7-28.4-6-67.2-14.4
		c-35.9-7.8-37.1-8.1-60.7-13.2c-7.9-1.7-18.5-4-23.4-5.1c-4.9-1.1-9.6-2.1-10.5-2.2c-2-0.4-2.3-0.5-2.3-1.5c0-0.6,0.1-0.9,0.6-1.2
		c0.7-0.5,3.7-1.7,4.1-1.7c0.7,0,0.2,0.7-1,1.4c-0.8,0.4-1.4,0.8-1.4,0.9c0,0.1,1,0.3,2.2,0.6c1.2,0.2,3.3,0.7,4.6,1l2.3,0.5
		l8.1-2.7c4.5-1.5,8.4-2.8,8.9-2.9c0.4-0.1,0.7-0.2,0.7-0.3c-0.1-0.1-1.5-0.4-3.3-0.7c-2.9-0.6-3.2-0.7-3.2-1.2c0-0.3,0-0.6,0.1-0.7
		c0.2-0.2,4.1,0.4,9.5,1.5l3,0.6l9.6-3.2c5.3-1.8,9.6-3.2,9.5-3.3c0,0-1.1-0.3-2.4-0.5c-3.6-0.7-3.4-0.6-3.4-1.4
		c0-0.4,0.1-0.7,0.2-0.8c0.1-0.1,1.2,0.1,2.6,0.3c1.3,0.2,3.4,0.6,4.6,0.8l2.2,0.4l7.4-2.4c4.1-1.3,7.3-2.5,7.2-2.6
		c-0.1-0.1-1-0.3-2-0.4c-1-0.1-1.9-0.4-2-0.5c-0.3-0.5-0.2-1.1,0.2-1.2c0.2-0.1,3.6,0.4,7.6,1c4,0.6,9.9,1.6,13.2,2.1l6,1l7.8-3
		l7.8-3l-1.1-0.2c-0.6-0.1-3.8-0.6-7-1.2c-5.1-0.8-5.9-1-6-1.4c-0.2-0.9,0.1-1,1.4-0.8c0.7,0.1,2.2,0.4,3.5,0.5
		c2.8,0.4,3,0.5,7.6,1.2c2.1,0.3,4.1,0.6,4.4,0.6c0.4,0,1.5-0.3,2.5-0.7c2-0.8,2.3-0.8,2.5-0.4c0.2,0.6-0.1,1-0.9,1.3
		c-0.8,0.3-0.8,0.3,3,1c2.1,0.3,4.1,0.6,4.3,0.6c0.3,0,1.4-0.3,2.5-0.7c1.1-0.4,2.1-0.7,2.3-0.6c0.6,0.2,0.3,1.1-0.5,1.5l-0.8,0.4
		l3.2,0.5c1.7,0.3,4.3,0.7,5.8,0.9l2.6,0.4l2.4-1c1.3-0.5,2.4-1,2.5-1c0.1,0,0.2,0.3,0.2,0.7c0,0.6-0.1,0.8-1.2,1.2l-1.2,0.5l6.2,1
		c3.4,0.5,6.5,1,6.8,1c0.3,0,1.6-0.4,2.8-0.9c2.3-0.9,2.6-0.9,2.6,0.1c0,0.2-0.3,0.5-0.7,0.7c-0.4,0.2-0.9,0.4-1.2,0.5
		c-0.5,0.2-0.8,0.2,7,1.4l5.4,0.8l2.3-0.8c1.3-0.5,2.4-0.8,2.5-0.8c0.1,0,0.3,0.3,0.3,0.7c0,0.5-0.1,0.7-0.6,0.9
		c-0.3,0.1-0.8,0.3-1,0.4c-0.2,0.1,1.4,0.4,3.5,0.8c2.1,0.4,4.2,0.7,4.7,0.8c0.4,0.1,1.6,0.3,2.6,0.4l1.8,0.2l2.7-1
		c1.5-0.6,2.8-0.9,2.9-0.9c0.1,0.1,0.2,0.4,0.2,0.7c-0.1,0.4-0.3,0.6-1.4,1c-0.7,0.2-1.3,0.5-1.3,0.6c0,0.1,0.9,0.3,2,0.4
		c1.1,0.2,2.2,0.3,2.6,0.4c0.3,0.1,1.9,0.3,3.5,0.6c1.6,0.3,3.2,0.5,3.4,0.6c0.2,0.1,1.5-0.3,2.9-0.8c2.9-1.1,3.2-1.1,3.1-0.4
		c-0.1,0.4-0.4,0.6-1.3,1c-0.7,0.3-1.2,0.5-1.3,0.6c-0.1,0.1,0.9,0.3,4.9,0.9c0.8,0.1,1.7,0.3,2,0.3c0.3,0,1.3,0.2,2.3,0.4
		c1,0.2,1.9,0.3,2.1,0.3c0.2,0,1.3,0.2,2.4,0.4l2.1,0.3l2.4-0.9c2.6-0.9,3.2-0.9,3.1-0.1c-0.1,0.5-0.2,0.6-1.5,1.2l-0.8,0.3l1.8,0.3
		c1,0.2,3.1,0.5,4.6,0.7c1.6,0.3,3.1,0.5,3.4,0.5c0.3,0.1,1.2,0.2,2,0.3c1.4,0.2,1.5,0.2,4.4-0.9c1.7-0.6,3.1-1.1,3.2-1
		c0.3,0.2,0.2,1.2-0.1,1.4c-0.2,0.1-0.9,0.3-1.7,0.6l-1.5,0.5l4.1,0.6c2.2,0.4,5.3,0.8,6.9,1.1c1.5,0.2,3.1,0.4,3.4,0.4
		c0.4,0,1.8-0.4,3.1-0.9c2.8-1,2.9-1.1,3.1-0.6c0.2,0.7-0.1,1-1.6,1.5l-1.5,0.5l3.4,0.5c1.9,0.3,5.8,1,8.7,1.4l5.3,0.9l3.1-1
		c3.4-1.1,5.7-1.4,5.9-0.8c0.1,0.2,0,0.5-0.2,0.6c-0.4,0.3-3.9,1.7-14.3,5.3c-12.1,4.2-36.5,12.7-38.3,13.3
		c-0.6,0.2-1.2,0.5-1.4,0.6c-0.1,0.1-0.3,0.2-0.5,0.2c-0.2,0-6.4,2.1-13.9,4.7c-7.5,2.6-16.1,5.6-19.1,6.6c-3,1-8,2.8-11,3.8
		C307.9,317.7,306.2,318,302.8,317.6L302.8,317.6z M313.3,313.9c2.9-1,7.9-2.8,11.1-3.9c3.2-1.1,5.9-2.1,5.9-2.2
		c0-0.1-0.8-0.3-1.8-0.4c-1-0.2-4.8-0.8-8.6-1.5c-3.8-0.7-7.1-1.3-7.5-1.4c-0.5-0.1-2.3,0.5-6.6,2.2c-3.2,1.3-7.5,2.9-9.5,3.6
		c-3.7,1.4-4.4,1.8-4.1,2.8c0.1,0.4,0.6,0.6,3.2,1.2c5.4,1.2,8.3,1.6,11,1.6C307.8,315.8,308.8,315.5,313.3,313.9L313.3,313.9z
		 M289.5,311.2c1.5-0.6,6.3-2.4,10.8-4.1c4.5-1.7,8.2-3.1,8.3-3.2c0.1-0.1-1.3-0.4-3.2-0.8c-1.9-0.4-5-1-7-1.3l-3.7-0.7l-5.4,2
		c-3,1.1-7.3,2.6-9.5,3.4c-3.9,1.4-4.1,1.5-4.4,2.3c-0.2,0.4-0.3,0.8-0.2,0.9c0.1,0.1,10.5,2.5,11.2,2.6
		C286.7,312.3,288.1,311.8,289.5,311.2L289.5,311.2z M275.7,306.4c3.3-1.2,8.3-3,11.1-4c2.8-1,5-1.8,5-1.9c-0.1-0.1-2.8-0.6-12-2.3
		l-1.9-0.4l-9.7,3.2c-8.3,2.8-9.7,3.3-9.9,3.8c-0.5,1.1-0.1,1.2,5.7,2.5c3,0.7,5.5,1.2,5.6,1.2C269.6,308.6,272.4,307.6,275.7,306.4
		L275.7,306.4z M336.1,305.9c10.4-3.6,17.5-6.1,17.8-6.2c0.5-0.2,0.2-0.2-6.8-1.4c-3.3-0.6-6.7-1.2-7.6-1.4l-1.6-0.3l-8.2,2.9
		c-8.1,2.8-9.3,3.4-9.3,4.3c0,0.5-0.4,0.4,6.9,1.9c3.1,0.7,5.7,1.2,5.7,1.2C333.1,306.9,334.5,306.5,336.1,305.9L336.1,305.9z
		 M260,302.4c4-1.3,9.1-3,11.2-3.7c2.1-0.7,3.8-1.3,3.6-1.4c-0.3-0.1-9.1-1.8-36.4-7c-4.6-0.9-9.4-1.8-10.7-2.1
		c-6.3-1.2-12.4-2.4-17.9-3.5c-3.3-0.6-9-1.7-12.6-2.5c-3.6-0.7-7.5-1.5-8.7-1.7l-2.1-0.4l-4.7,1.7c-2.6,1-5.9,2.1-7.2,2.6
		c-1.4,0.5-2.7,1-2.9,1.2c-0.6,0.5-0.5,1.4,0.1,1.5c0.3,0.1,3.6,0.8,7.3,1.6c13.7,3,73.1,15.8,73.4,15.8
		C252.6,304.8,256,303.8,260,302.4L260,302.4z M319.5,301.3c2.8-1,7.5-2.5,10.4-3.5c2.9-1,5.2-1.7,5.1-1.7c-0.1,0-3.7-0.7-8-1.5
		l-7.9-1.5l-7.8,2.6c-7.9,2.7-9.2,3.3-9.2,4.3c0,0.2,0.2,0.5,0.5,0.7c0.5,0.2,10.7,2.3,11.4,2.3C314.2,303,316.7,302.2,319.5,301.3
		L319.5,301.3z M305.9,296c5.2-1.8,9.5-3.3,9.6-3.4c0.1-0.1-3-0.7-6.9-1.5l-7-1.3l-8.2,2.8c-8.7,3-9,3.1-8.4,4.3
		c0.2,0.5,0.8,0.6,4.7,1.4c2.5,0.5,4.6,0.9,4.7,0.9C295.4,299.5,297.1,299.1,305.9,296L305.9,296z M363.2,296.4
		c3.1-1.1,8-2.8,11-3.8c3-1,5.5-2,5.6-2.1c0.1-0.1-1.4-0.4-3.3-0.7c-1.9-0.3-7-1.1-11.2-1.8l-7.8-1.3l-2,0.8c-1.1,0.5-4.6,1.8-7.7,3
		c-6.3,2.4-8.1,3.5-7.3,4.3c0.1,0.1,3.6,0.9,7.8,1.7c4.1,0.8,7.6,1.5,7.8,1.6C356.9,298.5,358,298.3,363.2,296.4L363.2,296.4z
		 M284.7,294.2c3.1-1,7.6-2.5,10-3.3c2.4-0.8,4.3-1.5,4.3-1.5c0,0-3.4-0.7-7.4-1.4l-7.3-1.4l-6.7,2.6c-7.7,2.9-7.8,3-8.4,3.8
		c-0.7,1.1-0.3,1.3,4.4,2.2c2.4,0.5,4.6,0.8,4.9,0.9C278.7,296.1,281.6,295.2,284.7,294.2L284.7,294.2z M344.8,290.2
		c5.6-2.1,10.1-3.8,10-3.8c-0.1,0-3.4-0.5-7.3-1.2c-3.9-0.7-7.7-1.2-8.3-1.2c-0.9,0-2.8,0.6-9.6,3c-8,2.9-9.1,3.4-9.1,4.2
		c0,0.1,0.9,0.4,2.2,0.7c1.2,0.2,4.3,0.8,6.8,1.3c2.5,0.5,4.7,0.9,4.9,0.9C334.5,294,339.2,292.3,344.8,290.2L344.8,290.2z
		 M272.6,289.6c4.7-1.8,8.5-3.4,8.5-3.4c0-0.1-2.7-0.6-6-1.3l-6-1.1l-7.2,2.8c-4,1.5-7.4,2.9-7.7,3c-0.5,0.3-0.6,1.5-0.2,1.7
		c0.5,0.3,8.1,1.7,9.1,1.6C263.8,292.9,267.2,291.7,272.6,289.6L272.6,289.6z M317.9,289.6c1.4-0.5,3-1.1,3.7-1.4
		c3-1,13.3-4.7,13.5-4.9c0.2-0.2-12.9-2.3-14-2.3c-0.3,0-1,0.2-1.6,0.4c-0.5,0.2-3.6,1.3-6.8,2.4c-3.2,1.1-6.1,2.2-6.4,2.4
		c-1.1,0.7-1.4,1.6-0.8,2.1c0.2,0.1,2.4,0.7,5.1,1.2c2.6,0.5,4.8,0.9,4.8,0.9C315.4,290.5,316.5,290.1,317.9,289.6L317.9,289.6z
		 M252.3,288.5c2.5-1,6.5-2.5,9-3.5c2.5-1,4.5-1.7,4.6-1.7c0.7,0-1.1-0.4-6.3-1.4l-6.3-1.2l-7.4,2.7c-7.7,2.9-8.1,3.1-7.8,4.2
		c0.1,0.5,0.4,0.6,4.8,1.5c2.6,0.5,4.8,1,4.8,1C247.7,290.3,249.8,289.5,252.3,288.5L252.3,288.5z M391.4,286.6
		c4.1-1.4,7.9-2.8,8.5-3l1.1-0.4l-1.1-0.2c-0.6-0.1-4.6-0.7-8.9-1.4l-7.7-1.2l-7.2,2.5c-7.2,2.5-8.1,2.9-7.4,3.6
		c0.2,0.3,13.2,2.6,14.7,2.7C383.7,289.1,387.4,288,391.4,286.6L391.4,286.6z M308.2,283.9c5.3-1.9,9.7-3.4,9.7-3.4
		c0,0-2.8-0.5-6.2-1l-6.1-1l-6.5,2.5c-7.4,2.8-7.6,2.9-8,3.7c-0.6,1.1-0.2,1.3,3.4,2c1.8,0.3,3.4,0.6,3.6,0.6
		C298.3,287.3,302.9,285.7,308.2,283.9L308.2,283.9z M235,285.8c1.8-0.7,5.9-2.2,9.1-3.4c3.2-1.2,5.8-2.2,5.8-2.2
		c-0.1-0.1-10.5-1.9-11-1.9c-0.4,0-2.6,0.7-4.9,1.6c-2.4,0.9-5.8,2.1-7.7,2.8c-1.9,0.7-3.5,1.4-3.7,1.6c-0.7,0.9-0.5,1.1,4,1.9
		c2.3,0.5,4.5,0.8,4.8,0.9C231.5,287,233.2,286.5,235,285.8L235,285.8z M168.9,285c1.6-0.6,5.7-2,9-3.2c3.4-1.1,6-2.1,5.9-2.2
		c-0.1,0-2.4-0.5-5-1l-4.8-0.9l-5.2,1.9c-2.9,1.1-6.1,2.3-7.3,2.7c-2.1,0.8-2.8,1.3-2.3,2c0.1,0.2,5.5,1.5,6.6,1.6
		C165.9,286.1,167.3,285.6,168.9,285L168.9,285z M371.2,282.8c4.7-1.6,8.6-2.9,8.6-3c0-0.1-2.2-0.5-4.8-0.9
		c-2.7-0.4-5.1-0.8-5.4-0.9c-2.3-0.4-3.6-0.5-4.3-0.2c-0.4,0.2-3.5,1.3-6.8,2.6c-5.2,2-6,2.4-6.1,2.8c-0.1,0.3-0.1,0.6,0,0.7
		c0.1,0.1,8.8,1.6,9.8,1.7C362.4,285.7,366.5,284.4,371.2,282.8L371.2,282.8z M293.5,281.5c4.6-1.8,8.5-3.3,8.7-3.4
		c0.3-0.1-10.8-2-12.5-2.2c-0.3,0-3.1,1-6.3,2.2c-8.1,3.2-8.1,3.2-8.5,3.8c-0.3,0.5-0.3,0.6,0,0.8c0.2,0.2,1.4,0.5,2.6,0.7
		c1.2,0.2,3.1,0.6,4.3,0.8c1.1,0.2,2.3,0.4,2.6,0.4C284.9,284.7,288.9,283.3,293.5,281.5L293.5,281.5z M226.5,280.9
		c5.6-2,9-3.4,8.8-3.4c-0.2-0.1-2.8-0.6-5.6-1.1l-5.2-1l-7.8,2.7c-4.3,1.5-8,2.9-8.3,3c-0.3,0.2-0.5,0.5-0.5,0.8
		c0.1,0.4,0.3,0.6,2.1,0.9c3.9,0.8,6.4,1.3,6.8,1.3C217.1,284.3,221.4,282.8,226.5,280.9L226.5,280.9z M158,281.9
		c2.2-0.8,6-2.1,8.3-2.9c2.3-0.8,4.3-1.5,4.5-1.6c0.1-0.1-2.1-0.6-5-1.2l-5.3-1l-7.7,2.7l-7.7,2.6v0.7v0.7l3.7,0.7
		c2.1,0.4,4.1,0.7,4.5,0.8C153.6,283.3,155.7,282.7,158,281.9L158,281.9z M353.8,280.6c3.7-1.4,7.4-2.7,8-2.9
		c0.7-0.2,1.2-0.5,1.1-0.5c-0.1-0.1-5.5-1-8-1.4c-0.5-0.1-1.7-0.2-2.7-0.4l-1.8-0.3l-7.3,2.4c-7.1,2.4-7.9,2.7-7.6,3.5
		c0.1,0.2,9.2,1.9,10.9,2C346.7,283.1,350,282,353.8,280.6L353.8,280.6z M278.1,278.5c4.6-1.7,8.1-3.2,7.9-3.3
		c-0.2,0-3.1-0.5-6.4-1.1l-6-1l-3.3,1.2c-1.8,0.7-4.9,1.8-6.7,2.5s-3.6,1.4-3.9,1.6c-0.6,0.4-0.7,1.2-0.2,1.4
		c0.8,0.3,9.6,1.9,10,1.8C269.6,281.8,273.6,280.3,278.1,278.5L278.1,278.5z M206.1,280.3c4.2-1.5,12.7-4.5,14.1-5
		c0.6-0.2,1.1-0.4,1-0.4c0,0-2.1-0.4-4.6-0.9l-4.5-0.8l-7.2,2.7c-8.9,3.3-8.6,3.2-8.6,3.9c0,0.4,0.1,0.6,0.5,0.7c1,0.2,5.1,1,5.5,1
		C202.6,281.5,204.3,281,206.1,280.3L206.1,280.3z M338.6,277.5c4.5-1.6,8.1-2.9,8-3c-0.1-0.1-0.9-0.2-1.6-0.3
		c-0.7-0.1-3.5-0.5-6-0.9c-8-1.3-6.6-1.5-14,1.3c-3.5,1.3-6.6,2.5-6.9,2.7c-0.4,0.4-0.6,1.2-0.3,1.2c0.1,0,2.6,0.4,5.5,0.9
		c2.9,0.5,5.8,0.9,6.3,0.9C330,280.3,333,279.4,338.6,277.5L338.6,277.5z M200.2,276.2c4.8-1.8,8.8-3.3,8.9-3.4
		c0.1-0.1-1.9-0.5-4.5-1l-4.7-0.9l-5.8,2.2c-3.2,1.2-6.7,2.5-7.9,3c-1.9,0.7-2.2,0.9-2.2,1.4c-0.1,0.5,0,0.6,0.5,0.7
		c1.4,0.3,6.3,1.2,6.6,1.3C191.3,279.4,195.4,277.9,200.2,276.2L200.2,276.2z M260.7,276.3c4-1.5,7.8-2.9,8.4-3.1
		c1.4-0.5,1.7-0.4-5.3-1.5c-5.2-0.8-5.3-0.8-6.3-0.5c-0.5,0.2-3.2,1.2-6.1,2.2c-2.8,1-5.4,2-5.8,2.2c-0.7,0.4-1.3,1.4-0.9,1.7
		c0.1,0.1,1.2,0.4,2.5,0.6c1.3,0.2,3,0.5,3.9,0.7c0.9,0.2,1.7,0.3,1.9,0.3C253.3,278.9,256.7,277.8,260.7,276.3L260.7,276.3z
		 M320.2,274.6c4.4-1.6,7.9-3,7.9-3c0,0-2.8-0.5-6.1-1l-6.1-1l-6.4,2.3c-3.5,1.3-6.6,2.5-6.8,2.6c-0.2,0.2-0.3,0.5-0.2,0.9
		c0.1,0.5,0.3,0.6,4.2,1.2c2.2,0.3,4.1,0.7,4.3,0.7C311.7,277.7,313,277.3,320.2,274.6L320.2,274.6z M186.6,274.2
		c3.9-1.5,7.8-3,8.6-3.3l1.6-0.6l-2.6-0.5c-1.4-0.3-3.9-0.7-5.5-1l-2.8-0.5l-8.4,2.8c-8.1,2.7-8.4,2.9-8.4,3.4c0,0.6,0,0.6,4.8,1.5
		c1.1,0.2,2.7,0.5,3.5,0.7c0.8,0.2,1.6,0.3,1.8,0.2C179.4,276.9,182.7,275.7,186.6,274.2L186.6,274.2z M244.5,274.4
		c11.7-4.2,11.1-4,10.7-4.1c-0.6-0.2-5.1-0.8-5.2-0.7c-0.1,0.1-0.2,0-0.4-0.1c-0.1-0.1-1.4-0.4-2.9-0.6l-2.6-0.4l-6.7,2.4
		c-3.7,1.3-6.8,2.5-7,2.6c-0.2,0.1-0.3,0.5-0.2,0.7c0.1,0.4,0.5,0.6,4.4,1.3c2.4,0.5,4.3,0.9,4.3,0.9
		C238.9,276.4,241.5,275.5,244.5,274.4L244.5,274.4z M304.8,272.3c5.6-2.1,7.8-3,7.5-3.1c-0.2-0.1-3.1-0.6-6.4-1.1l-6-0.9l-3.8,1.4
		c-2.1,0.7-4.8,1.7-6.1,2.2c-1.3,0.4-2.5,0.9-2.7,1c-0.5,0.2-1.2,1.5-1,1.7c0.1,0.1,2.4,0.5,5.2,1c2.8,0.5,5.1,0.8,5.1,0.9
		C296.8,275.2,300.4,273.9,304.8,272.3L304.8,272.3z M229.5,272c2.5-0.9,6-2.1,7.8-2.7c1.8-0.6,3.3-1.2,3.4-1.3
		c0.1-0.1-2.2-0.5-5.2-1l-5.3-0.8l-1.3,0.5c-0.7,0.3-3.5,1.3-6.1,2.3c-2.6,1-4.9,2-5.1,2.2c-0.7,0.8-0.3,1.1,3,1.7
		c1.7,0.3,3.4,0.6,3.7,0.6C224.7,273.6,227,272.9,229.5,272L229.5,272z M288.6,269.7c4.2-1.5,7.8-2.8,8-2.8s0.2-0.1,0.1-0.1
		c-0.1-0.1-9.4-1.7-11.3-1.9c-1.1-0.1-1.6,0-3.1,0.6c-11,4.3-11,4.3-11,5.2c0,0.3,0.2,0.4,0.7,0.5c2.4,0.4,7.7,1.2,8.2,1.3
		C280.6,272.5,284.4,271.2,288.6,269.7L288.6,269.7z M214.9,270.6c1.3-0.5,8.4-3.2,12.2-4.6c0.4-0.2-0.7-0.4-4.6-1l-5.2-0.8
		l-6.1,2.4c-5.8,2.3-6.1,2.4-6.1,3c0,0.6,0.1,0.6,3.1,1.2C212.4,271.4,212.9,271.4,214.9,270.6L214.9,270.6z M269.9,268.8
		c1.8-0.7,5.2-2.1,7.4-3c2.2-0.9,3.9-1.6,3.8-1.7c-2.1-0.4-12.1-1.9-12.5-1.9c-0.7,0-11.4,4.4-12,4.9c-0.3,0.2-0.4,0.6-0.4,0.9
		c0.1,0.5,0.4,0.6,4.5,1.2c2.4,0.4,4.8,0.7,5.2,0.8C266.2,270.2,268,269.6,269.9,268.8L269.9,268.8z M207.8,266.3
		c3.8-1.4,6.8-2.5,6.8-2.6c0,0-2.3-0.4-5.1-0.9l-5-0.8l-6.5,2.2c-5.5,1.9-6.5,2.3-6.5,2.7c0,0.2,0.1,0.5,0.3,0.6
		c1,0.4,7.2,1.4,8.1,1.4C200.5,268.9,203.9,267.7,207.8,266.3L207.8,266.3z M253,266.9c1.1-0.5,4.2-1.8,6.8-2.8c2.6-1,4.9-2,5.2-2.2
		c0.4-0.2-0.3-0.4-5-1.1c-3-0.5-5.7-0.9-6-0.9c-0.5,0-12.4,4.3-12.8,4.7c-0.4,0.3-0.4,1.3,0,1.5c0.2,0.1,6.6,1.2,9.6,1.7
		C250.8,267.8,251.8,267.4,253,266.9L253,266.9z M238.3,264.1c1.7-0.7,5.2-2,7.7-2.9c2.5-0.9,4.6-1.7,4.6-1.7
		c0.1-0.1-6.2-1.1-7.5-1.2c-0.9-0.1-2.1,0.3-7.7,2.4c-6.4,2.4-6.7,2.5-6.7,3.1c0,0.6,0.1,0.6,3,1.1c1.6,0.3,3.1,0.5,3.2,0.5
		C235,265.3,236.5,264.7,238.3,264.1L238.3,264.1z M468.7,292.4c0.5-0.4,0.5-0.6,0.6-5.7c0.1-5.2,0.3-8.5,0.9-17.4
		c0.2-2.5,0.5-7.6,0.8-11.3c0.6-9.1,0.9-11.5,1.2-11.8c0.2-0.2,0.2,5.1,0.1,19.7c-0.1,10.9-0.2,20.7-0.3,21.6
		c-0.1,1.9,0.1,1.9,0.7-0.1c0.5-1.7,0.6-3,2.5-27.3c0.9-12.1,3.1-39.5,4.8-61c1.7-21.4,4-51.4,5.2-66.6c1.2-15.2,3.4-44,5-64
		c3.1-39,3.4-43.3,3.3-49c0-5.6-0.8-8.1-2.8-9.6c-0.5-0.4-1-0.7-1.1-0.7c-0.1,0,0.1,0.9,0.5,1.9c0.9,2.8,1.2,6.9,0.9,11.3
		c-0.1,1.8-0.3,4.5-0.3,5.9c0,2.4-0.2,3.3-0.6,2.4c-0.1-0.2-0.2-3.3-0.4-6.8c-0.1-4-0.3-6.9-0.5-7.9c-0.4-1.9-1.4-4.1-2.7-6.2
		l-1-1.6h-1.1c-0.6,0-1.1,0-1.1,0.1c0,0,0.3,0.6,0.8,1.3c1,1.6,2,4.3,2.7,7.2c0.5,2.2,0.5,3,0.5,8.3c0,3.2-0.1,7.7-0.3,9.9
		c-0.1,2.2-0.4,6.1-0.5,8.6c-0.5,9.6-2.3,33.6-2.6,35.3c-0.1,0.3-0.2,0.5-0.3,0.4c-0.2-0.1-0.2-1.8,0.4-9.4c1-15.1,1.7-39.9,1.3-45
		c-0.6-6.1-2-10-4.9-12.9c-1.8-1.8-3-2.3-6-2.5c-2.8-0.2,2.1-0.7-92.6,10.2c-31,3.6-67.7,7.8-81.5,9.4c-42,4.8-46.6,5.4-49.8,6.1
		c-7.1,1.5-8.4,2.8-9.3,8.6c-0.3,1.7-1.2,12.4-2.2,25.7c-0.9,12.5-2.2,28.9-2.7,36.3c-0.6,7.4-1.9,25.9-3.1,40.9
		c-2,27-2.6,34.6-5.6,74.4c-1.2,16.6-1.5,20.1-1.2,20.3c0.5,0.3,0.8,0.1,0.8-0.9c0-0.5,0.2-2.2,0.4-3.7c0.7-5.8,1-9.5,1.4-15.8
		c0.2-3.6,0.5-7.9,0.7-9.6c0.2-1.7,0.5-4.4,0.6-6.2c0.4-4.9,0.7-4,0.6,1.7c-0.2,7.2-0.8,21.7-1,22.7c-0.1,0.5-0.2,2.7-0.3,4.9
		c-0.1,2.2-0.3,4.7-0.4,5.6c-0.1,1.6-0.1,1.6,0.5,1.8c0.5,0.1,0.6,0,0.6-0.4c0-0.3,0.1-1.7,0.2-3.3c0.1-1.5,0.4-6.4,0.7-10.8
		c0.2-4.4,0.7-11,1-14.7c0.3-3.7,0.7-10,0.9-14c0.5-10,0.7-12.7,1.1-12.2c0.1,0.1-0.2,19.9-0.4,22.9c-0.1,1.3-0.3,4.4-0.5,6.7
		c-0.2,2.4-0.5,7.9-0.7,12.3c-0.2,4.4-0.4,9.1-0.6,10.5c-0.3,3.4-0.3,3.4,0.2,3.4c0.3,0,0.5-0.2,0.5-0.6c0-1,0.6-10.9,1-16.1
		c0.5-7.2,2.2-20,2.7-20c0.2,0,0.2,0.9-0.5,9.3c-0.5,6.6-1.4,28.4-1,27.6c0.1-0.1,3-43.5,6.6-96.5c3.6-52.9,6.6-97,6.7-97.9
		c0.4-2.8,1.8-4.7,3.8-5.2c0.5-0.1,42.2-4.5,92.7-9.7c50.5-5.2,100.4-10.4,110.8-11.5c20.2-2.1,19.7-2.1,21-1
		c0.8,0.7,1.4,2.1,1.6,3.5c0.1,0.7,0,2.6-0.1,4.3c-0.1,1.7-1,12.2-1.8,23.2c-0.9,11.1-2.7,33.8-4,50.5c-1.3,16.7-3.8,47.9-5.5,69.3
		c-5.3,66.6-6,76.2-7,89c-0.8,10.5-0.9,12.4-0.7,12.7c0.2,0.2,0.4,0.3,0.4,0.2c0.1-0.1,0.3-2.9,0.6-6.2c0.4-6,1.1-12.5,1.3-13.2
		c0.1-0.2,0.3-2.4,0.6-5c1.1-10.1,1.2-11.5,1.5-11.4c0.1,0,0.2,0.2,0.2,0.5c0,0.3-0.1,3-0.2,5.9c-0.1,3-0.2,6.7-0.4,8.3
		c-0.1,1.6-0.3,6.3-0.4,10.5c-0.1,4.2-0.3,8.8-0.5,10.2c-0.2,2.3-0.2,2.7,0.2,3.2c0.4,0.6,0.4,0.5,0.7-4.2
		c0.5-8.9,1.7-20.7,2.1-20.7c0.4,0,0.4,2.9,0.1,14.5c-0.3,14.6-0.3,17.6-0.1,21.4l0.2,2.9l0.3-3.7c0.2-2,0.4-6.1,0.6-9
		c0.8-12.5,0.9-13.3,1.3-12.6c0.1,0.2,0.3,6.5,0.4,14c0.1,7.5,0.2,13.7,0.3,13.7C468.1,292.8,468.4,292.6,468.7,292.4L468.7,292.4z
		 M467.1,256c0-9.5,0.7-15.3,1.2-9.7c0.1,1.7-0.3,12.1-0.6,13.6C467.3,262.4,467.1,261.4,467.1,256L467.1,256z M464.6,245.7
		c0-2.5,0.7-11.6,1-13.7c0.2-1.1,0.5-0.9,0.7,0.5c0.2,1.7-0.7,14.6-1.1,15.7C464.8,249.2,464.6,248.4,464.6,245.7L464.6,245.7z
		 M471.3,240.2c-0.2-1.2,0.1-11.4,0.4-13.4c0.2-1.6,0.4-1.9,0.6-1.7c0.5,0.5,0.2,12.6-0.3,15.2C471.8,241.3,471.5,241.2,471.3,240.2
		L471.3,240.2z M463.1,230.7c0.2-3.3,0.8-9.6,1-10.7c0.3-1.5,0.6-0.7,0.5,1.4c-0.1,2.1-0.8,9.6-1.1,11c-0.1,0.4-0.2,0.8-0.4,0.8
		C463.1,233.4,463,232.5,463.1,230.7L463.1,230.7z M465,212.5c-0.1-0.5,0-4.3,0.2-4.8c0.4-1.1,0.7,3.5,0.4,4.8
		C465.5,213.1,465.2,213.2,465,212.5L465,212.5z M236.6,191.2c0.3-10.5,0.8-18.3,1.3-18.8c0.5-0.5,0,17.5-0.6,22
		c-0.2,1.4-0.3,2.5-0.3,2.6c0,0-0.1,0.1-0.3,0.1C236.5,197.1,236.5,195.5,236.6,191.2L236.6,191.2z M231,195.3
		c-0.1-0.3,0.4-6.1,0.5-6.5c0,0,0.1,0,0.2,0.1c0.2,0.1,0.1,2.7-0.1,5.6C231.5,195.7,231.2,196,231,195.3L231,195.3z M234.4,182.9
		c-0.4-1.4,0-9.8,0.7-14.4c0.4-3.1,0.5-3.6,0.8-3.6c0.2,0,0.2,0.8,0.1,2.4c-0.1,1.3-0.2,4.8-0.4,7.8c-0.3,6.2-0.4,7.4-0.8,8
		C234.6,183.4,234.5,183.4,234.4,182.9L234.4,182.9z M235.9,155.4c0.1-2,0.2-3.4,0.4-3.5c0.2-0.2,0.3,0.5,0.3,2.5
		c0,3-0.1,4.2-0.5,4.2C235.9,158.7,235.8,157.5,235.9,155.4L235.9,155.4z M478.4,124.4c-0.3-0.8-0.6-5.3-0.4-6.1
		c0.1-0.5,0.2-0.6,0.4-0.4c0.3,0.3,0.5,5.4,0.3,6.5l-0.1,0.6L478.4,124.4z M478,108.7c-0.3-1.6-0.1-9.4,0.2-13.2
		c0.2-2.1,0.5-7,0.8-11c0.9-14.3,1.2-17.7,1.6-23.3c0.2-3.1,0.6-8,0.8-10.9c0.2-2.9,0.4-5.3,0.6-5.4c0.4-0.4,0.5,1.4,0.2,8.1
		c-0.2,6.7-0.4,10.6-1.4,25c-0.2,3.8-0.5,7.9-0.6,9c-0.1,1.2-0.4,5.5-0.8,9.7c-0.4,4.2-0.7,8.8-0.8,10.1
		C478.4,109.5,478.2,110.2,478,108.7L478,108.7z M482.5,98.8c-0.2-1.2,0-12.2,0.3-13.4c0.1-0.4,0.3-0.7,0.4-0.7
		c0.3,0.1,0.3,12.2,0.1,14.1C483,100.2,482.7,100.2,482.5,98.8L482.5,98.8z M489.2,58.1c-0.5-0.5,0-17,0.5-18.3l0.2-0.7l0.2,0.6
		c0.4,0.9,0.3,7.9-0.1,11.4c-0.2,1.8-0.4,3.8-0.4,4.6C489.6,57.4,489.4,58.4,489.2,58.1L489.2,58.1z M262.7,38.4
		c0.5-0.1,7.6-1.1,14.9-2.1c3.4-0.4,7.2-1,8.4-1.1c1.3-0.2,3.7-0.4,5.3-0.6c1.7-0.1,5.4-0.5,8.2-0.8c5.3-0.6,8.9-0.7,7.6-0.3
		c-1.4,0.4-17.7,3-20.8,3.3c-0.8,0.1-3.7,0.3-6.4,0.6C272.2,38.2,261.3,38.8,262.7,38.4L262.7,38.4z M333.7,29.6
		c0.9-0.6,15.9-2.6,24.8-3.3c2.4-0.2,5.9-0.6,7.8-0.8c6.6-0.9,5-0.3-3.5,1.2C353.1,28.3,332.4,30.4,333.7,29.6L333.7,29.6z
		 M364.5,27.8c9.6-2,24.1-4,28.8-4c4,0-1.6,1.2-11.7,2.4c-6.7,0.8-18.2,2.2-19.7,2.3C361.2,28.6,362.3,28.3,364.5,27.8L364.5,27.8z
		 M371.1,24.8c0.2-0.1,0.4-0.1,0.4,0c0.1,0.1-0.1,0.1-0.3,0.1C371,24.9,370.9,24.8,371.1,24.8L371.1,24.8z M411.1,258.1
		c6.3-0.6,18.1-2.8,22.6-4.2c2.9-0.9,8.4-3.2,12.3-5.3c4.6-2.4,10.5-5.7,11.4-6.5l0.6-0.5l3-38.6c1.7-21.2,3-38.7,3-38.7
		c-0.1-0.1-1.3,0.6-2.9,1.5c-5.5,3.2-9.9,5.2-17.7,8.2c-8.3,3.2-12.6,4.5-21.1,6.4c-4.7,1.1-7.4,1.5-8,1.3c-0.2-0.1,1-0.5,3-1
		c4.7-1.2,6.2-1.7,11-3.5c11.3-4.3,25.3-11.3,33.1-16.6c1.6-1.1,3-2,3-2c0.1-0.1,1.3-15.4,1.2-15.5c-0.1-0.1-1.2,0.6-2.5,1.6
		c-1.3,0.9-4.9,3.4-7.9,5.4c-18.4,12.4-30.2,17.8-45.6,20.8c-11.5,2.3-25.1,2.4-37.6,0.5c-15.5-2.4-27.7-6.3-52.7-16.8
		c-18.3-7.7-25.5-10.5-30.9-12.2c-15.7-4.8-27.8-5.5-41-2.3l-2.9,0.7l0,0.7c0,0.4-0.2,3.5-0.4,7c-0.2,3.4-0.5,6.3-0.5,6.5
		c0,0.2,1.1,0.1,4.5-0.3c3.2-0.4,11.6-0.5,16-0.3c7.5,0.5,12.8,1.3,18.9,2.9c6,1.6,9.8,3.2,27.2,11.8c9,4.4,12.5,6.1,17,7.9
		c9.3,3.7,15.5,5.3,26.4,6.7c3.1,0.4,5.7,0.8,5.8,0.8c0.3,0.3-2.1,0.4-5.1,0.3c-17.1-0.8-26.6-3.4-48.6-13.6
		c-15.6-7.2-21.8-9.4-30.9-10.7c-5.5-0.8-15.6-1.1-19.9-0.6c-3,0.4-8.9,1.4-10.5,1.8l-1.4,0.4l-0.1,1.5c-0.1,1.2-4.2,61.7-4.2,62.1
		c0,0.1,0.9-0.2,1.9-0.5c4.2-1.4,10.6-2.3,17.3-2.3c6.8,0,12.6,0.8,20.1,2.7c8.2,2.1,15.1,4.5,30.6,10.7
		c16.1,6.5,24.1,9.4,33.5,12.3c6.7,2,11.4,3.3,15.6,4.3c1.5,0.3,5.1,1.1,8,1.8c8.7,2.1,14.8,3,23.4,3.6c2.1,0.1,4.3,0.3,4.8,0.4
		C395.9,258.6,408.5,258.4,411.1,258.1L411.1,258.1z M372,130.3c-0.1-0.1-0.3-0.1-0.4,0c-0.2,0.1-0.1,0.1,0.1,0.1
		C372,130.4,372.1,130.4,372,130.3L372,130.3z M364.1,128.3c9.2-0.7,18.8-2.6,27.4-5.6c3.5-1.2,8.3-3.3,8-3.6c0-0.1-1.1,0.3-2.5,0.8
		c-13.4,5.1-28.8,4.7-49.3-1.4c-10.7-3.1-20.1-7.3-33.9-15c-6.5-3.6-14.5-7.6-18.4-9.2c-15.6-6.2-28.5-7.4-39.5-3.7
		c-2.7,0.9-6,2.6-7.2,3.7l-0.8,0.7l-0.2,2.8c-0.1,1.5-0.2,2.8-0.1,2.8c0,0,1.2-0.5,2.5-1.1c3.4-1.6,6.5-2.6,10.5-3.5
		c7.3-1.5,14.2-1.4,22.5,0.4c4.8,1,11.1,3.6,19.5,7.9c2.9,1.5,5.2,2.7,5.1,2.8c-0.1,0.1-1.1-0.4-2.4-1c-5.1-2.6-12.6-5.1-19.3-6.4
		c-13.1-2.6-27.8-0.2-37.2,5.9l-1.7,1.1l-0.2,2.7c-0.1,1.5-0.2,3.2-0.3,3.9l-0.1,1.2l0.5-0.4c6.2-4.5,12.4-7.3,19.7-8.9
		c2.6-0.6,3.4-0.6,7.5-0.6c3.8,0,5.1,0.1,7.5,0.5c7.4,1.3,12.5,3.3,24.1,9.3c4.6,2.4,9.9,5,11.7,5.8
		C332.8,127.3,346.3,129.6,364.1,128.3L364.1,128.3z M389.5,107.3c11.4-1.1,25.2-5.3,37.5-11.6c6.7-3.4,15.8-9.4,21-14
		c2.6-2.2,2-2-2.9,0.9c-7.5,4.5-13.2,7.4-19.9,10.1c-16.5,6.7-33.4,10.1-49.2,10.1c-5.4,0-10.2-0.5-16.7-1.9
		c-4-0.8-4.9-1.1-10.3-3.2c-2.3-0.9-5.1-2-6.4-2.5c-1.3-0.5-2.7-1.1-3.2-1.4c-0.5-0.3-1-0.4-1-0.3c0,0.9,11.9,7,18.7,9.6
		c3.9,1.5,11.1,3.3,15.5,3.8c1.2,0.1,2.5,0.3,2.8,0.3C377,107.6,387.2,107.5,389.5,107.3L389.5,107.3z"/>
</g>
</svg>
