<?xml version="1.0" encoding="utf-8"?>
<!-- Generator: Adobe Illustrator 23.0.0, SVG Export Plug-In . SVG Version: 6.00 Build 0)  -->
<svg version="1.1" id="Layer_1" xmlns="http://www.w3.org/2000/svg" xmlns:xlink="http://www.w3.org/1999/xlink" x="0px" y="0px"
	 viewBox="0 0 64 64" style="enable-background:new 0 0 64 64;" xml:space="preserve">
<style type="text/css">
	.st0{fill:#EBDBB7;}
</style>
<path class="st0" d="M17.6,58.3H6.4V22.7h11.2V58.3z M12,17.9c-3.6,0-6.5-2.9-6.5-6.5S8.4,5,12,5s6.5,2.9,6.5,6.4S15.6,17.9,12,17.9
	z M59.4,58.3H48.2V41c0-4.1-0.1-9.4-5.8-9.4c-5.8,0-6.7,4.5-6.7,9.1v17.6H24.6V22.7h10.7v4.9h0.2c1.5-2.8,5.1-5.7,10.6-5.7
	c11.3,0,13.4,7.4,13.4,16.9L59.4,58.3L59.4,58.3z"/>
</svg>
