<?xml version="1.0" encoding="utf-8"?>
<!-- Generator: Adobe Illustrator 23.0.0, SVG Export Plug-In . SVG Version: 6.00 Build 0)  -->
<svg version="1.1" id="Layer_1" xmlns="http://www.w3.org/2000/svg" xmlns:xlink="http://www.w3.org/1999/xlink" x="0px" y="0px"
	 viewBox="0 0 100 121.5" style="enable-background:new 0 0 100 121.5;" xml:space="preserve">
<style type="text/css">
	.st0{fill:#FEF7E5;}
	.st1{fill:#BB784F;}
	.st2{fill:#BB784F;stroke:#BB784F;stroke-width:0.25;stroke-miterlimit:10;}
</style>
<path class="st0" d="M49.8,53.9c-15,0.1-26.9,12.3-26.8,27.3c0.1,6.4,2.4,12.3,6.2,16.9c0.6,0.7,1.2,1.3,1.8,2l16.9,18.6
	c1.2,1.3,3.2,1.3,4.3,0l16.9-18.5C74,95.2,77,88.4,77,80.9C77,65.9,64.8,53.8,49.8,53.9z"/>
<path class="st1" d="M43.3,62.8c0.1,0,0.2,0,0.3,0c0,0,0-0.1-0.1-0.1c2.7-1,5.6-1.3,8.5-1c0.1-0.7,0.2-1.4,0.3-2.1
	c-0.6-0.1-1.2-0.1-1.8-0.1h-0.9c-1.9,0-3.9,0.3-5.8,0.9c-1.9,0.6-3.7,1.4-5.4,2.4c0.4,0.6,0.8,1.2,1.2,1.8
	C40.8,63.8,42.1,63.2,43.3,62.8z"/>
<path class="st1" d="M65.5,65.9c-3.4-3.4-7.9-5.6-12.6-6.2c-0.1,0.7-0.2,1.4-0.3,2.1c4.2,0.6,8.3,2.5,11.3,5.6
	C64.4,66.9,65,66.4,65.5,65.9z"/>
<path class="st1" d="M67.6,72.7c0.9,2,1.5,4.2,1.7,6.4c0.7,0,1.5-0.1,2.2-0.1c-0.1-1.1-0.2-2.2-0.5-3.3c-0.8-3.5-2.6-6.8-5.1-9.4
	c-0.5,0.5-1.1,1-1.6,1.5C65.7,69.2,66.8,70.9,67.6,72.7z"/>
<path class="st1" d="M31.4,75.2c-0.7-0.2-1.4-0.4-2.1-0.6c-1.3,4.5-1.1,9.5,0.8,13.8c0.7-0.3,1.4-0.6,2-0.8
	C30.5,83.7,30.2,79.3,31.4,75.2z"/>
<path class="st1" d="M71.5,79.6c-0.7,0-1.5,0.1-2.2,0.1c0.1,2.4-0.3,4.8-1.1,7.1c-0.6,1.7-1.5,3.3-2.6,4.8c0.6,0.4,1.2,0.9,1.8,1.3
	c0.5-0.7,1-1.4,1.4-2.1C70.7,87.3,71.7,83.4,71.5,79.6z"/>
<path class="st1" d="M41.5,97.3c-0.3,0.6-0.7,1.3-1,1.9c4.4,2.1,9.4,2.7,14.1,1.7c-0.2-0.7-0.3-1.4-0.5-2.1
	C49.9,99.7,45.4,99.2,41.5,97.3z"/>
<path class="st1" d="M39.2,64.8c-0.4-0.6-0.8-1.2-1.2-1.8c-1.8,1.2-3.4,2.7-4.8,4.3c-1.6,2-2.9,4.3-3.7,6.7c0.7,0.2,1.4,0.4,2.1,0.6
	C32.9,70.7,35.6,67.1,39.2,64.8z"/>
<path class="st1" d="M32.3,88.1c-0.7,0.3-1.4,0.6-2,0.8c2,4.3,5.5,7.9,9.7,10.1c0.3-0.6,0.7-1.3,1-1.9
	C37.2,95.2,34.1,91.9,32.3,88.1z"/>
<path class="st1" d="M54.7,98.7c0.2,0.7,0.3,1.4,0.5,2.1c4.6-1.1,8.9-3.8,11.9-7.6c-0.6-0.4-1.2-0.9-1.8-1.3
	C62.6,95.3,58.8,97.7,54.7,98.7z"/>
<path class="st1" d="M49.8,70.1c0.3,0,0.7,0,1,0c-0.1-0.1-0.1-0.1-0.2-0.2c0-0.5,0-1,0-1.4c0.1-0.1,0.1-0.1,0.2-0.2
	c-0.1-0.1-0.1-0.1-0.2-0.2c0-0.7,0-1.5,0.1-2.2c0.1-0.1,0.1-0.1,0.2-0.2c-0.3,0-0.7,0-1,0c0.1,0.1,0.1,0.1,0.2,0.2
	c0,0.7,0,1.5-0.1,2.2c-0.1,0.1-0.1,0.1-0.2,0.2c0.1,0.1,0.1,0.1,0.2,0.2c0,0.5,0,1,0,1.4C50,70,49.9,70,49.8,70.1z"/>
<path class="st1" d="M48.6,67.6c0-0.3-0.1-0.6-0.2-1c-0.1-0.5-0.6-0.8-1.1-0.8c-0.4,0-0.7,0.1-1.1,0.2c0.1,0.1,0.1,0.1,0.2,0.2
	c0.1,0.7,0.3,1.5,0.4,2.2c-0.1,0.1-0.1,0.1-0.2,0.2c0.1,0,0.1,0.1,0.2,0.1c0.1,0.5,0.2,0.9,0.3,1.4c0,0.1-0.1,0.2-0.1,0.3
	c0.3-0.1,0.7-0.1,1-0.2c-0.1-0.1-0.2-0.1-0.2-0.2c-0.1-0.4-0.2-0.9-0.2-1.3c0.1,0,0.1,0,0.2,0c0.2,0.4,0.4,0.8,0.6,1.2
	c0.1,0.1,0,0.2,0,0.3c0.3-0.1,0.7-0.1,1-0.2C49.1,70,49,70,48.9,69.8c-0.2-0.4-0.4-0.8-0.7-1.3C48.5,68.3,48.6,68,48.6,67.6z
	 M47.9,68c-0.1,0.2-0.3,0.2-0.5,0.3c-0.1-0.6-0.2-1.2-0.3-1.8c0.2,0,0.4-0.1,0.6,0.1c0.2,0.1,0.2,0.5,0.3,0.7
	C48,67.5,48.1,67.8,47.9,68z"/>
<path class="st1" d="M52.5,68.2c0,0.1,0,0.2,0,0.3c0.1,0,0.2,0,0.3,0c0.1,0.1,0.2,0.2,0.3,0.4c0.1,0.1,0,0.3,0,0.4
	c0,0.2-0.1,0.4-0.2,0.5c-0.2,0.1-0.4,0-0.5-0.1c-0.1-0.1,0-0.3,0-0.4c-0.2,0-0.4,0-0.6,0c-0.1,0.4,0.1,0.9,0.5,1
	c0.4,0.2,0.9,0.1,1.1-0.3c0.1-0.2,0.2-0.4,0.2-0.6c0-0.2,0.1-0.4,0.1-0.6c0-0.3-0.2-0.4-0.4-0.7c0-0.1,0-0.2,0-0.3
	c-0.1,0-0.2,0-0.3,0c-0.1-0.2-0.3-0.3-0.3-0.6c0-0.2,0.1-0.4,0.1-0.6c0.1-0.2,0.4-0.3,0.6-0.1c0.1,0.1,0.1,0.3,0.1,0.5
	c0.2,0,0.4,0,0.6,0c0-0.3,0-0.6-0.2-0.8c-0.3-0.4-1-0.4-1.3-0.1c-0.3,0.3-0.3,0.7-0.4,1C52,67.6,52.2,67.9,52.5,68.2z"/>
<path class="st1" d="M44.9,69.4c0.1,0.1,0.3,0.1,0.3,0.2c0.2,0.4,0.3,0.8,0.5,1.3c0,0.1-0.1,0.2-0.1,0.3c0.3-0.1,0.6-0.3,0.9-0.4
	c-0.1,0-0.2-0.1-0.3-0.1c-0.2-0.4-0.4-0.9-0.6-1.3c0-0.1,0.1-0.2,0.1-0.3c-0.1,0-0.2-0.1-0.3-0.1c-0.3-0.7-0.6-1.4-0.8-2.1
	c0-0.1,0.1-0.2,0.1-0.3c-0.3,0.1-0.6,0.3-0.9,0.4c0.1,0.1,0.3,0.1,0.3,0.2c0.3,0.7,0.5,1.3,0.8,2C45,69.2,44.9,69.3,44.9,69.4z"/>
<path class="st1" d="M53.8,70.7c0.3,0.1,0.6,0.3,0.9,0.4c0-0.1-0.1-0.2-0.1-0.3c0.2-0.4,0.4-0.8,0.6-1.2c0.2,0.1,0.4,0.2,0.6,0.3
	c-0.2,0.4-0.4,0.8-0.6,1.2c-0.1,0-0.2,0.1-0.3,0.1c0.3,0.1,0.6,0.3,0.9,0.4c0-0.1-0.1-0.2-0.1-0.3c0.2-0.4,0.4-0.9,0.7-1.3
	c0.1,0,0.2-0.1,0.3-0.1c0-0.1-0.1-0.2-0.1-0.3c0.3-0.7,0.7-1.3,1-2c0.1,0,0.2-0.1,0.3-0.1c-0.3-0.1-0.6-0.3-0.9-0.4
	c0,0.1,0.1,0.2,0.1,0.3c-0.3,0.6-0.6,1.3-1,1.9c-0.2-0.1-0.4-0.2-0.6-0.3c0.3-0.6,0.6-1.3,1-1.9c0.1,0,0.2-0.1,0.3-0.1
	c-0.3-0.1-0.6-0.3-0.9-0.4c0,0.1,0.1,0.2,0.1,0.3c-0.3,0.7-0.7,1.3-1,2c-0.1,0-0.2,0.1-0.3,0.1c0,0.1,0.1,0.2,0.1,0.3
	c-0.2,0.4-0.4,0.9-0.7,1.3C53.9,70.7,53.9,70.7,53.8,70.7z"/>
<path class="st1" d="M59,73.5c0.3,0.1,0.7-0.1,0.7-0.5c0.1-0.4-0.3-0.7-0.7-0.6c-0.2,0-0.3,0.2-0.4,0.4C58.5,73,58.7,73.4,59,73.5z"
	/>
<path class="st1" d="M40.5,73.7c0.3,0.2,0.8-0.1,0.8-0.4c0.1-0.4-0.3-0.7-0.7-0.6c-0.2,0-0.3,0.2-0.4,0.4
	C40.1,73.2,40.3,73.5,40.5,73.7z"/>
<path class="st1" d="M64.5,76.2c-0.1-0.3-0.2-0.6-0.3-1c0,0.1-0.1,0.2-0.1,0.3c-0.7,0.3-1.4,0.6-2.1,0.8c-0.1,0-0.1-0.1-0.2-0.1
	c-0.1,0.1-0.1,0.3-0.2,0.3c-0.4,0.2-0.8,0.3-1.2,0.5c-0.1,0.1-0.2,0-0.3-0.1c0.1,0.3,0.2,0.6,0.2,1c0.1-0.1,0.1-0.1,0.2-0.2
	c0.7-0.1,1.5-0.2,2.2-0.2c-0.7,0.3-1.4,0.6-2.1,0.8c-0.1,0-0.2-0.1-0.3-0.1c0.1,0.3,0.2,0.6,0.2,1c0.1-0.1,0.1-0.1,0.2-0.2
	c0.5-0.1,1-0.1,1.5-0.1c0.1,0.1,0.2,0.1,0.2,0.2c0-0.1,0.1-0.1,0.1-0.2c0.7-0.1,1.5-0.1,2.2-0.2c0.1,0.1,0.2,0.1,0.3,0.2
	c-0.1-0.3-0.2-0.7-0.3-1c-0.1,0.1-0.1,0.1-0.2,0.2c-0.7,0.1-1.5,0.1-2.2,0.2c0.7-0.3,1.4-0.6,2.1-0.8c0.1,0,0.2,0.1,0.3,0.1
	c-0.1-0.3-0.1-0.6-0.2-1c-0.1,0.1-0.1,0.1-0.2,0.2c-0.7,0.1-1.5,0.2-2.2,0.2c0.7-0.3,1.3-0.5,2-0.8C64.2,76.1,64.3,76.2,64.5,76.2z"
	/>
<path class="st1" d="M36.3,76.3c0.1-0.1,0.3-0.1,0.5,0c0-0.2,0-0.4,0-0.6c-0.2,0-0.4,0-0.6,0c-0.3,0.1-0.6,0.4-0.6,0.8
	c0,0.4,0.2,0.8,0.6,1c0.3,0.1,0.6,0.2,0.9,0.2c0.2,0,0.4-0.2,0.6-0.3c0.1-0.1,0.2,0,0.3,0c0-0.1,0-0.2,0.1-0.3
	c0.1-0.1,0.3-0.2,0.4-0.2c0.2,0,0.4,0.1,0.6,0.1c0.2,0.1,0.3,0.4,0.1,0.6c-0.1,0.1-0.3,0.1-0.5,0.1c0,0.2,0,0.4,0,0.6
	c0.3,0.1,0.7,0,1-0.3c0.3-0.3,0.3-0.9,0-1.2c-0.2-0.3-0.6-0.3-1-0.4c-0.4-0.1-0.7,0.1-1,0.3c-0.1,0-0.2,0-0.3-0.1
	c0,0.1,0,0.2-0.1,0.3C37.3,76.9,37.2,77,37,77c-0.2,0-0.4-0.1-0.6-0.2C36.2,76.8,36.1,76.4,36.3,76.3z"/>
<path class="st2" d="M54.4,82.8c0.4-0.4,0.6-0.9,0.4-1.5c-0.1-0.3-0.3-0.6-0.5-0.8c0.3-0.3,0.6-0.7,0.6-1.2c0-0.5-0.3-1-0.7-1.2
	c-0.4-0.3-1-0.4-1.5-0.3c0.1-0.5,0.1-1-0.3-1.4c-0.4-0.5-1.2-0.8-1.8-0.6c-0.3,0.1-0.6,0.3-0.8,0.5c-0.2-0.2-0.4-0.3-0.7-0.4
	c-0.7-0.2-1.5,0-1.9,0.5c-0.3,0.4-0.4,1-0.3,1.4c-0.3-0.1-0.7-0.1-1,0c-0.6,0.2-1.1,0.7-1.2,1.4c-0.1,0.5,0.2,1,0.6,1.3
	c-0.3,0.2-0.4,0.5-0.5,0.9c-0.1,0.5,0.1,1.1,0.5,1.5c0.4,0.4,1.1,0.5,1.7,0.3c-0.1,0.5-0.1,1,0.2,1.4c0.4,0.6,1.1,0.8,1.8,0.6
	c0.3-0.1,0.6-0.3,0.8-0.5c0.2,0.2,0.4,0.3,0.7,0.4c0.7,0.3,1.5,0,1.9-0.5c0.3-0.4,0.4-1,0.3-1.5C53.3,83.4,54,83.2,54.4,82.8z
	 M47.4,76.5c0.5-0.6,1.4-0.7,2-0.3c0.2,0.1,0.3,0.3,0.4,0.3c0.2-0.2,0.5-0.4,0.8-0.5c0.7-0.2,1.6,0.2,1.9,0.9c0.1,0.3,0.1,0.7,0,1
	c-1.1,0.5-2,1.5-2.7,2.5c-0.7-1-1.5-2-2.7-2.5C47,77.5,47,76.9,47.4,76.5z M52.4,78.1c-0.5,1-1.5,1.6-2.4,2.2
	C50.7,79.5,51.4,78.6,52.4,78.1z M49.6,80.3c-0.9-0.6-1.8-1.3-2.4-2.2C48.3,78.6,49,79.5,49.6,80.3z M45.5,82.8
	c-0.4-0.3-0.6-0.7-0.6-1.2c0-0.4,0.3-0.8,0.6-1.1c-0.2-0.2-0.5-0.5-0.6-0.8c-0.1-0.5,0-1.1,0.4-1.4c0.4-0.4,1.1-0.5,1.7-0.3
	c0.6,1.1,1.6,1.9,2.6,2.5c-0.7,0.4-1.4,1-2,1.6c-0.2,0.3-0.4,0.6-0.6,0.9C46.5,83.2,45.9,83.2,45.5,82.8z M49.6,80.7
	c-0.6,0.9-1.4,1.7-2.4,2.2C47.8,82,48.7,81.3,49.6,80.7z M52.3,84.6c-0.4,0.5-1.2,0.7-1.8,0.5c-0.3-0.1-0.5-0.3-0.7-0.5
	c-0.3,0.2-0.5,0.4-0.8,0.5c-0.6,0.2-1.4-0.1-1.7-0.6c-0.3-0.4-0.3-0.9-0.1-1.3c1.1-0.5,2-1.5,2.7-2.5c0.7,1,1.5,2,2.7,2.5
	C52.7,83.6,52.6,84.2,52.3,84.6z M50.1,80.7c0.9,0.6,1.8,1.3,2.4,2.2C51.4,82.5,50.7,81.6,50.1,80.7z M52.6,83
	c-0.3-0.7-0.9-1.2-1.5-1.7c-0.4-0.3-0.7-0.6-1.1-0.8c0.7-0.4,1.4-0.9,2-1.5c0.3-0.3,0.5-0.6,0.6-1c0.4-0.1,0.9-0.1,1.3,0.1
	c0.4,0.2,0.7,0.5,0.8,0.9c0.1,0.3,0,0.7-0.1,1c-0.1,0.2-0.3,0.4-0.5,0.5c0.2,0.2,0.5,0.4,0.6,0.8c0.2,0.5,0,1.1-0.4,1.4
	C53.9,83.1,53.2,83.2,52.6,83z"/>
<path class="st1" d="M35,80.8c0.3,0.1,0.5,0.2,0.8,0.3c-0.1-0.1-0.2-0.3-0.2-0.4c0-0.1,0-0.3,0-0.4c0.6,0,1.2,0.1,1.8,0.1
	c0.1,0,0.2,0.1,0.3,0.2c0.1-0.1,0.1-0.1,0.2-0.2c0.5,0,1,0,1.4,0.1c0.1,0.1,0.1,0.1,0.2,0.2c0-0.3,0-0.7,0-1
	c-0.1,0.1-0.1,0.1-0.2,0.2c-0.5,0-1,0-1.4-0.1c-0.1-0.1-0.1-0.1-0.2-0.2c-0.1,0.1-0.1,0.1-0.2,0.2c-0.6,0-1.3-0.1-1.9-0.1
	c0-0.2,0-0.4,0-0.5c0-0.1,0.1-0.2,0.2-0.3C35.6,78.9,35.3,79,35,79C35,79.6,35,80.2,35,80.8z"/>
<path class="st1" d="M64.9,81.4c0.1,0.1,0.1,0.1,0.2,0.2c0-0.3,0-0.7,0.1-1c-0.1,0.1-0.1,0.1-0.2,0.2c-0.7,0-1.5-0.1-2.2-0.2
	c-0.1-0.1-0.1-0.1-0.2-0.2c-0.1,0.1-0.1,0.1-0.2,0.2c-0.5,0-1-0.1-1.4-0.1c-0.1-0.1-0.1-0.1-0.2-0.2c0,0.3,0,0.7-0.1,1
	c0.1-0.1,0.2-0.2,0.3-0.2c0.4,0,0.8,0.1,1.3,0.1c0,0.2,0,0.5,0,0.7c-0.4,0-0.9-0.1-1.4-0.1c-0.1-0.1-0.1-0.1-0.2-0.2
	c0,0.3,0,0.7-0.1,1c0.1-0.1,0.2-0.2,0.3-0.2c0.4,0,0.8,0.1,1.3,0.1c0.1,0,0.2,0.1,0.3,0.2c0.1-0.1,0.1-0.1,0.2-0.2
	c0.7,0.1,1.4,0.1,2.1,0.1c0.1,0,0.2,0.1,0.3,0.2c0-0.3,0-0.7,0.1-1C65,81.9,65,82,64.9,82c-0.7-0.1-1.4-0.1-2.1-0.2
	c0-0.2,0-0.5,0-0.7C63.5,81.3,64.2,81.3,64.9,81.4z"/>
<path class="st1" d="M35.7,84.5c0.7-0.1,1.4-0.3,2.1-0.4c0.1,0,0.2,0.1,0.3,0.1c0-0.1,0.1-0.1,0.1-0.2c0.5-0.1,0.9-0.2,1.4-0.3
	c0.1,0,0.2,0.1,0.3,0.1c-0.1-0.7-0.3-1.3-0.4-2c-0.2,0.1-0.5,0.3-0.7,0.4c0.1,0,0.1,0.1,0.2,0.1c0.1,0.3,0.1,0.6,0.2,0.8
	c-0.3,0.1-0.6,0.1-1,0.2c0-0.2-0.1-0.4-0.1-0.6c0-0.1,0.1-0.2,0.1-0.3c-0.3,0.2-0.6,0.4-0.9,0.6c0.1,0,0.1,0.1,0.2,0.1
	c0,0.1,0.1,0.3,0.1,0.4c-0.6,0.1-1.2,0.3-1.7,0.4c-0.1-0.3-0.1-0.7-0.2-1c0-0.1,0.1-0.2,0.1-0.3c-0.2,0.1-0.5,0.3-0.7,0.4
	c0.1,0.6,0.3,1.2,0.4,1.7C35.6,84.7,35.6,84.6,35.7,84.5z"/>
<path class="st1" d="M64.4,85.3c0.1-0.3,0.2-0.6,0.3-1c-0.1,0-0.2,0.1-0.3,0.1c-0.7-0.2-1.4-0.4-2.1-0.6c0-0.1-0.1-0.2-0.1-0.3
	c-0.1,0-0.2,0.1-0.3,0.1c-0.5-0.1-0.9-0.3-1.4-0.4c0-0.1-0.1-0.2-0.1-0.3c-0.1,0.3-0.2,0.6-0.3,1c0.1,0,0.2-0.1,0.3-0.1
	c0.5,0.1,0.9,0.3,1.4,0.4c0,0.1,0.1,0.2,0.1,0.3c0.1,0,0.2-0.1,0.3-0.1c0.7,0.2,1.4,0.4,2,0.6C64.3,85.1,64.3,85.2,64.4,85.3z"/>
<path class="st1" d="M36.9,87.5c0.3,0.2,0.6,0.1,0.9,0c0.2-0.1,0.5-0.2,0.7-0.4c0.1-0.2,0.2-0.4,0.3-0.7c0.1,0,0.2-0.1,0.3-0.1
	c0-0.1-0.1-0.2-0.1-0.3c0.1-0.2,0.1-0.4,0.3-0.6c0.2-0.1,0.3-0.2,0.5-0.2c0.2-0.1,0.5,0.2,0.4,0.4c0,0.2-0.2,0.2-0.3,0.3
	c0.1,0.1,0.3,0.3,0.4,0.4c0.2-0.1,0.4-0.3,0.4-0.5c0.2-0.4,0.1-0.9-0.3-1.1c-0.3-0.2-0.7-0.3-1-0.1c-0.3,0.1-0.5,0.2-0.7,0.4
	c-0.2,0.2-0.2,0.4-0.3,0.7c-0.1,0-0.2,0.1-0.3,0.1c0,0.1,0.2,0.2,0.1,0.3c0,0.1-0.1,0.3-0.2,0.4c-0.1,0.1-0.3,0.1-0.4,0.2
	c-0.1,0.1-0.3,0.1-0.4,0.1C37,87,36.9,86.8,37,86.6c0.1-0.1,0.2-0.2,0.3-0.2c-0.1-0.1-0.3-0.3-0.4-0.5c-0.2,0.1-0.4,0.3-0.5,0.6
	C36.3,86.8,36.5,87.3,36.9,87.5z"/>
<path class="st1" d="M62.7,87.4c-0.1,0.1-0.3,0-0.4-0.1c0,0.2-0.1,0.4-0.1,0.6c0.2,0.1,0.5,0.1,0.8,0c0.4-0.1,0.7-0.6,0.6-1
	c0-0.3-0.2-0.6-0.5-0.7c-0.3-0.1-0.5-0.3-0.8-0.3c-0.3,0-0.5,0.1-0.7,0.2c-0.1,0-0.2-0.1-0.3-0.1c0,0.1-0.1,0.2-0.1,0.3
	c-0.2,0.1-0.3,0.1-0.5,0.1c-0.2-0.1-0.4-0.2-0.6-0.3c-0.2-0.1-0.2-0.4,0-0.6c0.1-0.1,0.3,0,0.5,0.1c0-0.2,0.1-0.4,0.1-0.6
	c-0.3-0.1-0.7-0.1-0.9,0c-0.4,0.3-0.6,0.8-0.3,1.3c0.2,0.3,0.6,0.4,0.9,0.6c0.3,0.1,0.7,0,1-0.1c0.1,0,0.2,0.1,0.3,0.1
	c0-0.1,0.1-0.2,0.1-0.3c0.2-0.1,0.3-0.1,0.5-0.1c0.1,0,0.3,0.1,0.4,0.2c0.1,0.1,0.3,0.1,0.3,0.2C63,87.1,62.9,87.3,62.7,87.4z"/>
<path class="st1" d="M61.4,90.1c0,0.1,0,0.2,0,0.3c0.2-0.2,0.4-0.5,0.6-0.7c-0.1,0-0.3,0-0.4-0.1c-0.5-0.5-1.1-1-1.6-1.4
	c0-0.1,0-0.2,0-0.3c-0.1,0-0.2,0-0.3,0c-0.4-0.3-0.7-0.7-1.1-1c0-0.1,0-0.2,0-0.3c-0.2,0.2-0.4,0.5-0.6,0.7c0.1,0,0.2,0,0.3,0
	c0.3,0.3,0.7,0.6,1,0.9c0,0.1-0.1,0.1-0.1,0.2c-0.4-0.2-0.9-0.4-1.3-0.6c0-0.1,0-0.1,0-0.2c-0.2,0.2-0.4,0.5-0.6,0.7
	c0.1,0,0.3-0.1,0.4,0c0.4,0.1,0.7,0.3,1.1,0.5c0.2,0.1,0.4,0.1,0.5,0.3c0.5,0.6,0.9,1.3,1.4,1.9c0,0.1,0,0.2,0,0.3
	c0.2-0.2,0.4-0.5,0.6-0.7c-0.1,0-0.2,0-0.3,0c-0.4-0.6-0.9-1.2-1.3-1.8c0,0,0.1-0.1,0.1-0.1C60.3,89.2,60.9,89.7,61.4,90.1z"/>
<path class="st1" d="M40.9,87.5c0.2-0.2,0.5-0.1,0.6,0.2c0,0.2-0.1,0.3-0.2,0.4c0.2,0.1,0.3,0.2,0.5,0.3c0.2-0.2,0.4-0.5,0.3-0.8
	c0-0.4-0.3-0.7-0.7-0.8c-0.3-0.1-0.6,0-0.8,0.2c-0.2,0.2-0.4,0.3-0.6,0.6c-0.1,0.2-0.1,0.5-0.1,0.7c-0.1,0.1-0.1,0.1-0.2,0.2
	c0.1,0.1,0.1,0.1,0.2,0.2c0,0.2,0,0.5-0.1,0.6c-0.1,0.1-0.3,0.3-0.4,0.3c-0.2,0.1-0.5-0.1-0.5-0.3c0-0.2,0.1-0.3,0.2-0.4
	c-0.2-0.1-0.3-0.2-0.5-0.3c-0.2,0.2-0.3,0.4-0.3,0.7c0,0.4,0.3,0.8,0.7,0.9c0.3,0.1,0.6,0,0.8-0.2c0.2-0.2,0.4-0.3,0.6-0.6
	c0.1-0.2,0.1-0.5,0.1-0.7c0.1-0.1,0.1-0.1,0.2-0.2c-0.1-0.1-0.1-0.1-0.2-0.2c0-0.1,0-0.2,0-0.3C40.4,87.8,40.7,87.7,40.9,87.5z"/>
<path class="st1" d="M44.6,89.7c-0.3-0.2-0.5-0.4-0.8-0.6c0,0.1,0,0.2,0,0.3c-0.2,0.2-0.4,0.4-0.6,0.6c-0.1-0.1-0.2-0.2-0.3-0.3
	c0.1-0.2,0.3-0.5,0.4-0.7c0.1,0,0.2,0,0.3-0.1c-0.3-0.2-0.5-0.4-0.8-0.6c0,0.1,0,0.2,0.1,0.3c-0.2,0.4-0.5,0.9-0.7,1.3
	c-0.1,0-0.2,0-0.3,0.1c0,0.1,0,0.2,0.1,0.3c-0.4,0.7-0.7,1.3-1.1,2c-0.1,0-0.2,0-0.3,0.1c0.3,0.2,0.5,0.4,0.8,0.6c0-0.1,0-0.2,0-0.3
	c0.5-0.5,1.1-1.1,1.6-1.6c0.1,0,0.2,0,0.3,0c0-0.1,0-0.2,0-0.3c0.4-0.3,0.7-0.7,1-1C44.4,89.7,44.5,89.7,44.6,89.7z M42.2,91
	c0.1-0.3,0.3-0.5,0.4-0.8c0.1,0,0.1,0.1,0.2,0.1C42.7,90.5,42.4,90.7,42.2,91z"/>
<path class="st1" d="M57.1,93c0.2,0.2,0.5,0.3,0.7,0.5c0.5-0.3,1-0.7,1.5-1c-0.1,0-0.2,0-0.3-0.1c-0.4-0.6-0.8-1.3-1.3-1.9
	c0-0.1,0-0.2,0-0.3c-0.1,0-0.2,0-0.3-0.1c-0.3-0.4-0.5-0.8-0.8-1.2c0-0.1,0-0.2,0.1-0.3c-0.6,0.4-1.1,0.8-1.7,1.1
	c0.2,0.2,0.4,0.3,0.7,0.5c0-0.1,0-0.2,0-0.2c0.2-0.1,0.5-0.3,0.7-0.5c0.2,0.3,0.4,0.6,0.6,0.8c-0.2,0.1-0.3,0.2-0.5,0.3
	c-0.1,0-0.2,0-0.3,0c0.3,0.2,0.6,0.4,0.8,0.6c0-0.1,0-0.2,0-0.3c0.1-0.1,0.2-0.1,0.3-0.2c0.3,0.5,0.7,1,1,1.5
	c-0.3,0.2-0.5,0.3-0.7,0.5C57.4,93,57.3,93,57.1,93z"/>
<path class="st1" d="M56.1,94.4c-0.1,0-0.2-0.1-0.3-0.1c-0.4-0.7-0.8-1.3-1.2-2c0-0.1,0.1-0.1,0.1-0.2c-0.1,0-0.2-0.1-0.3-0.1
	c-0.1-0.4-0.3-0.8-0.4-1.3c-0.1-0.1,0.1-0.2,0.1-0.3c-0.3,0.1-0.6,0.2-0.9,0.3c0.1,0,0.2,0.1,0.3,0.1c0.1,0.4,0.3,0.8,0.4,1.3
	c0.1,0.1,0,0.3-0.1,0.4c0.1,0,0.1,0.1,0.2,0.1c0.1,0.8,0.2,1.5,0.3,2.3C54,94.9,54,95,53.9,95.1c0.3-0.1,0.6-0.2,0.9-0.3
	c-0.1,0-0.1-0.1-0.2-0.1c-0.1-0.4-0.1-0.9-0.2-1.3c0.2,0.4,0.5,0.8,0.7,1.1c0,0.1,0,0.1-0.1,0.2C55.5,94.6,55.8,94.5,56.1,94.4z"/>
<path class="st1" d="M49.1,91.9c-0.4,0.1-0.5,0.7-0.2,0.9c0.3,0.3,0.9,0.1,1-0.3C49.9,92.1,49.5,91.8,49.1,91.9z"/>
</svg>
