<?xml version="1.0" encoding="utf-8"?>
<!-- Generator: Adobe Illustrator 23.0.0, SVG Export Plug-In . SVG Version: 6.00 Build 0)  -->
<svg version="1.1" id="Layer_1" xmlns="http://www.w3.org/2000/svg" xmlns:xlink="http://www.w3.org/1999/xlink" x="0px" y="0px"
	 viewBox="0 0 961 871" style="enable-background:new 0 0 961 871;" xml:space="preserve">
<style type="text/css">
	.st0{fill:#191919;}
	.st1{opacity:0.1;clip-path:url(#SVGID_2_);}
	.st2{fill:none;stroke:#FFF7E4;stroke-width:3;stroke-miterlimit:10;}
	.st3{fill:#FFF7E4;}
</style>
<rect x="0.5" y="0.5" class="st0" width="961" height="871"/>
<g>
	<defs>
		<rect id="SVGID_1_" x="0.5" y="0.5" width="961" height="871"/>
	</defs>
	<clipPath id="SVGID_2_">
		<use xlink:href="#SVGID_1_"  style="overflow:visible;"/>
	</clipPath>
	<g class="st1">
		<g>
			<g>
				<path class="st2" d="M422.2,801.3c1,0.7,1.8,1.6,1.8,1.8c0.1,0.4,0.4,3.2,0.9,6.3c0.9,7,1.9,12.1,4.2,20.6
					c2.5,9.5,5.4,17.1,10.4,27.2c12.1,24.6,33.5,47.6,60.5,65.3c6.5,4.2,12.1,7.5,20.2,11.5c4.1,2,7.3,3.8,7.4,3.8
					c0.1,0.1-0.3,0.7-0.8,1.5c-0.4,0.7-1.2,2.6-1.8,4.1c-2.2,6.3-1.2,14.3,2.4,20.8c2.1,3.7,6.7,8,10.2,9.6
					c0.6,0.3,18.2,0.4,77.1,0.5c106.4,0.2,241.9,0.1,244.1-0.3c3.7-0.5,9.2-5,11.8-9.8c3.6-6.4,4.6-14.4,2.4-20.8
					c-0.5-1.5-1.3-3.4-1.8-4.1c-0.5-0.8-0.9-1.4-0.8-1.5s3.4-1.8,7.4-3.8c8-4.1,13.7-7.3,20.2-11.5c27.1-17.7,48.4-40.8,60.5-65.3
					c5-10.1,7.9-17.7,10.4-27.2c2.2-8.5,3.3-13.6,4.2-20.6c0.4-3.2,0.8-6,0.9-6.3c0.1-0.3,1-1.1,1.8-1.8c2.4-1.8,4.1-3.7,5.5-6.3
					c1.5-2.9,2-5.1,2-8.5c0-3.4-0.5-5.5-2-8.5c-1.2-2.6-4.1-6-6.2-7.4l-1.1-0.8l-0.6-4.4c-4.9-33.8-19-67.9-39.2-94.5
					c-9-12.1-20.4-23.2-30.5-29.8l-3.3-2.2l-0.2-3c-0.2-3.5-1-5.7-2.9-8.7c-2.6-3.8-7.7-7.4-12.9-8.9c-3.2-1-7.3-1.7-11.2-1.9
					c-3.3-0.3-4.1-0.4-5-1.1c-1.8-1.1-14.3-13.8-17.9-18c-21.7-26.1-35.1-56.8-37.4-85.3l-0.2-2.3l1.3-0.9c3.1-1.8,5.9-5.6,7.1-9.3
					c1-2.9,1-7.7,0.3-11c-1.5-6.3-5.5-11.9-11.4-15.8c-1.4-1-2.6-1.8-2.6-1.8c-0.1,0-23.2-179.7-27.4-213.2l-1.7-13l1.5-1.7
					c2.7-3,4.1-6.3,4.3-10.6c0.3-5.9-1.8-11.4-6.2-15.9c-0.6-0.6-1.2-1.5-1.2-1.8c0-0.3-0.4-2.6-0.9-5.1c-0.4-2.5-1.6-8.5-2.5-13.3
					c-0.9-4.8-2.9-15.2-4.5-23.1c-1.6-7.8-3-15.1-3.1-16.3c-0.2-1.1-0.6-3.4-0.8-5.3c-0.5-3-0.5-3.4-0.1-6.2c0.6-3.2,2-6.7,3.5-8.5
					c2.4-2.8,6.9-3.8,12.1-2.6c1.4,0.3,1.5,0.4,1.4,1c-0.2,0.3-0.3,1.1-0.4,1.8c-0.1,1.1,0,1.4,1.1,2.8c1.4,1.6,4.6,4.2,6.9,5.5
					c1.4,0.9,6.9,2.8,7.7,2.8c0.3,0,1,0.3,1.5,0.6c1.1,0.7,2.2,0.7,3.4,0.2c0.9-0.4,3-2.8,5.3-5.8c1-1.3,1.5-1.8,1.8-1.7
					c0.3,0.1,5.8,1.2,12.3,2.6c6.5,1.4,12.9,2.8,14.1,3.2c1.3,0.4,3.8,0.9,5.5,1.1c1.8,0.3,31.2,6.4,65.4,13.6
					c34.2,7.2,62.4,13.1,62.6,13.1c1.1,0,2.3-1,3-2.2c1-1.9,4.2-11.5,5.5-16.4c3-11.7,5-23.8,5.2-31.9c0.1-3,0.1-3.1-0.7-3.9
					c-0.4-0.4-1.5-1.1-2.3-1.4c-0.9-0.4-34.3-11.2-74.3-24.1c-40.1-12.9-73-23.6-73.1-23.7c-0.3-0.2-0.5-1-0.6-2.4
					c-0.4-4.8-0.6-5.1-3.3-7.7c-8.5-8.5-19.8-9.2-27.9-1.8c-0.9,0.8-1.7,1.4-1.8,1.4c-0.2,0-1.9-0.8-4.1-1.8
					c-25.4-12-49.7-17.5-70.6-16.1c-9,0.6-20.8,3-27.5,5.5c-9.7,3.7-20.6,10.5-28.1,17.5C658.7,75,652.2,84.2,647,96.2
					c-2.6,6-4.8,12.3-5.7,16c-0.5,2-1.6,6.6-2.6,10.2c-0.9,3.7-1.8,8.4-2.3,10.4c-1.4,7.7-2.8,14.2-3.4,17.1c-0.4,1.6-1,4.8-1.3,6.9
					c-0.4,2.2-1.8,10.6-3.4,18.7c-1.6,8.1-3.4,18-4.2,21.9c-0.7,4-1.8,9.3-2.2,11.7c-0.5,2.6-0.9,4.8-0.9,5.1s-0.6,1.1-1.2,1.8
					c-4.3,4.5-6.5,10-6.2,15.9c0.2,4.3,1.6,7.7,4.3,10.6l1.5,1.7l-1.7,13c-4.2,33.5-27.3,213.2-27.4,213.2c-0.1,0.1-1.2,0.9-2.6,1.8
					c-5.9,4-9.9,9.5-11.4,15.8c-0.7,3.3-0.6,8.1,0.3,11c1.2,3.8,4.1,7.5,7.1,9.3l1.3,0.9l-0.2,2.3c-2,25.4-13.5,53.7-31.1,77.2
					c-3.8,5.1-8.3,10.5-11.9,14.3l-2.6,2.7l-4.7,0.4c-2.6,0.2-5.4,0.3-6.2,0.3h-1.5l-1.4-2.2c-3.9-5.7-9.5-12-13.7-15.1
					c-3-2.2-8.5-5-9.7-5c-0.5,0-1.5,0.3-2.2,0.6c-0.6,0.3-14.5,10.7-30.7,23.2c-16.2,12.5-31.3,24-33.5,25.8c-4.2,3.4-4.8,4-5.1,6.2
					c-0.2,1.1,0,1.9,0.9,4.6c4.1,12.8,11.4,25.8,17.8,31.7l1.7,1.6l0.3,3.8c0.2,2.1,0.4,4.2,0.6,4.9c0.2,1,0.2,1.3-1.8,4.9
					c-4.3,7.5-9,17.2-12.2,25.4c-6.4,15.8-10.7,31.9-13,47.8l-0.6,4.4l-1.1,0.8c-2.2,1.4-5,4.9-6.2,7.4c-1.5,3.1-2,5.2-2,8.5
					c0,3.4,0.5,5.7,2,8.5C418.2,797.6,419.9,799.5,422.2,801.3z"/>
			</g>
			<path class="st3" d="M600.5,478.2c1.1,0.2,3,0.3,4.2,0.3c1.2,0.1,2.8,0.2,3.5,0.3c1.3,0.2,1.2,0.2-1,0.4
				c-1.3,0.1-3.3,0.3-4.3,0.5c-2.4,0.4-2,0.6,1.3,1c3.9,0.4,6.9,0.8,6.7,1c-0.2,0.2-2.2,0.4-4.6,0.6c-4.3,0.4-6.5,0.9-3.9,0.9
				c1.2,0,6.9,0.6,9.9,1c0.8,0.2,1.4,0.4,1.5,0.4c0.2,0.2-3.4,0.6-7.7,1c-2.7,0.2-3.8,0.7-1.6,0.7c0.9,0,3.1,0.2,4.9,0.4
				c1.8,0.2,4.3,0.5,5.7,0.6c5.6,0.4,3.9,0.8-5.7,1.2l-5,0.2l4.3,0.4c2.4,0.2,5.2,0.4,6.2,0.6c1,0.2,2.9,0.4,4,0.4
				c2,0.2,3.9,0.6,2.9,0.7c-0.2,0-3.8,0.2-7.7,0.4c-4,0.2-7.8,0.4-8.5,0.4c-0.6,0-1.1,0.2-1.1,0.3c0,0.2,2.1,0.3,5.7,0.3
				c5.1,0,15.7,0.6,16.1,1c0.2,0.2-4.6,0.6-16.5,1.5c-4.6,0.4-1.5,0.6,9.8,0.8c9,0.2,14.9,0.4,14.3,0.7c-0.1,0-2.2,0.2-4.6,0.3
				c-2.5,0.2-6.9,0.5-9.9,0.7c-3,0.2-5.8,0.4-6.3,0.4c-0.8,0.1-0.7,0.1,0.3,0.3c0.6,0.2,5,0.3,9.8,0.4c4.8,0.1,9.3,0.3,10.2,0.4
				c0.9,0.2,8.5,0.4,17.2,0.5c8.5,0.1,15.1,0.3,14.5,0.4c-1.4,0.3-6.4,0.7-12.5,1.1c-11.3,0.7-8.7,0.8,25.5,0.7
				c29.1-0.2,57.7,0,84.4,0.4c1.9,0.1,3.5,0,3.4-0.1c-0.2-0.1-11-1.1-16.8-1.6c-13.3-1-27-1.4-58.1-1.8c-16.4-0.2-26.1-0.4-26.3-0.5
				c-0.2-0.2-0.1-0.4,0.4-0.4c1.8-0.4,17.5-0.8,36.4-1c24.5-0.2,40,0.2,55.2,1.3c5.7,0.4,14.9,0.6,14.5,0.4
				c-0.3-0.3-1.5-0.4-14.1-1.5c-7-0.6-16.6-1.2-26-1.8c-3.4-0.2-15-0.4-25.7-0.4s-19.6-0.2-19.7-0.2c-0.1-0.2-0.2-0.3-0.1-0.3
				c0.8-0.7,34.2-1.8,44.1-1.4c4,0.2,47,0.3,46.1,0.2c-2.7-0.4-48-3.1-63.7-3.8c-4.1-0.2-7.4-0.4-7.4-0.6c0-0.6,15.1-0.7,29.4-0.3
				c11.5,0.4,23.2,0.4,35.3,0.1c5.6-0.2,10.4-0.4,10.4-0.4c0.2-0.2-16.1-1.4-23.5-1.9c-2.3-0.2-6.6-0.4-9.7-0.4
				c-10.9-0.3-22.4-0.8-22.9-1c-0.3-0.1-0.2-0.2,0.3-0.4c0.5-0.2,8-0.4,24.9-0.4c13.3,0,26.5-0.2,29.4-0.3l5.2-0.2l-5.7-0.6
				c-6.3-0.7-12.1-1.1-23.3-1.6c-4.1-0.2-7.7-0.4-7.9-0.5c-0.4-0.1-0.4-0.2,0.1-0.4c0.6-0.4,13.7-1,23.6-1
				c13.4-0.1,13.4-0.1-0.3-1.4c-7-0.7-7.7-0.8-7.7-1c0-0.4,4.7-0.6,11.3-0.4c3.8,0.2,9.7,0.2,13.4,0.3c10.1,0.2,14.4,0.6,17.7,1.8
				c3.1,1.1,4.1,1.8,6.5,4c1.9,1.8,3.7,4.8,4.9,8.4l0.6,2l-0.2-1.8c-0.4-5-3.9-10.5-8.7-13.7c-2-1.3-2.2-1.4-3.9-1.4
				c-1,0-3.4-0.2-5.1-0.3c-7.9-0.6-35.7-1.6-57.7-1.9c-17.6-0.4-81.5-0.2-94.1,0.2c-5.8,0.2-14.9,0.4-19.9,0.6
				c-10.6,0.3-20.2,0.7-25.6,1.1c-2,0.2-4.4,0.3-5.3,0.3c-1.2,0-1.9,0.2-3,0.8l-1.3,0.8l3.5,0.2C596.9,477.7,599.4,478,600.5,478.2z
				 M669.8,495c-3.6,0.6-27.5,1.3-29.1,0.9c-1-0.2-1.1-0.6-0.4-0.8c0.4-0.1,2.6-0.4,4.9-0.6c3.4-0.4,5.7-0.4,12.9-0.3
				c4.8,0.1,9.7,0.2,10.9,0.4l2.3,0.2L669.8,495z M682.9,490.2c-8.9,0.4-15.4,0.6-24.8,0.8c-6.2,0.1-14.7,0.2-18.7,0.3
				c-4.2,0.1-6.9,0-6.5-0.2s4-0.4,7.7-0.6c3.8-0.2,9.4-0.5,12.5-0.8c6.1-0.5,21.6-0.6,27.5-0.3C684,489.8,685.1,490,682.9,490.2z
				 M696.8,489.9c-1.6,0.2-5.8,0.2-5.8-0.1c0-0.2,0.8-0.4,1.8-0.4c1-0.1,2.6-0.3,3.4-0.4c1.4-0.2,1.7-0.2,1.7,0.2
				C697.9,489.5,697.6,489.7,696.8,489.9z M714.1,485.1c-0.9,0.5-26.2,0.8-28.9,0.3c-1.3-0.2,16.7-1,23.6-1
				C713.7,484.4,715,484.5,714.1,485.1z M699.6,480.2c9.3-1,35.9-1.2,34.9-0.2c-0.2,0.2-6.8,0.4-18.7,0.4
				C704.9,480.5,698.4,480.4,699.6,480.2z M689.3,481.2c-0.1,0.1-5.2,0.3-11.3,0.6c-10.9,0.4-25.4,0.5-25,0.2
				C653.4,481.4,689.7,480.7,689.3,481.2z M651.8,486.8c14.1,0.6,9.8,1.1-12.4,1.3c-9.2,0.2-13.8,0.1-14.1-0.1
				c-0.3-0.2-0.4-0.4-0.2-0.6c0.2-0.2,4.5-0.4,9.5-0.6C641.7,486.6,645.7,486.6,651.8,486.8z M635.8,482.9c10.6,0.2,12.5,0.6,3.8,1
				c-3.1,0.1-7.5,0.3-9.7,0.4c-5.2,0.4-7.9,0.4-8.5,0C619.6,483.3,624.7,482.7,635.8,482.9z M616.3,479c0.2-0.2,15,0.7,15.2,1
				c0.2,0.2-7.7,0.5-11.7,0.5c-2.9,0-3.2-0.1-3.4-0.6C616.2,479.6,616.2,479.2,616.3,479z"/>
			<path class="st3" d="M624.7,231.7c2.2,0.3,2.6,0.2,1.4-0.2c-0.6-0.3-1.3-0.7-1.7-1.1c-1.3-1.2-0.6-4.1,1.2-4.8
				c0.5-0.2,0.5-0.2-0.2-0.3c-0.4,0-1.2,0.3-1.8,0.6c-1.8,1.2-2.2,2.9-1.1,4.6C623.4,231.3,623.7,231.6,624.7,231.7z"/>
			<path class="st3" d="M599.8,469.7h1.8l0.2-1c0.1-0.5,0.6-5,1.1-10c0.6-5,2.2-18.8,3.8-30.8c1.5-12,3.8-30.2,5-40.5
				s3.5-28.4,5-40.3s3.1-25,3.6-29.1c1.7-14.3,5.5-48.8,5.5-49.6s0-0.8-1.3,0.5l-1.2,1.3l-12.8,99.3c-6.9,54.6-12.7,99.5-12.7,99.7
				C597.9,469.6,598.5,469.7,599.8,469.7z"/>
			<path class="st3" d="M512,625.5l5.3-0.2c5.4-0.2,17,0.3,18.6,0.7c0.9,0.3-1.5,0.6-8.9,1.4l-2,0.2l2.9,0.2c1.6,0.1,5,0.3,7.7,0.4
				c5,0.3,5.2,0.5,0.4,0.9l-2.9,0.2l4.9,0.6c2.6,0.3,5.1,0.6,5.3,0.7c0.2,0.1-0.8,0.4-2.3,0.5l-2.7,0.3l3.3,0.3
				c1.8,0.1,4.7,0.4,6.3,0.6c1.7,0.3,3.8,0.4,4.8,0.5c3,0,3.5,0.4,0.7,0.5c-1.4,0-4.4,0.2-6.8,0.4l-4.3,0.3l4.3,0.2
				c2.4,0.2,6.3,0.4,8.8,0.5c2.5,0.2,9.7,0.4,16.1,0.4c6.4,0.2,13.5,0.3,15.7,0.4c3.9,0.2,4,0.2,1.8,0.4c-1.2,0.2-6.4,0.3-11.7,0.5
				c-5.3,0.2-12.9,0.5-16.8,0.7c-6.9,0.4-5.6,0.4,19.4,0.2c14.8-0.1,66.4-0.2,114.7-0.2c64.7,0,89-0.2,91.6-0.4
				c4.1-0.4,9-0.8,13.6-1.1l3-0.2l-2-0.2c-4-0.4-14.5-1.1-21.2-1.4c-20.3-0.8-22.8-1-22.4-1.3c0.2-0.2,6.1-0.3,18.9-0.3
				c11.4-0.1,20.2-0.2,22.7-0.4c2.2-0.2,4.6-0.3,5.2-0.4c2.9-0.2-12.5-1.1-24.8-1.5c-7.4-0.3-13.7-0.5-14-0.6
				c-0.3-0.2-0.3-0.2-0.1-0.5c0.2-0.2,6-0.3,18.1-0.5c18.8-0.3,24-0.6,15.7-1c-13.3-0.6-18.1-0.9-18.4-1.1c-0.2-0.2,0-0.3,0.4-0.3
				c0.4,0,0.9-0.2,1.1-0.3c0.2-0.2,2.7-0.4,6.3-0.6c6.1-0.2,13-0.7,15.9-1.1l1.6-0.2l-2.7-0.2c-3-0.3-9.2-1.4-9.2-1.7
				c0-0.6,17.7-0.4,23.5,0.3c1.4,0.2,6.5,0.4,11.3,0.6c4.8,0.2,9.7,0.4,10.8,0.4c1.1,0.1,4.9,0.3,8.5,0.4c12.2,0.6,29.5,1.8,32,2.2
				c6.1,1.1,10.3,3.4,13.4,7.5l0.6,0.9l-0.4-1.1c-0.9-2.2-1.9-3.8-3.7-5.4c-3.5-3.4-8.3-4.9-15.9-5.3c-2.1-0.1-5.7-0.3-8.2-0.4
				c-17.2-1.1-73.3-3.3-127-5c-6.5-0.2-24-0.3-39.4-0.3s-33,0.2-39.4,0.3c-53.7,1.7-109.8,3.8-127,5c-2.5,0.2-6.1,0.4-8.2,0.4
				c-4.6,0.2-8.9,1.1-11.3,2.2L512,625.5z M743.5,634.2c-0.6,0.4-66.8,0.4-119.8,0.2c-31.1-0.2-32.5-0.3-11.1-0.9
				c5.3-0.2,12-0.4,14.9-0.6c10.1-0.6,26-0.9,53.6-1c28.2-0.2,35.9-0.1,50.7,0.9C740.8,633.3,744.3,633.7,743.5,634.2z M745.9,623.9
				c10.5,0.2,19.2,0.8,23.5,1.6c2,0.3,1.4,0.3-7.7,0.3c-5.4,0-11.4-0.2-13.4-0.2c-7.7-0.5-15-0.9-19.6-1.1c-2.6-0.1-4.8-0.2-4.8-0.3
				C723.8,623.9,734.9,623.7,745.9,623.9z M734.1,627.9c4.1,0.2,8.3,0.4,9.3,0.4c1,0,3.8,0.2,6.1,0.5c3.8,0.4,4.1,0.5,2.7,0.7
				c-2.2,0.3-27.4,0.5-31.5,0.2c-2-0.1-9.9-0.4-17.6-0.6c-8.3-0.2-14.1-0.4-14.3-0.6c-0.2-0.2,0.2-0.3,1-0.2c0.7,0,9.3-0.2,19.1-0.4
				C723.2,627.7,728.1,627.6,734.1,627.9z M706.7,622.4c1.3,0.2,1.4,0.2,0.7,0.4c-0.8,0.4-26.7,0.5-33.8,0.3
				c-2.5-0.2-4.6-0.3-4.7-0.4C668.7,622.5,704.9,622.1,706.7,622.4z M677.4,627.2c0.1,0.2,0.1,0.3-0.1,0.4c-0.3,0.3-28.7,1-43.6,1
				c-6.9,0-12.8-0.1-12.7-0.1c0.4-0.4,20.9-1.7,31.1-1.8C660,626.5,677,627,677.4,627.2z M600.4,625.6c0.9-0.8,17.6-2.2,30.1-2.5
				c4.7-0.1,9.3-0.2,10.2-0.4c1-0.1,1.7-0.1,1.6,0.1c-0.5,0.5-8.5,1.1-29.5,2.5C602.2,626,600.1,626.1,600.4,625.6z M612.6,630.5
				c2.2,0.2,1.8,0.3-4.3,0.4c-3.8,0.2-7.7,0.4-9.1,0.5c-6.4,0.8-15.1,1.2-27.9,1.3c-8.7,0.2-13.6,0.1-13.3-0.1
				c0.6-0.3,2.2-0.5,15.4-1.8c7.7-0.6,9.2-0.7,22.4-0.7C603.8,630.3,611.2,630.3,612.6,630.5z M545.8,629.4
				c0.4-0.4,4.1-0.9,14.9-1.8c6-0.5,10.9-0.7,19.3-0.9c6.2-0.2,11.2-0.2,11.1,0c-0.2,0.1-1.5,0.4-3.2,0.6c-2.8,0.4-4.7,0.6-14.5,1.3
				c-1.8,0.2-7.4,0.4-12.2,0.6c-4.8,0.2-10.4,0.4-12.2,0.4C546.2,629.7,545.4,629.7,545.8,629.4z"/>
			<path class="st3" d="M685.1,666.7c0.4-3.1-1.9,5.2-4.2,14.5c-2.9,12.3-5.2,28.7-5.9,42.9c-0.2,4.6-0.6,10.3-0.7,12.5
				c-0.3,3.8-0.4,12.1-0.2,11.1c0.1-0.2,0.5-4.6,1-9.7c0.5-5,1.1-10.9,1.4-12.9c0.4-2,0.7-4.6,0.9-5.7s1.1-7.8,2-15
				c1.8-13.3,1.9-14.4,4.2-28.5C684.4,671.3,685.1,667.2,685.1,666.7z"/>
			<path class="st3" d="M628.6,221.7c2.6-0.2,5-0.3,5.3-0.4c0.2-0.1,0.4,0,0.4,0.2s-1.2,0.6-2.7,1c-1.4,0.4-3.2,0.9-3.8,1.1
				l-1.1,0.6l1.3-0.2c0.7-0.1,2.6-0.2,4.2-0.3c1.6-0.1,3.4-0.2,4-0.3c1.8-0.3,0.6,0.3-1.8,0.9c-2.4,0.5-4.8,1.3-4.7,1.4
				c0.1,0.1,1.8,0,4.1-0.2c3.6-0.3,4-0.4,4.7-1c1.5-1.5,4.1-1,4.8,0.9c0.6,1.4,0.4,2.5-0.7,3.4c-0.7,0.6-1.1,0.9-2,0.9
				c-0.6-0.1-1.4-0.3-1.8-0.6c-0.5-0.4-0.7-0.4-3.4,0c-3.4,0.6-5.5,1.1-7.1,1.9l-1.1,0.6l1.4-0.2c8.5-1,23.5-2.1,18.7-1.3
				c-1,0.2-2.9,0.5-4.2,0.7c-3,0.5-12.4,2.7-12.2,3c0.1,0.1,2.3-0.2,5-0.5c2.7-0.3,6.9-0.7,9.2-0.9c2.4-0.2,5.5-0.4,7-0.6
				c5.5-0.5,5.3-0.2-0.4,0.7c-5.7,1-12,2.6-8.6,2.3c4.3-0.4,8.8-0.7,14.9-1c3.8-0.2,9-0.4,11.8-0.6c10.1-0.5,29.5-1,36.3-0.8
				c25.6,0.7,29.9,1,40.7,2.3c6.2,0.7,10.7,1,11.3,0.6c0.4-0.2,0.2-0.4-1.3-0.6c-6-1.1-22.8-2.8-34.7-3.6
				c-3.3-0.2-13.2-0.3-26.3-0.4c-14.9,0-21.2-0.1-21.4-0.3c-0.6-0.6,16.7-1.6,29.7-1.6c18.5,0,40.9,1.7,54,4c2.8,0.5,3.3,0.5,3.3,0
				c0-0.6-17.7-3.3-27.8-4.3c-1.8-0.2-3.8-0.4-4.4-0.4l-1.2-0.2l1-1l1-0.9l4.8,0.5c6.1,0.6,5.7,0.6,5-0.4c-0.6-1-0.6-1-5.5-1.4
				c-2.2-0.2-3.9-0.4-3.9-0.4c-0.1-0.1-0.2-0.5-0.2-1l-0.2-1l2.2,0.2c7.7,0.5,7.2,0.5,8.1-0.3c0.5-0.4,1.1-0.7,1.5-0.7
				c0.4,0,0.5-0.1,0.4-0.2c-0.2-0.2-6-1-11.6-1.4c-3-0.3-6.5-0.6-7.7-0.6c-1.3-0.2-2.3-0.4-2.2-0.5c0.1-0.4,10.4-0.3,15.4,0.2
				c4.6,0.4,11.3,1.2,17.2,2.2c2.5,0.4,5,0.8,5.7,0.9l1.3,0.2l-0.6-0.6c-0.4-0.4-1.9-1-5.6-1.8c-2.7-0.6-6-1.2-7-1.4
				c-1.8-0.2-4.2-0.7-6.9-1.3c-0.4-0.1-0.6-0.3-0.5-0.4c0.4-0.6,8.3-0.2,14.9,1c1.4,0.3,4.7,0.9,7.3,1.3c7,1.2,11.1,2.6,12.6,4
				c1.8,1.8,3,5.7,2.7,10.3c0,1.4,0,2.6,0.2,2.6c0.1-0.1,0.4-0.8,0.6-1.7c1.6-4.6-0.6-12.1-3.9-13.9c-1.8-1-15-3.4-23.9-4.5
				c-13.3-1.6-24.1-1.9-55.7-1.8c-21.9,0.1-25.4,0.2-34.8,0.9c-10.4,0.8-22.4,2.6-30.2,4.3c-3.3,0.8-4.5,1.2-5.1,2
				C623.7,221.9,624,221.9,628.6,221.7z M717.4,222.1c4.8,0.2,5,0.2,6.3-0.5c1.6-0.8,2.8-0.6,4,0.5c1.1,1,1.1,2.8,0.1,4
				c-1.1,1.4-2.6,1.6-9.2,1.2c-5.3-0.4-13.9-0.3-31.7,0.2c-5.3,0.2-7.1,0.1-7.1-0.2c0-0.2,0.2-0.4,0.4-0.4c0.3,0,2.2-0.2,4.4-0.4
				c2.2-0.2,5.8-0.5,8.1-0.6c2.3-0.2,4.2-0.4,4.2-0.4c0.1-0.1-0.1-0.4-0.4-0.7c-0.4-0.5-1-0.6-3.4-0.9c-1.7-0.2-3.1-0.4-3.1-0.4
				c-0.1-0.1,1.2-0.3,3-0.4c3-0.4,3.1-0.4,4-1.4c2.6-3,7-0.6,5.8,3l-0.3,0.6h7.7c4.2,0,8.8,0.1,10,0.2l2.2,0.2l-0.2-0.8
				c-0.1-0.5-0.2-0.9-0.3-1c0,0-2.3-0.2-5-0.4c-6.5-0.4-11.8-0.9-11.8-1.1C705.1,222.1,712.3,221.8,717.4,222.1z M684.1,218.9
				c6.8-0.4,22.6,0.2,23.2,0.6c0.2,0.2-2.6,0.2-6.5,0.2c-3.8,0-9.2,0.2-12.1,0.3c-7.1,0.4-20.1,0.8-20,0.5
				C669.1,220.1,675.1,219.3,684.1,218.9z M658.9,222.7l0.9,0.9l4.1-0.3c2.2-0.2,4.7-0.3,5.4-0.2c1.2,0.2,1.4,0.1,2.2-0.6
				c1.4-1.4,3.4-1.4,4.8,0.2c0.6,0.6,0.9,0.7,2.8,0.8c1.1,0,3.1,0.1,4.2,0.2c1.8,0.2,1.4,0.2-2,0.2l-4,0.1l-0.4,1.4
				c-0.4,1.2-0.6,1.5-1.8,2.2c-1.3,0.7-1.9,0.8-7.2,1.2c-9.9,0.7-11.8,0.8-11.5,0.5c0.2-0.2,1.3-0.5,2.5-0.6
				c1.8-0.2,10.9-0.8,13.7-0.9c0.8,0,0.8-0.1,0.3-0.3c-0.9-0.4-1.8-1.7-1.8-2.6V224l-3,0.2c-7.3,0.4-7.7,0.5-7.9,1
				c-0.6,1.9-1.8,2.8-3.4,2.6c-1.1-0.2-2.4-1.2-2.4-1.8c0-0.4,0.1-0.4-3.8-0.1c-3,0.3-4.2,0.2-3.4-0.3c0.2-0.2,1.8-0.4,3.7-0.7
				c3.2-0.5,3.3-0.6,3.6-1.3c0.4-1.1,1.4-1.8,2.8-1.8C657.9,221.8,658.3,222.1,658.9,222.7z M639.7,222.9c0-0.3,0.2-0.6,0.3-0.6
				c0.7-0.4,17.4-1.3,16.9-0.9c-0.1,0.1-3.3,0.5-7.1,0.9C638.9,223.5,639.7,223.4,639.7,222.9z"/>
			<path class="st3" d="M649.8,605.8c-1.4,2.8-2.6,5.1-2.5,5.1c0.1,0.1,4.4,0,9.7-0.2c5.3-0.2,12.3-0.4,15.7-0.5
				c3.4-0.2,6.2-0.3,6.4-0.5c0.6-0.6,4.6-14.6,5.7-20.4c1.6-7.7,3.1-18.8,3.8-28.2c0.9-12.1,1.2-38.6,0.7-48.9l-0.2-4.2h-1.7h-1.7
				l-0.2,6.7c-0.4,12.3-1.4,24.4-2.8,34.5c-1.1,7.3-2.1,12.5-2.9,14.4c-0.4,0.7-0.5,1-0.4,0.6c0.9-3.3,1.4-6.1,2-10.8
				c1.2-8.5,1.3-23.2,0.2-42.2l-0.2-3.3l-5.7,0.2c-3.1,0.1-6.9,0.3-8.5,0.3c-2.6,0.2-2.9,0.3-3,0.8c-0.1,0.3-0.7,2.9-1.5,5.6
				c-0.8,2.8-1.6,6.1-1.8,7.5c-0.8,4.4-2.8,13.1-3.1,13.4c-0.2,0.2-0.2,0-0.1-0.4c0.1-0.4,0.4-2.9,0.6-5.5c0.2-2.6,0.6-6.1,0.9-7.8
				c0.6-4.2,0.6-12.5,0-12.8c-0.6-0.3-8.4,1-12.5,1.8c-5.9,1.3-15.7,4.5-20.4,6.5l-1.4,0.6l-2.1,8.4c-1.1,4.6-2.6,9.8-3,11.6
				c-2,6.9-7.3,20-11,27.5c-3.8,7.6-10.6,19.6-10.9,19.3c-0.1-0.1,0-0.3,0.2-0.5c0.4-0.6,6.4-12.6,8.3-16.6
				c3.8-8.2,7.9-20.4,9.3-27.1c0.6-3,3.4-19,3.4-19.4c0-0.2-1.2,0.3-2.7,1l-2.7,1.4l-0.4,1.6c-1,3.7-4.3,13.3-5.5,16.1
				c-3.4,8.4-6.9,16-7.4,16.3c-0.1,0.1,0.6-2.2,1.7-5.2c1.4-4.1,2.4-7.7,4.2-15.7c1.2-5.6,2.2-10.3,2.2-10.3
				c-0.1-0.1-1.3,0.6-2.8,1.4c-2.3,1.3-2.8,1.8-3.1,2.6c-0.2,0.5-1,3-1.8,5.4c-1.2,3.9-3.4,9.3-8.2,20.8c-1.8,4.2-6.4,13.6-7.2,14.5
				c-0.4,0.5-1.8,3-3.3,5.6c-6.6,12.3-11.5,19.6-19.9,29.6c-1.8,2.3-4.3,5.1-5.5,6.2l-2,1.9l3.8-0.2c3.7-0.2,3.8-0.2,4.7-1.1
				c0.6-0.5,2.6-2.8,4.6-5.1c8.2-9.4,9.2-10.7,14.6-18c1.8-2.4,3.2-4.3,3.3-4.2c0.2,0.2-2.1,4.1-5,8.6c-1.3,2.1-3.5,5.8-4.9,8.4
				c-1.4,2.6-3.4,6.1-4.6,7.7c-1.1,1.8-1.9,3.3-1.8,3.3c0.1,0.1,3,0,6.4-0.2c3.5-0.2,10.9-0.5,16.4-0.7c8.1-0.3,10.3-0.5,10.5-0.8
				c5.6-7,11.3-15.2,14.4-20.6c10.5-18.6,14.1-29.2,18.9-56.9c1.1-6.2,2.1-12,2.2-12.9c0.2-1,0.3-1.8,0.4-1.8s0.2,0.2,0.1,0.6
				c0,0.4-0.4,3-0.6,5.7c-0.6,5.5-3,20.9-4.3,28.1c-1.4,7.3-3,13.4-5.6,21.3c-4.6,13.3-8.7,22-15.6,32.3c-1.5,2.3-2.6,4.2-2.6,4.2
				c0.1,0.1,6.5-0.1,14.5-0.3c7.8-0.3,14.5-0.5,14.8-0.5c0.6,0,6.2-7.3,9.3-12.1c4.9-7.6,6.7-11.3,11-22.6c0.9-2.2,1.6-3.8,1.6-3.7
				c0,1.2-2.2,9.4-4.1,15C654.6,595.4,653.1,599,649.8,605.8z"/>
			<path class="st3" d="M541,615.3c2.2-1.1,12.7-11.4,17.1-16.7c9.7-11.4,18.1-25.5,23.6-38.9c1.8-4.5,5.4-14.9,6.5-19.2
				c1-3.6,2.5-10.2,3.1-13.8c0.5-3.2,1.2-12.6,1-13.8c-0.2-1-0.3-0.7-0.6,2.3c-3.1,28.8-17.2,59.9-38.4,85.1
				c-3.6,4.3-10.5,11.7-12.5,13.5c-0.9,0.7-1.6,1.4-1.6,1.6C539.2,615.7,540.3,615.6,541,615.3z"/>
			<path class="st3" d="M741.6,260.9c-1.1-1-1.9-1.6-2-1.5c-0.2,0.2,2.2,18.7,3.9,29.9c1.3,8.9,2.6,19.7,3,27.3
				c0.2,1.4,0.4,2.6,0.5,2.6c0.2,0,0.2-0.3,0.1-0.6c-0.1-0.4-0.2-2.1-0.3-3.8c-0.1-1.8-0.4-5.3-0.6-8.1c-0.5-5.7-1.5-19.8-1.8-24.6
				c-0.1-1.8-0.4-6.2-0.6-9.8c-0.2-3.5-0.4-7.2-0.4-8.1v-1.7L741.6,260.9z"/>
			<path class="st3" d="M657.9,402.8c-1.1,29.2-1.4,36.1-1.8,43.5c-0.5,8.4-1.2,17.9-1.4,19.8l-0.2,0.4h12.9l17.4,0.8h4.6l0.2-13.2
				c0.2-20.5,0.6-44.3,1.3-72.8c0.3-14.3,0.7-33.5,0.9-42.3c0.2-8.9,0.5-24.6,0.7-34.8s0.6-25.1,0.7-33.1c0.3-13.8,0.7-26.1,1-30.3
				l0.2-1.9h-1.5c-1.3,0-6.6,0.6-6.8,0.7c0,0-0.5,8.6-1.1,21.6c-0.2,4.9-0.6,11.1-0.7,13.6c-0.6,9.7-1.8,25.9-1.8,27.2
				c-0.1,0.8-0.5,6.2-0.9,12.1c-0.9,12.9-1.2,17.3-2.7,33.3c-1.4,15.3-1.8,17.7-1.6,12.5c0.2-4.3,1.3-27.1,2.2-42.6
				c0.6-11.7,1.1-31.6,1.1-46.6c0-9.9-0.4-27.2-0.7-29.5l-0.2-1.3l-1.4,0.2c-3.9,0.5-9.2,1.8-13.7,3.3c-5.4,1.8-10.2,3.8-10.8,4.4
				c-0.4,0.4-3.3,13.1-3.3,14.1c0,0.3-0.2,0.6-0.2,0.6c-0.2,0.1-0.2-2.8-0.2-6.3c0.1-4,0.1-6.5-0.2-6.5c-0.2,0-6.5,3.5-6.9,3.8
				c-0.1,0.1-1,5.2-2,11.4c-4.1,24.3-7.4,43-10.1,56.8c-1,5.2-2.6,13.5-3.4,18.4c-0.9,4.9-2.4,13.4-3.4,18.7
				c-1.1,5.3-1.9,10.1-2.1,10.8c-0.1,0.6-0.2,1-0.3,1c-0.2-0.2,1.7-13.3,4.2-30c1-6.2,2.3-16.4,3-22.7c1.6-14,3.3-28.2,5.6-45.7
				c1-7.3,1.8-13.3,1.7-13.4c-0.2-0.1-1,0.5-2,1.3l-1.8,1.4l-0.8,5.4c-3.4,24.1-7.5,54.4-9.6,71.4c-0.9,7.1-3.7,29.7-6.2,50.2
				c-2.6,20.5-5.3,43.1-6.2,50.2c-1.4,11.7-2.8,22-3.6,27.3c-0.4,2.7-0.5,2.6,1.4,2.5c1-0.2,5.5-0.4,10.1-0.5
				c12.9-0.4,25.9-0.9,27.4-0.9h1.4l0.2-2.1c0.3-3.8,1.1-10.7,3.2-25.2c3.6-26,6.4-49.3,7.7-65.2c0.7-8.3,2-22.5,2.9-31.7
				c0.9-9.1,1.8-18.2,1.8-20.3c0.4-4.5,0.6-6.2,0.7-6.1c0.3,0.3-1.6,33.1-3.2,56.9C658.8,381.8,658.1,394.9,657.9,402.8z"/>
			<path class="st3" d="M741.9,436.7c0.3,0,2.8,13.3,3.5,19c0.6,4.5,1.8,10.9,2.2,11.3c0.4,0.3,4,0.2,4,0.2h2.5l-0.2-0.7
				c-0.2-1.1-1.8-14.2-5.5-48.1c-1.5-13.5-3.8-32.8-4.9-43c-2.6-21.3-6.5-57.5-9.9-87.8c-3.9-35.4-4-35.6-4.7-36.3
				c-1.1-1-6-3.8-6.2-3.5c-0.3,0.2,0.7,17,1.5,25.8c0.7,7.7,2.1,23.3,2.9,33.3c0.7,8.7,3.3,33.4,5,48.9c0.9,7.7,1,8.5,0.7,8.3
				c-0.2-0.2-2.9-23-4.8-40.2c-3.1-28.3-4.8-41.6-6.9-53.3c-0.6-3.4-1.8-10.8-2.8-16.2l-1.7-9.9l-3-1.1c-3.4-1.4-8.1-2.7-8.4-2.5
				c-0.1,0.1,0,3.9,0.2,8.5c0.2,4.6,0.5,14.5,0.6,22.1c0.2,7.7,0.5,22.3,0.7,32.6s0.6,26,0.7,34.8c0.2,8.9,0.6,27.9,0.9,42.2
				c0.6,28.4,1.1,52.2,1.3,72.7l0.2,14.2h4.5h4.5l-0.2-3.1c-0.2-2.1-0.2-5-0.7-27.9c-0.2-6.9-0.5-18.8-0.7-26.7
				c-0.2-7.7-0.5-17.2-0.6-21.2c-0.4-16.4-0.8-27-1.1-33.1c-1-13.7-1.3-20.4-1.3-21.9c0.1-1.8,1.1,9.1,2.2,23.2
				c0.4,5.3,0.9,10.8,1,12.4c0.9,8.8,2.6,31.1,3.4,44.8c1,15.5,2.2,29.3,3.9,43.8c0.4,3.4,0.4,7.4,0.4,7.4v0.7h2.8h2.5l-0.2-5.3
				c-0.1-3.2-0.3-12.5-0.4-20.7c-0.4-16.1-0.6-22.2-1.4-33.4c-0.3-4-0.7-10.6-1-14.7c-0.2-4-0.5-8.5-0.6-9.8c-0.1-1.4-0.1-2.2,0.1-2
				c0.2,0.2,0.4,1.5,0.5,2.9s0.6,6.1,1.1,10.4c0.6,4.4,1.4,12.3,2,17.7c1,9.6,2.1,17,5,34c1.3,7.1,2.2,14.1,2.8,20.2l0.2,1.5h2.1
				h2.1l0.2-1.8c0.2-1.1,0-5.2-0.2-9.3c-0.3-4.1-0.6-9.9-0.6-12.9c-0.1-3-0.2-5.7-0.4-6C741.6,436.9,741.7,436.7,741.9,436.7z"/>
			<path class="st3" d="M755.6,331.6c0.6,8.8,1.7,18,4.2,35c1.1,7.7,1,6.7,2.6,16.3c0.6,3.9,1.7,10.1,2.2,14c1,6.1,1.1,7.3,1.4,7.3
				c0.1,0-0.1-1.2-0.3-2.8c-1-8.3-1.7-14.9-2.6-27.5c-0.4-5.3-1.7-15.4-3.6-28.5c-0.6-4.2-1.2-8.3-1.3-9.1c-0.2-0.8-0.2-1.7-0.3-2
				c-1.8-12.2-3.8-26.3-4.6-35c-0.7-6.9-1.3-9.9-1-4.8c0.2,1.4,0.4,4.6,0.5,6.9c0.2,2.4,0.8,9.6,1.4,16
				C755,323.9,755.5,330.2,755.6,331.6z"/>
			<path class="st3" d="M759.4,229.6c-1.5,0,0.9,0.7,2.6,0.9c0.5,0,0.6-0.2,0.6-0.7c0-0.4-0.2-0.7-0.4-0.8c-0.3-0.1-0.2-0.3,0.2-0.6
				c0.8-1,0.9-2.2,0.2-3.3c-0.6-1-2.2-1.8-3.3-1.8c-0.6,0.1-0.5,0.2,0.4,0.6c1.3,0.5,2.2,2.2,1.8,3.3
				C761.4,228.3,760.2,229.6,759.4,229.6z"/>
			<path class="st3" d="M743.4,227.7c-0.2,0.1,1.6,0.4,3.9,0.6c2.4,0.3,5.3,0.6,6.5,0.9c1.1,0.2,2.5,0.4,2.9,0.4c0.6,0,0.6,0-0.2-1
				c-1-1-1.1-1-4.9-1.6c-2.2-0.4-4.2-0.6-4.4-0.6c-0.4,0-0.5-0.3-0.5-1.3c0-0.7,0.1-1.3,0.2-1.3c0.1,0,2.2,0.3,4.7,0.6
				c3.9,0.5,4.6,0.5,4.8,0.2c0.2-0.2,0.2-0.4,0.2-0.5c-0.1-0.2-9.7-1.9-11.5-2.2l-1.4-0.2l0.6,0.6c1,0.9,1.3,1.9,1.1,3
				C745.1,226.4,744.2,227.4,743.4,227.7z"/>
			<path class="st3" d="M759.9,431.6c0.8,9.3,0.9,10.4,2,23.7l1.1,12.8h1.9c1.8,0,1.9-0.1,1.9-0.6c0-0.3-0.5-3.8-1.1-7.7
				c-0.6-3.9-1.4-9.3-1.8-11.9c-0.4-2.6-0.8-5-0.9-5.3c-1.4-6.9-3-16-4-24.4c-0.6-4.3-1.1-7.9-1.1-8c-0.2-0.2-0.2-0.2,0.7,8
				C759.1,422.4,759.8,428.5,759.9,431.6z"/>
			<path class="st3" d="M634.6,228.3l2.7-0.2v-1.1c-0.1-1-0.2-1.1-0.8-1c-2.1,0.4-4.9,1-5.8,1.1c-0.8,0.2-1.1,0.3-1.1,0.7
				C629.7,228.5,630.1,228.6,634.6,228.3z"/>
			<path class="st3" d="M457.6,784.5c-0.1-0.2-0.4-0.2-0.6-0.1c-0.2,0.2-0.2,0.2,0.2,0.2C457.5,784.6,457.7,784.6,457.6,784.5z"/>
			<path class="st3" d="M682.3,717.2c-0.3,1-1.1,10.5-1.8,19.6c-0.2,2.5-0.3,6.8-0.3,9.7c0,6.5,0.5,19.6,0.8,21.9
				c0.2,1.8,0.2,1.8,0.4-1.4c0.1-1.8,0.3-6.5,0.5-10.5c0.2-4.1,0.4-7.7,0.4-8.2c0.1-0.7,0.2-27.2,0.2-30.7l-0.1-1.3L682.3,717.2z"/>
			<path class="st3" d="M444.7,781.5c1.8,0.5,2.6,0.6,8.4,1.4c5.4,0.7,17.9,1.8,19,1.7c0.7-0.1-5.6-1.2-12.9-2.2
				c-8-1.1-14.6-3-23.4-6.2c-7.6-2.9-7.1-2.9-10.1,0c-1.3,1.3-2.1,2.5-2.9,4.1c-1,2.2-1.1,2.4-1.1,5.3v3.2l1.1,1
				c0.9,0.9,1.3,1,2.3,1c0.8-0.1,1-0.2,0.5-0.2c-2.1-0.3-3.3-2.6-2.5-4.5c0.6-1.2,2.1-2.1,3.4-1.8c0.7,0.2,0.8,0.1,0.5-0.3
				c-0.5-0.6-2.3-0.5-3.4,0.2c-1.1,0.6-1.1,0.4-0.4-1.1c1.1-2.3,4.9-5.7,6.9-6.2c0.4-0.1,1.5,0.2,3,1c2.6,1.2,6.9,2.7,8.9,3.2
				C442.7,781,443.9,781.3,444.7,781.5z"/>
			<path class="st3" d="M434,768.5c0.2,0,0.4-1.3,0.4-4.2c0.3-9,2.2-18.5,6.2-30.6c9.5-28.3,21.6-49.3,40.3-69.1
				c6.7-7.1,14.3-14,19.7-17.9l3.4-2.6l-1.5-0.1c-2-0.2-3,0.4-7.6,3.8c-9.2,6.9-17.8,15.6-26,26.4c-17.2,22.9-30.3,52.5-35.9,81.8
				c-1.1,5.6-1.8,10.5-1.8,11.2C431.6,767.8,433,768.5,434,768.5z"/>
			<path class="st3" d="M466.8,795.1c-0.1-0.2-0.4-0.2-0.6-0.1c-0.2,0.2-0.2,0.2,0.2,0.2C466.7,795.3,466.9,795.2,466.8,795.1z"/>
			<path class="st3" d="M441.3,788.7l1.4,0.2l-0.6-0.5c-1-0.7-2.2-0.7-3.6,0.1c-1.8,1-2.2,1.9-2,3.4c0.3,1.8,1.4,2.9,2.6,2.9h1.1
				l-0.9-0.6c-1.8-1-1.9-3.4-0.4-4.8C439.8,788.7,440.1,788.5,441.3,788.7z"/>
			<path class="st3" d="M457.1,868.4c-0.7-1.1-2.2-3.8-3.4-5.9c-4.2-7.2-8.1-15.5-11.1-24c-3.7-10.4-4.8-13.7-5.9-17.8
				c-1.2-4.7-1.4-4.5-0.7,1c3,23.5,15.7,47.4,36.3,68.5c2,2.1,3.8,3.8,3.8,3.8c0.1,0-0.6-0.9-1.6-1.9
				C468.9,885.8,460.9,874.8,457.1,868.4z"/>
			<path class="st3" d="M461.5,789.6c1.5,0.2,1.6-0.2,0.2-0.6c-1.4-0.4-3,0.2-4,1.3c-0.7,0.8-0.9,1.2-0.9,2.3c0,1.9,1,3,2.7,3
				c0.8,0,0.8-0.1,0.3-0.3c-1-0.5-1.6-1.4-1.6-2.7c0-1,0.2-1.4,1-2.1C460,789.6,460.2,789.5,461.5,789.6z"/>
			<path class="st3" d="M645.8,731.8c-5.5,17.2-8.9,32.9-9.5,45.6l-0.2,3.7h1.8h1.8l0.2-3.5c0.6-10.1,3.1-26.7,5.6-37
				c0.4-1.2,0.6-2.6,0.7-3.2c0.5-3,4-15.4,5.7-20.8c1.9-5.8,5.5-15.6,6.6-18c0.2-0.6,0.4-1.1,0.3-1.1
				C658.3,697.5,649.6,720.6,645.8,731.8z"/>
			<path class="st3" d="M661.9,657.9c-0.7,0-14.4,17.3-19.6,24.8c-11.3,16.3-19.2,35-23.1,55.3c-1.3,6.8-1.8,11.2-1.8,17.8
				c0,3.3,0.1,5.7,0.2,5.7c0.2-0.1,0.7-2.6,1.3-5.6c4.3-21.1,9.5-38.5,16.3-54.5c3.8-8.9,9.2-19.2,12.9-24.8
				c2.3-3.4,11.5-15.8,12.9-17.4C661.7,658.5,662.1,657.9,661.9,657.9z"/>
			<path class="st3" d="M655.8,643.7h-8.9l-2.8,2.3c-13.7,11.2-26.8,25.6-36.7,40.6c-6.5,9.9-11.6,19.7-16.4,31.7
				c-1.8,4.7-3.4,8.4-3.4,8.2c0-0.4,4-11.3,6.4-17.2c1.8-4.6,5.7-12.9,9.3-20c2.6-5,7.5-13.1,11.6-18.9c4.2-6,14.2-17.4,20.5-23.5
				l3.3-3.2l-11.5,0.8h-11.5l-5.6,0.6c-3.1,0.6-7.7,1.5-10.2,2c-5.1,1-11.8,2.6-16.1,3.9l-2.9,1l-4,4.6c-2.2,2.6-5.4,6.5-7.3,8.9
				c-3.6,4.6-12.5,17.2-14.5,20.9c-1.8,3.2-4.6,7.3-4.6,6.9c0-1,6.6-15,9-19.1c2.3-3.9,8.3-12.9,10.9-16.2c1.3-1.8,2.3-3.3,2.2-3.3
				c-0.4-0.3-15,4.7-20.9,7.1c-8.1,3.3-23.2,10.9-27.8,14.1c-6.5,4.4-17.4,14.9-20.8,20.1c-1.6,2.6-7.9,15.1-10.6,21.1
				c-8.7,19.6-16.3,43.5-18,57.1c-0.5,3.3-1,3,4.8,3.4c4.3,0.4,4.5,0.3,4.5-1.1c0-1.2,1.7-9.1,3-13.8c2.6-10.1,7.1-23.3,11.2-32.6
				c2.2-5.3,8.9-18.8,9.6-19.4c0.4-0.3,0.4-0.5-2.4,6.1c-1.3,3-2.9,6.9-3.4,8.5c-0.6,1.7-1.8,4.8-2.6,7c-3.6,10-5.8,19.4-7.3,31.1
				c-0.6,4.4-1.6,14.6-1.5,14.8c0.2,0.2,12.5,0.6,12.6,0.4c0.2-0.2,0.6-1.8,1.1-3.8c2.6-10.6,9.5-31.5,15.7-47.3
				c5-12.9,12.3-28.3,17.5-36.7c2.7-4.5,11.8-18.4,13.7-21.1c2.6-3.8,6.1-8.2,6.2-8.1c0,0.1-0.6,1.1-1.4,2.5
				c-1.8,2.6-11.3,18-13.8,22.6c-4.1,7.2-9.9,19.2-14.1,29.1c-8.4,20.1-13.9,37.8-17.4,56c-0.8,3.9-1.3,7-1.3,7.1
				c0.1,0,6.9,0.2,15.4,0.4c8.5,0.2,17.2,0.4,19.6,0.4l4.3,0.2l0.5-2.6c0.6-3.6,6.4-23.4,9.2-31.9c3-9.2,4.4-12.9,7-18.9
				c2.3-5.2,13.6-27.5,14.5-28.7c0.4-0.3-1.1,2.7-3,6.9c-4.8,9.9-8.8,20.1-12,30.3c-3,9.3-9.3,36.3-10.2,43.4l-0.2,1.5l3.9,0.1
				c5.8,0.1,28.3,0.3,30.5,0.4l1.8,0.1l0.2-2.6c1.4-21.4,7.3-43.4,17.6-66.4c2.8-6.2,13.3-27.6,14.9-30.3c1.3-2.2,1.2-1.8-0.4,1.3
				c-3.6,7.3-9.9,20.5-11.3,23.9c-5.8,13.6-10.6,32.4-13.1,50.9c-0.6,4.8-1.4,21.2-1.4,21.2v1.9h1.7h2.3v-1.1
				c-0.2-2.2,0.4-10.4,0.9-13.8c1.8-14.6,5.8-30.2,12-45.4c5.4-13.6,9.4-21.6,16.4-32.7c10-16,19-27.5,30.1-38.6l4.8-4.9
				L655.8,643.7L655.8,643.7z"/>
			<path class="st3" d="M482.4,636l0.6,1.1l2.8-2.6c1.5-1.4,2.8-2.6,2.8-2.8c0.2-0.4-1.8-3-6.2-8.1c-5.6-6.4-5.2-5.9-4.3-5.5
				c0.4,0.2,3.3,3,6.5,6.1c3.2,3.1,5.8,5.7,5.9,5.7c0.3,0,9.7-9.4,10.5-10.5l0.5-0.8l-2.6-3.1c-1.4-1.7-3.3-4-4.1-5
				c-1.7-1.8-7.5-7.2-8.1-7.4c-0.2-0.1-1.7,0.9-3.3,2.1l-3,2.3l3.8,4.6c3.4,4.1,7.7,10.5,7.5,10.8c-0.1,0-3.3-3-6.9-6.7l-6.9-6.8
				l-1.1,0.9c-0.6,0.4-2.8,2.2-5,3.9c-2.2,1.8-4.1,3.2-4.1,3.2c-0.1,0.1,1.1,1.4,2.6,3.1C475.1,625.7,480.7,632.9,482.4,636z"/>
			<path class="st3" d="M455.8,672.6c0.2,0,0.8-0.6,1.4-1.4c1.7-2.2,6.7-7.3,12.3-12.5c6.7-6.2,8.9-8.9,8.6-10.9c-0.1-0.8-0.2-1-1-1
				c-1.3-0.2-3.2,1.2-8.4,5.8c-2.6,2.2-5.2,4.6-5.9,5.2c-0.8,0.6-2.6,2.2-4,3.6c-2.9,2.6-3.4,2.6-1,0.1c1.4-1.4,1.5-1.8,1.1-2.1
				c-0.6-0.4-7.9-11.3-8.9-13.1c-0.9-1.7-1-1.8,3.3,3.8c5.1,6.6,6.9,8.8,6.9,8.7c0.1-0.1,2.2-2.2,4.8-4.8l4.6-4.7l-0.6-0.6
				c-0.3-0.4-1.1-1.5-1.8-2.6c-0.7-1-2.5-3.4-3.9-5.3c-5.4-7.1-6.8-9.4-3-5c1,1.1,3,3.4,4.5,5c1.4,1.7,3.4,3.9,4.3,5
				c1,1.1,1.8,2,1.9,2c0.3,0,4.2-3.3,7.6-6.4l2.3-2.1l-1.8-2.3c-5.1-6.7-13.7-17.1-14.2-17.2c-0.2,0-0.8,0.4-1.5,1l-1.4,1l1.8,2.4
				c1,1.3,2.2,3.3,2.8,4.2c0.5,1,1.8,3.1,2.9,4.6c2.2,3.2,4.8,7.2,4.6,7.3c-0.1,0-1.8-1.7-3.6-3.7c-1.8-2.1-4.8-5.1-6.5-6.9
				c-1.8-1.7-3.5-3.6-4.1-4.2c-0.7-0.9-1.1-1.2-1.4-1c-0.4,0.2-6,4.5-7.9,6.1l-1.1,1l1.7,3.6c1,1.9,2.5,4.7,3.3,6.1
				c1,1.4,2.5,4,3.4,5.7c1,1.8,2,3.5,2.3,4c0.3,0.4,0.4,0.8,0.3,0.8c-0.4,0-5.3-5.5-7.7-8.6c-1.1-1.5-2.9-3.7-4-4.9
				c-1-1.1-2.2-2.6-2.6-3l-0.6-0.9l-1.9,1.5c-1.1,0.9-2,1.6-2.1,1.7c-0.4,0.3,5.7,12.9,8,16.4c1,1.4,2.7,3.9,4,5.4
				c1.2,1.5,2.1,2.7,1.9,2.7c-0.3,0-6.4-6.9-8.4-9.5c-2.2-2.7-4.3-6.2-6-9.4c-0.8-1.8-1.6-3.4-1.7-3.5c-0.2-0.5-1.7,0.5-1.7,1.1
				c0,0.2,0.6,2.2,1.4,4.5c2.3,6.4,6.3,14.5,10.1,20.1C451,667.9,455.1,672.6,455.8,672.6z"/>
			<path class="st3" d="M470.5,750.8c-3.3,14.4-4.2,18.9-3.9,18.7c0.5-0.3,2.2-4.8,4.3-11.9c6.1-19.5,9.4-28.9,14.1-39.9
				c6.2-14.5,13.9-28.7,24.4-45.1c4.4-6.9,4.3-6.8,4-6.5c-0.4,0.4-7.1,9.6-10.1,13.9c-2.3,3.3-3.4,4.3-1.7,1.7
				c0.6-1,2.6-4.2,4.6-7.3c1.8-3.1,4.7-7.3,6.1-9.4c1.5-2.2,2.6-3.9,2.6-4c-0.5-0.5-16.1,22-19.8,28.3c-0.8,1.5-1.6,2.6-1.6,2.6
				c-0.2-0.2,2.1-4.3,5.1-9.5c1.4-2.2,3.2-5.4,4.1-6.9c2.4-4.1,14.4-22,16.8-25.1l2-2.6l-3.2,3.3c-1.8,1.8-4.1,4.6-5.3,6
				c-2.3,3-3.3,3.6-1.3,1c2.3-3.3,7.3-10.8,7.3-10.9c-0.2-0.1-2.8,2.7-4.8,5.2c-0.6,0.8-1.3,1.4-1.3,1.3c-0.1-0.1,0.7-1.4,1.8-3
				c1.1-1.6,1.8-3,1.8-3.1c-0.3-0.2-2.6,0.7-3.8,1.8c-2.2,1.6-10.5,11.3-15.7,18.5c-16.7,23.1-29.1,49.8-37.1,80.2l-1.5,5.6
				l-0.2,6.6c-0.1,6.1,0.2,9.9,0.6,8.8c0.2-0.2,0.6-1.8,1.2-3.3c1.1-2.8,1.8-4.2,1.4-2.7c-0.4,2.2-1.3,7.3-1.4,8.6
				c-0.2,1.8,0.3,1.5,0.6-0.4c0.2-0.6,0.7-2.6,1.3-4.5s1.5-4.8,2-6.7c0.5-1.8,1-3.3,1.1-3.3c0.1,0.1-0.3,1.8-0.8,3.8
				c-0.4,2.1-1.1,5.4-1.3,7.5c-0.2,2-0.5,4.2-0.6,4.8c-0.2,0.9-0.1,1.1,0.3,1.1c0.3,0,0.6-0.5,0.8-1.5c1.3-6.2,11.4-39.2,11.5-37.6
				c0,0.3-0.2,1-0.4,1.6C473.6,738.7,471.7,745.5,470.5,750.8z M495,682.8c1.8-3.3,6.5-11.4,7.3-12.7c0.4-0.6,1.2-1.6,1.8-2.2l1-1
				l-0.8,1.4c-0.4,0.8-2,3.3-3.4,5.5c-1.4,2.2-3.3,5.3-4.2,6.9C494.5,684.3,493.5,685.6,495,682.8z M493.9,685
				c0.1,0.1-0.3,0.8-0.8,1.5c-0.5,0.8-0.9,1.3-0.9,1.2C492.3,687.4,493.8,685,493.9,685z M493.3,692.2c0.1,0.2-1.4,2.8-1.5,2.8
				c-0.1,0-0.2-0.1-0.2-0.1C491.6,694.7,493.1,692.2,493.3,692.2z M490.9,696.3c0.2-0.5,0.5-1,0.6-1c0.3,0,0.2,0.4-0.4,1.1l-0.6,0.7
				L490.9,696.3z M490.2,697.5c0.2-0.1,0.3-0.1,0.3,0.2c0,0.2-0.2,0.4-0.3,0.4c-0.2,0.1-0.3,0.1-0.3-0.1
				C489.9,697.8,490.1,697.6,490.2,697.5z M489.6,698.7c0.2-0.1,0.3-0.1,0.3,0.2c0,0.2-0.2,0.3-0.3,0.4s-0.3,0.1-0.3-0.1
				C489.4,698.9,489.5,698.8,489.6,698.7z M489.5,704c0.2,0.2-0.2,1-4.4,10.5c-1.6,3.4-3.8,8.5-4.8,11.3c-2.6,6.3-2.5,6.1-2.6,5.6
				C477.7,728.2,488.6,703.2,489.5,704z M473.2,732.9c-1.5,3.6-3.4,8.2-4.1,10.4c-1.6,4.4-2.2,5.5-1.1,1.9
				c1.9-6.2,4.1-12.6,5.7-16.4c1-2.3,2.5-6.2,3.4-8.7c1-2.6,2.5-6.1,3.3-7.9c1.6-3.4,5.7-11.3,5.7-10.9c0,0.3-1.5,4.1-3.2,7.7
				c-1.8,4-3.9,9.2-5.6,13.9C476.4,724.7,474.6,729.3,473.2,732.9z"/>
			<path class="st3" d="M501.7,613.8l1.9,2.6l1-1.1c0.6-0.6,1.5-1.8,2.2-2.6c0.7-0.8,2-2.5,3-3.7l1.8-2.2l-1.1-1.6
				c-0.6-1-2.2-2.9-3.4-4.3c-4-4.7-5.9-7-5.3-6.8c1.1,0.6,5.5,4.6,8.4,7.7c3.3,3.5,2.8,3.5,4.9,0.5l1.1-1.5l-2.7-2.7
				c-3-3-5.5-5-8.5-6.6c-1.3-0.7-2.1-1-2.3-0.8c-3.9,3-6.5,5.1-6.5,5.3c0,0.2,0.8,0.9,1.8,1.6c1,0.8,2.5,2,3.3,2.7
				c1.8,1.6,6.8,7.5,6.8,7.9c0,0.2-0.7-0.4-1.7-1.4c-3.3-3.2-11.3-9.4-12.1-9.4c-0.2,0-1.4,0.8-2.6,1.8l-2.2,1.8l1.7,1.4
				C493.9,604.9,499.7,611,501.7,613.8z"/>
			<path class="st3" d="M960.4,154.3c-4.8-1.3-46.3-12.3-58.6-15.6c-3.4-0.9-13.3-3.5-21.9-5.9c-13.1-3.6-16.7-4.5-22-5.3
				c-5.4-0.9-6.9-1-9.7-1c-2.4,0.1-3.6,0.3-4.5,0.6l-1.1,0.5l1.8,0.6c4,1.2,15.8,4.3,23.5,6.1c17.9,4.1,26,6,32.8,7.7
				c3.9,1,11.7,2.7,17.4,4c5.7,1.3,13.3,3.1,16.7,4c3.4,0.9,7.5,1.8,8.9,2.1c1.4,0.4,8.1,2,14.7,3.8c6.6,1.8,12.1,3.2,12.3,3.2
				c0.1,0,0.3-0.4,0.4-1c0.2-0.5,0.2-1,0.2-1c0-0.1-1.4-0.4-3-0.8C966.7,155.9,963.1,155,960.4,154.3z"/>
			<path class="st3" d="M865.6,696.5c0.1,0.2,0.2,0.3,0.3,0.3c0.1,0,0.2-0.2,0.2-0.3c0-0.2-0.2-0.3-0.3-0.3
				C865.6,696.2,865.6,696.4,865.6,696.5z"/>
			<path class="st3" d="M742.4,671c0.1-0.1-0.6-1.4-1.5-3c-3.9-6.8-8.2-12.5-16.3-21.8l-2.2-2.6h-1.8H719l3.3,3.4
				c3.9,4,12.6,13.9,15.3,17.3c1,1.4,2.5,3.4,3.3,4.6C741.6,670.2,742.4,671.1,742.4,671z"/>
			<path class="st3" d="M905.9,751.9c0.2,0.3,0.8,3.3,1.5,6.5c0.7,3.3,1.6,6.9,1.9,8.2c0.4,1.7,1.6,9.7,1.7,11.3
				c0,0.2,0.7,0.1,2.1-0.1l1.3-0.2l-0.6-2c-1.4-5.4-7.3-23.6-7.7-24C905.8,751.5,905.8,751.6,905.9,751.9z"/>
			<path class="st3" d="M735,759.8c-0.2,0-0.2,0.4-0.1,0.8c0.2,1.3,0.7,7.7,0.7,10.1c0,1.2,0.2,3.8,0.3,5.6c0.2,1.8,0.3,3.8,0.3,4.1
				c0,0.6,0.2,0.6,1.4,0.6h1.4l-0.1-1c-0.1-0.5-0.4-2.9-0.7-5.3C737.6,770.3,735.4,759.8,735,759.8z"/>
			<path class="st3" d="M871.3,676.9c0.4,0.4,5,8,9.2,15c5,8.5,14.5,25.9,14.5,26.3c0,0.2,1.1,2.2,1.3,2.2c0.1,0-1.2-2.9-2.8-6.4
				c-3.5-7.7-12-24.7-14.1-28.3c-0.9-1.4-1.9-3.3-2.5-4.2c-2.6-4.5-9.2-13.3-13.4-18.1c-1.2-1.4-3.4-3.9-5-5.7
				c-1.6-1.8-2.8-3.1-2.8-3c0,0.2,1.4,1.9,3,4.1c2.6,3.3,10.5,14.6,10.5,15C869.2,674,871,676.7,871.3,676.9z"/>
			<path class="st3" d="M754.3,727.9c5.7,17.5,8.1,29.7,9.6,47.7c0.4,5.8,0.2,5.3,2.6,5.3c1.1,0,2.2-0.1,2.5-0.2
				c0.8-0.5-0.8-12.9-3-23.1c-2.2-10.5-8.6-29.6-12.8-37.8c-4.6-9.3-12.1-23.2-12.4-22.8c-0.1,0.1,1.8,3.9,4,8.5
				C749.5,714.4,751.6,719.7,754.3,727.9z"/>
			<path class="st3" d="M922.7,771.4c0.1,0.6,0.2,1.1,0.3,1c0.1-0.1-0.2-1.9-0.6-4.1c-1.9-10.6-6.2-26.8-9.4-35.9
				c-6.9-19.8-16.3-37.9-32.3-62.6c-7-10.9-10.9-16.1-17.6-24.3c-1-1.1-2.2-1.8-3.3-1.8h-0.9l1.7,2.6c0.9,1.4,2.4,3.5,3.3,4.7
				c12.3,16.2,22.4,30.6,28.2,40c5.8,9.6,12.7,23.8,18.1,37.6c2.6,6.4,6.8,18.9,8.4,25C919.6,757.5,922.3,769,922.7,771.4z"/>
			<path class="st3" d="M863.9,726.5c0.9,2.5,2.2,6.1,2.8,8.1c1.3,3.7,4.5,15.7,6.4,24.4c1.2,5.8,2.1,11.6,2.3,16.5l0.2,3.9l1.2-0.2
				l1.1-0.1l-0.1-1.6c-0.2-2.6-1.4-12.5-2.2-17.2c-2.6-15.4-7.2-32.1-13.1-48c-1.9-5.3-2.2-5.7-5.4-9.4c-2-2.6-11.9-13.6-13.6-15.3
				l-0.7-0.7l0.5,1.1c4.2,9.7,12.6,33.9,12.2,35.1c-0.1,0.2-0.2,0-0.4-0.5c-0.6-2.2-6.4-17.8-7.8-20.9c-1-1.9-2.6-5.4-3.9-7.7
				c-1.2-2.3-2.6-5-3.2-6.1c-2.4-4.7-4.2-7.7-5.4-8.8c-1.7-1.6-10.6-9.2-12.7-10.8c-1.8-1.4-7-4.5-7.2-4.2c-0.1,0.1,1.2,2.2,3,4.7
				c3,4.6,11.4,19.2,11.3,19.4c-0.1,0.1-1.4-2-2.8-4.6c-4.8-8.4-7.8-12.8-13.4-18.9l-2.8-3.1l-3.7-1.8c-2.1-1-4.8-2.2-6.1-2.7
				l-2.4-1l1.3,1.5c5.4,6.4,9.5,11.8,13.9,18.5c4.7,7,12.1,18.8,15.1,24.2c3.2,5.5,7.7,14,7.4,14.1c-0.1,0.1-0.9-1.1-1.8-2.6
				c-2.7-4.6-20.1-30.7-23.1-34.7c-5.5-7.3-11.4-14.2-18-20.9l-3.6-3.6l-5-1.6c-2.8-1-5.8-1.8-6.6-2.1l-1.5-0.4l1.8,2.1
				c1.9,2.2,5,5.9,5.8,7.1c0.9,1.3,0.5,1.1-0.7-0.2c-0.6-0.7-3.4-3.3-6-5.7l-4.8-4.3l-3.8-0.8c-2.1-0.4-4.2-0.9-4.9-1l-1.1-0.2
				l3.4,3.4c1.8,1.9,4.2,4.6,5.4,5.9c8.2,9.8,10.6,12.9,13.6,16.7c3.4,4.6,4.2,6.1,1.8,3.3c-2.6-3-10.6-11.3-15.2-16
				c-4.9-4.9-9-8.7-13.3-12.1l-2.7-2.2l-2.8-0.3c-1.6-0.2-4-0.3-5.4-0.2l-2.6,0.1l2.5,1.7c11.5,7.8,25.2,23.8,34.9,40.8
				c1.4,2.6,3.8,6.7,5.2,9.2c2.3,3.9,6.2,11.3,5.5,10.1c-0.2-0.2-1.8-3-3.8-6.2c-4.5-7.3-7.2-11.3-12.4-17.8
				c-7.2-8.9-16.3-18.9-21.7-23.7c-7.7-6.9-17.7-14.2-19.4-14.2c-1,0-0.8,0.2,3.9,4.8c11.1,11.1,20.1,22.6,30.1,38.6
				c7,11.1,11,19.2,16.4,32.7c6.2,15.3,10.2,30.8,12,45.4c0.4,3.4,1,11.7,1,13.8v1.1l4-0.1l4-0.1v-6.9c-0.3-8.2-0.6-13.5-1.4-18
				c-0.5-3-3-13.9-3.8-16.6c-0.2-0.6-0.2-0.9,0-0.6c0.2,0.2,1.1,3,2,6.1c1,3.3,2.2,7.3,2.6,9.1c2.6,7.7,4,15.3,4.6,22.8l0.4,4.6
				l1.7-0.2c1-0.2,2.3-0.2,3-0.9h1.3l-0.2-2.6c-0.7-12.3-2.6-29.1-4.1-36.2c-0.8-3.8-1.8-6.9-4.7-15.6c-1.1-3.2-1.8-5.8-1.8-5.8
				c0.2,0,0.4,0.4,0.5,1c0.7,2.2,4.8,13.4,6.1,16.6c4.4,11.3,7.6,26,8.8,41l0.2,2.5h6.5h6.5l-0.2-3.3c-0.2-3.3-1.7-12.6-3-18.2
				c-0.4-1.8-1.6-6.5-2.7-10.5s-2-7.4-2-7.7c0.1-0.4,5.7,16.1,8.2,24c1.8,5.3,3.3,11.1,3.4,13.3l0.2,2.4h6.5c0,0,8.4-0.6,10.6-0.8
				l4.1-0.2v-5.5c-0.1-3.2-0.2-6.9-0.5-8.6c-0.2-1.8-0.6-5.2-0.9-7.7c-0.2-2.5-0.5-4.8-0.6-5.3c-0.1-0.5,0-0.7,0.2-0.6
				c0.4,0.4,2.3,7.7,3.3,12.5c0.4,2.5,1.1,5.8,1.5,7.5c0.4,1.7,1,4.1,1.1,5.4l0.4,2.4h1.7c1.1,0,2.6-0.1,3.4-0.2l1.5-0.2V778
				c0-2-1.4-13.7-2.5-20.9c-3.4-22.6-5.1-29.9-9.2-40.7c-0.2-0.6-0.2-0.6,0.2,0C860.4,717.1,862.1,721.4,863.9,726.5z M830.3,690.1
				c-0.4-0.8-0.6-1.4-0.6-1.5c0.1-0.1,0.5,0.5,1,1.2c0.4,0.8,0.6,1.4,0.6,1.5C831.1,691.3,830.7,690.8,830.3,690.1z M831.7,692.3
				c-0.1,0.1-0.2-0.1-0.4-0.4c-0.2-0.3-0.1-0.4,0.2-0.2C831.7,692.1,831.8,692.2,831.7,692.3z M843.3,756.3c0,0.3-0.3-0.2-0.5-1.1
				c-0.2-0.9-1.6-5-3-9.2c-5-14.2-16-35.6-27-52.6c-1.8-2.6-4.7-7.3-6.5-10.2c-4-6.5-7.8-12.1-9.9-14.7c-0.8-1-1.4-1.9-1.4-2.1
				c0-0.5,2.6,1.8,5.3,5c3,3.3,11.7,14.2,15.7,19.7c4.2,5.9,9.9,15.7,13.7,23.6c2.5,5.2,5.7,13.7,7.5,19.4c1,3,2.2,7.1,2.9,9.3
				C841.5,748.1,843.4,755.7,843.3,756.3z M855.9,724.4c-0.1,0.1-0.2-0.1-0.2-0.3c0.1-0.4,0.1-0.4,0.2-0.2
				C856,724,856,724.3,855.9,724.4z"/>
			<path class="st3" d="M931.1,155.1c-0.1-0.2-0.4-0.2-0.6-0.1c-0.2,0.2-0.2,0.2,0.2,0.2C931,155.3,931.2,155.2,931.1,155.1z"/>
			<path class="st3" d="M952.5,163.7c-1.8-0.8-11.9-3.7-19.3-5.6c-4.6-1.2-10.9-3-14.3-4.1c-3.3-1-6.7-2-7.6-2.2
				c-0.9-0.2-1.5-0.5-1.5-0.6c0-0.2-0.2-0.3,10.2,1.8c10.5,2.1,10.7,2.2,7.5,1.2c-1.4-0.4-4.9-1.4-7.7-2.3c-2.9-0.9-7.3-2.2-9.8-2.9
				c-2.6-0.6-5.6-1.6-6.8-2c-1.2-0.4-4.1-1.2-6.3-1.8c-2.3-0.6-8-2.2-12.7-3.4c-4.7-1.2-12.5-3.3-17.2-4.5
				c-23.5-5.8-27.3-6.8-27.5-6.8c-0.1,0-0.2,0.4-0.1,1l0.1,0.9l6.8,2.3c3.8,1.2,12.1,3.8,18.7,5.7c15.7,4.6,23.4,6.9,23.8,7.3
				c0.2,0.2,0.1,0.2-0.3,0.1c-1-0.4-8.5-2.4-12.9-3.4c-2.3-0.6-8.1-2.1-12.9-3.3c-7.5-2-20.2-4.8-20.5-4.5c-0.3,0.3,1.3,0.9,6.5,2.2
				c6.5,1.7,18.4,5.3,18.8,5.8c0.2,0.2,0.2,0.3-0.2,0.2c-0.3-0.2-2.2-0.5-4.3-1c-2.1-0.4-5.5-1-7.6-1.4c-2.1-0.4-3.8-0.7-3.8-0.6
				c-0.1,0.1,1.4,0.6,3.3,1.3c2.8,1,12.1,3,50.4,11.1c25.8,5.5,47.2,9.9,47.4,9.9C953,163.9,952.8,163.8,952.5,163.7z"/>
			<path class="st3" d="M528,904.4c-0.1-0.2-0.8-1.3-1.5-2.4c-1.4-2.2-2.2-3.8-1.1-2.3c0.4,0.5,1.6,2,2.7,3.3l2,2.6l3.8,1.5
				c5.2,2.2,13.6,5.2,18.7,6.7c5,1.6,11.4,3.4,11.6,3.3c0.1-0.1-1-1.5-2.2-3.3c-1.3-1.8-2.9-4-3.6-5.2c-1.2-1.9-1.4-2-2.9-2.3
				c-1-0.2-1.8-0.5-1.8-0.7c-0.2-0.2,0-0.2,0.3-0.2c0.4,0.2,1.1,0.3,1.7,0.4l1.1,0.2l-1.2-2.1c-3.2-5.4-11.7-22.8-11.7-23.7
				c0-0.2,0.6,0.7,1.4,2.1c5.4,9.7,11.2,18.8,15,23.5c0.6,0.7,0.9,0.8,6.2,1.4c3,0.4,8.8,1.2,12.7,1.8c3.9,0.6,7.2,1,7.3,0.9
				c0.1-0.1-0.7-2-1.8-4.2c-3.8-8.1-5.8-14.1-8.1-22.7c-1.9-7.7-4.8-23.8-4.8-26.8c0.1-1.1,0.2-0.9,0.4,1.1
				c2.2,14.3,6.7,28.6,12.6,40.1c2.5,4.8,6.9,12.5,7.5,13.3c0.5,0.6-0.1,0.5,12.8,1.6c7,0.6,18.3,1.3,18.5,1.1
				c0.1-0.1-1.6-3.2-3.8-6.9c-10.2-18.5-17.3-36.7-20.5-52.4c-1.8-8.5-2.7-19-2.7-28.1c0-2.5-0.1-5.5-0.2-6.8l-0.2-2.2l-1.7,0.1
				l-1.6,0.1l-0.2,2.2c-0.3,3.5-0.3,15.3,0.1,19.7c1.4,18.4,4.1,30.1,10.5,44.7c1.2,3,2.5,5.8,2.7,6.4l0.4,1l-0.6-0.7
				c-1-1.3-9.1-17.6-10.2-20.8c-2-5.7-5.7-21.9-7-31c-0.7-5-1.2-15.1-1-19l0.2-3l-3.1-0.2c-1.8-0.2-3.3-0.2-3.3,0
				c-0.4,0.4-0.9,12.8-0.9,19.7c0,5.2,0.2,7.7,0.9,13.7c1.2,10.1,1,10-0.9-0.5c-0.5-2.7-1.2-6.7-1.6-8.8c-1.1-6.5-2.2-14.1-2.5-19.4
				c-0.2-2.8-0.4-5.1-0.4-5.1c-0.1-0.1-4.3-0.3-9.6-0.6c-5.3-0.2-10.9-0.5-12.5-0.6l-3.1-0.2l-0.2,5.2c-0.2,2.8-0.3,6.4-0.3,7.9
				c0,1.6-0.1,2.8-0.2,2.8c-0.3,0-1.8-4.4-2.5-7.2c-0.4-1.4-0.8-3.9-1-5.6c-0.2-1.8-0.4-3.3-0.4-3.3c-0.1-0.1-1-0.2-2.1-0.3
				c-3.5-0.2-11.8,1.4-18,3.5c-3.5,1.2-8.4,3.3-8.8,3.6c-0.3,0.3,0.3,8.8,0.9,13.8c0.8,6.2,2.7,14.3,5.5,23.2
				c1,3.1,7.4,18.7,8.5,20.5c0.3,0.5,0.4,1,0.4,1c-0.7,0-8.9-16-12.1-24.1c-1.4-3.2-3.9-10.8-5.3-15.9c-1.4-4.9-2.1-8.5-2.6-12.5
				l-0.5-3.3l-3.3,2.2c-1.8,1.2-4.2,3-5.3,3.8c-3.7,3-9.7,9.7-10,11.3c-0.2,0.7,0.6,4.6,1.9,9.6c1,3.4,6.4,20,6.9,21
				c0.4,0.8,0.4,0.8,0,0.4c-1-1-4.7-10-8.9-21.7c-0.7-1.8-1.4-3.5-1.4-3.7c-0.2-0.2-0.4,0.9-0.7,2.2c-1,4.4-0.9,15.8,0.1,19.4
				c0.4,1.1,19.9,14,21.3,14c0.2,0,0.4,0.2,0.4,0.3c0,1-10.2-3.5-16.9-7.4c-1.8-1-3.3-1.8-3.4-1.8c-0.1,0.1,0.3,1.2,0.8,2.6l1,2.5
				l3.3,2.3c5.7,4.2,11.7,7.5,22,12.4c5.5,2.6,10.4,4.8,10.9,5c1,0.2,1.4,0.6,0.6,0.6c-0.8,0-9.2-3-13.2-4.6
				c-9-3.8-13.8-5.9-16.6-7.3c-1.8-0.9-3.1-1.5-3.1-1.4c0,0.3,3.4,5.2,4,5.6C504.6,893.2,528.8,905.5,528,904.4z"/>
			<path class="st3" d="M729.8,179.7c-0.1-0.7-0.4-2.9-0.6-4.9c-0.7-5.7-1.1-12.1-1.1-20.3c0-5.3-0.1-7-0.3-6.1
				c-0.4,2.4-0.4,28.7,0,34.6c0.5,6.9,1.1,13.6,1.8,20c0.6,5.9,0.4,5.5,3.3,5.5h1.4l-0.2-1.1c-0.1-0.6-1.1-6.8-2.2-13.7
				S729.8,180.4,729.8,179.7z"/>
			<path class="st3" d="M899.7,647.6c4.2,3.1,9.1,7.5,15.3,13.7c20,20,33.2,41.9,43.2,71.3c3.3,9.7,5.8,20.7,7.2,30.9
				c0.6,4.6,0.7,4.7,1.3,4.6c0.3-0.2,0.7-0.3,0.9-0.4c0.7-0.7-2.6-17.6-5.5-27.6c-11.4-39.8-33.9-74.8-59.6-93.2
				c-4.3-3.1-4.5-3.2-6.2-2.9l-1.4,0.2l0.7,0.5C896.1,645,897.9,646.3,899.7,647.6z"/>
			<path class="st3" d="M939.1,765.5c0.6,1.6,1.1,3.1,1.2,3.3c0.4,1.1,0.6-2.6,0.6-8.8l-0.2-6.6l-1.5-5.6
				c-8.1-30.4-20.4-57.1-37.1-80.2c-5.3-7.2-13.5-16.9-15.7-18.5c-1.3-1-3.5-1.9-3.8-1.8c-0.1,0.2,0.7,1.5,1.8,3.1
				c1.1,1.6,1.8,3,1.8,3s-0.6-0.5-1.3-1.3c-2-2.5-4.7-5.3-4.8-5.2c-0.1,0.2,5,7.7,7.3,10.9c1.9,2.6,1,2-1.3-1
				c-1.1-1.4-3.5-4.2-5.3-6l-3.2-3.3l2,2.6c2.5,3.1,14.5,20.9,16.8,25.1c1,1.6,2.7,4.8,4.1,6.9c3,5.2,5.3,9.3,5.1,9.5
				c0,0.1-0.8-1.1-1.6-2.6c-3.7-6.3-19.3-28.8-19.8-28.3c-0.1,0.1,1.1,1.8,2.6,4c1.4,2.1,4.2,6.3,6.1,9.4c1.9,3.1,4,6.4,4.6,7.3
				c1.8,2.6,0.6,1.6-1.7-1.7c-3-4.3-9.7-13.6-10.1-13.9c-0.4-0.3-0.4-0.5,4,6.5c10.5,16.4,18.1,30.7,24.4,45.1
				c4.7,11,8,20.4,14.1,39.9c2.2,7,3.8,11.6,4.3,11.9c0.4,0.2-0.6-4.3-3.9-18.7c-1.2-5.3-3.1-12.1-4-14.6c-0.2-0.6-0.4-1.3-0.4-1.6
				c0.1-1.7,10.2,31.3,11.5,37.6c0.2,1,0.5,1.5,0.8,1.5c0.4,0,0.4-0.2,0.3-1.1c-0.2-0.6-0.4-2.7-0.6-4.8c-0.2-2.1-0.9-5.4-1.4-7.5
				c-0.4-2-0.8-3.8-0.7-3.8s0.6,1.4,1.1,3.3c0.5,1.8,1.4,4.9,2,6.7s1.1,3.8,1.3,4.5c0.3,1.9,0.8,2.2,0.6,0.4c-0.2-1.4-1-6.4-1.4-8.6
				C937.3,761.3,938,762.6,939.1,765.5z M905.2,684.7c-0.1,0-0.7-1-1.4-2.1c-0.7-1.1-1.7-2.7-2.1-3.5c-0.4-0.8-1.9-3.2-3.3-5.3
				c-1.4-2.2-2.9-4.6-3.3-5.3l-0.8-1.4l1,1c1.4,1.5,2.3,2.9,5.3,8.1C904,682.3,905.3,684.7,905.2,684.7z M905.3,685
				c0.1-0.1,0.5,0.5,1,1.2c1,1.8,0.8,1.9-0.2,0.2C905.6,685.8,905.2,685.1,905.3,685z M906.5,693.7c-0.4-0.8-0.6-1.4-0.6-1.5
				c0.1-0.1,0.5,0.5,1,1.2c0.4,0.8,0.6,1.4,0.6,1.5C907.4,695.1,907,694.5,906.5,693.7z M908,696.4c-0.3-0.4-0.4-0.9-0.4-1
				c0.2-0.1,0.4,0.3,0.6,0.8C908.8,697.3,908.7,697.3,908,696.4z M909.2,698.1c-0.1,0.1-0.2,0.1-0.3-0.1c-0.2-0.1-0.2-0.3-0.2-0.4
				c0-0.2,0.2-0.2,0.4,0C909.2,697.8,909.4,698,909.2,698.1z M909.3,698.8c0-0.2,0.2-0.2,0.4,0c0.2,0.2,0.3,0.4,0.2,0.5
				c-0.1,0.1-0.2,0.1-0.3-0.1C909.4,699.1,909.3,698.8,909.3,698.8z M921.3,731.5c-0.1,0.1-1.1-2.3-2.3-5.3c-1.1-3-3.4-8.3-5-11.7
				c-4.2-9.4-4.6-10.2-4.4-10.5c0.6-0.5,4.8,8.4,8.8,18.2C920.4,727.4,921.7,731.1,921.3,731.5z M931.9,747.5
				c-0.1,0-0.3-0.3-0.4-0.6c-0.1-0.4-0.8-2.2-1.4-4s-2.4-6.3-3.9-9.9c-1.5-3.6-3.3-8.1-4.1-10.1c-1.8-4.7-3.8-9.9-5.6-13.9
				c-1.7-3.6-3.2-7.3-3.2-7.7c0-0.4,4.1,7.5,5.7,10.9c0.8,1.8,2.3,5.4,3.3,7.9c1,2.6,2.5,6.4,3.4,8.7
				C927.7,733.7,932.2,747.5,931.9,747.5z"/>
			<path class="st3" d="M942.3,139.9c-5.3-1.2-15-3.6-21.9-5.3c-6.9-1.8-22.8-5.7-35.5-8.9c-12.7-3.2-26-6.5-29.7-7.5
				c-3.6-1-6.6-1.8-6.8-1.8c-0.7,0.1,3.4,1.4,14.5,4.5c3.2,1,10.1,3,15.6,4.6c5.4,1.6,19.2,5.5,30.7,8.9c20.4,5.9,24,6.9,38.3,11.3
				c9.8,3,23.2,6.8,24.5,6.9c0.4,0,0.6-0.4,0.8-1.2c0.2-0.6,0.4-1.7,0.6-2.2c0.2-0.5,0.2-1,0-1.1C972.5,147.4,956,143.1,942.3,139.9
				z"/>
			<path class="st3" d="M833.3,88.5c1,0.3,7.1,2.2,13.6,4.3c38.8,12.5,116.9,38.2,126.6,41.8c2.6,1,2.6,1,2.7,0.2
				c0.2-1.1,0.7-5.5,0.9-8.3l0.2-2.7l-71.9-23.2c-39.6-12.9-72.2-23.2-72.3-23.2c-0.2,0-0.4,0.5-0.4,1.5c0,0.9-0.1,1.8-0.2,2.1
				c-0.2,0.6,0.2,0.8,2.8,1.8c1.6,0.6,5.5,2.2,8.7,3.4c9,3.8,20.4,8.1,27.9,10.6c3.8,1.3,9.8,3.4,13.3,4.7c3.4,1.3,6.7,2.4,7.2,2.6
				c0.5,0.2,0.7,0.3,0.6,0.4c-0.4,0.1-9-2.6-21.9-6.5c-4-1.2-12.8-3.8-19.4-5.6c-10.1-2.7-16.8-4.6-19.6-5.5c-0.4-0.2-0.5,0-0.5,0.6
				C831.5,87.8,831.7,87.9,833.3,88.5z"/>
			<path class="st3" d="M762.7,186.3c0,0.3,0.1,0.4,0.2,0.4c0.2-0.1,0.2-0.4,0.1-0.6C762.8,185.8,762.8,185.9,762.7,186.3z"/>
			<path class="st3" d="M775.8,109.3c-1.4,0.3-3.8,0.9-5.3,1.4c-2.6,0.9-2.9,1.1-5.1,3.2c-2.6,2.6-5,5.5-6.5,8.3
				c-1.5,2.6-3.3,6.8-3.4,8c-0.1,0.6-0.3,1.7-0.6,2.4c-2.1,6.4-1.8,21.2,1,40.6c1.4,9.7,3.2,20.1,3.4,19.8c0.1,0-0.1-2-0.3-4.3h-0.1
				c-0.2-2.4-0.5-5.5-0.6-6.9c-0.1-1.4-0.4-5.3-0.7-8.6c-0.3-3.3-0.6-7.3-0.7-8.9c-0.1-1.6-0.2-3.4-0.4-4.1c-0.1-0.6-0.1-1.1,0-1
				c0.2,0.2,1,3.6,2.6,11.5c1,4.8,3.8,15.7,3.8,14.9c0-0.4-0.3-2.6-0.7-4.8c-1.3-7.7-2.6-20.4-2.9-28.8c-0.4-8.9,1-14.2,5.3-20
				c4.3-5.7,8.2-8.6,14.8-11c2.5-1,2.6-1,1.2-0.9c-4.6,0.6-8.9,2.3-12.2,4.9c-1.3,1.1-2.4,1.8-2.5,1.8c-0.2-0.2,3.3-3.4,5.1-5
				c3.1-2.3,6.2-3.8,9.6-4.6l1.8-0.4l-1.8,0.2c-9.1,0.9-18,7.5-21.2,15.5c-0.6,1.7-1.5,5.3-2.1,8.8c-0.1,0.4-0.2-0.3-0.2-1.5
				c-0.2-4.6,1.8-10.5,4.9-15c1.7-2.5,5.5-6.2,8.1-7.9c7.3-4.7,15.7-6.4,23.7-4.8c1.8,0.4,2,0.4,2.4-0.1c0.2-0.2,0.4-0.5,0.4-0.6
				c0-0.2-5.5-1.4-8.6-2C784.9,108.7,778.8,108.7,775.8,109.3z M756.9,145.3c-0.1,0.6-0.2,0.2-0.2-1.2c0-1.4,0.1-1.8,0.2-1.2
				C757,143.5,757,144.7,756.9,145.3z"/>
			<path class="st3" d="M776.5,462.6c-0.3-1-1-5-1.6-8.8c-1.1-7.3-1.2-7.7-1.4-7.6c-0.2,0.2,0.6,9.2,1,12.2c0.2,1.1,0.3,3.3,0.3,4.6
				c0,1.3,0.1,3,0.2,3.8l0.2,1.3h1.3c1.2,0,1.3-0.1,1.1-0.6c-0.1-0.4-0.3-1.1-0.4-1.8C777.1,465,776.8,463.6,776.5,462.6z"/>
			<path class="st3" d="M776.5,309.2c0,0.5,1.2,10.1,1.8,13.5c0.6,4,1.9,14.3,3,24.4c1.1,9.7,2.3,19.4,3.4,27.1
				c0.5,3.6,1.3,9.3,1.8,12.5c1.1,8.3,3.2,22,4.2,27.4c0.4,2.5,1,5.5,1.1,6.8c0.4,3.1,2.7,14.1,4.1,19.9c0.4,1.6,1.4,5.5,2.1,8.7
				c0.8,3.3,1.4,5.7,1.5,5.7c0-0.1-3.7-29.5-8.3-65.2c-9.2-71.5-8.2-65.6-11.3-73.4C778.2,312.4,776.5,308.9,776.5,309.2z"/>
			<path class="st3" d="M738.1,191.6c0.1-0.2-0.3-3.3-0.8-7c-1.8-12.9-2-16.8-2.3-32.6c-0.3-15.2-0.2-16.8,0.9-23.2
				c0.3-1.8,0.5-3.3,0.4-3.4c-0.2-0.2-0.4,0.8-1.3,6c-0.5,2.8-1,5.5-1.1,6.1c-1.1,4.5-1.8,16.8-1.1,23.6c0.3,3.6,1.3,10.9,2.2,16
				C736,183.6,737.9,192.4,738.1,191.6z"/>
			<path class="st3" d="M631.3,212.3c2.7-0.5,2.6-0.2,3.7-4.6c1.1-3.8,2.6-11,3.8-17.6c1.1-6.1,3.1-16.1,4.3-21.4
				c0.4-1.7,2.1-9.5,3.8-17.4c1.7-7.9,3-14.6,3.1-15c0.2-0.6,0.2-0.6,0.2,0c0,0.7-2.5,15-4,23.2c-2.3,12.1-3.1,17.3-4.1,25.8
				c-0.7,6.9-1.8,20.6-1.8,23.4c0,1.8,0.1,2.1,0.5,2c0.4-0.2,9.3-1.4,9.9-1.4c0.3,0,0.8-2.4,1.3-6.2c0.8-5.9,3.2-17.6,3.8-18.1
				c0.1-0.1,0.2,1,0,2.4c-0.1,1.4-0.2,6.9-0.3,12.1l-0.2,9.4l2.9-0.2c9.2-0.6,12.7-0.8,24-1l12.6-0.2l0.2-1.8
				c0.6-5.7,1.3-34.8,1.5-58.1c0.2-15.9,0.4-20.2,1.1-25.1c1.4-8.3,6-19,10.5-24.7c2.1-2.6,5.7-6.2,8.4-8.5
				c5.4-4.4,14.1-9.2,20.9-11.4c4.1-1.3,8.2-2.2,8.7-1.9c0.2,0.1-1.4,0.7-3.6,1.4c-4.2,1.4-9.6,3.9-12.9,6.1
				c-6.5,4.2-14.1,11.4-17.3,16.4c-4,5.9-6.9,13.4-8.3,21.8c-0.6,3.3-0.6,4.4-0.6,18c0,8,0.2,19.4,0.3,25.2
				c0.2,5.9,0.4,17.8,0.6,26.5c0.2,8.7,0.4,15.9,0.5,16c0.2,0.1,4.5,0.2,9.7,0.3l9.4,0.2l-0.2-1.1c-0.4-2.5-1.7-14.5-2.2-20.9
				c-2.4-28.9-1.7-47.1,2.5-62.8c1.2-4.8,2.2-7,4.8-11.7c3.9-6.7,7-10.5,13.3-15.4c3.4-2.8,9-5.6,13.1-6.6c2.6-0.6,3.5-0.8,7.5-0.8
				c6.3-0.1,10.9,1,14.3,3.1l1.5,1l-4.3,0.2c-6.1,0.2-10.2,1.2-14.7,3.7c-8.9,4.8-15,14.4-18.1,28.2c-2.4,10.6-3.1,22.8-2,33.4
				c0.6,5.3,2.6,18.5,2.7,18.7c0.1,0.1,0.1-0.8,0-2c-0.2-1.1-0.4-5.7-0.5-10.1c-0.6-15,0.6-30,3.1-40.5c4.1-17.3,13-27.1,26.7-29.4
				c3.6-0.6,3.8-0.5,1.3,0.4c-11.3,4.2-17.7,10.1-22.4,20.6c-1.2,2.7-3.1,8-3.4,9.5c-1.2,6.5-1.7,9.6-1.8,14.9
				c-0.1,3.1-0.1,5.3,0,4.8c0.1-0.4,0.4-2.4,0.6-4.2c0.9-6.7,3.1-13.6,6.9-21.1c2.4-4.6,4.6-7.7,7.5-10.1c4-3.4,8.5-5.7,13.9-6.9
				c2.3-0.5,3.8-0.6,9.1-0.6c5.9,0,6.5,0.1,9.8,0.8c1.8,0.5,4.1,1,4.8,1.2c1.4,0.4,1.4,0.4,1.5-0.3c0.2-0.4,0.2-0.8,0.1-0.8
				c-0.3-0.3-4.8-1.4-7.3-1.9c-4.2-0.9-12.4-1.1-15.7-0.4c-1.4,0.3-2.6,0.4-2.7,0.4c-0.2-0.2,5.3-1.4,7.7-1.7
				c3.3-0.4,10.9-0.4,15.1,0.2c4.8,0.6,4.6,0.6,4.4-0.4c-0.1-0.8-1.7-1.8-6.2-3.8c-1.1-0.5-2.1-1-2-1.1c0.1-0.1,1.6,0.4,3.3,0.9
				c1.8,0.5,3.8,1.1,4.6,1.1c1.3,0.2,1.3,0.2,1.6-0.7c0.2-0.5,0.4-1.1,0.4-1.1c0-0.4-4.5-2.7-8.7-4.6c-7.2-3.3-14.8-5.7-21.7-6.9
				c-3.1-0.6-4.8-0.6-10.7-0.7c-3.9,0-8,0.1-9.2,0.2c-3.6,0.4-2-0.1,2.4-0.6c9-1.3,14.9-1,24.8,1c6.9,1.4,13.6,3.7,20.8,7.1
				c1.7,0.7,3,1.3,3.1,1.3c0.2-0.2,1-3.4,1-3.9c0-0.6-15.3-8.2-24.3-11.9c-7.3-3-22-7.5-28.4-8.6c-4.1-0.8-5.3-1.2-2.5-1
				c4.8,0.4,15.7,2.9,21.6,4.8c3,1.1,12.1,4.5,15,5.6c2.2,1,10.4,4.7,15.3,7c2,1,3.7,1.8,3.8,1.7c0.2-0.3,0.7-3.3,0.5-3.3
				c-0.2,0-1-0.4-1.8-1c-3.8-2.1-11.3-5.6-16.1-7.7c-18-7.3-25.1-9.3-41.4-11.5c-4.6-0.6-15.3-0.7-20.3-0.2
				c-4.3,0.5-11.5,2.1-16.5,3.8c-5.6,1.8-10.2,4.1-14.7,7.3c-7,5-10.5,8.2-14.8,13.6c-1.2,1.5-2.4,3-2.6,3.2
				c-0.4,0.4-0.4,0.4-0.1-0.3c1.1-2.2,4.1-6.1,8.2-10.8c1.8-2.1,5.8-5.6,8.4-7.3c8.7-6.1,21.8-10.9,36.2-13.1
				c4-0.6,15.3-0.9,19.3-0.4c13.5,1.4,26.5,5.2,43.6,12.5c6.9,3,9.9,4.2,12.1,4.8c1.5,0.5,1.7,0.5,1.7,0c0-0.3-1-1.1-2.8-2.1
				c-4-2.4-15.7-8.2-19.6-9.8c-1.8-0.7-3.3-1.4-3.4-1.7c-0.2-0.4,0.3-0.3,6,1.9c2.6,1.1,8,3.4,12,5.3c4,1.8,7.5,3.4,7.7,3.4
				c0.3,0,0.4-0.2,0.4-0.5c-0.2-1-14.7-8-24-11.7c-16.9-6.5-30.4-9.7-45.6-10.8c-8.5-0.6-19.1,0.4-28.9,2.7
				c-10.5,2.6-18.8,6.7-29.5,14.6c-3.3,2.4-10.9,9.9-13.7,13.5c-6.2,7.7-11.2,17.4-15.3,29.5c-1.1,3.3-1.1,3.3-0.6,3
				c0.2-0.2,0.2-0.1,0.1,0.3c-1.4,3.7-4.8,17.6-6.5,26.7c-0.5,2.7-1.4,6.9-1.8,9.3c-0.5,2.5-1.1,5.9-1.4,7.7s-1.8,10-3.4,18.3
				c-2.6,12.7-7.3,38.2-7.3,38.7C628.5,212.9,628.6,212.9,631.3,212.3z M722.3,105.8c-0.7,2-2.7,8.5-3.5,11.6
				c-4.2,15.7-6.8,38.6-6,53.7c0.2,4.3,0.2,5.1-0.1,3.9c-0.1-0.4-0.4-3.3-0.6-6.5c-0.2-3.2-0.6-8.1-0.9-11.1
				c-1-11.6-0.3-22.9,1.8-31.2c1.8-6.9,4.2-13.3,7-17.6C721.5,106.2,722.6,104.8,722.3,105.8z M772.5,101.6
				c-0.4,0.2-0.4,0.2-0.2-0.2c0.2-0.2,0.4-0.3,0.5-0.2C773,101.3,772.9,101.5,772.5,101.6z M680.5,120.1c1-5.5,1.8-9.5,3.4-13.7
				c2.5-7.2,7.2-15.5,11.6-20.1c3.3-3.5,9-7.7,14.5-10.4c1.8-1,9.7-4.1,10.1-4.1c0.2,0-1,0.7-2.5,1.6c-3.3,1.8-6.4,4.3-10.7,8.1
				c-6.6,5.8-10.5,11-15.3,20.4c-5.6,11.3-7.8,18.1-10.2,31.9c-1.8,10.8-1.8,11.1-2.2,14.9c-0.1,1.9-0.2,3.3-0.3,3.2
				c0-0.2-0.1-4.6-0.1-9.9C678.9,131.8,679,129,680.5,120.1z"/>
			<path class="st3" d="M893.6,760.3c0.6,3.9,2.2,16.6,2.2,18c0,0.3,0.5,0.3,2.5,0.2c1.4-0.1,2.6-0.2,2.6-0.3
				c0.5-0.5-2.6-17-4.8-25.4c-2.2-8.4-6.2-21.3-7.7-24.5c-0.2-0.3-0.8-1.8-1.4-3.4c-3-7.7-12.1-25.3-14.4-27.9
				c-0.6-0.7-0.6-0.7-0.3-0.2c3.8,6.5,8.5,15.9,10.4,21C886.8,728.9,891.3,746,893.6,760.3z"/>
			<path class="st3" d="M800.4,117.8c-1.3,2.6-2.3,5-2.3,5.2c0,0.7,3.2-4.6,5.2-8.8c2.1-4.4,3.1-6.6,5.6-12.7c1.3-3.1,1.8-4,2.2-4
				c0.4,0,0.5,0.2,0.4,0.5c-3,9.8-4.6,14.3-6.2,18.1c-2.7,6.3-5.3,11-7,13.3c-1,1.1-1,1.2-0.5,2.2l0.4,1l0.7-0.9
				c1.4-1.8,3.5-5,5.4-8c2.1-3.6,2.2-4,4.2-9.3c1.1-2.8,1.7-4,2-4.1c0.6-0.2,0.5,0.6-1.8,7.4c-2.4,7.3-4.2,11.2-7.2,15.8l-0.5,0.8
				h0.7c0.6,0,1.1-0.4,2.3-2.1c2.5-3.3,4.2-6.3,6.2-10.4c1.3-2.6,1.8-3.7,2.2-3.7c0.4,0,0.5,0.2,0.4,0.6c-0.3,0.9-3.2,8.5-3.8,9.8
				c-0.8,1.6-0.2,1.3,1-0.6c3-4.7,8-16.2,11-25.2c4.4-13.8,6.2-24.8,5.5-32.8c-0.2-2.2-0.5-4-0.7-4.3c-0.5-0.8-3.5-3-5.2-3.9
				c-2.2-1.1-4.2-1.7-6.2-1.7h-1.9l0.2,6.2c0.2,9.2-0.8,17.2-3.5,27.8C806.6,103.1,804.1,109.9,800.4,117.8z M817.8,97.8
				c0.5-0.2,0.6,0,0.4,1.4c-0.6,4.3-3.4,13.3-4.2,13.4c-0.2,0.1-0.5,0-0.6-0.2c-0.2-0.3,1.8-8.2,3-11.7
				C817,98.6,817.4,97.8,817.8,97.8z M815.2,77.9c0.4,0.3,0.4,0.4-0.1,2.1c-0.4,1.8-0.8,2.2-1.2,1.8c-0.2-0.2-0.2-1-0.2-1.8
				C813.7,78,814.1,77.3,815.2,77.9z M812.1,90.3c0.5-2.6,0.9-3.7,1.3-3.7c1,0,0,4.6-1,4.7C811.9,91.4,811.9,91.3,812.1,90.3z
				 M812,102.4c0.1-0.8,0.6-2.6,1.1-4c0.6-1.4,1.1-3.3,1.4-4.1c0.3-1.1,0.5-1.5,0.9-1.5c0.7,0,0.7-0.1,0,2.7c-0.3,1.3-0.7,3.3-1,4.3
				c-0.7,3-1.1,3.9-1.8,3.9C811.9,103.7,811.9,103.7,812,102.4z"/>
			<path class="st3" d="M792.1,612.6h1.1l-0.9-1.5c-4.3-7.7-7.7-14.6-11.7-23.7c-3.1-7-5.4-13.4-7.7-21.5c-1.1-3.6-2.6-8.2-3.7-10.4
				c-1.8-4-5.5-11.1-7.7-14.5l-1.3-2l0.2,1.3c0.4,2.5,1.8,8.8,3,12.7c6.5,21.8,12.1,35.8,18.7,46.6c3.3,5.4,7.7,12.1,8.3,12.6
				C790.8,612.4,791.5,612.6,792.1,612.6z"/>
			<path class="st3" d="M824.8,614.2h1.6l-1.4-1.5c-5.5-6.2-8.4-9.9-11.9-15.7c-0.5-0.9-1-1.4-1-1.2c0,0.9,7.4,13.6,10,17.2
				C823.2,614.2,823.2,614.2,824.8,614.2z"/>
			<path class="st3" d="M806.9,509.8c-0.6-0.6-0.5,1.5,0.6,12.9c0.5,4.7,1.8,12.1,3.4,17.9c1.2,4.3,4.8,14.7,6.6,19.2
				c5.5,13.4,14,27.5,23.6,38.9c4.3,5.2,14.8,15.4,17,16.6c0.6,0.4,1.8,0.5,1.8,0.2c0-0.2-0.7-0.9-1.6-1.6c-2-1.8-8.9-9.2-12.5-13.5
				c-21.5-25.5-35.3-56.4-38.5-85.8C807.2,512,806.9,509.9,806.9,509.8z"/>
			<path class="st3" d="M768.6,589.3c3,6.5,4.5,8.9,10.3,16.7c4.9,6.6,4.7,6.4,6.1,6.4c0.7,0,1.3-0.1,1.3-0.1c0-0.1-1.2-2.2-2.7-4.7
				c-3-4.9-7.5-13.6-9.9-19.2c-1.6-3.8-4.8-12.3-6.9-19.1c-2.2-6.7-5.4-20.2-6.4-27.1l-0.6-4.5l-2.2-3c-2.2-2.9-6.2-7.7-7.8-9.2
				l-0.8-0.7l0.2,2.3c0.2,2.4,1.1,7.6,2.2,12.1c0.3,1.4,0.6,3,0.6,3.4c-0.1,1.8-1-1.4-3.3-10.6l-2.4-9.7l-1.8-1.6
				c-3.3-2.7-6.9-5.2-9.8-6.6c-2.6-1.4-6.2-3-6.6-3c-0.2,0-0.3,2.2-0.4,5c-0.2,2.7-0.4,8.1-0.5,12.1c-0.4,8.3-0.2,20,0.4,26.2
				c0.8,8.2,3,20.3,5.3,29.5c0.4,1.2,0.6,2.3,0.5,2.4c-0.2,0.2-2.2-7.9-4-16.4c-3.6-16.7-5.1-30-6.5-56.7c-0.2-2.9-0.2-3.5-0.6-3.7
				c-1.2-0.4-4.3-0.8-8-1.1l-4.1-0.3l-0.2,4.1c-0.2,2.2-0.2,9.9-0.2,16.8c0,22.6,1,38.4,3.3,52.2c1.4,8.9,2.9,14.9,5.7,24l1.4,4.5
				l1.7,0.3c1,0.2,1.8,0.2,1.8,0.2s-0.4-1.8-1.1-3.9c-2.1-5.8-3.6-14.5-5.3-29.7c-1.1-9.4-1.1-11.3,0-3.4c0.5,3.3,1.1,7.6,1.6,9.4
				c1.4,6.6,5.2,17,9,24.5l1.4,3l4.8,0.3c4.8,0.4,27.9,1.1,28,0.9c0.1-0.1-0.7-1.1-1.8-2.4c-6.1-7.4-10.6-16.1-13.7-26.5
				c-3.2-10.7-4.8-18.8-5.5-27.4c-0.2-2.2-0.4-4.8-0.5-5.7s-0.1-1.7,0-1.6c0.2,0.2,0.4,1.4,0.5,3c1.1,11.2,3.6,20.2,8.5,31.7
				c3.6,8.4,8.1,15.3,16.4,25l3.7,4.2l4.1,0.2c2.3,0.2,4.2,0.2,4.3,0.1c0.1-0.2-0.2-0.6-0.7-1.3c-2.2-2.8-5.2-8.9-6.4-13
				c-0.4-1.1-1.1-3.4-1.8-5c-1.4-3.4-3.4-9.3-3.3-9.5C765.7,583.1,767,585.9,768.6,589.3z"/>
			<path class="st3" d="M815.2,613.4h1.7l-3.6-5.3c-8.2-12.1-15.6-26.6-22.1-43.4c-1.4-3.7-2.6-6.6-2.7-6.5
				c-0.2,0.2,6.3,19.2,8.6,25.1c3.8,9.3,8.4,18.7,13.1,26.3C812.5,613.3,812.5,613.3,815.2,613.4z"/>
			<path class="st3" d="M785.6,539.7c1.2,6.1,1.6,6.1,0.5,0c-1-5.8-1.2-8.4-1.8-16.3c-0.1-1-0.2-4.1-0.3-6.9
				c-0.1-2.7-0.2-5.5-0.3-6.2c-0.2-1.1-0.2-1.1-1.3-1.3c-0.6,0-1.1,0.1-1.2,0.2c-0.1,0.2,0,2.1,0.2,4.3c0.2,4.4,1.3,12.1,2.4,17.6
				C784.3,532.9,785.1,536.8,785.6,539.7z"/>
			<path class="st3" d="M800.4,612.1c0.5,0.7,0.8,0.9,1.8,0.9c0.7,0,1.3-0.1,1.3-0.2c0-0.1-1.6-2.6-3.6-5.5
				c-1.9-2.9-4.6-7.3-5.9-9.7c-3.2-5.7-4.4-7.9-4.6-7.7c-0.1,0,1.4,3.2,3.3,6.9s3.3,6.9,3.3,6.9C796.1,604,799.8,611.3,800.4,612.1z
				"/>
			<path class="st3" d="M735.5,932.3c-0.2,0.3,0.5,0.4,3.1,0.3l3.3-0.1l1.8-2.7c8.5-12.7,17.9-32.6,22.3-47.4
				c1.8-5.9,5.3-20,6.8-26.9c0.6-2.7,1.1-5.5,1.3-6.1c0.2-0.6,0.2-1,0-1c-0.2,0.1-0.4,1.1-0.7,2.4c-0.7,3.4-4.1,16.5-5.2,20.4
				c-1.1,3.9-4.6,13.2-5.3,14.2c-0.2,0.4-0.4,0.6-0.3,0.6c0.3,0-3.7,8.4-6.2,13.4c-4.2,7.9-9.7,16.7-17.5,28.1
				C737.2,929.9,735.6,932.1,735.5,932.3z"/>
			<path class="st3" d="M932.6,795.1c-0.2,0.2-0.2,0.2,0.2,0.2c0.3,0,0.4-0.1,0.4-0.2C933,795,932.8,795,932.6,795.1z"/>
			<path class="st3" d="M903.7,871.5c-2.1,6.4-6.9,18.4-10.1,24.8c-4.9,10-8.8,16.9-14.5,25.9l-3.7,5.7l3-1.6l3.1-1.5l2.6-4.5
				c2.5-4.4,6-11.3,8.2-16.2c3.2-6.9,12.5-33.2,12.5-34.9C904.7,868.8,904.3,869.9,903.7,871.5z"/>
			<path class="st3" d="M846.7,904.1l-0.5,1.4c-0.4,0.8-0.6,1.5-0.6,1.7c0,0.2,2.5-0.6,3.6-1.3c0.7-0.4,3.3-3.1,2.9-3.1
				c-0.2,0-1.4,0.3-2.8,0.6L846.7,904.1z"/>
			<path class="st3" d="M826.2,920.5c0.2,0.2,6.3-1.9,8.4-2.8c0.8-0.4,1.4-0.9,1.8-1.8c0.5-0.8,0.6-1.1,0.3-1.1
				c-0.2,0.1-1.9,0.4-4,0.8c-1.9,0.4-6.3,1.1-9.7,1.8c-7.7,1.4-10.7,1.9-13.1,2.2c-1,0.2-2.1,0.4-2.3,0.4c-0.4,0.2-2.5,3.4-3.7,5.5
				c-0.2,0.4,0.4,0.3,5.4-0.8c3.8-0.8,11.3-2.6,14.6-3.4c0.3-0.2,1-0.8,1.6-1.6c1.1-1.7,1.6-1.8,1-0.4
				C826.3,919.9,826.1,920.4,826.2,920.5z"/>
			<path class="st3" d="M892.9,835.8c-0.6,6.9-3.4,22.6-5.8,31.5c-1.8,6.6-4.6,16.5-4.8,17.1c-0.2,0.3-0.2,0.5,0,0.5
				c0.2,0,0.7-1.4,1.3-3.3c3.4-11.2,6.7-22.5,7.9-27.9c1.3-5.3,3-14.4,3.6-18.3c1.9-14.1,2.2-15.7,1.8-20.7l-0.3-3.4h-1.2
				c-0.6,0-1.2,0.1-1.3,0.2c-0.1,0.1-0.1,1.5,0.1,3.3c0.2,2.7-0.3,12.4-0.8,16.4C893.3,831.6,893,833.7,892.9,835.8z"/>
			<path class="st3" d="M796.2,883.5c6.3-14.6,9.1-26.3,10.5-44.7c0.4-4.4,0.4-16.2,0.1-19.7l-0.2-2.2l-1.6-0.1l-1.7-0.1l-0.2,2.2
				c-0.2,1.2-0.2,4.3-0.2,6.8c0,9.1-1,19.6-2.7,28.1c-3.1,15.3-10.2,33.6-19.9,51.1c-1.8,3.3-3.3,6.1-3.3,6.2
				c0.2,0.1,13.6-0.4,14.8-0.6c1-0.2,1.3-0.4,2-1.5c1.1-1.8,6.3-11.9,7.2-13.9c1.1-2.4,0.9-1.1-0.3,1.7c-1,2.6-1.6,4-4.6,10.2
				l-1.7,3.4l4.8-0.1c2.6,0,4.8,0,4.8,0.2s-9,1.9-9.9,1.9c-0.3,0-1,1.1-1.9,2.7c-0.8,1.5-1.9,3.5-2.5,4.4l-1,1.7l1.8,0.2l1.8,0.2
				l-2.1,0.4l-2.1,0.4l-1.8,2.6c-1,1.4-1.8,2.6-1.8,2.6c0,0.1,2-0.2,4.6-0.4c2.6-0.2,5-0.5,5.7-0.5c1.1,0,1.2-0.1,3.4-3
				c1.8-2.4,2.1-3,1.7-3.2c-0.4-0.2-0.3-0.2,0.2-0.2c0.4,0,1.4-1.2,4.1-5.3c7.3-11.2,12.9-21.7,16.3-31.5c2.7-7.5,5.4-18.2,6.7-26.4
				c0.3-1.9,0.4-2.2,0.4-1.1c0,1.7-0.8,7.1-2.3,15.3c-3,16.4-6.5,26.9-14.1,41.8c-1.4,2.7-2.6,5-2.6,5.1c0.1,0,1.1-0.2,2.2-0.5
				c1.2-0.3,5.6-1.4,9.8-2.3c6.7-1.6,12.9-3.4,17.8-5.3c1.4-0.5,1.6-0.6,2.6-2.9l1.1-2.3l-0.8,0.2c-2.4,0.4-9.3,1.6-10.6,1.7
				c-0.9,0.1-1.5,0-1.5-0.2c0-0.1,0.3-0.2,0.6-0.2c0.9,0,6.8-1.7,10.7-3l2.8-1l1.4-3.3c3.9-9.3,7-18.8,9.8-29.9
				c1.2-4.7,2.3-9.3,2.6-10.3c0.5-2.5,0.6-1.8,0.3,1c-1.4,11-5.1,27.2-8.5,37.8c-0.5,1.8-1,3.2-0.9,3.3c0.2,0.2,6.9-1.8,7.3-2.2
				c0.2-0.2,1.3-1.7,2.5-3.4c4.2-6.2,7.9-15.4,9.2-22.8c0.9-5.1,0.9-14.3,0-14.9c-0.2-0.1-0.3,0.1-0.3,0.4c0,0.9-1.8,8.1-4.1,16.6
				c-3,11-4.8,16.7-5.8,18.5c-0.5,1-0.5,0.7,0.5-2.6c0.4-1.3,1.7-6.3,2.8-11.3c2-8.6,3.3-15.7,4.2-24.4l0.4-4l-1-2.3
				c-2-4.5-4.6-8.5-8.8-13.7l-2.2-2.7l-0.6,5.2c-0.9,6.5-1.5,10.6-1.9,10.9c-0.2,0.2-0.2,0.2-0.1-0.3c0.2-0.3,0.3-4.6,0.4-9.3
				l0.1-8.9l-2.2-2.1c-1.2-1.2-2.7-2.6-3.4-3.1l-1.1-1l-0.3,1.8c-0.2,1-0.4,2.4-0.5,3c-0.4,1.9-0.7,1.4-0.7-1c0-1.2-0.1-3-0.2-3.8
				l-0.2-1.6l-3-1.9c-1.7-1.1-4.2-2.6-5.5-3.3l-2.5-1.2l-3.8,0.1c-2.1,0.1-3.8,0.2-3.8,0.2c0,0.1-0.2,2.4-0.4,5.2
				c-0.3,5.3-1.3,12.9-2.5,19.4c-0.4,2.1-1.1,6.1-1.6,8.8c-1,5.8-1.4,8.1-1.6,8c-0.1-0.1,0.2-3.4,0.7-7.5c0.7-6.1,0.9-8.5,0.9-13.7
				c0-6.9-0.5-19.4-0.9-19.7c-0.1-0.2-1.6-0.2-3.3,0l-3.1,0.2l0.2,3c0.2,3.9-0.3,14-1,19c-1.3,9.1-5,25.3-7,31
				c-1.1,3.2-9.2,19.4-10.2,20.8l-0.6,0.7l0.4-1C793.8,889.4,795,886.5,796.2,883.5z"/>
			<path class="st3" d="M710,932.8v-1c0-0.6,0.5-4.6,1.1-8.9c0.6-4.4,1.3-9.2,1.4-10.8c0.4-3.3,1.6-13.3,1.8-14.9
				c0.2-0.6,0.2-1-0.1-0.7c-0.2,0.2-0.7,2.3-1.2,4.8c-0.5,2.5-1.4,6.6-2.1,9.2c-0.6,2.6-1.8,7.9-2.6,11.7c-0.8,3.8-1.6,7.7-1.8,8.5
				c-0.2,0.8-0.4,1.6-0.4,1.8s0.9,0.2,1.8,0.2H710z"/>
			<path class="st3" d="M699.6,939.6c-164.6,0-165,0-165.4,0.6c-0.4,0.4-0.4,0.6-0.2,0.6c4,0.1,16.5,0.6,20.2,1
				c4.1,0.4,16.3,0.9,26.7,1.1c1.2,0,2.2,0.2,2,0.3c-0.2,0.1-5.6,0.3-12.1,0.5c-6.5,0.2-16.2,0.6-21.3,1c-5.2,0.4-9.8,0.7-10.2,0.7
				l-0.9,0.1l0.7,0.3c0.4,0.2,9.2,0.3,23.5,0.5c16,0.2,24,0.3,27.2,0.7c2.5,0.2,7.1,0.6,10.3,0.7c3.3,0.2,5.7,0.5,5.5,0.6
				c-0.2,0.2-4.9,0.3-10.5,0.3c-9.9,0.2-13.5,0.4-32.3,2.1c-4.5,0.4-8.6,0.7-9.3,0.8c-0.7,0.1,2.7,0.2,7.7,0.3
				c4.9,0.2,11.8,0.4,15.3,0.5c3.4,0.2,10,0.4,14.5,0.6c4.6,0.2,10,0.4,12.2,0.6c2.2,0.2,6.8,0.4,10.1,0.6c3.3,0.2,6.2,0.4,6.4,0.6
				c0.2,0.2-5,0.3-11.7,0.4c-12.1,0.2-38.2,1.1-42,1.7c-1.5,0.2,0.2,0.2,6.1,0.3c4.5,0,10.8,0.2,14.1,0.3c3.3,0.2,11.8,0.4,18.8,0.6
				c16.6,0.4,35,1.5,33,2.1c-0.5,0.2-6.9,0.3-14.1,0.5c-7.3,0.2-16.1,0.4-19.6,0.6c-3.4,0.2-8.5,0.4-10.9,0.5
				c-3.5,0.2-1.5,0.2,8.5,0.2c12.5,0.1,23.5,0.5,29,1.2c1.3,0.2,7.7,0.3,14.3,0.5c6.6,0.1,12.1,0.2,12,0.3c-0.3,0.2-7.7,0.7-15.2,1
				c-4.7,0.2-9.7,0.4-11.1,0.6c-1.4,0.2-5.9,0.5-9.9,0.7c-20.3,1.3-23.1,1.2,78.7,1.2c81.4,0,94.8-0.1,90.7-0.3
				c-2.6-0.2-8.1-0.6-12.1-0.9c-4-0.2-8.5-0.6-9.9-0.7c-1.4-0.2-6.4-0.4-11.1-0.6c-7.6-0.2-14.9-0.7-15.2-1c-0.1-0.1,5.3-0.2,12-0.3
				c6.6-0.2,13-0.4,14.3-0.5c5.5-0.7,16.5-1.1,29-1.2c10,0,12.1-0.1,8.5-0.2c-2.6-0.2-7.5-0.3-10.9-0.5c-3.4-0.2-12.3-0.5-19.6-0.6
				c-7.3-0.2-13.6-0.4-14.1-0.5c-2-0.6,16.4-1.8,33-2.1c7-0.2,15.6-0.4,18.8-0.6c3.3-0.2,9.7-0.3,14.1-0.3c5.9-0.1,7.6-0.2,6.1-0.3
				c-3.8-0.5-29.9-1.5-42-1.7c-6.6-0.1-11.9-0.2-11.7-0.4s3.1-0.3,6.4-0.6c3.3-0.2,7.8-0.4,10.1-0.6c2.2-0.2,7.7-0.4,12.2-0.6
				c4.6-0.2,11.1-0.4,14.5-0.6s10.4-0.3,15.3-0.5c4.9-0.2,8.4-0.2,7.7-0.3s-4.9-0.4-9.3-0.8c-18.8-1.7-22.4-1.9-32.3-2.1
				c-5.5-0.1-10.2-0.2-10.5-0.3s2.2-0.4,5.5-0.6c3.2-0.2,7.8-0.5,10.3-0.7c3.2-0.4,11.2-0.5,27.2-0.7c14.3-0.2,23.1-0.4,23.5-0.5
				l0.7-0.3l-0.9-0.1c-0.4,0-5-0.3-10.2-0.7c-5.1-0.4-14.8-0.8-21.3-1c-6.5-0.2-12.1-0.4-12.1-0.5c-0.2-0.2,0.8-0.3,2-0.3
				c10.5-0.2,22.7-0.7,26.7-1.1c3.8-0.4,16.3-1,20.2-1c0.3,0,0.3-0.2-0.2-0.6C864.6,939.6,864.2,939.6,699.6,939.6z M613.5,947.9
				c0-0.7,1.9-0.9,10.4-1c6.7-0.1,9.9,0,13.4,0.4c2.6,0.2,8.8,0.7,14,1c5.1,0.3,9.7,0.6,10.2,0.6c1.5,0.2-6.2,0.2-10.8-0.1
				c-2.5-0.2-11.3-0.2-19.7-0.2C616,948.5,613.5,948.5,613.5,947.9z M628.9,954.3c-0.3-0.4,0.2-1.1,1-1.3c0.8-0.2,8.5,0.2,13.5,0.8
				l3.2,0.4l-1.8,0.2C642,954.6,629.1,954.6,628.9,954.3z M659,959.6c-3.1,0.1-7.8,0.1-10.5,0c-9.9-0.4-2.6-1,11.3-1
				C674.2,958.6,673.6,959.3,659,959.6z M711.5,965.2c-5.3,0.3-18.9,0.3-24.5,0c-8.9-0.5-15-1-15.7-1.2c-0.5-0.2-0.6-0.3-0.3-0.6
				c0.8-0.9,56.2-0.9,57,0C728.9,964.2,726.9,964.4,711.5,965.2z M752.4,959.5c-1.8,0-5.3,0.1-7.8,0.2c-2.6,0.1-6.7,0-9.1-0.2
				c-2.4-0.2-4.9-0.2-5.6-0.3c-1.1,0-1.2-0.1-0.6-0.3c0.8-0.3,18-0.4,22.7-0.2c1.8,0.2,3.3,0.4,3.4,0.5
				C755.4,959.4,754.1,959.5,752.4,959.5z M770.3,954.3c-0.2,0.3-13.3,0.3-16,0c-1.5-0.2-1.4-0.2,1.6-0.5c4.9-0.6,12.7-1,13.5-0.8
				C770.1,953.2,770.6,953.9,770.3,954.3z M785.6,948.1c-0.1,0.2-8.6,0.3-18.9,0.4c-10.4,0.1-21.2,0.2-24.3,0.3
				c-3,0.2-5.2,0.2-4.8,0.1s5-0.4,10.4-0.7c5.3-0.3,11.5-0.8,13.8-1c4.6-0.4,17.8-0.6,21.2-0.2C785.2,947.3,786.1,947.7,785.6,948.1
				z"/>
			<path class="st3" d="M742.3,854c1.3-3,3.4-10.3,4.4-14.9c0.6-2.7,3.3-19.6,3.3-20.3c0-0.1-0.8-0.2-1.8-0.2h-1.5l-0.2,1.5
				c-0.1,0.9-0.2,2.6-0.3,4c-0.3,4.2-2.7,22.8-3.3,25.8c-0.4,1.6-1,3.7-1.3,4.6c-0.8,1.9-0.8,1.8-0.4,1.8
				C741.2,856.4,741.7,855.3,742.3,854z"/>
			<path class="st3" d="M937.6,789c-1.4,0.4-1.4,0.7,0.2,0.6c1.3-0.2,1.5-0.1,2.3,0.8c1.5,1.5,1.2,3.8-0.6,4.8
				c-0.5,0.3-0.5,0.3,0.2,0.3c0.4,0,1.1-0.2,1.7-0.4c1-0.5,1.1-1,1.1-2.6C942.4,790.2,940,788.4,937.6,789z"/>
			<path class="st3" d="M774.4,915.2c-0.2,0.3-1.2,1.9-2.2,3.5c-1.1,1.7-1.9,3-1.9,3.2c0,0.2,11.6-0.2,12.9-0.4
				c0.9-0.2,1.5-0.9,4.4-4.2c2.1-2.6,3.2-4,3-4.1c-0.2-0.1-2.2,0.2-4.6,0.4c-2.2,0.3-5.7,0.6-7.7,0.8
				C775.3,914.6,774.6,914.8,774.4,915.2z"/>
			<path class="st3" d="M867.6,923.5c-2.4,3.4-4.6,6.3-4.7,6.5c-0.5,0.7-1.5,2.1-1.8,2.6c-0.4,0.6,2.2,0.5,2.7-0.2
				c0.2-0.3,0.8-1.2,1.3-2.1c0.4-0.9,2.2-4.1,3.9-7.1c1.8-3.1,3.1-5.7,3-5.7C872,917.4,870,920.2,867.6,923.5z"/>
			<path class="st3" d="M778.2,923.9c-4.1,0.4-10.4,1.4-10.5,1.4c-0.7,1-2.6,3.4-3.9,5c-1,1.1-1.8,2.2-1.8,2.3
				c0,0.2,2.6,0.2,5.7,0.1l5.7-0.2l3.3-3.4c1.8-1.9,3.8-4,4.3-4.6l1-1.1L778.2,923.9z"/>
			<path class="st3" d="M694,798.2c0.2,0.6,0.2,0.6,5.6,0.6c5.4,0,5.4,0,5.6-0.6c0.2-0.4,0.5-1,0.8-1.3l0.6-0.6h-6.9h-6.9l0.6,0.6
				C693.5,797.2,693.9,797.8,694,798.2z"/>
			<path class="st3" d="M625.1,851.8c-0.4-1.6-0.8-3-0.9-3c-0.6-0.6,1.8,9.6,4.1,16.9c1.4,4.7,6.5,19.7,7.9,23.3
				c5,13,14.1,29.5,22.4,40.5l2.5,3.3h2.6c2.6,0,2.6,0,2.2-0.5c-0.2-0.3-2.4-3.3-4.8-6.4c-11.9-15.7-22-33.9-27.9-49.9
				C630.3,868.4,625.9,854.8,625.1,851.8z"/>
			<path class="st3" d="M914.8,802.7c-4.7,0.1-4.8,0.1-3.4-0.4c0.8-0.2,2.8-0.7,4.5-1s4.1-1,5.6-1.3l2.6-0.7l-3,0.2
				c-1.7,0.1-5.3,0.4-8.1,0.6c-5.9,0.4-12,0.7-11.7,0.5c0.2-0.2,7.7-1.4,14.5-2.4c6.9-1,17.2-3,13.7-2.7l-2,0.2l1-0.9
				c1.2-1,1.6-2.7,0.8-4c-1-1.4-4.5-2.6-5.4-1.7c-0.2,0.2,0.1,0.3,0.9,0.2c1.4-0.2,2.4,0.4,3,1.7c0.7,1.4,0.3,2.7-1.1,3.9
				c-1.1,0.9-1.1,0.9-6.1,1l-5.1,0.2l0.4-0.8c0.2-0.5,0.6-0.9,0.8-0.9c0.8,0,5.6-1.2,5.6-1.4c0-0.9-0.5-1-3.6-0.6
				c-3,0.3-3.2,0.3-3.7-0.3c-0.7-0.6-2.6-1.4-3.3-1.4c-0.3,0.1-0.1,0.2,0.5,0.4c1.4,0.5,2.4,2,2.2,3.3c-0.3,2-2.7,3.3-4.5,2.3
				c-0.4-0.2-1.8-0.2-4.5,0.2c-2.2,0.3-5.6,0.5-7.7,0.6l-3.7,0.2l-1-1c-1.1-1.1-1.3-2.2-0.7-3.4c0.2-0.4-0.2-0.5-7.4-0.7
				c-10.8-0.3-11.5-0.6-2.1-0.8c4.3-0.2,8.5-0.3,9.3-0.4c1.2-0.2,1.4-0.1,1.2,0.4c-0.2,0.3-0.1,0.4,0.4,0.2c0.7-0.4,1.8-0.4,2.6,0.1
				c1.8,0.9,2.2,3.3,1,4.7c-0.4,0.4-0.6,0.7-0.4,0.7c0.2,0,2.8-0.3,5.9-0.7c3.2-0.4,5.7-0.7,5.8-0.7s0-0.3-0.1-0.6
				c-0.2-0.4-0.2-1-0.2-1.4v-0.8l-3-0.2c-1.7-0.2-3.7-0.2-4.5-0.2c-1.1,0-1.6-0.2-2.1-0.6c-0.8-0.8-0.6-1.1,0.7-1.1
				c1.9,0,22.6-2.6,28.6-3.6c6-1,13-2.5,12.8-2.6c0-0.1-2.6,0.3-5.8,0.8c-6.5,1-14,1.8-20.3,2.3c-3.9,0.3-58.3,0.7-57.5,0.4
				c0.6-0.2,9.2-0.7,17.4-1c12.8-0.5,22.7-1.1,31.9-2c4.6-0.5,8.6-0.9,8.9-0.9c0.3,0,0.4-0.1,0.3-0.2s-4.1,0.1-9.2,0.3
				c-18,0.8-41.7,1.4-80,1.8c-12.3,0.2-32.5,0.4-45.1,0.6c-22.9,0.4-41.3,0.4-81.8,0.4c-40.6,0-59-0.1-81.8-0.4
				c-12.5-0.2-32.8-0.4-45-0.6c-38.3-0.5-61.9-1.1-80-1.8c-4.9-0.2-9.1-0.4-9.2-0.3c-0.2,0.1,0,0.2,0.3,0.2c0.2,0,4.2,0.4,8.9,0.9
				c9.2,1,19.1,1.5,31.9,2c8.2,0.3,16.8,0.8,17.4,1c0.8,0.3-53.7-0.2-57.5-0.4c-6.3-0.4-13.9-1.4-20.3-2.3c-3.2-0.5-5.8-0.9-5.8-0.8
				c-0.2,0.2,6.9,1.7,12.8,2.6c6,1,26.6,3.6,28.6,3.6c1.3,0,1.5,0.3,0.7,1.1c-0.5,0.5-1,0.6-2.1,0.6c-0.8,0-2.9,0.1-4.5,0.2l-3,0.2
				v0.8c0,0.4-0.1,1-0.2,1.4c-0.1,0.3-0.2,0.6-0.1,0.6s2.6,0.4,5.8,0.7c3.1,0.4,5.7,0.7,5.9,0.7s-0.1-0.4-0.4-0.7
				c-1.3-1.4-0.8-3.8,1-4.7c0.8-0.4,1.9-0.4,2.6-0.1c0.4,0.3,0.5,0.2,0.4-0.2c-0.2-0.4,0-0.5,1.2-0.4c0.8,0.2,4.9,0.3,9.3,0.4
				c9.4,0.2,8.7,0.5-2.1,0.8c-7.3,0.2-7.7,0.3-7.4,0.7c0.6,1.1,0.4,2.3-0.7,3.4l-1,1l-3.7-0.2c-2-0.2-5.5-0.4-7.7-0.6
				c-2.7-0.3-4.1-0.4-4.5-0.2c-1.8,1-4.1-0.3-4.5-2.3c-0.2-1.3,0.8-2.8,2.2-3.3c0.6-0.2,0.8-0.4,0.5-0.4c-0.7,0-2.6,0.8-3.3,1.4
				c-0.6,0.6-0.8,0.6-3.7,0.3c-3.1-0.3-3.6-0.2-3.6,0.6c0,0.2,4.8,1.4,5.6,1.4c0.2,0,0.6,0.4,0.8,0.9l0.4,0.8l-5.1-0.2
				c-5-0.2-5-0.2-6.1-1c-1.4-1.1-1.8-2.5-1.1-3.9c0.6-1.3,1.6-1.8,3-1.7c0.8,0.1,1.1,0,0.9-0.2c-1-0.9-4.4,0.2-5.4,1.7
				c-0.8,1.2-0.4,3,0.8,4l1,0.9l-2-0.2c-3.5-0.2,6.8,1.8,13.7,2.7c6.9,1,14.3,2.2,14.5,2.4s-5.8-0.1-11.7-0.5
				c-2.8-0.2-6.4-0.5-8.1-0.6l-3-0.2l2.6,0.7c1.4,0.4,4,1,5.6,1.3c1.7,0.3,3.7,0.8,4.5,1c1.4,0.4,1.2,0.4-3.4,0.4
				c-2.6-0.1-4.6,0-4.3,0.1c0.9,0.4,27.1,2.6,46.6,4.1c19.4,1.4,45.6,2.9,53,3c2.7,0.1,5.3,0.2,5.7,0.2c0.7,0.2,8.1,0.5,26.7,1.1
				c22.8,0.7,135.8,1,164.2,0.2c15.6-0.4,36.7-1.1,37.6-1.3c0.4-0.2,3-0.2,5.7-0.3c7.6-0.2,33.7-1.7,53-3
				c19.5-1.4,45.8-3.7,46.6-4.1C919.4,802.7,917.4,802.6,914.8,802.7z M883.6,795.3c1.3,0,2.4,0.3,2.4,0.6c0,0.3-0.6,0.5-2.1,0.7
				c-1.3,0.2-1.4,0.2-1.4-0.5C882.5,795.4,882.6,795.3,883.6,795.3z M853.7,796.9c0-0.6,1.4-2.1,2.3-2.3c1.8-0.3,3.8,1.2,3.8,3
				c0,1.1-0.9,2.4-1.8,2.7c-1.2,0.6-1.2,0.6-2.5-0.1c-0.6-0.3-1.1-0.9-1.4-1.4l-0.4-1l-5.3,0.2c-3,0.1-6.4,0.2-7.7,0.4
				c-2.1,0.2-2.4,0.1-2.4-0.3c0-0.4,0.6-0.5,5.5-0.5C850.6,797.6,853.7,797.4,853.7,796.9z M767.7,794.6c8.9-0.2,21.6-0.4,28.2-0.5
				c6.5-0.2,20.9-0.3,31.9-0.4c17.6-0.1,19.5-0.1,16.8,0.3c-1.7,0.2-4.6,0.5-6.4,0.6l-3.3,0.2l1,0.9c0.9,0.7,1,1,1,2.2
				c0,2.6-2.4,4-4.6,2.8c-0.6-0.3-1.1-0.9-1.6-2.1c0,0-3,0.2-6.5,0.3c-8.5,0.6-8.1,0.6-8.1-0.3v-0.7h5.8c6.9,0,8.9-0.2,8.9-0.8
				c0-0.3,0.4-0.9,0.8-1.3l0.8-0.9l-2.3,0.2c-1.3,0.1-5.1,0.3-8.5,0.5c-6.2,0.3-6.2,0.3-7.7-0.4c-1.8-0.7-3.4-0.6-4.6,0.3
				c-0.8,0.6-1.1,0.6-15.9,0.4c-18-0.2-41.4-0.7-41.5-1C751.6,794.9,758.8,794.7,767.7,794.6z M814.2,798.6c0,1.1-0.9,2.4-1.8,2.8
				c-1.1,0.5-1.4,0.5-2.3,0.2c-0.4-0.2-0.8-0.4-1-0.7c-0.3-0.4-1.1-0.4-8.1-0.3l-7.7,0.2l-0.5-1.1l-0.5-1h7.7h7.7l0.6-1.1
				c0.7-1.5,2.3-2.2,3.7-1.8C813.3,796.2,814.2,797.5,814.2,798.6z M766.6,799.2c-0.2-0.4,0.7-0.4,9.2-0.4c9.1,0,9.4,0,10.2-0.6
				c3-2.2,6.6,0.6,5.1,3.9c-0.6,1.5-3,2.1-4.6,1.1c-0.4-0.3-1-0.9-1.2-1.4l-0.4-0.9l-9.1,0.1l-9.1,0.2v-0.7
				C766.8,800,766.7,799.5,766.6,799.2z M759,797.9c1.1-0.8,2-1,3.3-0.6c2,0.6,3,2.8,2.1,4.7c-0.7,1.6-3,2.1-4.8,1
				c-0.6-0.3-1.1-1-1.3-1.4l-0.3-0.8l-4.6-0.2c-2.5-0.2-6.7-0.2-9.3-0.2c-2.6,0-5-0.1-5.2-0.2c-0.2-0.2-0.4-0.5-0.6-0.8
				c-0.2-0.6-0.2-0.6,9.9-0.8C757.6,798.5,758.3,798.5,759,797.9z M654.5,795c1.6-0.4,15.3-0.3,22,0c10.7,0.5,28.1,0.6,36.9,0.3
				c11.9-0.4,29.5-0.6,31.1-0.4l1.3,0.3l-2.2,0.2c-1.2,0.2-7,0.4-12.9,0.5c-18,0.5-20.8,0.6-20.4,1c0.3,0.2,0.6,0.8,1,1.5
				c0.4,1,0.4,1.4,0.2,2.3c-0.7,2.2-3.4,3-5.2,1.4c-0.4-0.4-0.9-1-0.9-1.1c0-0.6-1-0.7-5.7-0.7c-4.8,0-5.7,0.2-5.7,0.7
				c0,0.2-0.4,0.7-0.9,1.1c-1.1,1-3,1-4.1,0.2c-1.1-1-1.5-2.4-1-3.9c0.3-0.7,0.6-1.4,1-1.5c0.4-0.3-2.4-0.4-20.4-1
				c-5.9-0.2-11.7-0.3-12.9-0.5C653.6,795.2,653.5,795.2,654.5,795z M735.7,802.3c-1.2,1.3-2.8,1.4-4.1,0.3c-0.5-0.4-1-1.1-1.1-1.7
				c-0.3-1.1-0.6-1.4-1.8-1.4c-0.5,0-1-0.2-1-0.3c0-0.2,0.6-0.3,1.3-0.3c1.1,0,1.5-0.2,2.2-0.9c1.1-1.1,2.6-1.4,3.8-0.6
				C737.1,798.7,737.3,800.8,735.7,802.3z M717.4,804.2l2.5,0.2l-3,0.3c-4,0.5-20.5,0.7-27.9,0.4c-3.3-0.2-6.8-0.4-7.7-0.5l-1.8-0.2
				l2.5-0.2C690,803.4,709,803.4,717.4,804.2z M682.2,799.9c0.2-0.2,1.1-0.3,2.1-0.5c1.5-0.2,1.8-0.1,1.8,0.3c0,0.4-0.4,0.4-2.1,0.4
				C682.8,800.2,682.1,800.1,682.2,799.9z M713.1,799.8c0-0.4,0.3-0.4,1.8-0.3c2.6,0.3,2.7,0.7,0.3,0.7
				C713.5,800.2,713.1,800.1,713.1,799.8z M671.4,799.3c0,0.2-0.4,0.3-1,0.3c-1.2,0-1.5,0.3-1.8,1.4c-0.3,1.3-1.7,2.4-3.1,2.4
				c-1,0-1.3-0.2-2.1-1c-0.8-0.7-1-1.1-1-2.1c0-2.9,3.3-4.2,5.5-2.1c0.6,0.7,1.1,0.9,2.2,0.9C670.8,799.1,671.4,799.2,671.4,799.3z
				 M660.7,799.5c-0.2,0.3-0.4,0.6-0.6,0.8c-0.2,0.2-2.6,0.2-5.2,0.2s-6.9,0.1-9.3,0.2l-4.6,0.2l-0.3,0.8c-0.6,1.7-3.3,2.6-5,1.6
				v0.1c-1.6-1-1.9-3.4-0.7-4.8c1.4-1.6,3.3-1.8,5-0.6c0.7,0.6,1.4,0.6,10.8,0.8C660.7,798.8,660.7,798.8,660.7,799.5z M571.2,794.4
				c10.9,0.2,25.3,0.3,31.9,0.4c6.5,0.2,19.2,0.4,28.2,0.5s16.1,0.3,16,0.4c-0.2,0.3-23.5,0.9-41.5,1c-14.9,0.2-15.1,0.2-15.9-0.4
				c-1.2-1-2.8-1-4.6-0.3c-1.5,0.6-1.5,0.6-7.7,0.4c-3.4-0.2-7.3-0.4-8.5-0.5l-2.3-0.2l0.8,0.9c0.4,0.4,0.8,1,0.8,1.3
				c0,0.6,1.8,0.8,8.9,0.8h5.8v0.7c0,0.9,0.5,0.9-8.1,0.3c-3.5-0.2-6.5-0.3-6.5-0.3c-0.6,1.2-1,1.8-1.7,2.1c-1,0.5-2.2,0.6-3,0.1
				c-1.1-0.6-1.6-1.4-1.6-2.9c0-1.1,0.2-1.4,1-2.2l1-0.9l-3.3-0.2c-1.8-0.1-4.8-0.3-6.4-0.6C551.7,794.3,553.7,794.3,571.2,794.4z
				 M632.7,799.3c-0.1,0.3-0.2,0.8-0.2,1.2v0.7l-9.1-0.2l-9.1-0.1l-0.4,0.9c-0.8,1.7-3.1,2.4-4.8,1.4c-0.9-0.5-1.4-1.5-1.4-2.7
				c0-2.6,3.1-4.1,5.5-2.3c0.8,0.6,1.1,0.6,10.2,0.6C632,798.9,632.9,798.9,632.7,799.3z M607,798.6l-0.5,1l-0.5,1.1l-7.7-0.2
				c-7.3-0.2-7.7-0.2-8.2,0.4c-0.8,0.8-2.1,1-3.3,0.4c-1-0.4-1.8-1.8-1.8-2.8c0-1.1,1-2.5,2.2-2.8c1.4-0.4,3,0.3,3.7,1.8l0.6,1.1
				h7.7L607,798.6L607,798.6z M543.2,794.6c0.9,0.2,2.3,1.7,2.3,2.3c0,0.5,3.2,0.7,10,0.7c5,0,5.5,0.1,5.5,0.5
				c0,0.3-0.3,0.4-2.4,0.3c-1.3-0.2-4.8-0.3-7.7-0.4l-5.3-0.2l-0.3,0.9c-0.6,1.6-2.6,2.4-4.1,1.7c-1-0.4-1.8-1.8-1.8-2.7
				C539.5,795.8,541.5,794.2,543.2,794.6z M515.1,795.4c1.6-0.2,1.6-0.2,1.6,0.6c0,0.8-0.4,0.9-2.2,0.4
				C512.6,796,512.9,795.5,515.1,795.4z M512.3,799.6c1.4,0.2,3.8,0.3,5.3,0.4l2.7,0.2l-1-0.7c-1.8-1.5-1.8-3.8-0.4-5.2
				c1.6-1.4,3.4-1.2,5.1,0.6c0.6,0.6,1.1,0.9,1.8,0.9c0.6,0,2.2,0.2,3.5,0.3s3.4,0.4,4.7,0.4c1.2,0.2,2.2,0.3,2.2,0.4
				c0,0.2-0.6,0.2-1.4,0.2c-0.7-0.1-3.3-0.1-5.7,0.1c-4.2,0.2-4.4,0.2-4.6,0.9c-0.2,0.9-1.3,1.8-2.3,2.2c-1,0.2,4.6,0.7,12.9,1.1
				c8.2,0.4,17.9,1.1,18.8,1.4c1.1,0.3-3.6,0.3-13.1,0c-10.9-0.4-31.1-2.3-31.9-3C508.6,799.4,510,799.3,512.3,799.6z M573.7,808
				c-6.9-0.2-15.2-0.3-18.4-0.6c-20-1.1-20.6-1.1-37.6-2.9c-7-0.7-8-0.9-8.1-1.4c-0.2-0.3,0.7-0.3,5.3-0.2c5.5,0.2,7.5,0.3,19.7,1.1
				c20,1.4,29.3,1.8,47.7,2.5c5,0.2,12,0.4,15.3,0.6s10.9,0.4,16.8,0.6c5.9,0.2,10.8,0.4,10.9,0.4
				C625.5,808.3,589.1,808.2,573.7,808z M643.6,806.4c-0.2-0.1-7-0.2-15.3-0.4c-27.9-0.6-63.7-2.2-65.4-2.9
				c-0.5-0.3-0.5-0.3,0.2-0.2c0.4,0.1,5.4,0.3,11.1,0.4c5.7,0.2,12.1,0.4,14.4,0.4c2.2,0.2,14.2,0.3,26.7,0.4
				c12.5,0.2,26.7,0.4,31.9,0.7c18,0.8,23.3,1.1,22.4,1.3C668.7,806.5,644.1,806.6,643.6,806.4z M733.6,809.4
				c-5.3,0-12.1,0.2-15.1,0.4c-7.5,0.4-25.4,0.6-31.4,0.3c-11.3-0.6-21.4-0.9-26-0.7c-4.8,0.1-4.9,0.1-2.2-0.2
				c3.6-0.3,77.3-0.3,81.5,0C742.7,809.3,741.3,809.3,733.6,809.4z M729.7,806.3c-0.9-0.2,3.8-0.5,22.4-1.4c5-0.3,19.4-0.6,31.9-0.7
				c12.5-0.2,24.4-0.3,26.7-0.4c2.2-0.1,8.7-0.3,14.4-0.4c5.7-0.2,10.6-0.3,11.1-0.4c0.6-0.2,0.6-0.2,0.2,0.2
				c-1.5,0.6-33.8,2.2-63.4,2.9C757.8,806.4,730.9,806.6,729.7,806.3z M889.6,803c-0.2,0.6-1.1,0.7-8.1,1.4
				c-17,1.8-17.7,1.8-37.6,2.9c-3.3,0.2-11.6,0.4-18.6,0.6c-15.3,0.2-51.6,0.4-51.3,0.2c0.1-0.1,5-0.3,10.9-0.4
				c6-0.2,13.6-0.4,16.8-0.6s10.2-0.4,15.3-0.6c18.4-0.6,27.7-1.1,47.7-2.5c12.2-0.9,14.3-1,19.7-1.1
				C888.9,802.7,889.8,802.8,889.6,803z M890.2,799.8c-0.8,0.8-20.8,2.6-33.3,3c-10.4,0.4-12.9,0.4-11.7,0c1-0.3,10.6-1,18.8-1.4
				c8.4-0.4,13.9-1,12.9-1.1c-1-0.3-2.1-1.3-2.3-2.2c-0.2-0.6-0.3-0.6-4.6-0.9c-2.5-0.2-5-0.2-5.7-0.1c-0.8,0-1.4,0-1.4-0.2
				c0-0.1,1-0.2,2.2-0.4c1.2-0.1,3.3-0.3,4.7-0.4c1.4-0.2,3-0.3,3.5-0.3c0.7,0,1.1-0.2,1.8-0.9c1.8-1.8,3.5-2.1,5.1-0.6
				c1.4,1.4,1.3,3.7-0.4,5.2l-1,0.7l2.7-0.2c1.5-0.1,3.9-0.3,5.3-0.4C889.2,799.3,890.6,799.4,890.2,799.8z"/>
			<path class="st3" d="M791.1,931.9c1.1-0.2,1.3-0.3,2.4-1.8l1.1-2.1h-5.3h-5.3l-0.6,1c-0.4,0.4-1,1.3-1.5,1.9l-0.8,1.1l4.3-0.1
				C787.9,932.1,790.5,932,791.1,931.9z"/>
			<path class="st3" d="M802.2,928.2l-1.1,1.4c-0.6,0.7-1,1.4-1,1.5c0,0.2,1.4,0,5.1-0.7c2.9-0.6,9.1-2.3,8.9-2.6
				c-0.1,0-2.8,0-6.1,0.2L802.2,928.2z"/>
			<path class="st3" d="M942.4,784.5c-0.1-0.2-0.4-0.2-0.6-0.1c-0.2,0.2-0.2,0.2,0.2,0.2C942.3,784.6,942.4,784.6,942.4,784.5z"/>
			<path class="st3" d="M665.2,899.4c1.7,4.6,3.3,8.2,3.5,8c0.1-0.1-0.3-1.1-0.7-2.4c-0.6-1.8-6.1-20.2-6.5-22.4
				c-0.3-1.2-1.7-6.3-2-7.3c-1-2.8-2.8-11.4-4.6-21.1c-1.7-9.3-2.2-14.3-2.7-24.6c-0.2-3.4-0.4-7.3-0.4-8.5l-0.2-2.4h-1.9h-1.9
				l-0.2,1.7c-0.2,2.8,0.3,12.7,1,18.4c0.8,7.1,2,14.2,3.4,19.7C652.9,863.1,662.5,892.6,665.2,899.4z"/>
			<path class="st3" d="M959.9,794.1l-0.9,0.6h1.1c0.8,0,1.2-0.2,1.8-0.9c0.4-0.4,0.9-1.4,1-2c0.2-1.4-0.3-2.4-2-3.4
				c-1.4-0.8-2.6-0.8-3.6-0.1l-0.6,0.5l1.4-0.2c1.2-0.2,1.5,0,2.3,0.6C961.8,790.7,961.6,793.1,959.9,794.1z"/>
			<path class="st3" d="M971.6,774.5l-1.4-1l-6.7,2.6c-8.8,3.3-15.4,5-23.4,6.2c-7.2,1-13.6,2.2-12.9,2.2c1,0.2,12.1-0.8,18.8-1.7
				c4.9-0.6,6.7-1,8.6-1.4c0.7-0.2,1.8-0.4,2.6-0.6c2.1-0.4,6.4-1.9,8.9-3.2c1.5-0.7,2.6-1,3-1c1.9,0.5,5.7,3.9,6.9,6.2
				c0.8,1.5,0.7,1.8-0.4,1.1s-2.9-0.7-3.4-0.2c-0.3,0.3-0.2,0.4,0.5,0.3c1.3-0.3,2.8,0.6,3.4,1.8c0.9,1.8-0.4,4.1-2.5,4.5
				c-0.5,0.1-0.3,0.2,0.5,0.2c1,0,1.4-0.2,2.3-1l1.1-1v-3.2c0-3-0.1-3.2-1-5.3C975.3,777.8,973.6,775.8,971.6,774.5z"/>
			<path class="st3" d="M924.3,826.7c-1,7.3-3.4,19-5.2,25.3c-0.5,1.7-1,3.4-1.1,4c-0.9,3.1-3.5,12.3-3.9,13.2
				c-0.2,0.6-1.1,3.3-2.2,5.9c-2.6,7.1-5.5,14.1-9.5,22.5c-0.6,1.3-2,4.2-3.1,6.5s-2.8,5.5-3.8,7c-3.1,5-1.1,2.3,4.2-5.6
				c4.2-6.2,5.6-8.6,7.8-13.3c9.9-20.5,15.4-42.1,17.8-69.2C925.5,819.7,924.9,822.1,924.3,826.7z"/>
			<path class="st3" d="M566.4,920c-0.2-0.2-1.3-0.4-2.6-0.6c-5.8-0.9-15.5-3.3-23.1-5.8c-2.5-0.8-4.5-1.4-4.6-1.3
				c-0.2,0.1,5.5,5.2,6.4,5.8c0.6,0.4,7.3,2.4,13,3.8c3.3,0.8,13.9,3.1,15,3.3c0.2,0-0.6-1.1-1.8-2.6
				C567.7,921.3,566.6,920.1,566.4,920z"/>
			<path class="st3" d="M534.9,913.6l-1.9-2.6l-5.6-2.2c-5-2.1-7.3-3-13.1-5.7c-1.7-0.7-1.8-0.7-1.1-0.2c0.9,1,8.9,6.2,13.4,8.8
				c3.3,1.8,9.2,4.4,10.1,4.5C536.8,916.3,536,915.1,534.9,913.6z"/>
			<path class="st3" d="M573.5,919.1c2.7,0.4,19.1,2.6,19.2,2.6c0.1-0.1-0.6-1.4-1.6-3.1c-1-1.7-2-3.6-2.4-4.3
				c-0.4-0.7-0.9-1.4-1.1-1.5c-0.2-0.1-3.4-0.6-7.2-1.3c-6.8-1.2-17.5-3.3-18.4-3.7c-0.7-0.2,3.7,5.1,7.3,9.1l1.7,1.8L573.5,919.1z"
				/>
			<path class="st3" d="M576.4,923.9c2.1,1.8,3.5,3,4.1,3c1.1,0.2,15,1.8,16,1.8c0.7,0,0.7-0.1-1.3-3.2l-2-3.2h-1.5
				c-1.6,0-8.7-0.6-14.7-1.3c-2-0.2-3.8-0.4-3.8-0.3C573.2,921,574.6,922.3,576.4,923.9z"/>
			<path class="st3" d="M962.6,820.8c-1.1,4.1-2.2,7.4-5.9,17.8c-3,8.5-6.9,16.8-11.1,24c-1.2,2.1-2.7,4.8-3.4,5.9
				c-3.7,6.3-11.1,16.4-17.3,23.8c-1,1.2-0.2,0.4,2.2-1.8c2.1-2.2,5.2-5.5,6.8-7.3c16.8-19.4,26.9-40.6,29.6-61.2
				C964,816.3,963.8,816.1,962.6,820.8z"/>
			<path class="st3" d="M597.7,914.5c-1.8-0.3-3.1-0.5-3.2-0.4c-0.1,0.1,5.3,7.8,8.1,11.9c2.3,3.2,2.3,3.2,3.6,3.4
				c2.1,0.2,18.8-0.1,23.4-0.4l4.2-0.3l-1.7-2.2c-1-1.2-2.7-3.8-4-5.6l-2.3-3.4l-3.9-0.2C613.1,916.5,604.3,915.7,597.7,914.5z"/>
		</g>
	</g>
</g>
</svg>
