<?xml version="1.0" encoding="utf-8"?>
<!-- Generator: Adobe Illustrator 23.0.0, SVG Export Plug-In . SVG Version: 6.00 Build 0)  -->
<svg version="1.1" id="Layer_1" xmlns="http://www.w3.org/2000/svg" xmlns:xlink="http://www.w3.org/1999/xlink" x="0px" y="0px"
	 viewBox="0 0 134.4 408.1" style="enable-background:new 0 0 134.4 408.1;" xml:space="preserve">
<style type="text/css">
	.st0{fill:#FFF7E3;}
	.st1{fill:#202020;}
</style>
<path class="st0" d="M74.7,408.1c-11.1,0-23.1,0-34.4-0.1L16.2,408l-1.7-0.4c-2.4-0.6-3.6-1-5-1.8c-1.7-1-3.1-2.1-4.3-3.5
	c-3.4-4.1-4.5-7.8-4.9-16.5c-0.1-2-0.2-3.7-0.2-4.1C0,381,0,378.4,0,376.9c0-7.3,0.7-10.6,3.1-14.5l0.2-0.3l-0.1-37.8
	c-0.1-21.4-0.1-60.5-0.1-87v-46.7c-0.3-0.3-0.7-0.6-0.9-0.9l-0.1-0.2c-1.4-1.8-1.4-2-1.3-12l0-1.4c0.2-11.3,0.3-13.7,0.8-15.7
	c0.5-1.8,1.6-4.2,3.1-5.4c0.8-0.7,4.8-3.2,5.2-3.5c7.9-5,11-7.2,14.5-10.1c4.1-3.4,7.9-7.1,9.8-9.6c-0.1-0.4-0.2-0.8-0.3-1.2
	c-0.4-2.4,0.1-4.1,1.2-6.9c0.5-1.2,0.8-2.2,0.9-2.5c0.2-0.9,0-2.7-0.5-5.3c-0.3-1.6-0.8-4.3-1-6.2c-0.3-1.9-0.7-4.7-1-6.3
	c-0.4-2.8-0.5-3.3-0.4-6.3c0.2-6.1,0.8-9.7,3.8-22.2c2-8.3,2.8-12,3.2-14.8c0.9-6.3,1.1-10.7,0.5-14.3l-0.4-2.5l0-16.9
	c0-16.4,0-17.1,0.3-18.3c1-3.6,3.4-6.4,6.4-7.6L48.2,0h38l1.4,0.6c3,1.2,5.4,4.1,6.4,7.7c0.3,1.2,0.3,1.9,0.3,18.3l0,16.9l-0.4,2.5
	c-0.6,3.5-0.4,7.8,0.5,14.3c0.4,2.8,1.2,6.5,3.2,14.8c2.9,12.4,3.6,16.2,3.8,22.2c0.1,3,0.1,3.5-0.4,6.3c-0.2,1.5-0.7,4.4-1,6.3
	c-0.3,2-0.8,4.8-1,6.2c-0.5,2.5-0.7,4.3-0.5,5.4c0,0.2,0.4,1.3,0.8,2.5c1.1,2.8,1.6,4.5,1.2,6.9c-0.1,0.5-0.2,0.9-0.3,1.3
	c1.9,2.5,5.7,6.2,9.8,9.6c3.5,2.9,6.6,5.1,14.5,10.1c0.5,0.3,4.4,2.8,5.2,3.5c1.5,1.3,2.6,3.7,3.1,5.4c0.5,2,0.7,4.2,0.8,15.5l0,1.5
	c0.1,10,0.2,10.2-1.2,11.9l-0.1,0.1c-0.3,0.4-0.7,0.7-1,1v46.7c0,26.5,0,65.5-0.1,87l-0.1,37.8l0.2,0.3c2.4,3.9,3.1,7.2,3.1,14.5
	c0,1.8,0,4.1-0.1,4.9c0,0.3-0.1,2-0.2,4c-0.4,8.7-1.5,12.4-4.9,16.5c-2.7,3.3-6.6,5.1-11.7,5.6C115.5,408.1,81.5,408.1,74.7,408.1z"
	/>
<path class="st0" d="M131.4,376.9c0-6.8-0.6-9.6-2.7-12.9l-0.7-1.1l0.1-38.6c0.1-21.3,0.1-60.4,0.1-87V189l0.6-0.4
	c0.3-0.2,0.8-0.6,1-0.9c0.9-1.1,0.8-0.6,0.7-11.6c-0.2-10.8-0.3-13.1-0.7-14.8c-0.4-1.5-1.4-3.2-2.1-3.9c-0.4-0.3-2.6-1.8-4.9-3.3
	c-8-5.1-11.2-7.3-14.8-10.3c-4.8-3.9-9-8.2-10.8-10.9l-0.6-0.9l0.3-0.4c0.2-0.3,0.4-0.7,0.5-1.5c0.3-1.5,0.1-2.6-1-5.3
	c-0.5-1.2-0.9-2.5-1-3.1c-0.2-1.4-0.1-3.4,0.5-6.4c0.3-1.4,0.7-4.2,1-6.1c0.3-1.9,0.7-4.8,1-6.3c0.4-2.7,0.4-2.9,0.4-5.7
	c-0.2-5.9-0.8-9.4-3.7-21.6c-2-8.6-2.8-12.2-3.2-15c-1-6.8-1.1-11.3-0.5-15.2l0.4-2.2l0-16.6c0-15.1,0-16.7-0.2-17.5
	c-0.7-2.7-2.5-4.8-4.6-5.7L85.6,3H67.2H48.8L48,3.3c-2.2,0.9-3.9,3-4.6,5.7c-0.2,0.8-0.2,2.4-0.2,17.5l0,16.6l0.4,2.2
	c0.6,3.8,0.5,8.5-0.5,15.2c-0.4,2.8-1.2,6.5-3.2,15c-2.9,12.3-3.5,15.8-3.7,21.6c-0.1,2.8-0.1,3.1,0.4,5.7c0.2,1.5,0.7,4.4,1,6.3
	c0.3,1.9,0.7,4.7,1,6.1c0.6,3,0.7,5,0.5,6.4c-0.1,0.5-0.6,1.9-1,3.1c-1.1,2.6-1.3,3.7-1,5.3c0.1,0.8,0.3,1.2,0.5,1.5l0.3,0.4
	l-0.6,0.9c-1.8,2.7-6.1,7-10.8,10.9c-3.6,3-6.8,5.2-14.8,10.3c-2.3,1.5-4.5,2.9-4.9,3.3c-0.8,0.7-1.7,2.4-2.1,3.9
	c-0.4,1.6-0.6,4.1-0.7,14.9c-0.2,11-0.2,10.4,0.7,11.6c0.2,0.3,0.7,0.7,1,0.9l0.6,0.3v48.3c0,26.6,0,65.7,0.1,87l0.1,38.6L5.7,364
	c-2.1,3.4-2.7,6.2-2.7,12.9c0,2,0,4.1,0.1,4.6c0,0.5,0.1,2.4,0.2,4.2c0.3,8,1.2,11.2,4.2,14.7c1,1.1,2.1,2.1,3.4,2.8
	c1.1,0.6,2.1,1,4.2,1.5l1.4,0.3l23.7,0.1c34.2,0.1,75.1,0,77-0.1c4.3-0.4,7.4-1.9,9.6-4.5c3-3.6,3.9-6.7,4.2-14.7
	c0.1-1.8,0.2-3.7,0.2-4.2C131.4,381,131.4,378.9,131.4,376.9z"/>
<g>
	<g>
		<path class="st1" d="M39.7,384.6c1.7,0.1,4,0.1,5.1,0.1c2.2,0,5.2-0.2,5.3-0.4c0.1-0.1-0.4-0.2-2.9-0.6c-1.1-0.2-9.7-0.2-10.5-0.1
			c-0.2,0-0.4,0.2-0.4,0.2C36.4,384.4,36.6,384.4,39.7,384.6z"/>
		<path class="st1" d="M30.3,384.6c-0.5-0.1-1.2-0.2-1.7-0.2c-0.9-0.2-2-0.1-2.2,0.2c-0.2,0.2-0.1,0.4,0.3,0.6
			c0.5,0.2,4.1-0.1,4.4-0.4C31.1,384.8,30.7,384.7,30.3,384.6z"/>
		<path class="st1" d="M27.2,380.6c0.5-0.2-0.7-0.5-2.6-0.5c-1.7-0.1-1.8-0.1-1.8,0.2c0,0.3,0.1,0.3,1,0.3
			C25.8,380.7,26.9,380.7,27.2,380.6z"/>
		<path class="st1" d="M29,382.5l-0.6-0.1c-1-0.2-4.1-0.4-4.5-0.3c-0.5,0.1-0.5,0.4,0,0.5c0.4,0.1,2.6,0,4.2,0L29,382.5z"/>
		<path class="st1" d="M28.1,378.4c2.2,0,3-0.1,2.6-0.3c-0.2-0.1-4.9-0.4-7.4-0.4c-1.4,0-1.5,0-1.5,0.2c0,0.2,0.3,0.3,2.1,0.3
			C25,378.3,26.9,378.4,28.1,378.4z"/>
		<path class="st1" d="M39,382c1.8,0.2,4.5,0.1,4.1-0.2c-0.6-0.4-5.5-0.6-5.8-0.3C37.1,381.7,37.3,381.8,39,382z"/>
		<path class="st1" d="M110.5,382.1c-0.4-0.1-3,0.1-4.4,0.3l-0.8,0.1l1,0.1c0.9,0.1,3.3,0.1,4.2,0C111,382.6,111,382.2,110.5,382.1z
			"/>
		<path class="st1" d="M91,390.7c-1.1,0.1-3.1,0.3-4.3,0.4l-2.2,0.2l1.4,0c0.8,0,2,0.1,2.7,0.2c1.7,0.3,10.7,0.2,12.2-0.1
			c1.2-0.2,1.5-0.4,1.2-0.6C101.8,390.6,93.6,390.5,91,390.7z"/>
		<path class="st1" d="M105.6,387.3c-0.7-0.2-4.2-0.1-6.8,0.2c-1.5,0.2-3.2,0.3-3.7,0.4c-2,0.1-2.1,0.3-0.4,0.3
			c2.4,0.1,10.4,0,10.9-0.1C106.1,387.9,106.1,387.4,105.6,387.3z"/>
		<path class="st1" d="M35.2,388.2c1.7,0,3.8,0,4.6-0.1c0.8,0,1.5-0.1,1.4-0.1c-0.1-0.1-0.7-0.1-1.4-0.2c-0.7-0.1-2.6-0.2-4.1-0.4
			c-2.8-0.3-5.8-0.4-6.7-0.2c-0.5,0.1-0.7,0.4-0.5,0.7c0.1,0.1,0.9,0.2,1.9,0.3C31.4,388.2,33.6,388.2,35.2,388.2z"/>
		<path class="st1" d="M105.8,384.4c-0.5,0.1-1.2,0.2-1.7,0.2c-0.5,0.1-0.8,0.1-0.8,0.2c0,0,0.6,0.2,1.2,0.3
			c1.5,0.2,3.3,0.2,3.5-0.1C108.4,384.5,107.2,384.2,105.8,384.4z"/>
		<path class="st1" d="M82.3,394c-0.7,0.1-1.8,0.2-2.4,0.2c-0.6,0-1.3,0.1-1.7,0.1c-0.5,0.1-0.1,0.1,1.6,0.2c1.2,0,2.7,0.1,3.3,0.1
			c1.2,0.1,9.2,0,10.3-0.1c0.6-0.1,0.7-0.1,0.7-0.5v-0.4l-2.4-0.1C89.1,393.4,84.6,393.6,82.3,394z"/>
		<path class="st1" d="M80.1,397c-0.1-0.1-3.1-0.2-6.6-0.3c-6.4-0.1-18.7,0-19.3,0.3c-0.4,0.1-0.3,0.5,0.1,0.6
			c0.2,0.1,1.7,0.1,3.4,0.2c7.2,0.2,21.7,0.1,22.4-0.2c0.1-0.1,0.3-0.2,0.3-0.3C80.4,397.2,80.3,397,80.1,397z"/>
		<path class="st1" d="M48.6,391.3c1.3,0,1.3,0-0.9-0.2c-1.2-0.1-3.2-0.3-4.3-0.4c-2.3-0.2-10.7-0.2-11,0c-0.1,0.1-0.1,0.2,0,0.3
			c0.1,0.1,1.1,0.3,3.4,0.6c1.4,0.1,8.6,0.1,10-0.1C46.5,391.4,47.8,391.3,48.6,391.3z"/>
		<path class="st1" d="M56,394.3c-0.4-0.1-1.2-0.1-1.7-0.1c-0.5,0-1.5-0.1-2.2-0.2c-2.3-0.3-6.9-0.5-9.5-0.4
			c-2.3,0.1-2.4,0.1-2.4,0.4c-0.1,0.4,0,0.4,1.9,0.6c1.5,0.1,7.4,0.1,12.2-0.1C56.3,394.4,56.7,394.4,56,394.3z"/>
		<path class="st1" d="M51.8,388.1c1.8,0.1,3.5,0.2,3.8,0.2c1.1,0.1,4.6,0.1,5.5,0c1-0.1,1.3-0.3,1-0.5c-0.3-0.2-13.5-0.2-13.5,0
			C48.6,387.9,50,388.1,51.8,388.1z"/>
		<path class="st1" d="M47.6,85c0.1,0.3,0.1,0.5,0.2,0.5c0.1,0,0.2-0.2,0.6-3.1c0.2-1.2,0.6-3.5,1-5.2c1.5-6.4,1.5-7.5-0.1-1.8
			C47.9,80.4,47.4,83.5,47.6,85z"/>
		<path class="st1" d="M45.6,86.5c0.6-3.6,1.1-6,2.2-9.5c1.2-4,1.8-7,1.8-9.9c0-1.4-0.3-1-0.4,0.6c-0.1,2-0.7,4.6-1.5,6.9
			c-0.8,2.4-1,3.1-1.6,5.7c-0.6,2.6-0.7,3.6-0.7,5.5C45.5,87.3,45.5,87.4,45.6,86.5z"/>
		<path class="st1" d="M51.5,76.6c0.5-1.9,0.9-3.9,1-5.1l0.1-1l-0.4,1.4c-0.3,1.2-0.9,4.2-1.2,5.8C50.9,78.5,51.1,78,51.5,76.6z"/>
		<path class="st1" d="M56.4,245.2c-0.3,0.4-1.7,1.1-3.3,1.7l-1.1,0.4l-0.2,0.7c-0.2,0.8-0.8,1.6-1.5,2c-0.6,0.4-2,0.8-2.8,0.8
			c-0.5,0-0.6,0.1-0.8,0.4c-0.3,0.6-1.2,1.3-2.1,1.6c-1.2,0.5-3.2,0.3-4.9-0.4c-0.9-0.4-1.8-0.5-2.3-0.3c-0.9,0.4-1.3,2.2-0.8,3.6
			c0.3,0.8,0.7,1.2,1.5,1.4c1.5,0.4,2.4,1.1,2.4,2c0,0.4-0.2,0.9-0.5,1.1c-0.1,0.1-0.1,0.3,0.1,0.8c0.1,0.4,0.3,1,0.5,1.5
			c0.1,0.4,0.4,1.1,0.6,1.4l0.3,0.6l0.9,0c0.8,0,1,0.1,1.7,0.6c0.5,0.4,1,0.8,1.3,1.4c0.5,0.7,0.5,0.9,0.5,1.7l0,0.9l0.5-0.2
			c0.6-0.2,1.2-0.2,1.8,0c1.2,0.5,2.5,1.9,2.5,2.7v0.4l1.2,0c1.6,0,2.5,0.4,3.5,1.3c0.6,0.6,0.8,0.7,1.1,0.6c0.5-0.2,1.4,0.1,2,0.6
			l0.5,0.4l0.6-0.3c1.1-0.5,2.5-0.3,3.6,0.6c0.3,0.3,0.5,0.3,0.6,0.2c0.3-0.2,1.4-0.2,1.9,0.1c0.3,0.1,0.7,0.4,0.9,0.6
			c0.2,0.2,0.5,0.4,0.5,0.4c0,0,0.3-0.2,0.6-0.4c0.3-0.2,0.7-0.5,0.9-0.6c0.5-0.2,1.5-0.2,1.8,0c0.1,0.1,0.3,0,0.6-0.2
			c1-0.9,2.5-1.1,3.6-0.6l0.6,0.3l0.5-0.4c0.6-0.5,1.5-0.8,2-0.6c0.3,0.1,0.5,0.1,1.1-0.6c0.9-0.9,1.9-1.3,3.5-1.3l1.2,0v-0.4
			c0-0.8,1.3-2.2,2.5-2.7c0.6-0.3,1.2-0.3,1.8,0l0.5,0.2V268c0-0.8,0.1-1,0.5-1.7c0.4-0.5,0.8-1,1.3-1.4c0.7-0.5,0.9-0.5,1.7-0.6
			l0.9,0l0.3-0.6c0.2-0.3,0.4-1,0.6-1.4c0.1-0.4,0.3-1.1,0.5-1.5c0.2-0.5,0.2-0.7,0.1-0.8c-0.2-0.2-0.5-0.7-0.5-1.1
			c0-0.9,0.9-1.6,2.4-2c0.8-0.2,1.3-0.6,1.5-1.4c0.5-1.4,0.1-3.2-0.8-3.6c-0.4-0.2-1.4-0.1-2.3,0.3c-1.7,0.7-3.6,0.9-4.9,0.4
			c-0.9-0.3-1.8-1-2.1-1.6c-0.2-0.4-0.3-0.4-0.8-0.4c-0.9,0-2.2-0.4-2.8-0.8c-0.7-0.5-1.3-1.2-1.5-2l-0.2-0.7l-1.1-0.4
			c-1.6-0.5-3-1.2-3.3-1.7c-0.4-0.4-3-1.4-5.2-1.8c-1.4-0.3-2-0.3-5.5-0.3c-3.5,0-4.1,0-5.5,0.3C59.4,243.8,56.8,244.7,56.4,245.2z
			 M76.3,245.7c3.3,1.1,5.8,2.5,7.9,4.6c5.3,5.1,5.4,11.8,0.3,17.2l-0.6,0.6l0.5-0.3c3.9-1.9,6.9-6.8,6.9-11c0-1.1-0.2-2.5-0.5-3.1
			c-0.1-0.3-0.1-0.3,0.1-0.1c0.7,0.6,1.2,3,0.9,5c-0.5,3.3-2.1,6-5.4,8.6c-1.5,1.2-3.4,2.3-4.4,2.6c-0.4,0.1-1.4,0.6-2.3,1
			c-2.8,1.4-6.1,2.4-9.5,2.8c-1.6,0.2-4.8,0.2-6.4,0c-3.2-0.4-6.6-1.4-9.3-2.8c-0.8-0.4-1.9-0.9-2.3-1c-1-0.3-2.9-1.5-4.4-2.6
			c-3.3-2.6-5-5.3-5.5-8.7c-0.3-2,0.2-4.4,0.9-5c0.2-0.2,0.3-0.2,0.1,0.1c-0.5,1.2-0.6,3.6-0.3,5.3c0.8,3.6,3.6,7.4,6.7,8.9l0.5,0.3
			l-0.6-0.6c-5.1-5.4-5-12.1,0.3-17.2c2.1-2.1,4.6-3.5,7.9-4.6C63.9,243.8,70.5,243.8,76.3,245.7z"/>
		<path class="st1" d="M94.3,148.7c-0.8-0.7-2.8-3.1-4-4.6c-0.5-0.7-1-1.3-1-1.3c-0.2,0-0.2,0,0.9,1.7c1.4,2.2,3.2,4.3,5.4,6.6
			c2.3,2.3,3.7,3.5,5.3,4.4c0.6,0.3,1.1,0.5,1.1,0.5C102.1,155.8,97.4,151.3,94.3,148.7z"/>
		<path class="st1" d="M44.2,144.5c1.1-1.7,1.1-1.7,0.9-1.7c-0.1,0-0.5,0.6-1,1.3c-1.1,1.5-3.2,4-4,4.6c-2.9,2.5-7.8,7-7.8,7.3
			c0,0.2,2.3-1.2,3.3-1.9C38,152.2,42.1,147.6,44.2,144.5z"/>
		<path class="st1" d="M60.5,394.2c-0.1,0.1,0,0.2,0.1,0.3c0.1,0.1,1,0.1,2,0.1l1.8,0l-0.8-0.2C62.4,394.1,60.7,394,60.5,394.2z"/>
		<path class="st1" d="M96.5,384.5c1.2-0.1,1.4-0.1,1.5-0.4c0.1-0.2,0-0.3,0-0.4c-0.2-0.2-9.2-0.2-10.7,0c-2.2,0.3-3.2,0.5-3,0.6
			c0.1,0.1,0.7,0.2,1.4,0.3C86.9,384.7,93.9,384.6,96.5,384.5z"/>
		<path class="st1" d="M73.2,388.3c1.8,0.2,12.6-0.2,12.6-0.5c0-0.2-13.2-0.1-13.5,0C72,388.1,72.3,388.2,73.2,388.3z"/>
		<path class="st1" d="M73.9,394.2c-0.1-0.2-1.8-0.1-3.1,0.2l-0.8,0.2l1.8,0C73.6,394.6,74.1,394.5,73.9,394.2z"/>
		<path class="st1" d="M90.6,175.8c-1.7,0.1-4,0.2-5.2,0.2c-2.3,0.1-2.9,0.2-1.7,0.4c2.3,0.3,12.3,0.1,12.6-0.2
			C96.6,175.8,94.3,175.6,90.6,175.8z"/>
		<path class="st1" d="M95.7,171.9c-2,0.2-3.7,0.4-3.7,0.6c0,0.1,1.6,0.4,2.6,0.5c0.4,0,0.7,0.1,0.9,0.1c0.3,0,5.8-0.3,8.4-0.6
			c1.9-0.2,2.2-0.2,2.2-0.4C106,171.9,97.6,171.7,95.7,171.9z"/>
		<path class="st1" d="M62.1,151.7c0.6,0.1,1.3,0.2,1.7,0.3c1,0.2,7,0.1,8-0.1c2.5-0.5,2.7-0.5-4.5-0.5c-3.8,0-6.7,0.1-6.5,0.1
			C60.9,151.5,61.6,151.6,62.1,151.7z"/>
		<path class="st1" d="M91.6,382c0.8,0.2,3.1,0.1,5.3-0.2c1-0.2,0.1-0.3-1.8-0.4C92.6,381.4,90.6,381.7,91.6,382z"/>
		<path class="st1" d="M98.1,156.7c-2.6-2-6.2-5.8-8.4-8.9c-0.8-1.2-1.3-1.6-1.3-1.3c0,0.1-0.1,0.1-0.1,0.1c-0.1-0.1-0.5,0.1-1,0.4
			c-1,0.6-4.4,2.1-6.3,2.8c-0.7,0.3-1.3,0.5-1.3,0.6c-0.2,0.1,1.5-0.2,2.6-0.6c0.5-0.2,0.9-0.3,1-0.2c0.1,0.1-1.8,0.9-2.9,1.3
			c-1.5,0.5-3.7,1.1-5.5,1.4c-0.9,0.1-1.7,0.3-1.7,0.4c-0.1,0.1,0.1,0.1,0.4,0c0.9-0.1,4.7-0.4,4.9-0.4c0.2,0.1-3.5,0.6-5.7,0.9
			c-0.9,0.1-3.4,0.2-5.5,0.2c-2.2,0-4.7-0.1-5.5-0.2c-2.2-0.2-5.9-0.8-5.7-0.9c0.2-0.1,4,0.2,4.9,0.4c0.3,0,0.5,0,0.4,0
			c-0.1-0.1-0.8-0.2-1.7-0.4c-2.9-0.5-6.2-1.5-7.8-2.3c-0.4-0.2-0.6-0.4-0.5-0.3c0.1,0,0.7,0.2,1.2,0.4c1.2,0.4,2.4,0.6,2.2,0.4
			c-0.1-0.1-0.8-0.4-1.6-0.7c-2-0.8-5.1-2.2-6.1-2.8c-0.4-0.3-0.8-0.4-0.9-0.4c-0.1,0-0.1,0-0.1-0.1c0-0.3-0.4,0.1-1.3,1.3
			c-2.2,3-5.8,6.8-8.4,8.9c-1.4,1.1-1.5,1.2-1.3,1.3c0.3,0.1,2.1,0.3,5.2,0.6c1.2,0.1,2.8,0.3,3.6,0.3c1.2,0.1,6.7,0.4,10.2,0.5
			c0.7,0,7.6,0,15.3,0c13.1,0,16.9-0.1,21.1-0.5c5.8-0.5,8.5-0.8,8.9-1C99.6,157.9,99.4,157.7,98.1,156.7z M54.8,152.1
			C54.6,152.1,54.6,152.1,54.8,152.1c0-0.1,0.1-0.1,0.2-0.1C55,152.1,55,152.1,54.8,152.1z M55.5,152.2c-0.2,0-0.3,0-0.2-0.1
			c0.1,0,0.3,0,0.4,0C55.7,152.2,55.7,152.2,55.5,152.2z M79,152.2c-0.2,0-0.3,0-0.2-0.1c0.1,0,0.3,0,0.4,0
			C79.2,152.2,79.2,152.2,79,152.2z M79.6,152.1C79.4,152.1,79.4,152.1,79.6,152.1c0-0.1,0.1-0.1,0.2-0.1
			C79.8,152.1,79.7,152.1,79.6,152.1z"/>
		<path class="st1" d="M90.7,248.9l0.3-0.4l-0.4,0.2c-0.2,0.1-0.6,0.3-0.8,0.5l-0.3,0.4l0.4-0.2C90.2,249.3,90.5,249.1,90.7,248.9z"
			/>
		<path class="st1" d="M84.9,246.3c0,0-0.2-0.1-0.3,0c-0.1,0-0.1,0.1,0.1,0.1C84.9,246.4,85,246.4,84.9,246.3z"/>
		<path class="st1" d="M39.1,250.9c0.2,0.1,0.5,0.2,0.6,0.2c0.2,0,0.2-0.1,0.1-0.3c-0.1-0.3-1.1-0.8-1.3-0.7
			C38.4,250.2,38.7,250.6,39.1,250.9z"/>
		<path class="st1" d="M43.4,265.9c-1.1-0.6-2-0.6-2,0c0,0.9,1.6,2.4,3,2.9c0.9,0.3,0.9,0.3,0.9-0.1
			C45.3,267.8,44.3,266.4,43.4,265.9z"/>
		<path class="st1" d="M43.8,248.7l-0.4-0.2l0.3,0.3c0.2,0.2,0.5,0.4,0.7,0.5c0.6,0.3,0.6,0.3,0.2-0.1
			C44.4,249,44.1,248.8,43.8,248.7z"/>
		<path class="st1" d="M64.7,177.4c1.1,0.1,5.5,0,5.7-0.1c0.1-0.1,0.1-0.2,0.1-0.4c-0.1-0.2-0.5-0.2-3.3-0.2c-3.1,0-3.2,0.1-3.2,0.3
			C64,177.2,64.1,177.3,64.7,177.4z"/>
		<path class="st1" d="M98.3,195c0-0.3-0.3-0.3-2.2-0.5c-4.6-0.4-11.3-0.3-11.7,0.1c-0.1,0.1,1.1,0.3,4.2,0.6
			c0.8,0.1,2.6,0.1,4.1,0.1c1.5,0,3.4-0.1,4.2-0.1C98,195.3,98.3,195.2,98.3,195z"/>
		<path class="st1" d="M101,196.8c-1.5,0-5.2,0-5.2,0.1c-0.2,0.2,0.2,0.2,2.1,0.3c2.9,0.2,2.9,0.2,3.2,0.1
			C101.4,197.2,101.4,196.8,101,196.8z"/>
		<path class="st1" d="M49.6,246.3C49.4,246.4,49.5,246.4,49.6,246.3c0.2,0.1,0.3,0.1,0.3,0C49.8,246.3,49.7,246.3,49.6,246.3z"/>
		<path class="st1" d="M47.3,269.6c-0.1,0-0.4,0.1-0.6,0.2c-0.4,0.2-0.5,0.7-0.1,1.2c0.3,0.4,1.3,1,2,1.3c0.6,0.2,1.2,0.3,1.4,0.1
			c0.1-0.1-0.3-1.1-0.7-1.5C48.7,270.3,47.6,269.6,47.3,269.6z"/>
		<path class="st1" d="M88.3,191.9c-1.1-0.4-9.3-1-11.2-0.8c-0.7,0.1-2.1,0.2-3,0.3c-0.9,0.1-2.1,0.2-2.5,0.2l-0.8,0.1l0.7,0.1
			c0.4,0.1,1.3,0.1,1.9,0.1c0.7,0,1.8,0.1,2.6,0.2C78.7,192.5,89.4,192.3,88.3,191.9z"/>
		<path class="st1" d="M38.3,194.5c-2,0.2-2.2,0.2-2.2,0.5c0,0.2,0.5,0.2,2.4,0.2c1.3,0,3.1,0.1,3.9,0.1c2.1,0,7.9-0.5,7.6-0.7
			C49.6,194.2,42.9,194.2,38.3,194.5z"/>
		<path class="st1" d="M66.8,262.5c1-0.9,1.2-2.4,0.6-3.7c-0.4-0.8-0.8-1.1-1.2-0.7c-0.5,0.6-0.8,3.3-0.4,4.2
			C66.1,263,66.3,263,66.8,262.5z"/>
		<path class="st1" d="M48.1,256.2c-0.3,1-0.4,1.4-0.4,2.9c0,1.4,0.1,1.9,0.3,2.7c0.7,2,1.5,3.3,3.3,5c2.9,2.8,7.3,4.7,12.2,5.4
			c0.5,0.1,2.5,0.1,4.3,0.1c2.9,0,3.6-0.1,5-0.4c4.3-0.9,7.7-2.6,10.3-5.1c1.8-1.7,2.6-3,3.3-5c0.3-0.8,0.3-1.3,0.3-2.7
			c0-1.5-0.1-1.9-0.4-2.9c-1-3-3.3-5.5-6.7-7.5c-2-1.2-4.9-2.2-7.8-2.7c-1.1-0.2-2.1-0.3-4.7-0.3c-2.5,0-3.5,0.1-4.7,0.3
			C55.2,247.4,49.8,251.2,48.1,256.2z M73.3,258.2c0.1-0.9,0.2-1.5,0.4-1.9c0.3-0.6,0.3-0.6,1.2-0.7c1.1-0.1,4.2-0.1,5.2,0l0.7,0.1
			l0,0.6c0,0.5-0.2,1-1.1,2.5c-0.6,1-1.1,1.9-1,1.9c0.6,0.2,1.2,0.6,1.3,0.9c0.3,0.7-0.3,1.6-1.7,2.3c-0.5,0.3-1.7,0.3-2.3,0
			c-0.5-0.2-1.3-1.1-1.5-1.6c-0.1-0.6,0.2-1.8,0.7-3c0.3-0.6,0.5-1.1,0.4-1.1c-0.1-0.1-1.4,0.4-1.8,0.8
			C73.2,259.7,73.2,259.6,73.3,258.2z M72,261.3c0.5,0,1.1,0.6,1.1,1.1c0,0.2-0.2,0.5-0.3,0.7c-0.4,0.4-0.7,0.4-1.2,0.2
			c-0.4-0.2-0.9-0.8-0.9-1.2C70.6,261.8,71.4,261.3,72,261.3z M63.1,259.8c0.1-0.8,0.1-1,0.7-1.8c0.7-1,1.4-1.3,2.7-1.5
			c0.8-0.1,1-0.1,1.7,0.2c2,0.9,2.9,3.3,1.8,5.1c-0.5,0.9-1.5,1.7-2.4,2.1c-0.4,0.2-1,0.3-1.3,0.3c-0.7,0-1.6-0.5-2.4-1.4
			C63.1,262,63,261.4,63.1,259.8z M52.9,263.3l0.6-0.1v-3.3c0-2.7,0-3.4-0.2-3.6c-0.1-0.2-0.2-0.3-0.1-0.4c0.1-0.1,2.3-0.1,2.9,0
			c0.6,0.1,0.5,0,3,3.4c0.9,1.2,1.2,1.5,1.3,1.3c0.1-0.1,0.1-1.2,0.1-2.3l0-2.1l-0.6-0.1c-0.4-0.1-0.6-0.1-0.6-0.3
			c0-0.2,0.3-0.2,1.1-0.3c1.2-0.1,2.4,0,2.4,0.2c0,0.2-0.6,0.4-1.2,0.4H61v1.8c0,1,0,2.6-0.1,3.7c-0.1,1.9-0.1,2-0.5,2.3h0
			c-0.2,0.2-0.4,0.3-0.5,0.3c-0.3,0-1.4-1.2-2.7-2.9c-0.6-0.8-2.7-3.5-2.9-3.7c-0.1-0.1-0.1,1.1-0.1,2.8v2.9h0.7
			c0.8,0,1.2,0.1,1.2,0.4c0,0.3-0.4,0.4-1.8,0.4C52.3,263.9,51.5,263.5,52.9,263.3z"/>
		<path class="st1" d="M60.4,191.4c-0.9-0.1-2.3-0.2-3-0.3c-1.9-0.2-10.2,0.4-11.2,0.8c-0.1,0,0.3,0.2,0.9,0.2
			c1.7,0.3,9.2,0.2,11.3,0c0.9-0.1,2.2-0.2,2.8-0.2c0.6,0,1.4-0.1,1.8-0.1l0.7-0.1l-0.8-0.1C62.5,191.6,61.3,191.5,60.4,191.4z"/>
		<path class="st1" d="M33.4,196.8c-0.3,0.1-0.4,0.4-0.1,0.5c0.1,0,0.7,0.1,1.3,0c0.6,0,1.8-0.1,2.6-0.2c0.9-0.1,1.5-0.1,1.5-0.2
			C38.7,196.9,34.1,196.7,33.4,196.8z"/>
		<path class="st1" d="M92.1,265.4c-1.3,0.3-2.9,2-2.9,3.1c0,0.3,0,0.4,0.4,0.3c1.3-0.3,2.4-1,3-2C93.3,265.7,93.1,265.2,92.1,265.4
			z"/>
		<path class="st1" d="M82.7,272.9c-0.9,0.1-1.5,0.3-2.3,0.8c-0.7,0.4-1.1,0.9-1.1,1.2c0,0.1,0.4,0.1,1,0.1c1.6-0.1,3-0.9,3-1.7
			C83.3,272.8,83.2,272.8,82.7,272.9z"/>
		<path class="st1" d="M87.8,269.8c-0.2-0.1-0.5-0.2-0.6-0.2c-0.3,0-1.4,0.7-1.9,1.2c-0.4,0.5-0.9,1.4-0.7,1.6
			c0.4,0.4,2.8-0.6,3.3-1.3C88.3,270.6,88.2,270,87.8,269.8z"/>
		<path class="st1" d="M54,273.6c-0.7-0.4-1.4-0.6-2.2-0.7c-0.5-0.1-0.6,0-0.6,0.2c0,0.7,0.7,1.3,1.9,1.6c0.7,0.2,2.1,0.3,2.1,0.1
			C55.2,274.6,54.6,274,54,273.6z"/>
		<path class="st1" d="M95.3,250.9c0.4-0.3,0.8-0.8,0.6-0.8c-0.3,0-1.1,0.5-1.3,0.7C94.4,251.2,94.7,251.2,95.3,250.9z"/>
		<path class="st1" d="M108.1,343c-1-0.1-1.8,0.3-2.6,1c-0.5,0.5-0.6,0.9-0.3,1.2c0.2,0.2,0.5,0.2,1.1-0.1c0.6-0.3,1.8-1.4,2-1.9
			C108.5,343.1,108.4,343,108.1,343z"/>
		<path class="st1" d="M82.1,182.4c-0.7,0-2.4-0.1-3.7-0.2c-1.3-0.1-6.3-0.2-11.2-0.2c-4.9,0-9.9,0.1-11.2,0.2
			c-1.3,0.1-3,0.2-3.7,0.2c-1.4,0-2,0.2-1.6,0.4c0.1,0.1,0.6,0.1,1.2,0.1c0.9-0.1,8.4,0.2,11.5,0.4c2,0.1,6.4,0.1,10.1-0.1
			c1.4-0.1,4.2-0.2,6.4-0.2c2.1,0,3.9-0.1,3.9-0.1C84,182.5,83.4,182.4,82.1,182.4z"/>
		<path class="st1" d="M99.5,346.6c-0.1-0.4-0.7-0.7-1.3-0.7c-0.9,0-1.3,1.1-0.9,2.2c0.2,0.4,0.3,0.5,1.1,0
			C99.1,347.7,99.6,347,99.5,346.6z"/>
		<path class="st1" d="M113.3,298.8c0.2-0.9,0.4-1.9,0.4-2.1c0-0.4,0-0.4-0.1-0.1c-0.1,0.2-0.4,1-0.7,1.8c-0.8,2-1.3,3.9-2,6.7
			c-1.3,6.1-1.2,9.2,0.4,14.5c1.4,4.5,1.6,6.2,1.6,10.4c0,1.5,0.1,2.5,0.1,2.3c0.1-0.2,0.3-1.2,0.5-2.3c0.3-1.6,0.4-2.3,0.4-4.4
			c0-2.7-0.3-6.8-0.7-10.1c-0.6-4.5-0.9-9.5-0.8-11.6C112.5,302.2,112.7,301.4,113.3,298.8z"/>
		<path class="st1" d="M23.4,305.1c-0.6-2.9-1.2-4.8-2-6.7c-0.3-0.8-0.6-1.6-0.7-1.8c-0.1-0.3-0.1-0.3-0.1,0.1
			c0,0.2,0.2,1.2,0.4,2.1c0.7,2.6,0.8,3.4,0.9,5.3c0.1,2.2-0.2,7.1-0.8,11.6c-0.4,3.2-0.7,7.3-0.7,10c0,2.3,0.1,3.6,0.7,6.1
			c0.1,0.5,0.2,1,0.2,1c0,0,0-1.2,0-2.6c0-4.2,0.3-5.9,1.6-10.4C24.7,314.3,24.7,311.3,23.4,305.1z"/>
		<path class="st1" d="M23.7,285.9l0.1,2.1l0.2-0.9c0.1-0.5,0.3-1.8,0.4-2.9c0.3-3.9-0.1-7.7-2-16.6l-0.4-2l0,1.7
			c0,2.6,0.4,6.6,1.1,11.7C23.4,282.1,23.7,284.5,23.7,285.9z"/>
		<path class="st1" d="M63.8,180.5c2.8,0.1,7.7,0,9.2-0.2c1.1-0.1,1.5-0.3,1.1-0.5c-0.6-0.2-7.1-0.3-10.2-0.2
			c-3.4,0.1-3.8,0.2-3.6,0.4C60.4,180.3,61.3,180.4,63.8,180.5z"/>
		<path class="st1" d="M111.1,377.7c-2.5,0-7.2,0.2-7.4,0.4c-0.1,0.1-0.1,0.1,0.1,0.2c0.3,0.1,3.4,0.1,6.5,0c2-0.1,2.2-0.1,2.3-0.3
			C112.7,377.7,112.5,377.7,111.1,377.7z"/>
		<path class="st1" d="M79.8,179.7c-0.9,0.1-0.9,0.3-0.2,0.4c0.7,0.1,7.4-0.1,7.7-0.2c0.3-0.1,0.2-0.1-0.2-0.2
			C86.3,179.6,80.8,179.5,79.8,179.7z"/>
		<path class="st1" d="M109.9,380c-1.9,0.1-3.1,0.3-2.6,0.5c0.4,0.1,1,0.2,2.8,0c1.4-0.1,1.5-0.1,1.5-0.4
			C111.6,380,111.6,380,109.9,380z"/>
		<path class="st1" d="M112.5,265.7l-0.4,2c-1.8,8.8-2.3,12.8-2,16.6c0.1,1,0.2,2.3,0.3,2.8l0.2,0.9l0.1-2.1c0.1-1.3,0.4-4,0.7-6.7
			c0.7-5.2,1.1-9.2,1.1-11.7L112.5,265.7z"/>
		<path class="st1" d="M28.1,345.2c0.6,0.3,0.9,0.4,1.1,0.1c0.3-0.3,0.2-0.8-0.3-1.2c-0.8-0.8-1.6-1.1-2.6-1c-0.3,0-0.4,0.1-0.2,0.3
			C26.3,343.7,27.5,344.9,28.1,345.2z"/>
		<path class="st1" d="M39.3,172.9c1.5-0.1,3.1-0.3,3.1-0.5c0-0.2-1.8-0.4-3.7-0.6c-1.9-0.2-10.3,0-10.3,0.2c0,0.1,0.1,0.1,0.2,0.2
			c0.2,0.1,2.7,0.3,6.6,0.6C36.7,172.9,38.5,173,39.3,172.9z"/>
		<path class="st1" d="M54.4,287.6c0.3-1.2,0.4-2.2,0.4-2.8c0-0.1,0-0.2-0.1-0.3c-0.1-0.1-0.1-0.1-0.2-0.1c-0.2,0-0.4,0.1-0.6,0.4
			c-0.2,0.2-0.4,0.6-0.7,1c-0.3,0.7-0.6,1.4-0.8,2.1c-0.2,0.7-0.3,1.3-0.3,2c0,0.5,0.1,0.9,0.3,1.2c0.2,0.3,0.5,0.5,0.9,0.6
			C53.8,290.2,54.1,288.9,54.4,287.6z"/>
		<path class="st1" d="M36.2,345.9c-0.6,0-1.1,0.3-1.3,0.7c-0.2,0.4,0.4,1.2,1.1,1.6c0.7,0.4,0.9,0.4,1.1,0
			C37.5,347,37.1,345.9,36.2,345.9z"/>
		<path class="st1" d="M70.4,293.6c0.5-0.1,0.8-0.3,1.1-0.7c0.3-0.4,0.4-0.8,0.4-1.4c0-0.2,0-0.5-0.1-0.7c0-0.2-0.1-0.5-0.2-0.8
			c-0.2,0.4-0.5,0.9-0.8,1.4c-0.3,0.5-0.7,1-1.2,1.4c0.2,0.1,0.3,0.2,0.5,0.3C70.2,293.2,70.4,293.4,70.4,293.6z"/>
		<path class="st1" d="M49,176c-1.1-0.1-3.5-0.1-5.2-0.2c-3.7-0.2-6.1,0-5.7,0.3c0,0,0.6,0.1,1.2,0.2c1.3,0.2,10.1,0.2,11.3,0
			C51.9,176.2,51.4,176.1,49,176z"/>
		<path class="st1" d="M54.7,179.7c-1-0.1-6.6-0.1-7.3,0c-0.9,0.2-0.4,0.3,1.4,0.4C52.9,180.3,57.1,180,54.7,179.7z"/>
	</g>
	<path class="st1" d="M62.2,232c0.6,0,1-0.1,1.6-0.1c-0.4-3.2-0.7-4.8-1.1-8C62.4,227.2,62.3,228.8,62.2,232z"/>
	<path class="st1" d="M71.1,228.7c0.2-0.2,0.3-0.4,0.3-0.6c0.1-1.9,0.1-2.8,0.2-4.7c0-0.2-0.1-0.4-0.3-0.6c-0.2-0.2-0.4-0.3-0.7-0.3
		c-0.4,0-0.5,0-0.9,0c-0.1,2.6-0.1,3.8-0.2,6.4c0.3,0,0.5,0,0.8,0C70.7,228.9,70.9,228.9,71.1,228.7z"/>
	<path class="st1" d="M131.4,376.9c0-6.8-0.6-9.6-2.7-12.9l-0.7-1.1l0.1-38.6c0.1-21.3,0.1-60.4,0.1-87V189l0.6-0.4
		c0.3-0.2,0.8-0.6,1-0.9c0.9-1.1,0.8-0.6,0.7-11.6c-0.2-10.8-0.3-13.1-0.7-14.8c-0.4-1.5-1.4-3.2-2.1-3.9c-0.4-0.3-2.6-1.8-4.9-3.3
		c-8-5.1-11.2-7.3-14.8-10.3c-4.8-3.9-9-8.2-10.8-10.9l-0.6-0.9l0.3-0.4c0.2-0.3,0.4-0.7,0.5-1.5c0.3-1.5,0.1-2.6-1-5.3
		c-0.5-1.2-0.9-2.5-1-3.1c-0.2-1.4-0.1-3.4,0.5-6.4c0.3-1.4,0.7-4.2,1-6.1c0.3-1.9,0.7-4.8,1-6.3c0.4-2.7,0.4-2.9,0.4-5.7
		c-0.2-5.9-0.8-9.4-3.7-21.6c-2-8.6-2.8-12.2-3.2-15c-1-6.8-1.1-11.3-0.5-15.2l0.4-2.2l0-16.6c0-15.1,0-16.7-0.2-17.5
		c-0.7-2.7-2.5-4.8-4.6-5.7L85.6,3H67.2H48.8L48,3.3c-2.2,0.9-3.9,3-4.6,5.7c-0.2,0.8-0.2,2.4-0.2,17.5l0,16.6l0.4,2.2
		c0.6,3.8,0.5,8.5-0.5,15.2c-0.4,2.8-1.2,6.5-3.2,15c-2.9,12.3-3.5,15.8-3.7,21.6c-0.1,2.8-0.1,3.1,0.4,5.7c0.2,1.5,0.7,4.4,1,6.3
		c0.3,1.9,0.7,4.7,1,6.1c0.6,3,0.7,5,0.5,6.4c-0.1,0.5-0.6,1.9-1,3.1c-1.1,2.6-1.3,3.7-1,5.3c0.1,0.8,0.3,1.2,0.5,1.5l0.3,0.4
		l-0.6,0.9c-1.8,2.7-6.1,7-10.8,10.9c-3.6,3-6.8,5.2-14.8,10.3c-2.3,1.5-4.5,2.9-4.9,3.3c-0.8,0.7-1.7,2.4-2.1,3.9
		c-0.4,1.6-0.6,4.1-0.7,14.9c-0.2,11-0.2,10.4,0.7,11.6c0.2,0.3,0.7,0.7,1,0.9l0.6,0.3v48.3c0,26.6,0,65.7,0.1,87l0.1,38.6L5.7,364
		c-2.1,3.4-2.7,6.2-2.7,12.9c0,2,0,4.1,0.1,4.6c0,0.5,0.1,2.4,0.2,4.2c0.3,8,1.2,11.2,4.2,14.7c1,1.1,2.1,2.1,3.4,2.8
		c1.1,0.6,2.1,1,4.2,1.5l1.4,0.3l23.7,0.1c34.2,0.1,75.1,0,77-0.1c4.3-0.4,7.4-1.9,9.6-4.5c3-3.6,3.9-6.7,4.2-14.7
		c0.1-1.8,0.2-3.7,0.2-4.2C131.4,381,131.4,378.9,131.4,376.9z M49.6,5.9c0.1-0.1,8-0.1,17.5-0.1c14.4,0,17.5,0,18.1,0.2
		c1.3,0.4,2.4,1.6,3,3.4c0.3,0.9,0.3,1.4,0.3,17.2c0,15.5,0,16.4-0.3,17.8c-0.7,3.6-0.7,6.8-0.1,12.3c0.5,5.3,1.2,8.6,3.9,20.1
		c2.5,10.3,3.3,14.9,3.4,19.2c0,1.2,0,1.4-0.2,1.4c-0.2,0-0.3-0.3-0.6-1.9c-0.5-3.2-1.9-9.2-3.7-16.4C89.1,72,87.4,63.4,86.8,59
		c-0.5-3.7-0.7-10.1-0.5-12.4l0.1-1l-0.8-0.1c-5.2-0.6-16.2-1-23.3-1c-5.8,0-5.8-0.1,0.1-0.4c2-0.1,4.9-0.2,6.4-0.3
		c2.8-0.2,11.2-0.1,15.7,0.1l2,0.1l0.1-7c0.1-3.9,0.2-7.9,0.2-9.1c0.2-2.7,0.2-9.9,0-12.9c-0.2-2.6-0.7-5.4-1.1-6.1
		C85,7.8,84,7.5,80.1,7c-3-0.3-3.7-0.4-9.6-0.4c-3.5,0-7.2-0.1-8.3-0.1c-1.1-0.1-3.9-0.2-6.3-0.2C51.1,6.2,49.3,6.1,49.6,5.9z
		 M88.6,120.1c0.1,0.9,0.1,1.6,0,1.6c-0.1,0.1-1,0.3-2,0.5c-1,0.2-2,0.4-2.1,0.4c-0.2,0-0.2-0.3-0.1-3c0.1-4.1,0.3-6.9,0.7-9.3
		c0.3-2.1,1.2-6.3,1.8-8.7l0.4-1.4h0.5c0.3,0,0.5,0,0.5,0.1c0,0-0.3,1-0.7,2.2c-0.8,2.4-1.1,4-1.4,5.9c-0.2,1.6-0.2,6.7,0,7
		c0.1,0.1,0.1,0.2,0.1,0.1c0-0.2,0.6-3.5,0.9-5.1c0.8-3.7,1.9-7.6,2.8-9.8c0.2-0.5,0.2-0.5,1-0.5c0.5,0,0.9,0.1,0.9,0.1
		c0,0.1-0.3,0.9-0.6,1.8c-0.6,1.8-1.4,4.9-1.8,6.8C88.8,112.8,88.4,117.6,88.6,120.1z M81.2,129.9c-2.7,0.4-4.1,0.7-4.4,0.9
		c-0.1,0.1,0.4,0.2,1.1,0.2c0.7,0.1,1.4,0.1,1.5,0c0.1-0.1,0.4-0.1,0.7,0l0.5,0.1l-0.5,0.1c-0.3,0.1-2.5,0.2-4.9,0.2
		c-2.4,0-5.4,0.1-6.7,0.1c-1.3,0-2.3,0-2.4,0c0,0-2.8-0.1-6.2-0.1c-7-0.1-10.7-0.3-14.2-0.7c-2.5-0.3-5.2-0.8-5.7-1
		c-0.6-0.3-0.4-1.5,0.6-4c0.5-1.3,0.6-1.4,0.9-1.4c1.5,0.4,6.9,1.3,9.3,1.5c4.9,0.4,6.1,0.5,18.8,0.3c10.6-0.1,12.9-0.1,13.3,0.1
		c0.3,0.1,0.5,0.2,0.4,0.2c-0.1,0-3.3,0.4-5.9,0.7c-1.4,0.2-2.8,0.4-3.2,0.4c-1.1,0.2,7,0,9-0.2c1.6-0.2,1.9-0.2,1.9,0.1
		c0,0.5-8.7,1.6-16,1.9c-1.3,0.1,1.4,0.3,4.4,0.4c4,0.1,7.5-0.1,10.4-0.8c2-0.4,2.2-0.4,2.2-0.3C86.3,128.9,83.5,129.5,81.2,129.9z
		 M84.3,130.7c-0.5,0.1-1.2,0.2-1.6,0.2c-0.7,0-0.6,0,0.6-0.3c0.8-0.2,1.5-0.3,1.7-0.4C85.9,130.1,85.2,130.5,84.3,130.7z M81.5,131
		c-0.2,0-0.3,0-0.2-0.1c0.1,0,0.3,0,0.4,0C81.8,131,81.7,131,81.5,131z M63.7,135.9c-0.4-0.2-1-0.3-3.9-1c-0.7-0.2-1.5-0.4-1.6-0.4
		c-0.1,0,3.9-0.1,9.1-0.1c5.1,0,9.2,0,9.1,0.1c-0.1,0.1-0.9,0.2-1.6,0.4c-3,0.7-3.5,0.8-3.9,1l-0.4,0.2l0.8,0.1
		c0.7,0.1,3.2,0.1,5.2-0.1c0.7-0.1,0.6,0-0.9,0.4c-0.9,0.3-2.3,0.6-3.1,0.8c-1.6,0.3-5.6,0.5-8,0.3c-1-0.1-2.3-0.3-3.8-0.7
		c-3-0.8-3.3-0.9-2.3-0.8c2,0.2,4.4,0.2,5.2,0.1l0.8-0.1L63.7,135.9z M46.7,114.4c-0.1-2.7-0.2-3.6-0.5-5.3
		c-0.5-2.6-0.9-5.1-1.1-6.8c-0.1-0.7-0.2-1.4-0.2-1.6c-0.1-0.3,0-0.3,0.8-0.3l0.8,0l0,0.6c0.1,1.2,0.4,3.1,1,6.9
		c0.7,4.3,1,6.8,1.2,11c0.1,1.6,0.2,3,0.2,3.1c0,0.1,0,0.2,0,0.2c-0.1,0-0.8-0.2-1.6-0.3l-1.5-0.3l-0.1-2.7
		c-0.1-3.8-0.5-6.3-1.6-9.7c-0.8-2.5-1.3-5.7-1.3-8v-0.9l0.5,0l0.5,0l0.1,1.1c0.3,3.2,0.5,4.3,0.9,6.2c0.8,3.3,1.2,5.2,1.5,7.5
		c0.2,1.1,0.4,2.1,0.5,2.2C46.7,117.6,46.7,116.6,46.7,114.4z M54.5,100.8l0.1-0.5h5.6h5.6l0.1,2.7c0.1,2.7,0,15.2-0.2,19.1l-0.1,2
		l-2,0c-2.4,0-5.7-0.2-6.9-0.3l-0.9-0.1l-0.2-0.8c-0.5-2-1-5.3-1.2-9.3C54.3,111,54.3,101.8,54.5,100.8z M67.8,101.3l0-0.9l5.5,0
		l5.5,0l-0.3,1.1c-1.2,4-2.3,12.5-2.4,19c-0.1,3.4-0.1,3.7-0.3,3.7c-0.1,0-1.9,0.1-3.9,0.1l-3.7,0.1l-0.1-1.1
		C68.1,122.2,67.8,103.6,67.8,101.3z M90.2,119.4c0.3-6.8,1.6-13,3.7-17.6c0.6-1.3,0.6-1.4,1-1.4c0.4,0,0.4,0,0.3,0.6
		c-0.8,5.6-1.8,11.9-2.2,13.9c-0.3,1.4-0.5,3.3-0.6,4.1l-0.1,1.6l-0.9,0.3c-0.5,0.2-1,0.3-1.1,0.4C90.1,121.3,90.1,121,90.2,119.4z
		 M52,29.2c2.2,0.2,3.9,0.7,4.3,1.1l0.3,0.4l-0.3,0.1c-0.2,0.1-0.8,0.1-1.3,0.1c-0.6,0-1.4,0.1-1.9,0.2l-0.9,0.2l0.6,0.2
		c0.4,0.1,1.2,0.3,1.9,0.4c0.7,0.1,1.6,0.3,2,0.5c0.6,0.3,0.7,0.4,0.7,0.7c0,0.4-0.1,0.4-0.4,0.5c-0.3,0-0.8,0.1-1.2,0.1
		c-0.7,0-2.2,0.2-3.3,0.4l-0.5,0.1l0.5,0.1c0.3,0.1,1,0.2,1.7,0.3c2.5,0.3,3.1,0.5,3,0.7c0,0.1-0.1,0.4-0.2,0.5
		c-0.1,0.3-0.2,0.4-0.8,0.4c-1.6,0.2-2.8,0.4-2.9,0.5c-0.1,0.1,1.4,0.5,2.5,0.6c0.3,0,0.3,0.1,0,0.4c-0.3,0.3-0.4,0.4-2.8,0.5
		c-2.7,0.2-4.8,0.5-4.7,0.6c0,0.1,1,0.2,2.2,0.3c2.7,0.2,3.2,0.3,2.9,0.4c-0.1,0.1,0.8,0.1,2.2,0.1c3,0,11.9,0.3,13.5,0.4
		c0.9,0.1,0.3,0.1-2.6,0.1c-2.1,0-4.7,0.1-5.7,0.2c-1,0.1-3.7,0.2-6,0.4c-2.3,0.1-4.9,0.3-5.7,0.4c-0.9,0.1-1.8,0.2-2.1,0.2
		c-0.3,0-0.6,0-0.6,0C46,41.2,46,38.1,46,34.4v-6.7l0.4-0.2c0.3-0.1,1.1-0.2,2.5-0.2c2.3,0,3.6,0.2,4.8,0.8l0.7,0.3l-1.6,0.1
		c-0.9,0.1-1.9,0.1-2.2,0.1C49.5,28.7,50.3,29,52,29.2z M46.5,9c0.1-0.1,0.9-0.2,1.6-0.3C51,8.3,53.6,8.6,55,9.3
		c1.2,0.6,1.2,0.8,0.2,0.9c-1,0.1-3.1,0.6-3,0.6c0.1,0.1,3.2,0.5,4.1,0.5c0.7,0,0.8,0.1,0.9,0.4c0.1,0.2,0.1,0.4,0.1,0.4
		c-0.1,0.1-0.7,0.1-1.5,0.2c-1.3,0.1-5.3,0.8-5.2,0.9c0.1,0.1,5.1,0.5,6.1,0.5h0.9l0,0.5l0,0.5l-1.3,0.2c-1.4,0.2-4.3,0.6-4.7,0.7
		c-0.2,0.1,2,0.6,3.8,1c0.6,0.1,1.1,0.2,1.1,0.3c0,0-0.1,0.2-0.2,0.4c-0.2,0.2-0.5,0.3-1.3,0.4c-0.5,0.1-1.6,0.2-2.3,0.3
		c-0.7,0.1-1.5,0.2-1.7,0.2c-0.2,0-0.4,0.1-0.4,0.1c0,0.1,0.9,0.2,1.9,0.3c1.6,0.2,1.9,0.2,1.7,0.4c-0.2,0.2,0.2,0.2,2.1,0.2
		c1.3,0,3.5,0.1,4.9,0.2c1.4,0.1,3.9,0.3,5.6,0.4c5,0.3,5,0.4,0,0.4c-2.5,0-5.3,0.1-6.2,0.2c-1.6,0.1-13.8,0.3-14.4,0.2
		C46,20.4,46,20.4,46,15.7C45.9,10.7,46,9.2,46.5,9z M39.4,92c0.5-3.5,1.3-7.6,3.1-15.1c2.6-10.9,3.2-14.1,3.8-18.8
		c0.3-2.5,0.3-2.5,0.9-3.4c0.3-0.5,0.6-0.9,0.6-0.9c0,0,0.2,0.8,0.5,1.7c0.5,1.8,1.3,6.9,1.3,8c0,0.4,0,0.7,0.1,0.6
		c0.4-0.3-0.4-8.1-1-10.2c-0.2-0.8-0.2-1.1-0.1-1.3c0.3-0.5,0.3-0.5,1.4,3c0.8,2.7,1.7,7.3,1.7,9.4c0,0.6,0.1,1,0.1,1
		c0.2,0,0.3-2.4,0.2-3.5c-0.4-4.4-0.8-6.6-1.6-9.2c-0.5-1.4-0.6-2-0.5-2c0.4-0.2,1.9,3.6,2.7,6.7c0.6,2.5,0.8,4.2,0.7,7.8
		c-0.1,1.7-0.1,3.1,0,3.1c0.4-0.4,0.7-7.4,0.5-9.2c-0.3-2.2-1.2-5.4-2.3-8c-0.2-0.5-0.4-1-0.4-1c0,0,0.2-0.1,0.4-0.1
		c0.4,0,0.5,0.2,1.4,2c1.1,2.1,1.5,3.2,1.8,5c0.3,1.4,0.5,4.4,0.6,7.7c0.1,1.3,0.1,2.4,0.2,2.3c0.3-0.3,0.7-5.2,0.7-8.2
		c0-2-0.2-3.3-1.1-5.7c-0.6-1.7-0.6-1.8-0.3-1.5c0.5,0.7,1.3,2.3,1.7,3.7c0.6,2.2,0.8,4.3,0.7,8c-0.1,4.8-0.5,7.6-2.3,15.1
		c-2.1,9-2.6,13.7-1.8,17.5c0.2,0.7,0.1,1.1-0.1,0.8c-0.3-0.3-0.7-5.7-0.7-8.7c0-2.3,0.3-4.9,0.9-7.2c1-4.3,2-9,1.7-8.8
		c-0.1,0.1-0.3,1-0.6,2.1c-0.3,1.1-0.7,2.5-0.9,3.1c-1,2.8-2,6.9-2.3,9c-0.4,3-0.4,7.2,0,10c0.1,0.4,0,0.6-0.1,0.6
		c-0.2,0-0.7-2-0.9-3.8c-0.1-0.7-0.2-2.7-0.2-4.4c0-3.1,0-3.2,0.5-5.2c0.3-1.1,0.5-2.2,0.6-2.4c0.1-0.2,0-0.2-0.1-0.1
		c-0.4,0.4-2,6.3-2.3,8.9c-0.2,1.2-0.1,6.4,0.1,6.9c0.1,0.1,0,0.2-0.1,0.2c-0.1,0-0.3-0.1-0.3-0.2c-0.2-0.5-0.4-3.6-0.4-6.4
		c0-1.6-0.1-3-0.1-3c-0.1,0-0.5,1.3-0.7,2.5c-0.1,0.5-0.2,1.3-0.3,1.8c-0.1,0.5-0.2,1.8-0.1,3.1c0,1.2,0,2.2,0,2.2
		c-0.2,0-0.5-2.9-0.7-6.4c-0.1-1.5-0.9,1.5-1.2,4.2c-0.1,1.2-0.2,2.2-0.3,2.2c0,0-0.1,0-0.3,0c-0.2-0.1-0.2-0.4-0.2-1.4
		c0-0.7-0.1-1.9-0.1-2.5l-0.1-1.2l-0.4,1c-0.2,0.5-0.5,1.5-0.6,2.2c-0.1,0.7-0.3,1.4-0.4,1.6c-0.1,0.3-0.2,0.3-0.3-0.6
		c-0.1-0.6-0.2-1.3-0.2-1.7c0-0.4-0.1-0.7-0.1-0.7c-0.2,0-1,2-1.1,2.8h0c-0.1,0.5-0.1,0.6-0.6,0.6c-0.3,0-0.6,0-0.6-0.1
		C39,97.2,39.2,93.7,39.4,92z M39.1,100.4h0.8h0.8l0.1,1.5c0.1,0.9,0.2,2.2,0.4,3c0.2,0.8,0.4,2.3,0.6,3.3c0.2,1,0.6,3,0.9,4.4
		c0.6,2.7,0.8,5.4,0.7,7.4c-0.1,1-0.1,1-0.9,0.8c-0.4-0.1-0.4-0.1-0.5-1.8c-0.1-0.9-0.3-2.8-0.6-4.2c-0.4-2-1.4-8.3-2.2-13.9
		L39.1,100.4z M8.4,396.8c-1.7-2.7-2.3-6.7-2.5-18.3c-0.1-4.6,0-6.9,0.5-8.4l0.2-0.7l0.8,0.5c0.6,0.4,0.8,0.6,0.7,0.7
		c-0.8,2-1.5,9.2-1.3,13.8c0.2,5.7,0.8,9.5,1.7,11.7c0.2,0.5,0.4,1,0.5,1.1C9.3,397.9,9,397.6,8.4,396.8z M10.9,364.8
		c-0.3,0.4-0.8,1.2-1.2,1.7c-0.3,0.5-0.7,1-0.7,1c-0.1,0-1.2-0.9-1.4-1.1c0,0,0.2-0.5,0.5-1c0.3-0.5,0.7-1.1,0.8-1.4
		c0.1-0.3,0.3-0.5,0.4-0.5c0.3,0,2,0.3,2.1,0.4C11.5,364,11.2,364.4,10.9,364.8z M9,198v-4.4v-4.4l0.4-0.1c0.2-0.1,0.5-0.1,0.7-0.1
		c0.3,0,0.3,0,0.2,2.6c-0.1,1.4-0.1,3.5-0.2,4.6l-0.1,2H9.5H9z M12,304.4c0,6-0.2,15-0.2,20c-0.1,5-0.2,14-0.2,20
		c0,6,0,10.9-0.1,10.9c-0.3,0-0.4-2.4-0.5-16.5c-0.1-8.5-0.2-15.6-0.2-15.9c0-0.3-0.1-5.9-0.1-12.5c0-6.6-0.1-14.7-0.2-17.8
		c-0.2-13.1-0.1-59.7,0-68.6c0.2-9.1,0.4-14.4,0.6-15.2c0.1-0.5,0.4-0.6,0.6-0.2c0.2,0.5,0.4,6.6,0.6,16
		C12.3,237.9,12.3,256.6,12,304.4z M115,383.4c0.4,0,1.5,0.4,1.5,0.6c0,0.1-0.4,0.1-0.9,0.2c-0.7,0.1-3.3,0.7-4,0.9
		c-0.3,0.1,2.6,0.6,3.4,0.6c0.3,0,0.6,0.1,0.6,0.1c0,0.1-0.2,0.4-0.5,0.6c-0.4,0.4-0.7,0.5-1.3,0.6c-1,0.1-3.7,0.6-3.8,0.7
		c-0.1,0.1,2.4,0.5,3.6,0.5c0.6,0,1.2,0.1,1.4,0.1c0.4,0.1,0.4,0.1-0.7,0.8c-1,0.7-1.2,0.7-1.9,0.7c-1.2,0-5.6,0.6-5.8,0.7
		c-0.1,0.1-0.1,0.1,0,0.1c0.1-0.1,1.2,0,2.4,0.1c2.8,0.2,3.6,0.2,4.5,0.3l0.8,0l-1.1,0.7c-1,0.7-1.2,0.7-2.4,0.9
		c-0.7,0.1-1.8,0.2-2.3,0.3c-0.6,0.1-1.6,0.2-2.4,0.2c-1.4,0.1-5.4,0.6-5.5,0.7c-0.1,0.1,3.4,0.2,5.3,0.2c1.6,0,6.5,0.4,6.4,0.6
		c0,0.2-2.6,1.2-3.2,1.2c-0.6,0-3.3,0.2-8,0.7c-1.5,0.2-3.8,0.3-4.9,0.4c-1.2,0.1-2.7,0.2-3.4,0.3c-2,0.3-1.1,0.4,3.8,0.6
		c2.3,0.1,4.8,0.2,5.5,0.3c0.7,0.1,2.3,0.1,3.4,0.2c1.2,0,2.8,0.1,3.6,0.1l1.4,0.1l-1.1,0.4c-1,0.4-1.2,0.4-5.8,0.6
		c-2.6,0.1-7.1,0.2-10,0.3c-2.9,0.1-6.4,0.2-7.8,0.3c-1.4,0.1-3.9,0.2-5.7,0.3c-1.7,0.1-3.2,0.2-3.3,0.3c-0.1,0.1,1.5,0.1,3.4,0.2
		c3.6,0.1,22.7,0.4,25.9,0.4c1,0,1.7,0.1,1.6,0.1c-0.1,0.1-0.8,0.3-1.6,0.5l-1.4,0.4l-37.7,0l-37.7,0l-1.4-0.4
		c-0.8-0.2-1.4-0.4-1.5-0.5c-0.1-0.1,0.7-0.1,1.7-0.1c3.2,0,22.3-0.3,25.9-0.4c1.9-0.1,3.4-0.1,3.4-0.2c-0.1-0.1-1.5-0.2-3.3-0.3
		c-1.7-0.1-4.3-0.2-5.7-0.3c-1.4-0.1-4.9-0.2-7.8-0.3c-2.9-0.1-7.4-0.2-10-0.3c-4.6-0.2-4.8-0.2-5.8-0.6l-1.1-0.4l1.4-0.1
		c0.8-0.1,2.4-0.1,3.6-0.1c1.2,0,2.7-0.1,3.4-0.2c0.7-0.1,3.2-0.2,5.5-0.3c4.9-0.2,5.8-0.3,3.8-0.6c-0.7-0.1-2.3-0.2-3.4-0.3
		c-1.2-0.1-3.4-0.3-4.9-0.4c-4.6-0.5-7.3-0.7-8-0.7c-0.6,0-3.2-1-3.2-1.2c0-0.2,6.3-0.6,11-0.7c0.4,0,0.7,0,0.7-0.1
		c-0.1-0.1-4-0.6-5.6-0.7c-0.7,0-1.8-0.1-2.4-0.2c-0.6-0.1-1.6-0.2-2.3-0.3c-1.2-0.1-1.4-0.2-2.4-0.9l-1.1-0.7l0.8,0
		c1,0,1.8-0.1,4.5-0.3c1.2-0.1,2.3-0.1,2.4-0.1c0.1,0.1,0.1,0.1,0-0.1c-0.2-0.2-4.5-0.7-5.8-0.7c-0.7,0-0.9-0.1-1.9-0.7
		c-1.1-0.7-1.1-0.8-0.7-0.8c0.2-0.1,0.9-0.1,1.4-0.1c1.2,0,3.8-0.4,3.6-0.5c-0.1-0.1-2.8-0.6-3.8-0.7c-0.6-0.1-0.8-0.2-1.3-0.6
		c-0.3-0.3-0.5-0.6-0.5-0.6c0-0.1,0.3-0.1,0.6-0.1c0.8,0,3.7-0.5,3.4-0.6c-0.7-0.3-3.2-0.8-4-0.9c-0.5-0.1-0.9-0.1-0.9-0.2
		c0-0.1,1.2-0.6,1.5-0.6c0.4,0,1.6-0.3,1.6-0.4c0-0.1-1-0.5-1.6-0.7c-0.6-0.2-1.6-0.7-1.6-0.9c0-0.2,0.4-0.5,1.3-0.6
		c1.1-0.2,1.1-0.4,0-0.7c-0.6-0.2-1.1-0.4-1.2-0.5c-0.3-0.3-0.1-0.7,0.4-0.9c0.3-0.1,0.7-0.3,0.9-0.4l0.4-0.3l-0.4-0.3
		c-0.2-0.2-0.6-0.4-0.8-0.5c-0.3-0.1-0.4-0.2-0.5-0.5c0-0.3,0.1-0.4,0.6-0.7l0.6-0.3l-0.6-0.4c-0.6-0.4-0.6-0.4-0.6-1.1
		c0-0.9-0.1-0.8,1.7-0.6c0.8,0.1,16.8,0.1,47.4,0.1s46.6-0.1,47.4-0.1c1.8-0.2,1.7-0.3,1.7,0.6c0,0.7,0,0.8-0.6,1.1l-0.6,0.4
		l0.6,0.3c0.5,0.3,0.6,0.4,0.6,0.7c0,0.3-0.2,0.4-0.5,0.5c-0.2,0.1-0.6,0.3-0.8,0.5l-0.4,0.3l0.4,0.3c0.2,0.2,0.6,0.3,0.9,0.4
		c0.5,0.2,0.7,0.5,0.4,0.9c-0.1,0.1-0.6,0.3-1.2,0.5c-1.1,0.3-1.1,0.5,0,0.7c0.9,0.2,1.3,0.4,1.3,0.6c0,0.2-1,0.7-1.6,0.9
		c-0.6,0.2-1.6,0.6-1.6,0.7C113.4,383.1,114.5,383.4,115,383.4z M114.3,314.4c0.5,4,0.5,4,0.7,6.4c0.2,2.9,0.2,7.7,0,8.9
		c-0.2,1.5-0.2,1.5-0.6,3c-0.2,0.8-0.8,2.4-1.2,3.5c-1.5,3.7-2.4,5.9-2.7,6.4l-0.3,0.5l0.5,0.5c1,1,1.3,2.4,0.8,3.8
		c-0.3,0.9-1.5,2.5-1.9,2.7c-0.2,0.1-0.7,0.5-1.2,0.9c-0.9,0.8-2.2,1.5-3.8,2c-2.9,1.1-6.2-0.1-7.7-2.7l-0.4-0.8h-0.8
		c-0.5,0-1.3-0.1-1.8-0.2c-0.5-0.1-1.5-0.2-2.2-0.3c-0.7-0.1-2.1-0.2-3.2-0.4c-2.7-0.4-4.2-0.3-5.7,0.3c-1.4,0.5-4.6,2.3-4.2,2.3
		c0.4,0,4.6-0.6,5.8-0.8c1.8-0.3,4.3-0.4,6-0.2c2.4,0.3,5.5,1.3,6,2c0.2,0.2,0.2,0.2-0.1,0.2c-2-0.6-2.8-0.7-3.9-0.8
		c-0.7,0-1.5-0.1-1.9-0.1c-0.9-0.1-4,0.2-5.8,0.5c-5,0.9-6,1-7.9,1.1c-2.4,0.1-3.9-0.1-5.1-0.6c-1.1-0.5-2.6-1.8-2.9-2.5
		c-0.1-0.3-0.2-0.6-0.2-0.6c0,0,0.6,0.2,1.3,0.6c2.1,1,3.1,1.3,4.5,1.3c1.5,0,2-0.2,4.3-1.4c1.8-1,4.1-2,5.6-2.3
		c1.2-0.3,3.2-0.3,4.9,0c0.7,0.1,2.3,0.4,3.6,0.6c1.3,0.2,2.5,0.4,2.8,0.4l0.5,0.1l-0.1-0.5c-0.2-0.9,0.6-2.2,1.5-2.8
		c0.8-0.4,2.2-0.2,2.9,0.5c0.5,0.5,0.5,1,0.1,1.7c-0.3,0.5-1.6,1.4-2.2,1.6c-0.5,0.1-0.5,0.1-0.1,0.7c0.8,1.3,2.2,2.2,4,2.5
		c1.2,0.2,1.9,0.1,3.4-0.8c1.2-0.7,1.6-1.1,2.9-2.7c1.7-2.1,2.2-3.6,1.6-4.6l-0.3-0.4l-0.5,0.7c-1.1,1.6-3,2.2-4.5,1.4
		c-0.7-0.4-1.1-0.9-0.9-1.4c0.1-0.6,1.2-1.5,2.1-1.9c0.7-0.3,0.9-0.4,2-0.3l1.2,0.1l0.5-1.1c0.6-1.2,1.4-4.2,1.7-6.5
		c0.3-2,0.4-6.9,0.2-8.9c-0.2-1.8-0.4-3-1.3-6.1c-1-3.5-1.2-5.3-1.1-8.5c0-1.8,0.2-3.3,0.4-4.5c0.4-2.6,1.8-7.8,2.6-9.8l0.7-1.8
		l-0.9-1.2c-2-2.6-2.9-5.6-3.1-10.8c-0.2-3.7,0.3-6.9,2-13.7c1.5-5.9,2.5-10.9,2.6-13.6c0.1-1.2,0.1-1.4,0.3-1.3
		c0.2,0.1,0.2,1.2,0.3,7.2c0.1,8.9,0,11.7-1,18.5c-0.5,3.5-0.5,3.9-0.4,5c0.4,3.2,0.6,3.9,1.4,5.7c1.7,3.9,1.8,5.3,0.8,8.5
		c-0.8,2.8-0.9,3.4-1,6.2C113.7,308.8,113.7,309.9,114.3,314.4z M51.8,349c-1.5-0.6-3-0.7-5.7-0.3c-1.1,0.2-2.6,0.3-3.2,0.4
		c-0.7,0.1-1.7,0.2-2.2,0.3c-0.5,0.1-1.4,0.2-1.8,0.2H38l-0.4,0.8c-0.8,1.5-2.1,2.5-3.8,2.9c-1.2,0.3-2.7,0.2-4-0.2
		c-1.6-0.6-2.7-1.2-3.7-2c-0.5-0.4-1-0.8-1.2-0.9c-0.4-0.2-1.6-1.9-1.9-2.7c-0.5-1.4-0.3-2.9,0.8-3.8l0.5-0.5l-0.3-0.5
		c-0.3-0.5-1.2-2.7-2.7-6.4c-0.5-1.1-1-2.7-1.2-3.5c-0.4-1.5-0.4-1.5-0.6-3c-0.2-1.2-0.2-6,0-8.9c0.2-2.5,0.2-2.5,0.6-6.4
		c0.6-4.5,0.6-5.6,0.6-8.4c0-2.8-0.1-3.4-1-6.2c-1-3.2-0.8-4.7,0.8-8.5c0.8-1.8,0.9-2.5,1.4-5.7c0.1-1.1,0.1-1.5-0.4-5
		c-1-6.9-1.2-9.6-1-18.5c0.1-6,0.1-7.1,0.3-7.2c0.2-0.1,0.2,0.1,0.3,1.3c0.2,2.6,1.2,7.7,2.6,13.6c1.7,6.8,2.2,10,2,13.7
		c-0.2,5.1-1.1,8.2-3.1,10.8l-0.9,1.2l0.7,1.8c0.8,2,2.1,7.1,2.6,9.8c0.2,1.1,0.3,2.7,0.4,4.5c0.1,3.2-0.1,4.9-1.1,8.5
		c-0.8,3.1-1.1,4.3-1.3,6.1c-0.2,2.1-0.1,6.9,0.2,8.9c0.4,2.2,1.2,5.2,1.7,6.5l0.5,1.1l1.2-0.1c1-0.1,1.3,0,2,0.3
		c0.9,0.4,1.9,1.4,2.1,1.9c0.1,0.6-0.2,1.1-0.9,1.4c-1.5,0.8-3.5,0.1-4.5-1.4l-0.5-0.7l-0.3,0.4c-0.6,1-0.1,2.5,1.6,4.6
		c1.3,1.6,1.7,2,2.9,2.7c1.5,0.9,2.1,1,3.4,0.8c1.8-0.3,3.2-1.2,4-2.5c0.4-0.6,0.4-0.6-0.1-0.7c-0.6-0.1-1.9-1.1-2.2-1.6
		c-0.4-0.7-0.4-1.2,0.1-1.7c0.7-0.7,2.1-0.9,2.9-0.5c1,0.5,1.7,1.8,1.5,2.8l-0.1,0.5l0.5-0.1c0.3-0.1,1.5-0.2,2.8-0.4
		c1.3-0.2,2.9-0.5,3.6-0.6c1.7-0.3,3.7-0.3,4.9,0c1.4,0.4,3.7,1.3,5.6,2.3c2.3,1.2,2.8,1.4,4.3,1.4c1.4,0,2.4-0.3,4.5-1.3
		c0.7-0.3,1.3-0.6,1.3-0.6c0,0-0.1,0.3-0.2,0.6c-0.3,0.7-1.8,2.1-2.9,2.5c-1.1,0.5-2.7,0.7-5.1,0.6c-1.9-0.1-2.9-0.2-7.9-1.1
		c-1.8-0.3-4.9-0.6-5.8-0.5c-0.3,0-1.2,0.1-1.9,0.1c-1.1,0.1-1.9,0.2-3.9,0.8c-0.3,0.1-0.3,0.1-0.1-0.2c0.6-0.7,3.6-1.7,6-2
		c1.7-0.2,4.2-0.1,6,0.2c1.3,0.2,5.4,0.8,5.8,0.8C56.4,351.3,53.2,349.6,51.8,349z M32.9,223.2c1.4-0.5,2.2-0.8,3.6-1.2
		c0.1,0.2,0.1,0.3,0.2,0.5c-0.3,0.1-0.5,0.2-0.8,0.3c1.9,5.9,3.8,11.8,5.7,17.7c0.3-0.1,0.4-0.1,0.7-0.2c0.1,0.2,0.1,0.3,0.2,0.5
		c-1.4,0.5-2.2,0.7-3.6,1.2c-0.1-0.2-0.1-0.3-0.2-0.5c0.3-0.1,0.4-0.1,0.7-0.2c-1.8-5-2.7-7.5-4.5-12.6c1.1,5.5,1.8,8.2,3.1,13.6
		c-0.7,0.3-1,0.4-1.7,0.7c-2.8-4.9-4.2-7.3-7.3-12c2.1,4.9,3.2,7.4,5.3,12.3c0.3-0.1,0.4-0.2,0.7-0.3c0.1,0.2,0.1,0.3,0.2,0.5
		c-0.8,0.3-1.2,0.5-2,0.9c-0.1-0.2-0.1-0.3-0.2-0.5c0.3-0.1,0.4-0.2,0.7-0.3c-2.5-5.7-5-11.3-7.5-17c-0.3,0.1-0.5,0.2-0.8,0.4
		c-0.1-0.2-0.1-0.3-0.2-0.5c1.4-0.6,2.1-0.9,3.5-1.5c3.2,5.3,4.8,8,7.7,13.4C34.8,232.3,34.1,229.2,32.9,223.2z M41.4,226.7
		c1.3,4.8,2,7.3,3.3,12.1c0.1,0.2,0.2,0.4,0.4,0.5c0.2,0.1,0.4,0.1,0.7,0.1c0.2-0.1,0.4-0.2,0.5-0.4c0.1-0.2,0.2-0.4,0.1-0.6
		c-0.3-1.3-0.5-1.9-0.8-3.2c0.7-0.2,1.1-0.3,1.8-0.4c0.2,0.9,0.3,1.4,0.5,2.3c0.1,0.6,0,1.1-0.4,1.7c-0.4,0.5-0.9,0.9-1.6,1.1
		c-0.7,0.2-1.3,0.1-2-0.1c-0.6-0.3-1-0.7-1.2-1.2c-1.2-4.1-1.8-6.1-3.1-10.2c-0.2-0.6,0-1.1,0.4-1.7c0.5-0.6,1.1-1,1.9-1.2
		c0.8-0.2,1.6-0.2,2.3,0.1c0.7,0.3,1.1,0.7,1.2,1.3c0.2,0.9,0.3,1.4,0.5,2.3c-0.8,0.2-1.1,0.3-1.9,0.5c-0.3-1.3-0.5-1.9-0.8-3.2
		c-0.1-0.2-0.2-0.4-0.4-0.5c-0.2-0.1-0.5-0.1-0.8-0.1c-0.3,0.1-0.5,0.2-0.6,0.4C41.4,226.3,41.4,226.5,41.4,226.7z M39.7,302.8
		c-0.5-1.5-0.5-1.8,0.3-1.9c0.5-0.1,1.3,0.2,1.3,0.4c0,0.1,0.4,1,1,2.2l1,2.1l0.4-0.9c0.2-0.5,0.7-1.6,1-2.4
		c0.3-0.8,0.7-1.5,0.7-1.5c0,0,0.3-0.1,0.5-0.1l0.4-0.1l-0.1,0.6c-0.1,0.3-0.3,1.1-0.5,1.6c-0.2,0.6-0.7,1.7-1,2.6
		c-0.7,2.1-0.9,2.3-1.7,2.3c-0.8,0-1.2-0.3-1.9-1.5c-0.3-0.5-0.6-1-0.6-1c-0.1,0-1.2,2.4-1.2,2.6c0,0.1-0.1,0.2-0.3,0.4
		c-0.4,0.3-0.7,0.3-1,0c-0.5-0.4-1.8-3-2.4-4.8c-0.6-2-0.7-2.5-0.3-2.5c0.8-0.1,1.6,0.2,1.6,0.5c0,0.1,0.2,0.7,0.5,1.3
		c0.3,0.6,0.5,1.2,0.5,1.2c0,0.2,1,2.2,1.1,2.2c0.1,0,0.3-0.4,0.6-0.9l0.5-0.9L39.7,302.8z M51.2,291.6c-0.4-0.6-0.6-1.4-0.6-2.3
		c0-0.8,0.1-1.6,0.4-2.4c0.3-0.8,0.7-1.5,1.3-2.2c0.5-0.5,0.9-1,1.4-1.3c0.5-0.3,0.9-0.4,1.3-0.4c0.5,0,0.9,0.2,1.2,0.5
		c0.3,0.3,0.4,0.8,0.4,1.5c0,0.3,0,0.6-0.1,1.1c-0.1,0.4-0.1,1-0.3,1.7c-0.2,0.8-0.3,1.6-0.5,2.3c-0.2,0.7-0.4,1.2-0.5,1.7
		c-0.5,1.2-1,2.2-1.7,2.8c-0.7,0.6-1.5,0.9-2.4,0.9c-0.7,0-1.2-0.1-1.6-0.4c-0.4-0.3-0.6-0.6-0.6-1.1c0-0.2,0-0.4,0.1-0.6
		c0.1-0.2,0.2-0.2,0.4-0.3c0.2,0.3,0.4,0.5,0.6,0.7c0.2,0.1,0.5,0.2,0.9,0.2c0.4,0,0.8-0.1,1.2-0.4c0.4-0.2,0.6-0.6,0.9-1
		C52.2,292.5,51.6,292.2,51.2,291.6z M58.9,288.2c-0.1-0.1-0.1-0.3-0.1-0.5c0-0.4,0.1-0.6,0.3-0.9c0.2-0.2,0.4-0.3,0.7-0.3
		c0.3,0,0.5,0.1,0.6,0.2c0.2,0.1,0.2,0.3,0.2,0.6c0,0.1,0,0.2,0,0.3c0,0.1-0.1,0.2-0.1,0.3c0.2,0.2,0.6,0.3,1,0.6
		c0.7,0.4,1.1,0.8,1.1,1.2c0,0.3-0.2,0.9-0.6,1.7c-0.4,0.8-0.6,1.4-0.6,1.7c0,0.2,0.1,0.3,0.2,0.4c0.1,0.1,0.4,0.1,1,0.2
		c0.6,0,1.2-0.3,1.6-1c0.4-0.6,0.8-1.6,1.2-3.1c0.1-0.2,0.1-0.5,0.2-0.9c0.1-0.7,0.6-1.1,1.4-1.1c0.2,0,0.3,0,0.4,0.1
		c0.1,0.1,0.2,0.1,0.2,0.2c0,0.1-0.1,0.4-0.3,0.9c-0.2,0.4-0.3,0.8-0.4,1l-0.7,2.1l0,0.1c-0.2,0.5-0.3,0.8-0.3,1
		c0,0.2,0.1,0.3,0.2,0.4c0.1,0.1,0.4,0.1,0.8,0.2c0.6,0,1.2-0.5,1.9-1.3c0.8-0.8,1.5-1.9,2.4-3.3c-0.1-0.1-0.2-0.2-0.2-0.3
		c0-0.1-0.1-0.2-0.1-0.4c0-0.4,0.1-0.7,0.4-1c0.3-0.3,0.6-0.4,1.1-0.4c0.2,0,0.4,0.1,0.6,0.2c0.1,0.1,0.2,0.3,0.2,0.5
		c0,0.2-0.1,0.4-0.2,0.6c-0.1,0.2-0.3,0.4-0.6,0.6c0.4,0.5,0.7,0.9,0.9,1.3c0.2,0.4,0.3,0.8,0.3,1.2c0,0.4-0.1,0.8-0.2,1.1
		c-0.1,0.4-0.3,0.7-0.6,0.9c0.1,0.1,0.2,0.1,0.4,0.1c0.1,0,0.3,0,0.5,0H74l0,0c0.5,0,0.9-0.2,1.2-0.6c0.3-0.4,0.7-1.1,1-2.1l1.5-4.8
		c0.1-0.3,0.2-0.8,0.4-1.3c0.2-0.9,0.6-1.3,1.2-1.3c0.4,0,0.7,0,0.8,0.1c0.1,0.1,0.2,0.1,0.2,0.3c0,0.1-0.1,0.4-0.3,0.9
		c-0.1,0.2-0.1,0.3-0.2,0.4l-2.4,6.1c0.8-1.2,1.5-2.1,2.1-2.7c0.6-0.6,1.3-0.9,1.9-0.9c0.3,0,0.5,0.1,0.7,0.2
		c0.2,0.2,0.3,0.4,0.3,0.7c0,0.3-0.3,1.2-0.9,2.6l-0.2,0.4c-0.1,0.3-0.2,0.6-0.3,0.8c-0.1,0.3-0.1,0.4-0.1,0.5
		c0,0.2,0.1,0.3,0.2,0.4c0.1,0.1,0.4,0.1,0.8,0.1l-0.3,1h-0.2c-0.8,0-1.4-0.1-1.8-0.3c-0.4-0.2-0.6-0.6-0.6-1c0-0.2,0.1-0.5,0.2-1
		c0.1-0.4,0.4-1,0.6-1.7l0.1-0.1c0.2-0.6,0.4-0.9,0.4-1c0-0.1,0-0.1-0.1-0.2c0,0-0.1-0.1-0.2-0.1c-0.3,0-0.7,0.4-1.3,1.1
		c-0.6,0.7-1.1,1.6-1.6,2.7c-0.1,0.2-0.2,0.5-0.3,0.8c-0.2,0.6-0.6,0.8-1.2,0.8c-0.2,0-0.3,0-0.4-0.1c-0.1,0-0.1-0.1-0.1-0.2
		c0,0,0-0.1,0-0.2c0-0.1,0.1-0.2,0.1-0.3c-0.2,0.2-0.5,0.4-0.8,0.5c-0.3,0.1-0.6,0.2-1,0.2l0,0h-0.2c-0.3,0-0.5,0-0.8-0.1
		c-0.3-0.1-0.5-0.1-0.8-0.3c-0.3,0.1-0.6,0.2-0.9,0.3c-0.3,0.1-0.5,0.1-0.8,0.1c-0.4,0-0.7-0.1-1.1-0.2c-0.3-0.1-0.6-0.3-0.9-0.5
		c-0.2,0.2-0.5,0.3-0.8,0.4c-0.2,0.1-0.6,0.2-0.9,0.2l0,0h-0.3c-0.6,0-1.1-0.1-1.4-0.2c-0.3-0.2-0.5-0.4-0.6-0.8
		c-0.3,0.3-0.6,0.6-0.9,0.8c-0.3,0.2-0.7,0.3-1.1,0.3l0,0h-0.2c-0.9,0-1.5-0.1-1.9-0.3c-0.4-0.2-0.6-0.5-0.6-1c0-0.4,0.2-1,0.6-1.8
		c0.4-0.8,0.6-1.3,0.6-1.5c0-0.1-0.1-0.2-0.2-0.3c-0.1-0.1-0.3-0.3-0.6-0.4c-0.7,1.9-1.3,3.3-2,4.1c-0.7,0.8-1.5,1.3-2.5,1.3l0.3-1
		c0.6-0.1,1.2-0.5,1.7-1.2c0.5-0.7,1.1-2,1.7-3.8C59,288.5,58.9,288.3,58.9,288.2z M66.5,284.5c0-0.4,0.1-0.7,0.3-0.9
		c0.2-0.3,0.5-0.4,0.8-0.4c0.3,0,0.5,0.1,0.6,0.3c0.2,0.2,0.3,0.4,0.3,0.7c0,0.4-0.1,0.7-0.3,0.9c-0.2,0.2-0.5,0.4-0.8,0.4
		c-0.3,0-0.5-0.1-0.7-0.2C66.6,285,66.5,284.8,66.5,284.5z M85.7,304.1c1.2,0,1.3,0.1,1.3,0.3c0,0.3-0.1,0.3-0.9,0.4
		c-1.8,0.2-1.7,0.1-1.7,1.3v1.1h1.7c1.5,0,2.2,0.1,2.2,0.4c0,0.2-0.5,0.3-2.4,0.4c-1,0.1-2,0.1-2.1,0.2c-0.4,0.1-1.1-0.3-1.3-0.7
		c-0.2-0.5-0.2-4.1,0-5.3c0.2-1.3,0.4-1.4,3.4-1.2c2,0.1,2.3,0.2,2.3,0.4c0,0.2-0.2,0.3-1.5,0.3c-2.5,0.1-2.2,0-2.3,1.3l0,1.1
		L85.7,304.1z M75.6,302.5c0.9-0.9,1.5-1.4,2-1.6c0.4-0.2,0.8-0.3,0.9-0.3c0.2,0.2-0.2,1-1.2,2l-1.1,1.2l0.8,0.9
		c1.1,1.2,2.3,2.7,2.3,3c0,0.4-0.4,0.6-1.2,0.5c-0.4,0-0.9-0.1-1-0.2c-0.1,0-0.7-0.6-1.2-1.3l-1-1.2l-0.3,0.3
		c-0.2,0.2-0.3,0.5-0.3,1.3l-0.1,1l-0.5,0c-0.4,0-0.6,0-0.8-0.3c-0.3-0.3-0.3-0.5-0.3-2.3c0-1.8,0.2-3.8,0.4-4.4
		c0.1-0.4,0.8-0.3,1.2,0c0.3,0.3,0.3,0.4,0.3,1.5v1.2L75.6,302.5z M60.8,304.7c0,1.7-0.1,3.2-0.1,3.4c-0.1,0.2-0.2,0.3-0.5,0.3
		c-0.2,0-0.6-0.1-0.8-0.2l-0.4-0.2v-3.4v-3.4l0.7,0C60.8,301.1,60.8,301.1,60.8,304.7z M52.3,304h1.2l0-1c0-0.6,0.1-1.2,0.2-1.5
		c0.2-0.5,0.2-0.5,0.9-0.5c0.6,0,0.8,0.1,1,0.3c0.1,0.2,0.2,0.4,0.1,0.5c0,0.1-0.1,1.3-0.1,2.8c-0.1,3.6-0.1,3.6-0.6,3.8
		c-0.5,0.1-1.2,0-1.4-0.3c-0.1-0.1-0.2-0.8-0.2-1.7l0-1.5H53c-0.3,0-0.9,0-1.2,0l-0.6,0v1.5c0,1.4,0,1.5-0.3,1.6
		c-0.8,0.3-1.2,0.3-1.5,0.1C49,308,49,307.9,49,305c0-1.7,0.1-3.3,0.2-3.5c0.1-0.5,0.2-0.5,0.7-0.5c1.3,0,1.3,0,1.3,1.7v1.5H52.3z
		 M65.1,308.8c-0.7-0.3-1.2-1.1-1.2-1.8c0-1.5,1.8-1.6,2.2-0.2c0.2,0.6,0.1,0.6-0.2,0.9c-0.3,0.2-0.3,0.3-0.2,0.4
		c0.4,0.1,1.2-0.2,1.5-0.6c0.4-0.5,0.5-1.3,0.2-1.7c-0.1-0.2-0.7-0.7-1.3-1.1c-1.7-1.2-2.1-1.9-1.4-3.1c0.4-0.8,1-1.1,2.2-1.2
		c1.1-0.1,2.2,0.2,2.9,0.9c0.6,0.5,0.6,1.2,0.1,1.7c-0.4,0.5-1.2,0.5-1.8,0.1c-0.3-0.2-0.4-0.3-0.3-1l0.1-0.8h-0.6
		c-1,0-1.6,0.5-1.6,1.2c0,0.6,0.2,0.8,1.7,1.5c1.5,0.7,2.2,1.3,2.6,2.1c0.3,0.6,0.3,0.7,0.1,1.1c-0.2,0.7-1.1,1.4-1.9,1.6
		C67.3,309.1,65.8,309.1,65.1,308.8z M90.6,301.3c0-0.2,0.3-0.2,1-0.3c0.9,0,1,0,1.1,0.3c0.3,0.5,1.9,2.8,2,2.8c0,0,0.6-0.7,1.3-1.5
		c1.3-1.5,1.6-1.8,1.8-1.5c0.1,0.1-1.1,1.9-2.1,3.1c-0.4,0.5-0.5,0.6-0.5,2.1c-0.1,1.4-0.1,1.6-0.4,1.8c-0.4,0.4-1.2,0.3-1.4-0.1
		c-0.1-0.2-0.2-0.8-0.2-1.5c0-0.9-0.1-1.2-0.2-1.4C92.6,304.7,90.6,301.5,90.6,301.3z M91.8,240.2c0,0.1-0.1,0.2-0.1,0.4
		c-1.1-0.3-1.6-0.5-2.7-0.8c0-0.1,0.1-0.2,0.1-0.4c0.2,0.1,0.3,0.1,0.5,0.1c0.6-2.2,0.9-3.2,1.5-5.4c0.3-3.4,0.4-5.1,0.5-8.6
		c-0.2-0.1-0.4-0.1-0.6-0.2c0-0.1,0.1-0.2,0.1-0.4c1.3,0.3,1.9,0.5,3.2,0.9c0,0.1-0.1,0.2-0.1,0.4c-0.2-0.1-0.4-0.1-0.6-0.2
		c-0.2,3-0.3,4.5-0.6,7.5c1.4-2.6,2.2-4,3.7-6.6c-0.2-0.1-0.4-0.1-0.6-0.2c0-0.1,0.1-0.2,0.1-0.4c0.7,0.2,1.1,0.3,1.8,0.6
		c0,0.1-0.1,0.2-0.1,0.4c-0.2-0.1-0.4-0.1-0.6-0.2c-1.8,3-2.6,4.5-4.3,7.5c-0.6,2.1-1,3.2-1.6,5.4C91.5,240.1,91.6,240.2,91.8,240.2
		z M87.2,238.9c0,0.1-0.1,0.2-0.1,0.4c-1.1-0.3-1.7-0.4-2.8-0.6c0-0.1,0-0.2,0.1-0.4c0.2,0,0.3,0.1,0.5,0.1c0.6-2.8,0.9-4.2,1.5-7.1
		c-0.7-0.2-1.1-0.2-1.9-0.4c-0.6,2.8-0.8,4.3-1.4,7.1c0.2,0,0.3,0.1,0.5,0.1c0,0.1,0,0.2-0.1,0.4c-1.1-0.2-1.7-0.3-2.8-0.5
		c0-0.2,0-0.2,0.1-0.4c0.2,0,0.3,0.1,0.5,0.1c1-5.5,1.4-8.3,2.4-13.8c-0.3,0-0.4-0.1-0.6-0.1c0-0.2,0-0.2,0.1-0.4
		c1.3,0.2,2,0.3,3.3,0.6c0,0.1,0,0.2-0.1,0.4c-0.2-0.1-0.4-0.1-0.6-0.1c-0.5,2.5-0.7,3.8-1.2,6.3c0.7,0.1,1.1,0.2,1.9,0.4
		c0.5-2.5,0.8-3.8,1.4-6.3c-0.3-0.1-0.4-0.1-0.6-0.1c0-0.1,0-0.2,0.1-0.4c1.3,0.3,2,0.4,3.3,0.7c0,0.1-0.1,0.2-0.1,0.4
		c-0.3-0.1-0.4-0.1-0.6-0.2c-1.3,5.5-2,8.2-3.3,13.6C86.9,238.8,87,238.9,87.2,238.9z M79.8,223.3c-0.7,5.6-1.1,8.4-1.8,13.9
		c0.2,0,0.3,0,0.5,0.1c0,0.2,0,0.2-0.1,0.4c-1.1-0.2-1.7-0.2-2.8-0.3c0-0.2,0-0.2,0-0.4c0.2,0,0.3,0,0.5,0.1c0.6-5.6,0.9-8.4,1.5-14
		c-0.4,0-0.5-0.1-0.9-0.1c-0.2,1.6-0.2,2.4-0.4,4c-0.7-0.1-1.1-0.1-1.8-0.2c0.1-1.8,0.2-2.7,0.4-4.4c3.1,0.2,4.6,0.4,7.6,0.9
		c-0.3,1.8-0.4,2.6-0.7,4.4c-0.7-0.1-1.1-0.2-1.8-0.3c0.2-1.6,0.3-2.4,0.6-4C80.3,223.3,80.1,223.3,79.8,223.3z M98.6,227.6
		c0-0.1,0.1-0.2,0.1-0.4c0.8,0.3,1.2,0.4,2,0.7c-0.1,0.1-0.1,0.2-0.1,0.4c-0.8,1.4-1.2,2.2-1.9,3.6c-0.3-0.1-0.5-0.2-0.8-0.3
		C98.1,230.1,98.3,229.3,98.6,227.6z M97.4,240.4c0.3-0.9,0.5-1.3,0.8-2.2c0.7,0.3,1,0.4,1.7,0.7c-0.5,1.2-0.7,1.8-1.2,3.1
		c-0.2,0.5-0.1,0.9,0.4,1.1c0.5,0.2,0.8,0,1-0.5c0.4-0.9,0.6-1.4,1-2.4c0.3-0.6,0.3-1.3,0.2-1.9c-0.4-1.6-0.6-2.4-1-3.9
		c-0.2-0.7-0.2-1.4,0.1-2c0.3-0.8,0.4-1.1,0.7-1.9c0.2-0.6,0.7-0.9,1.3-1.1c0.7-0.2,1.4-0.1,2.2,0.2c0.8,0.3,1.4,0.8,1.7,1.4
		c0.4,0.6,0.4,1.2,0.2,1.7c-0.4,0.9-0.6,1.3-1,2.2c-0.7-0.3-1.1-0.5-1.8-0.8c0.5-1.2,0.8-1.8,1.3-3c0.2-0.5,0.1-0.9-0.5-1.1
		c-0.6-0.2-0.9-0.1-1.2,0.4c-0.4,0.9-0.6,1.4-0.9,2.3c-0.3,0.6-0.3,1.3-0.1,1.9c0.4,1.6,0.6,2.4,0.9,4c0.1,0.7,0.1,1.4-0.2,2
		c-0.3,0.8-0.5,1.2-0.9,1.9c-0.2,0.5-0.7,0.9-1.3,1.1c-0.6,0.2-1.3,0.1-1.9-0.1c-0.7-0.3-1.2-0.7-1.5-1.3
		C97.2,241.5,97.2,240.9,97.4,240.4z M114,221.8c-0.6,0.3-2.5,0.5-3.1,0.3c-1.2-0.3-1.7-0.4-2.2-0.7c-0.9-0.4-1.8-1.2-2.4-1.9
		c-0.5-0.6-0.5-0.7-0.4-1.4c0-0.5,0.2-0.9,0.4-1.3c0.3-0.5,0.5-0.6,1.1-0.7c0.9-0.1,1.4,0.1,2.2,0.8c0.7,0.7,1.2,1.5,1.2,2.1
		c0,0.3,0.2,0.5,0.7,0.9c1.8,1.3,3.9,0.9,3.9-0.9c0-2.5-4.1-6-8.3-7c-3-0.7-5.2-0.8-13-0.9c-7.3,0-8.7-0.1-11.4-0.7
		c-2.3-0.5-4.4-0.9-4.8-0.9c-0.3,0-0.3,0-0.1,0.1c0.2,0,2.1,0.7,4.2,1.5c6.9,2.5,9.6,3.1,13.3,2.9c1,0,2.5-0.2,3.3-0.4
		c0.8-0.2,2-0.3,2.8-0.4c1.1-0.1,1.4,0,1.9,0.2c0.5,0.3,1.2,1.3,1.4,2.1l0.1,0.4l-0.4-0.4c-0.4-0.4-0.5-0.4-1.5-0.4
		c-0.7,0-1.2,0.1-1.3,0.2c-0.3,0.2-0.3,0.2,0,0.7c0.5,1,1.6,1.5,1.8,0.8c0-0.2,0.1-0.3,0.2-0.3c0.2,0,0,0.7-0.2,1
		c-0.2,0.2-1,0.2-1.7,0c-0.9-0.3-1.4-1.6-1-2.6c0.1-0.2,0.1-0.4,0.1-0.5c0,0-1.5,0.2-3.2,0.4c-3.5,0.6-4.7,0.6-6.9,0.3
		c-3.5-0.6-5.6-1.3-8.9-2.6c-4.4-1.9-5.6-2.3-8-2.7c-1.7-0.3-2.4-0.3-3.7,0.1c-1.3,0.4-1-0.1,0.6-0.9c1.7-0.9,2.9-1.2,5.5-1.2
		c2.4,0,3.7,0.2,6.4,0.9c3,0.7,4.1,0.8,10.9,0.9c4.7,0,6.9,0.1,8.5,0.3c5.4,0.6,7.8,1.2,10.2,2.8c1.4,0.9,3.1,2.6,3.6,3.6
		c0.5,0.9,0.7,2.4,0.4,3.2C115.7,220.4,114.7,221.5,114,221.8z M70.6,222.1c0.8,0,1.6,0.3,2.1,0.7c0.6,0.5,0.8,1,0.8,1.6
		c-0.1,1.1-0.1,1.7-0.2,2.9c-0.1,0.9-1.8,1.9-1.8,1.9c0,0.1,1.6,1.2,1.5,2.1c-0.1,2-0.2,2.9-0.3,4.9c0,0.4,0.1,0.6,0.5,0.6
		c0,0,0,0,0,0c0,0.2,0,0.2,0,0.4c-0.3,0-0.4,0-0.7-0.1c-1-0.1-1.5-0.6-1.5-1.6c0.1-2.1,0.1-3.1,0.2-5.2c0-0.2-0.1-0.4-0.2-0.6
		c-0.2-0.2-0.4-0.3-0.7-0.3c-0.3,0-0.5,0-0.8,0c-0.1,2.9-0.1,4.3-0.2,7.2c0.2,0,0.3,0,0.5,0c0,0.2,0,0.2,0,0.4c-1.1,0-1.7,0-2.8,0
		v-0.4c0.2,0,0.3,0,0.5,0c0-5.6,0-8.4,0.1-14c-0.3,0-0.4,0-0.6,0c0-0.2,0-0.2,0-0.4C68.5,222.1,69.2,222.1,70.6,222.1z M72.7,242.6
		c2.4,0.4,5.1,1.3,7.1,2.5c0.9,0.5,1.9,1,2.2,1.1c0.4,0.1,0.5,0.1,0.7-0.1c0.4-0.5,0.8-0.6,1.7-0.6c1.2,0,1.9,0.2,2.3,0.7
		c0.3,0.3,0.3,0.4,0.1,0.7c-0.3,0.4-1.1,0.6-2.2,0.7l-0.9,0l0.1,0.6c0.1,0.3,0.2,0.7,0.3,0.9c0.3,0.5,1.2,0.8,2.4,0.9
		c1,0.1,1,0.1,1.1-0.3c0.3-1.2,2-2.1,3.2-1.8c1.3,0.3,1.5,1.1,0.5,1.9c-0.5,0.5-1.7,0.9-2.2,0.9c-0.1,0-0.2,0.2-0.2,0.4
		c0,0.4,0.7,1,1.4,1.2c0.7,0.1,2.4,0,3-0.2c0.4-0.2,0.4-0.2,0.2-0.5c-0.5-0.7-0.1-1.6,0.7-1.9c1.5-0.6,3.4,0.3,2.7,1.3
		c-0.2,0.3-0.2,0.3,0.3,0.6c1.2,0.6,1.9,2,1.9,3.7c0,1.6-0.6,2.3-2.3,2.9c-0.7,0.2-1.5,0.7-1.4,0.9c0,0,0.2,0,0.4-0.1
		c0.5-0.2,1.3,0.1,1.6,0.5c0.2,0.3,0.2,0.4-0.2,0.8c-0.2,0.2-0.7,0.5-1,0.6c-0.3,0.1-0.6,0.2-0.6,0.3c0,0.1-0.2,0.8-0.4,1.5
		c-0.2,0.7-0.6,1.8-0.8,2.3c-0.3,0.6-0.4,1.1-0.4,1.4c0.1,0.7-0.3,1.4-1.2,2.3c-1.1,1.1-2.1,1.7-3.1,1.6c-0.7-0.1-0.7-0.1-0.6,0.2
		c0.4,1.1-0.5,2.1-2.4,3.1c-0.4,0.2-0.9,0.3-1.4,0.3c-0.6,0-0.8,0.1-0.9,0.3c-0.2,0.5-1.3,1.3-2.1,1.6c-1.7,0.6-2.9,0.5-3.7-0.4
		c-0.5-0.5-0.7-0.5-1.6,0.2c-0.4,0.3-0.5,0.4-0.4,0.6c0.1,0.1,0.1,0.5,0.1,0.8c0,1.3-1.6,0.8-1.8-0.6l-0.1-0.6h-0.7
		c-0.7,0-1.1,0.1-1.8,0.7c-0.4,0.3-0.4,0.4-0.3,0.8c0.2,0.6,0,1-0.6,1c-0.5,0-1.1-0.5-1.2-1.1c-0.1-0.2-0.2-0.4-0.3-0.4
		c-0.3,0-1.1,0.4-1.8,1c-0.4,0.3-0.8,0.5-0.9,0.5c-0.1,0-0.6-0.2-0.9-0.5c-0.8-0.6-1.5-1-1.8-1c-0.1,0-0.2,0.2-0.3,0.4
		c-0.1,0.6-0.7,1.1-1.2,1.1c-0.6,0-0.8-0.4-0.6-1c0.1-0.4,0.1-0.4-0.3-0.8c-0.7-0.6-1-0.7-1.8-0.7h-0.7l-0.1,0.6
		c-0.2,1.4-1.8,2-1.8,0.6c0-0.3,0.1-0.6,0.1-0.8c0.1-0.2,0-0.3-0.4-0.6c-1-0.7-1.2-0.7-1.6-0.2c-0.8,0.9-2,1-3.7,0.4
		c-0.9-0.3-2-1.2-2.1-1.6c-0.1-0.3-0.2-0.3-0.9-0.3c-0.5,0-1-0.1-1.4-0.3c-1.9-1-2.7-2-2.4-3.1c0.1-0.3,0.1-0.3-0.6-0.2
		c-1,0.1-2-0.4-3.1-1.6c-0.9-0.9-1.3-1.7-1.2-2.3c0-0.3-0.1-0.8-0.4-1.4c-0.2-0.5-0.6-1.5-0.8-2.3c-0.2-0.7-0.4-1.4-0.4-1.5
		c0-0.1-0.3-0.2-0.6-0.3c-0.3-0.1-0.7-0.4-1-0.6c-0.4-0.4-0.4-0.4-0.2-0.8c0.3-0.4,1.1-0.7,1.6-0.5c0.2,0.1,0.4,0.1,0.4,0.1
		c0.1-0.1-0.7-0.7-1.4-0.9c-1.7-0.5-2.3-1.3-2.3-2.9c0-1.7,0.7-3.1,1.9-3.7c0.5-0.2,0.5-0.2,0.3-0.6c-0.7-1,1.2-1.9,2.7-1.3
		c0.9,0.4,1.2,1.2,0.7,1.9c-0.2,0.3-0.2,0.3,0.2,0.5c0.5,0.2,2.3,0.3,3,0.2c0.7-0.1,1.4-0.7,1.4-1.2c0-0.2-0.1-0.4-0.2-0.4
		c-0.5,0-1.7-0.5-2.2-0.9c-0.9-0.8-0.7-1.6,0.5-1.9c1.2-0.3,2.9,0.6,3.2,1.8c0.1,0.4,0.1,0.4,1.1,0.3c1.2-0.1,2.1-0.4,2.4-0.9
		c0.1-0.2,0.3-0.6,0.3-0.9l0.1-0.6l-0.9,0c-1.1,0-2-0.3-2.2-0.7c-0.2-0.3-0.2-0.3,0.1-0.7c0.4-0.5,1.1-0.7,2.3-0.7
		c1,0,1.4,0.1,1.8,0.6c0.2,0.2,0.3,0.3,0.7,0.1c0.3-0.1,1.3-0.6,2.2-1.1c2-1.1,4.7-2.1,7.1-2.5C64.1,242.2,70.3,242.2,72.7,242.6z
		 M52.8,219.8c0.8,5.5,1.6,11,2.4,16.4c0,0.3,0.2,0.6,0.4,0.7c0.3,0.2,0.5,0.3,0.9,0.2c0.3,0,0.6-0.2,0.8-0.4
		c0.2-0.2,0.3-0.5,0.2-0.8c-0.2-1.7-0.3-2.6-0.5-4.4c1-0.1,1.5-0.2,2.5-0.2c0.1,1.3,0.2,1.9,0.3,3.1c0.1,0.8-0.2,1.5-0.8,2.1
		c-0.6,0.6-1.4,1-2.3,1.1c-0.9,0.1-1.8,0-2.5-0.5c-0.8-0.4-1.2-1-1.4-1.8c-1-5.6-1.4-8.4-2.4-14c-0.1-0.8,0.2-1.5,0.9-2.2
		c0.7-0.7,1.7-1.1,2.9-1.3c1.2-0.2,2.2,0,3.1,0.5c0.9,0.5,1.3,1.1,1.4,1.9c0.1,1.3,0.2,1.9,0.3,3.1c-1.1,0.1-1.6,0.1-2.7,0.3
		c-0.2-1.7-0.3-2.6-0.5-4.4c0-0.3-0.2-0.6-0.5-0.7c-0.3-0.2-0.6-0.3-1-0.2c-0.4,0.1-0.7,0.2-0.9,0.5
		C52.9,219.2,52.8,219.5,52.8,219.8z M63.9,236.9c0-0.2,0-0.2,0-0.4c0.2,0,0.3,0,0.5,0c-0.2-1.7-0.3-2.6-0.6-4.3c-0.7,0-1,0-1.6,0.1
		c-0.1,1.7-0.1,2.6-0.2,4.3c0.2,0,0.3,0,0.5,0c0,0.2,0,0.2,0,0.4c-0.7,0-1,0.1-1.6,0.1c0-0.2,0-0.2,0-0.4c0.2,0,0.3,0,0.5,0
		c0.2-5.8,0.4-8.7,0.8-14.5c0.8,0,1.2-0.1,2-0.1c0.8,5.7,1.2,8.6,1.8,14.4c0.2,0,0.3,0,0.5,0c0,0.2,0,0.2,0,0.4
		C65.5,236.9,65,236.9,63.9,236.9z M64.6,210.2c-1.3-0.4-2-0.4-3.7-0.1c-2.3,0.4-3.5,0.8-8,2.7c-3.2,1.4-5.4,2-8.9,2.6
		c-2.2,0.4-3.3,0.4-6.9-0.3c-1.7-0.3-3.1-0.5-3.2-0.4c0,0,0,0.2,0.1,0.5c0.4,1.1-0.1,2.3-1,2.6c-0.7,0.2-1.5,0.2-1.7,0
		c-0.2-0.3-0.4-1-0.2-1c0.1,0,0.2,0.1,0.2,0.3c0.2,0.7,1.3,0.2,1.8-0.8c0.2-0.5,0.2-0.5,0-0.7c-0.2-0.1-0.7-0.2-1.3-0.2
		c-1,0-1.1,0-1.5,0.4l-0.4,0.4l0.1-0.4c0.2-0.8,0.9-1.9,1.4-2.1c0.4-0.2,0.7-0.2,1.9-0.2c0.7,0,2,0.2,2.8,0.4
		c0.8,0.2,2.3,0.3,3.3,0.4c3.6,0.2,6.4-0.4,13.3-2.9c2.2-0.8,4.1-1.5,4.2-1.5c0.2-0.1,0.2-0.1-0.1-0.1c-0.3,0-2.4,0.4-4.8,0.9
		c-2.7,0.6-4.1,0.7-11.4,0.7c-9.2,0-12.1,0.3-15,1.5c-4.4,1.7-7.6,5.7-6,7.4c0.5,0.5,1.4,0.7,2.3,0.5c0.8-0.2,1.9-1.1,1.9-1.5
		c0-0.9,1.3-2.6,2.3-2.9c0.5-0.2,1.6-0.1,1.9,0.2c0.3,0.3,0.7,1.3,0.7,1.9c0,0.5-0.1,0.7-0.5,1.2c-0.9,1.1-2.1,2-3.5,2.4
		c-0.8,0.3-2.6,0.4-3.4,0.2c-0.9-0.2-1.3-0.5-2-1.2c-0.7-0.8-1-1.5-0.9-2.7c0.1-1.3,0.6-2.2,1.9-3.5c3.8-3.8,8.2-4.8,20.9-4.8
		c6.8,0,7.9-0.1,10.9-0.9c2.8-0.7,4.1-0.9,6.5-0.9c2.6,0,3.8,0.2,5.5,1.2C65.6,210,65.9,210.5,64.6,210.2z M21.5,370.3
		c1.8-0.1,4.3-0.2,5.8-0.2c1.4-0.1,6-0.2,10.1-0.3c9.1-0.2,16.6-0.4,17.5-0.6c0.4-0.1-0.7-0.1-3.2-0.2c-2.1-0.1-4.3-0.2-4.9-0.2
		c-0.6-0.1-4.2-0.2-8-0.3c-3.7-0.1-8-0.2-9.4-0.3c-1.4-0.1-4.4-0.1-6.5-0.1c-3.3,0-3.9,0-3.7-0.2c0.1-0.1,0.9-0.2,1.8-0.3
		c0.9-0.1,2.2-0.2,3-0.3c0.8-0.1,2.9-0.3,4.7-0.4c1.7-0.1,3.2-0.2,3.2-0.2c0.1-0.1-1.7-0.2-4.9-0.4c-4.8-0.2-7.1-0.4-7.2-0.4
		c0,0,0-0.3,0.1-0.7l0.2-0.6l1,0.1c6.6,0.6,15.9,0.7,46.2,0.7c30.2,0,39.5-0.1,46.2-0.7l0.9-0.1l0.2,0.6c0.1,0.3,0.1,0.6,0.1,0.7
		c-0.1,0.1-2.4,0.2-7.2,0.4c-3.2,0.2-5,0.3-4.9,0.4c0,0,1.5,0.1,3.2,0.2c1.7,0.1,3.8,0.2,4.7,0.4c0.8,0.1,2.2,0.3,3,0.3
		c0.9,0.1,1.7,0.2,1.8,0.3c0.2,0.2-0.4,0.2-3.7,0.2c-2.2,0-5.1,0.1-6.5,0.1c-1.4,0.1-5.6,0.2-9.4,0.3c-3.7,0.1-7.3,0.2-8,0.3
		c-0.6,0.1-2.9,0.2-4.9,0.2c-2.5,0.1-3.6,0.2-3.2,0.2c0.9,0.1,8.4,0.4,17.5,0.6c4.1,0.1,8.7,0.2,10.1,0.3c1.4,0.1,4,0.2,5.8,0.2
		c1.8,0.1,3.2,0.1,3.2,0.2c0,0.1-0.7,0.2-1.5,0.3c-1.1,0.1-13.4,0.2-47.6,0.1c-43.4,0-48.6-0.1-48.6-0.4
		C18.3,370.5,19.8,370.4,21.5,370.3z M114.6,196.2c-1.9,0.1-3.4,0.2-7.4,0.5c-1.5,0.1-0.9,0.3,1.7,0.5c1.1,0.1,2.5,0.2,3,0.3
		c0.6,0.1,1.9,0.2,2.9,0.3c1.8,0.2,1.4,0.2-6.5,0.2c-36.8,0.1-91.9,0-89.1-0.2c0.8-0.1,2.1-0.2,2.9-0.3c0.8-0.1,2.4-0.3,3.5-0.4
		c2.5-0.2,3.2-0.4,1.6-0.5c-4-0.3-5.5-0.4-7.4-0.5c-1.6-0.1-2.2-0.1-2.2-0.3c0-0.1,0.9-0.2,3-0.3c1.6-0.1,3.5-0.2,4.1-0.3
		c0.6-0.1,1.9-0.2,2.9-0.3c2.7-0.2,4.9-0.5,4.8-0.6c0,0-1.9-0.1-4.1-0.2c-9.6-0.3-10.5-0.3-10.5-0.5c0-0.1,0.1-0.2,0.2-0.2
		c0.2,0,9.9-0.8,12.8-1.1c1.3-0.1,3.6-0.3,5.2-0.4c1.6-0.1,2.9-0.2,2.8-0.3c-0.2-0.2-8.7-0.5-14.9-0.5c-3.9,0-6.1-0.1-6.1-0.1
		c0-0.5,0.2-0.5,4.3-0.6c2.3-0.1,5.2-0.1,6.7-0.1c3.7,0,12.1-0.4,15.4-0.7c0.7-0.1,2.8-0.2,4.7-0.3c1.8-0.1,3.6-0.2,4-0.2
		c0.7-0.1,0.7-0.1-0.6-0.2c-0.7-0.1-8.6-0.2-17.5-0.2c-8.9-0.1-16.2-0.2-16.2-0.2c-0.3-0.3,0.1-0.5,1-0.6c1.2-0.1,94.5-0.1,95.7,0
		c0.9,0.1,1.2,0.3,1,0.6c-0.1,0.1-7.4,0.1-16.2,0.2c-8.9,0.1-16.8,0.2-17.5,0.2c-1.3,0.1-1.3,0.1-0.6,0.2c0.4,0.1,2.2,0.2,4,0.2
		c1.8,0.1,3.9,0.2,4.7,0.3c3.3,0.3,11.7,0.7,15.4,0.7c1.4,0,4.4,0.1,6.7,0.1c4.1,0.1,4.3,0.2,4.3,0.6c0,0.1-2.1,0.1-6.1,0.1
		c-6.2,0-14.7,0.3-14.9,0.5c-0.1,0.1,1.2,0.2,2.8,0.3c1.6,0.1,3.9,0.3,5.2,0.4c2.9,0.3,12.6,1.1,12.8,1.1c0.1,0,0.2,0.1,0.2,0.2
		c0,0.2-0.9,0.3-10.5,0.5c-2.2,0.1-4,0.1-4,0.2c-0.1,0.1,2.1,0.3,4.8,0.6c1,0.1,2.3,0.2,2.9,0.3c0.6,0.1,2.4,0.2,4,0.3
		c2.1,0.1,3,0.2,3,0.3C116.8,196,116.2,196.1,114.6,196.2z M118.6,173.4c-0.1,0.5-0.3,0.5-2.6,0.7c-2.1,0.2-4.9,0.6-4.9,0.7
		c0,0.1,1.4,0.1,3.1,0.1c3.9,0,4.3,0.1,4.3,0.5c0,0.3-0.1,0.3-1.5,0.5c-0.9,0.1-2.2,0.3-3,0.5c-0.8,0.1-2.4,0.4-3.7,0.6
		c-2.2,0.3-4.5,0.7-4.7,0.9c-0.1,0.1,0.3,0.1,0.7,0c0.4,0,1.8-0.1,3.1-0.2c2.8-0.2,8.9,0,8.9,0.2c0,0.5-0.2,0.6-3,0.7
		c-3,0.1-4.6,0.3-7.4,0.7c-1,0.2-2.3,0.3-2.9,0.4c-1.8,0.1-5.2,0.6-5.2,0.6c0,0,2.2,0.1,4.9,0.1c3.2,0,6,0.1,8,0.2
		c1.7,0.1,3.5,0.2,4,0.2c0.6,0,0.9,0.1,0.9,0.2c0,0.5-0.1,0.5-5.4,0.6c-2.8,0-5.8,0.1-6.6,0.2c-2,0.2-5.6,0.4-9.4,0.6
		c-3.6,0.2-5.9,0.3-5.8,0.4c0.2,0.2,5.3,0.4,14.8,0.6c6.2,0.1,11.3,0.2,11.4,0.3c0,0-0.1,0.3-0.2,0.7l-0.3,0.6l-48.9,0l-48.9,0
		l-0.3-0.6c-0.2-0.3-0.2-0.7-0.2-0.7c0,0,5.2-0.2,11.4-0.3c9.5-0.2,14.6-0.4,14.8-0.6c0.1-0.1-2.3-0.2-5.8-0.4
		c-3.8-0.2-7.4-0.4-9.4-0.6c-0.8-0.1-3.7-0.2-6.6-0.2c-5.3-0.1-5.4-0.1-5.4-0.6c0-0.1,0.3-0.2,0.9-0.2c0.5,0,2.3-0.1,4-0.2
		c2-0.2,4.8-0.2,8-0.2c2.7,0,4.9,0,4.9-0.1c0-0.1-3.4-0.5-5.2-0.6c-0.6,0-2-0.2-2.9-0.4c-2.7-0.4-4.4-0.6-7.4-0.7
		c-2.7-0.1-3-0.2-3-0.7c0-0.2,6.1-0.4,8.9-0.2c1.3,0.1,2.7,0.2,3.1,0.2c0.4,0,0.7,0,0.7,0c-0.2-0.2-2.5-0.6-4.7-0.9
		c-1.2-0.2-2.9-0.4-3.7-0.6c-0.8-0.2-2.1-0.4-3-0.5c-1.4-0.2-1.5-0.2-1.5-0.5c0-0.4,0.4-0.5,4.3-0.5c1.7,0,3.1-0.1,3.1-0.1
		c0-0.1-2.9-0.6-5-0.7c-2.3-0.2-2.5-0.3-2.6-0.7l0-0.4l2.6-0.1c1.4-0.1,2.9-0.2,3.2-0.2l0.6-0.1l-0.7-0.2c-1.2-0.3-3.8-0.7-4.7-0.8
		c-0.7-0.1-0.8-0.1-0.8-0.4c0-0.3,0.1-0.3,1.9-0.5c1-0.1,1.8-0.2,1.8-0.3c0-0.1-0.2-0.1-0.4-0.1c-0.3,0-2.8-0.7-2.9-0.8
		c-0.2-0.2,0.9-3.9,1.5-5.2c0.3-0.6,1.1-1.9,1.5-2.4c0-0.1,1.1,0,2.4,0.1c1.3,0.1,4.4,0.3,7,0.4c2.6,0.1,6,0.2,7.5,0.3
		c2.1,0.1,9.4,0.2,31.2,0.2c21.8,0,29.1,0,31.2-0.2c1.5-0.1,4.9-0.2,7.5-0.3c2.6-0.1,5.8-0.2,7-0.4c1.3-0.1,2.3-0.2,2.4-0.1
		c0.4,0.5,1.2,1.8,1.5,2.4c0.6,1.3,1.7,5,1.5,5.2c-0.1,0.1-2.6,0.8-2.9,0.8c-0.2,0-0.4,0.1-0.4,0.1c0,0.1,0.8,0.2,1.8,0.3
		c1.8,0.2,1.9,0.2,1.9,0.5c0,0.3-0.1,0.3-0.8,0.4c-0.9,0.1-3.5,0.6-4.7,0.8l-0.7,0.2l0.6,0.1c0.3,0.1,1.8,0.2,3.2,0.2l2.6,0.1
		L118.6,173.4z M112.7,160.1c-2.6,0.1-5.9,0.3-7.2,0.5c-2.5,0.3-11.5,0.3-38.3,0.3c-26.8,0-35.7-0.1-38.3-0.3
		c-1.4-0.1-4.6-0.3-7.2-0.5c-5.5-0.3-5.7-0.3-8-0.6c-0.9-0.1-1.8-0.2-2-0.2c-0.5,0.1-2.4,1.6-2.8,2.2c-0.9,1.2-1,1.4-1.1,6.3
		c-0.1,2.5-0.1,7-0.2,10c0,6.2-0.1,5.7,0.9,7.6c0.2,0.3,0.2,0.6,0.2,0.7c-0.1,0.1-0.4,0.1-0.6,0.2c-0.5,0.1-0.5,0.1-1-0.7l-0.4-0.8
		l0.1-9c0.2-12,0.3-13.5,1.2-15c0.6-1,1.5-1.7,4.6-3.7c5.3-3.4,10.4-6.8,12.8-8.6c6.5-5,11.7-10,14.4-14c0.6-0.8,1-1.4,1.1-1.4
		c0.4,0,2.7,0.4,2.8,0.5c0.1,0.1-0.7,1.2-1.7,2.5c-4.1,5.5-11,12.6-15.9,16.5c-2.4,1.9-8.1,6.3-8.8,6.8c-0.3,0.2-0.4,0.4-0.4,0.4
		c0.1,0.1,4-2.3,6.3-4c6.3-4.5,9-6.7,13.2-10.9c4.6-4.6,7.3-7.7,8.8-10.2l0.6-1l0.6,0.1c0.4,0.1,0.8,0.3,1.2,0.7
		c2,1.8,5.5,3.5,9.3,4.5c3,0.8,4.2,0.9,10.5,0.9c6.3,0,7.5-0.1,10.5-0.9c3.7-1,7.3-2.7,9.3-4.5c0.4-0.4,0.8-0.6,1.2-0.7l0.6-0.1
		l0.6,1c1.5,2.5,4.1,5.6,8.8,10.2c4.2,4.2,6.9,6.5,13.2,10.9c2.3,1.6,6.1,4.1,6.2,4c0,0-0.1-0.2-0.4-0.4c-0.7-0.5-6.4-4.9-8.8-6.8
		c-4.9-3.9-11.8-11.1-15.9-16.5c-1-1.3-1.7-2.4-1.7-2.5c0.1-0.1,2.3-0.5,2.8-0.5c0.1,0,0.6,0.6,1.1,1.4c2.8,4,7.9,9,14.4,14
		c2.3,1.8,7.4,5.2,12.8,8.6c3.1,2,4,2.7,4.6,3.7c0.9,1.6,1,3.1,1.2,15l0.1,9l-0.4,0.8c-0.4,0.8-0.5,0.8-1,0.7
		c-0.7-0.1-0.8-0.2-0.5-0.9c1-1.9,0.9-1.4,0.9-7.6c0-3.1-0.1-7.6-0.2-10c-0.1-4.8-0.2-5-1.1-6.3c-0.5-0.6-2.4-2.1-2.9-2.2
		c-0.2,0-1.1,0-2,0.2C118.5,159.8,118.2,159.8,112.7,160.1z M125.4,189.1v4.4v4.4h-0.5h-0.5l-0.1-2c0-1.1-0.1-3.1-0.2-4.6
		c-0.1-2.6-0.1-2.6,0.2-2.6c0.2,0,0.5,0.1,0.7,0.1L125.4,189.1z M122.7,324.4c-0.1-5-0.2-14-0.2-20c-0.3-47.8-0.4-66.5-0.1-79.8
		c0.2-9.4,0.4-15.5,0.5-16c0.1-0.4,0.4-0.3,0.6,0.2c0.2,0.9,0.4,6.2,0.6,15.2c0.2,8.9,0.2,55.5,0,68.6c0,3.2-0.1,11.2-0.2,17.8
		c-0.1,6.6-0.1,12.3-0.1,12.5c0,0.3-0.1,7.4-0.2,15.9c-0.1,8.5-0.2,15.7-0.3,15.9c-0.1,0.3-0.2,0.5-0.2,0.5c-0.1,0-0.1-4.9-0.1-10.9
		C122.9,338.4,122.8,329.4,122.7,324.4z M124.7,366.6c-0.3-0.5-0.9-1.3-1.2-1.7c-0.3-0.4-0.5-0.8-0.5-0.8c0.1-0.1,1.8-0.4,2.1-0.4
		c0.1,0,0.3,0.2,0.4,0.5c0.1,0.2,0.5,0.9,0.8,1.3c0.3,0.5,0.6,0.9,0.6,0.9c0,0-0.3,0.3-0.7,0.6c-0.4,0.3-0.7,0.5-0.8,0.5
		C125.3,367.5,125,367.1,124.7,366.6z M128.5,378.5c-0.2,11.6-0.8,15.6-2.5,18.3c-0.5,0.8-0.8,1.1-0.6,0.5c0.1-0.2,0.3-0.7,0.5-1.1
		c1-2.2,1.5-6,1.7-11.7c0.2-4.6-0.5-11.8-1.3-13.8c-0.1-0.2,0.1-0.4,0.7-0.7l0.8-0.5l0.2,0.7C128.5,371.6,128.6,373.9,128.5,378.5z"
		/>
</g>
</svg>
