<?xml version="1.0" encoding="utf-8"?>
<!-- Generator: Adobe Illustrator 23.0.0, SVG Export Plug-In . SVG Version: 6.00 Build 0)  -->
<svg version="1.1" id="Layer_1" xmlns="http://www.w3.org/2000/svg" xmlns:xlink="http://www.w3.org/1999/xlink" x="0px" y="0px"
	 viewBox="0 0 929 1313.8" style="enable-background:new 0 0 929 1313.8;" xml:space="preserve">
<style type="text/css">
	.st0{fill:none;stroke:#FFF7E4;stroke-width:3;stroke-miterlimit:10;}
	.st1{fill:#FFF7E4;}
</style>
<g>
	<g>
		<path class="st0" d="M117.7,1023.6c1.2,0.9,2.3,2,2.3,2.3c0.1,0.5,0.5,4,1.1,7.9c1.1,8.8,2.4,15.2,5.2,25.8
			c3.1,11.9,6.8,21.4,13,34.1c15.2,30.8,41.9,59.6,75.8,81.8c8.1,5.3,15.2,9.4,25.3,14.4c5.1,2.5,9.2,4.7,9.3,4.8
			c0.1,0.1-0.4,0.9-1,1.9c-0.5,0.9-1.5,3.2-2.2,5.1c-2.7,7.9-1.5,17.9,3,26c2.6,4.6,8.4,10,12.8,12c0.8,0.4,22.8,0.5,96.6,0.6
			c133.2,0.3,302.9,0.1,305.7-0.4c4.6-0.6,11.5-6.3,14.8-12.3c4.5-8,5.7-18,3-26c-0.6-1.9-1.6-4.2-2.2-5.1c-0.6-1-1.1-1.8-1-1.9
			c0.1-0.1,4.2-2.3,9.3-4.8c10-5.1,17.1-9.1,25.3-14.4c33.9-22.2,60.6-51.1,75.8-81.8c6.2-12.6,9.9-22.2,13-34.1
			c2.8-10.6,4.1-17,5.2-25.8c0.5-4,1-7.5,1.1-7.9c0.1-0.4,1.2-1.4,2.3-2.3c3-2.2,5.1-4.6,6.9-7.9c1.9-3.6,2.5-6.4,2.5-10.7
			c0-4.2-0.6-6.9-2.5-10.7c-1.5-3.2-5.1-7.5-7.8-9.3l-1.4-1l-0.8-5.5c-6.1-42.3-23.8-85-49.1-118.3c-11.3-15.1-25.5-29-38.2-37.3
			l-4.1-2.7l-0.2-3.7c-0.2-4.4-1.2-7.2-3.6-10.9c-3.2-4.7-9.7-9.3-16.2-11.1c-4-1.2-9.2-2.1-14-2.4c-4.1-0.4-5.1-0.5-6.3-1.4
			c-2.2-1.4-17.9-17.3-22.4-22.6c-27.2-32.7-44-71.1-46.9-106.8l-0.2-2.9l1.6-1.1c3.9-2.3,7.4-7,8.9-11.7c1.2-3.6,1.3-9.7,0.4-13.8
			c-1.9-7.9-6.9-14.9-14.3-19.8c-1.8-1.2-3.2-2.2-3.3-2.3c-0.1,0-29-225-34.3-267l-2.1-16.3l1.9-2.1c3.4-3.7,5.1-7.9,5.4-13.3
			c0.4-7.4-2.3-14.3-7.8-19.9c-0.8-0.8-1.5-1.9-1.5-2.3c0-0.4-0.5-3.2-1.1-6.4c-0.5-3.1-2-10.6-3.1-16.7c-1.1-6-3.6-19-5.6-28.9
			c-2-9.8-3.7-18.9-3.9-20.4c-0.3-1.4-0.7-4.3-1-6.6c-0.6-3.8-0.6-4.3-0.1-7.8c0.7-4,2.5-8.4,4.4-10.6c3-3.5,8.7-4.7,15.2-3.2
			c1.7,0.4,1.9,0.5,1.7,1.2c-0.2,0.4-0.4,1.4-0.5,2.2c-0.1,1.4,0,1.7,1.4,3.5c1.7,2,5.7,5.2,8.6,6.9c1.8,1.1,8.7,3.5,9.7,3.5
			c0.4,0,1.3,0.4,1.9,0.7c1.4,0.9,2.8,0.9,4.2,0.2c1.1-0.5,3.8-3.5,6.7-7.3c1.2-1.6,1.9-2.3,2.3-2.1c0.4,0.1,7.3,1.5,15.4,3.2
			c8.1,1.7,16.1,3.5,17.7,4c1.6,0.5,4.7,1.1,6.9,1.4c2.2,0.4,39.1,8,81.9,17c42.8,9,78.1,16.4,78.4,16.4c1.4,0,2.9-1.2,3.8-2.8
			c1.3-2.4,5.3-14.4,6.9-20.5c3.8-14.7,6.2-29.8,6.5-40c0.1-3.7,0.1-3.9-0.9-4.9c-0.5-0.5-1.9-1.4-2.9-1.8c-1.1-0.5-42.9-14-93-30.2
			c-50.2-16.1-91.4-29.5-91.6-29.7c-0.4-0.3-0.6-1.3-0.8-3c-0.5-6-0.8-6.4-4.1-9.6c-10.7-10.6-24.8-11.5-35-2.3
			c-1.1,1-2.1,1.7-2.2,1.7c-0.2,0-2.4-1-5.1-2.2c-31.8-15-62.2-21.9-88.4-20.2c-11.3,0.7-26.1,3.7-34.4,6.9
			c-12.2,4.6-25.8,13.2-35.2,21.9c-12.7,11.8-20.8,23.3-27.3,38.4c-3.2,7.5-6,15.4-7.1,20c-0.6,2.5-2,8.3-3.2,12.8
			c-1.1,4.6-2.3,10.5-2.9,13c-1.8,9.6-3.5,17.8-4.3,21.4c-0.5,2-1.2,6-1.6,8.7c-0.5,2.7-2.3,13.3-4.3,23.4
			c-2,10.1-4.3,22.5-5.2,27.4c-0.9,5-2.2,11.6-2.7,14.7c-0.6,3.2-1.1,6-1.1,6.4c0,0.4-0.7,1.4-1.5,2.3c-5.4,5.6-8.1,12.5-7.8,19.9
			c0.3,5.4,2,9.7,5.4,13.3l1.9,2.1l-2.1,16.3c-5.3,42-34.2,267-34.3,267c-0.1,0.1-1.5,1.1-3.3,2.3c-7.4,5-12.4,11.9-14.3,19.8
			c-0.9,4.1-0.7,10.2,0.4,13.8c1.5,4.7,5.1,9.4,8.9,11.7l1.6,1.1l-0.2,2.9c-2.5,31.8-16.9,67.3-39,96.7
			c-4.8,6.4-10.4,13.2-14.9,17.9l-3.2,3.4l-5.9,0.5c-3.2,0.2-6.8,0.4-7.8,0.4h-1.9l-1.8-2.7c-4.9-7.2-11.9-15-17.2-18.9
			c-3.7-2.7-10.6-6.2-12.1-6.2c-0.6,0-1.9,0.4-2.7,0.7c-0.8,0.4-18.1,13.4-38.4,29.1c-20.3,15.6-39.2,30.1-42,32.3
			c-5.3,4.2-6,5-6.4,7.8c-0.2,1.4,0,2.4,1.1,5.8c5.1,16,14.3,32.3,22.3,39.7l2.1,2l0.4,4.7c0.2,2.6,0.5,5.3,0.7,6.1
			c0.3,1.3,0.2,1.6-2.3,6.1c-5.4,9.4-11.3,21.6-15.3,31.8c-8,19.8-13.4,39.9-16.3,59.9l-0.8,5.5l-1.4,1c-2.7,1.8-6.3,6.1-7.8,9.3
			c-1.9,3.9-2.5,6.5-2.5,10.7c0,4.3,0.6,7.1,2.5,10.7C112.6,1019,114.8,1021.4,117.7,1023.6z"/>
	</g>
	<path class="st1" d="M341,618.8c1.4,0.2,3.8,0.4,5.3,0.4c1.5,0.1,3.5,0.2,4.4,0.4c1.6,0.3,1.5,0.3-1.3,0.5
		c-1.6,0.1-4.1,0.4-5.4,0.6c-3,0.5-2.5,0.8,1.6,1.2c4.9,0.5,8.7,1,8.4,1.3c-0.2,0.2-2.7,0.5-5.7,0.7c-5.4,0.5-8.1,1.1-4.9,1.1
		c1.5,0,8.6,0.7,12.4,1.3c1,0.2,1.8,0.5,1.9,0.5c0.2,0.3-4.3,0.8-9.6,1.3c-3.4,0.3-4.7,0.9-2,0.9c1.1,0,3.9,0.3,6.1,0.5
		c2.3,0.3,5.4,0.6,7.1,0.7c7,0.5,4.9,1-7.2,1.5l-6.3,0.3l5.4,0.5c3,0.2,6.5,0.5,7.8,0.8c1.3,0.2,3.6,0.5,5,0.5
		c2.5,0.3,4.9,0.8,3.6,0.9c-0.3,0-4.7,0.3-9.7,0.5c-5,0.3-9.8,0.5-10.6,0.5c-0.7,0-1.4,0.2-1.4,0.4c0,0.3,2.6,0.4,7.1,0.4
		c6.4,0,19.7,0.8,20.2,1.3c0.2,0.2-5.8,0.7-20.7,1.9c-5.7,0.5-1.9,0.7,12.3,1c11.3,0.2,18.6,0.5,17.9,0.9c-0.1,0-2.7,0.2-5.8,0.4
		c-3.1,0.2-8.7,0.6-12.4,0.9c-3.8,0.3-7.3,0.5-7.9,0.5c-1,0.1-0.9,0.1,0.4,0.4c0.8,0.2,6.3,0.4,12.3,0.5c6,0.1,11.7,0.4,12.8,0.5
		c1.1,0.2,10.7,0.5,21.5,0.6c10.7,0.1,18.9,0.4,18.2,0.5c-1.7,0.4-8,0.9-15.7,1.4c-14.2,0.9-10.9,1,31.9,0.9
		c36.5-0.2,72.3,0,105.7,0.5c2.4,0.1,4.4,0,4.3-0.1c-0.2-0.1-13.8-1.4-21.1-2c-16.6-1.3-33.8-1.7-72.7-2.2
		c-20.6-0.2-32.7-0.5-32.9-0.6c-0.3-0.3-0.1-0.5,0.5-0.5c2.3-0.5,21.9-1,45.6-1.2c30.7-0.3,50.1,0.2,69.1,1.6
		c7.2,0.5,18.7,0.8,18.2,0.5c-0.4-0.4-1.9-0.5-17.7-1.9c-8.8-0.7-20.8-1.5-32.6-2.2c-4.2-0.3-18.8-0.5-32.2-0.5
		c-13.4,0-24.5-0.2-24.7-0.3c-0.1-0.2-0.2-0.4-0.1-0.4c1-0.9,42.8-2.3,55.2-1.8c5,0.2,58.8,0.4,57.7,0.2c-3.4-0.5-60.1-3.9-79.8-4.8
		c-5.1-0.3-9.3-0.5-9.3-0.7c0-0.7,18.9-0.9,36.8-0.4c14.4,0.5,29,0.5,44.2,0.1c7-0.3,13-0.5,13-0.5c0.2-0.2-20.2-1.8-29.4-2.4
		c-2.9-0.2-8.3-0.5-12.1-0.5c-13.6-0.4-28.1-1-28.7-1.2c-0.4-0.1-0.3-0.3,0.4-0.5c0.6-0.3,10-0.5,31.2-0.5c16.7,0,33.2-0.2,36.8-0.4
		l6.5-0.3l-7.2-0.8c-7.9-0.9-15.1-1.4-29.2-2c-5.1-0.3-9.6-0.5-9.9-0.6c-0.5-0.1-0.5-0.2,0.1-0.5c0.8-0.5,17.2-1.2,29.5-1.3
		c16.8-0.1,16.8-0.1-0.4-1.8c-8.8-0.9-9.7-1-9.7-1.3c0-0.5,5.9-0.8,14.1-0.5c4.7,0.2,12.2,0.3,16.8,0.4c12.6,0.2,18,0.7,22.2,2.2
		c3.9,1.4,5.1,2.3,8.2,5c2.4,2.2,4.6,6,6.1,10.5l0.8,2.5l-0.2-2.2c-0.5-6.2-4.9-13.1-10.9-17.1c-2.5-1.6-2.8-1.8-4.9-1.8
		c-1.3,0-4.2-0.2-6.4-0.4c-9.9-0.8-44.7-2-72.3-2.4c-22.1-0.5-102.1-0.3-117.9,0.3c-7.3,0.2-18.6,0.5-24.9,0.7
		c-13.3,0.4-25.3,0.9-32.1,1.4c-2.5,0.2-5.5,0.4-6.6,0.4c-1.5,0-2.4,0.3-3.7,1l-1.6,1l4.4,0.3C336.5,618.2,339.6,618.5,341,618.8z
		 M427.7,639.8c-4.5,0.7-34.4,1.6-36.4,1.1c-1.2-0.3-1.4-0.7-0.5-1c0.5-0.1,3.2-0.5,6.1-0.7c4.2-0.5,7.2-0.5,16.1-0.4
		c6,0.1,12.1,0.3,13.7,0.5l2.9,0.3L427.7,639.8z M444.2,633.8c-11.2,0.5-19.3,0.8-31.1,1c-7.8,0.1-18.4,0.3-23.4,0.4
		c-5.2,0.1-8.7,0-8.2-0.2c0.5-0.2,5-0.5,9.7-0.7c4.8-0.2,11.8-0.6,15.6-1c7.6-0.6,27.1-0.8,34.5-0.4
		C445.5,633.3,446.9,633.6,444.2,633.8z M461.6,633.4c-2,0.3-7.3,0.3-7.3-0.1c0-0.2,1-0.5,2.3-0.5c1.3-0.1,3.2-0.4,4.3-0.5
		c1.7-0.3,2.1-0.2,2.1,0.3C462.9,632.9,462.5,633.2,461.6,633.4z M483.2,627.4c-1.1,0.6-32.8,1-36.2,0.4c-1.6-0.3,20.9-1.3,29.5-1.3
		C482.7,626.5,484.3,626.7,483.2,627.4z M465.1,621.3c11.7-1.3,44.9-1.5,43.7-0.3c-0.3,0.3-8.5,0.5-23.4,0.5
		C471.7,621.6,463.5,621.5,465.1,621.3z M452.1,622.5c-0.1,0.1-6.5,0.4-14.2,0.7c-13.6,0.5-31.8,0.6-31.3,0.2
		C407.2,622.8,452.7,621.9,452.1,622.5z M405.2,629.6c17.7,0.7,12.3,1.4-15.5,1.6c-11.5,0.2-17.3,0.1-17.7-0.1
		c-0.4-0.3-0.5-0.5-0.2-0.7c0.2-0.2,5.6-0.5,11.9-0.8C392.6,629.3,397.6,629.3,405.2,629.6z M385.1,624.6c13.3,0.2,15.6,0.8,4.7,1.2
		c-3.9,0.1-9.4,0.4-12.2,0.5c-6.5,0.5-9.9,0.5-10.6,0C364.9,625.1,371.3,624.4,385.1,624.6z M360.7,619.8c0.3-0.3,18.8,0.9,19,1.2
		c0.3,0.2-9.7,0.6-14.6,0.6c-3.6,0-4-0.1-4.3-0.7C360.6,620.5,360.6,620,360.7,619.8z"/>
	<path class="st1" d="M371.3,310.1c2.8,0.4,3.2,0.3,1.8-0.3c-0.7-0.4-1.6-0.9-2.1-1.4c-1.6-1.5-0.7-5.1,1.5-6
		c0.6-0.3,0.6-0.3-0.2-0.4c-0.5,0-1.5,0.4-2.2,0.8c-2.3,1.5-2.7,3.6-1.4,5.8C369.6,309.6,370,309.9,371.3,310.1z"/>
	<path class="st1" d="M340.1,607.6h2.3l0.2-1.2c0.1-0.6,0.7-6.3,1.4-12.5c0.7-6.2,2.8-23.6,4.7-38.6c1.9-15,4.7-37.8,6.3-50.7
		c1.6-12.9,4.4-35.6,6.3-50.5c1.9-14.9,3.9-31.3,4.5-36.4c2.1-17.9,6.9-61.1,6.9-62.1c0-1,0-1-1.6,0.6l-1.5,1.6l-16,124.4
		c-8.7,68.4-15.9,124.6-15.9,124.9C337.7,607.5,338.5,607.6,340.1,607.6z"/>
	<path class="st1" d="M230.1,803.3l6.7-0.2c6.8-0.2,21.3,0.4,23.3,0.9c1.1,0.4-1.9,0.8-11.2,1.8l-2.5,0.3l3.6,0.3
		c2,0.1,6.3,0.4,9.6,0.5c6.3,0.4,6.5,0.6,0.5,1.1l-3.6,0.3l6.1,0.7c3.3,0.4,6.4,0.8,6.7,0.9c0.3,0.1-1,0.5-2.9,0.6l-3.4,0.4l4.1,0.4
		c2.3,0.1,5.9,0.5,7.9,0.7c2.1,0.4,4.7,0.5,6,0.6c3.7,0,4.4,0.5,0.9,0.6c-1.7,0-5.5,0.3-8.5,0.5l-5.4,0.4l5.4,0.3
		c3,0.2,7.9,0.5,11,0.6c3.1,0.2,12.2,0.5,20.2,0.5c8,0.2,16.9,0.4,19.7,0.5c4.9,0.2,5,0.2,2.3,0.5c-1.5,0.2-8,0.4-14.6,0.6
		c-6.6,0.2-16.1,0.6-21.1,0.9c-8.6,0.5-7,0.5,24.3,0.3c18.5-0.1,83.1-0.2,143.7-0.3c81,0,111.4-0.2,114.7-0.5c5.1-0.5,11.3-1,17-1.4
		l3.8-0.3l-2.5-0.2c-5-0.5-18.1-1.4-26.5-1.8c-25.4-1-28.5-1.2-28.1-1.6c0.3-0.3,7.6-0.4,23.7-0.4c14.3-0.1,25.3-0.3,28.4-0.5
		c2.8-0.3,5.7-0.4,6.5-0.5c3.6-0.2-15.7-1.4-31-1.9c-9.3-0.4-17.2-0.6-17.5-0.7c-0.4-0.2-0.4-0.3-0.1-0.6c0.3-0.3,7.5-0.4,22.7-0.6
		c23.6-0.4,30-0.7,19.7-1.2c-16.7-0.7-22.7-1.1-23.1-1.4c-0.2-0.2,0-0.4,0.5-0.4c0.5,0,1.1-0.2,1.4-0.4c0.2-0.3,3.4-0.5,7.9-0.7
		c7.7-0.3,16.3-0.9,19.9-1.4l2-0.3l-3.4-0.3c-3.8-0.4-11.5-1.7-11.5-2.1c0-0.7,22.2-0.5,29.4,0.4c1.8,0.2,8.2,0.5,14.2,0.7
		c6,0.2,12.2,0.5,13.5,0.5c1.4,0.1,6.1,0.4,10.6,0.5c15.3,0.7,37,2.2,40.1,2.7c7.7,1.4,12.9,4.2,16.8,9.4l0.8,1.1l-0.5-1.4
		c-1.1-2.7-2.4-4.7-4.6-6.8c-4.4-4.2-10.4-6.1-19.9-6.6c-2.6-0.1-7.2-0.4-10.3-0.5c-21.6-1.4-91.8-4.1-159.1-6.2
		c-8.1-0.2-30-0.4-49.4-0.4c-19.4,0-41.3,0.2-49.4,0.4c-67.3,2.1-137.5,4.8-159.1,6.2c-3.1,0.2-7.7,0.5-10.3,0.5
		c-5.7,0.3-11.1,1.4-14.1,2.7L230.1,803.3z M520,814.1c-0.7,0.5-83.6,0.5-150,0.2c-38.9-0.2-40.7-0.4-13.9-1.1
		c6.7-0.2,15-0.5,18.6-0.7c12.7-0.7,32.6-1.1,67.1-1.3c35.3-0.3,45-0.1,63.5,1.1C516.6,813,521,813.5,520,814.1z M523,801.3
		c13.1,0.3,24,1,29.4,2c2.5,0.4,1.7,0.4-9.6,0.4c-6.8,0-14.3-0.2-16.8-0.3c-9.7-0.6-18.8-1.1-24.6-1.4c-3.3-0.1-6-0.3-6-0.4
		C495.4,801.2,509.3,801,523,801.3z M508.3,806.2c5.1,0.3,10.4,0.5,11.6,0.5c1.3,0,4.7,0.3,7.6,0.6c4.8,0.5,5.1,0.6,3.4,0.9
		c-2.7,0.4-34.3,0.6-39.5,0.3c-2.5-0.1-12.4-0.5-22-0.7c-10.4-0.2-17.7-0.5-17.9-0.7c-0.2-0.3,0.2-0.4,1.3-0.3
		c0.9,0,11.6-0.2,23.9-0.5C494.6,806,500.8,805.9,508.3,806.2z M473.9,799.4c1.6,0.2,1.7,0.3,0.9,0.5c-1,0.5-33.4,0.6-42.3,0.4
		c-3.1-0.2-5.7-0.4-5.9-0.5C426.4,799.5,471.7,799,473.9,799.4z M437.2,805.3c0.1,0.2,0.1,0.4-0.1,0.5c-0.4,0.4-36,1.2-54.6,1.2
		c-8.7,0-16-0.1-15.9-0.1c0.5-0.5,26.2-2.1,39-2.3C415.5,804.4,436.8,805,437.2,805.3z M340.8,803.4c1.1-1,22.1-2.7,37.7-3.1
		c5.9-0.1,11.6-0.3,12.8-0.5c1.2-0.1,2.1-0.1,2,0.1c-0.6,0.6-10.6,1.4-37,3.1C343.1,803.9,340.4,804,340.8,803.4z M356.1,809.5
		c2.7,0.3,2.2,0.4-5.4,0.5c-4.7,0.2-9.7,0.5-11.4,0.6c-8,1-18.9,1.5-35,1.6c-10.9,0.2-17,0.1-16.6-0.1c0.8-0.4,2.7-0.6,19.3-2.2
		c9.6-0.8,11.5-0.9,28.1-0.9C345.1,809.2,354.4,809.3,356.1,809.5z M272.4,808.1c0.5-0.5,5.1-1.1,18.7-2.3
		c7.5-0.6,13.7-0.9,24.2-1.1c7.8-0.2,14-0.2,13.9,0c-0.2,0.1-1.9,0.5-4,0.7c-3.5,0.5-5.9,0.7-18.2,1.6c-2.3,0.2-9.3,0.5-15.3,0.7
		c-6,0.2-13,0.5-15.3,0.5C272.9,808.5,272,808.5,272.4,808.1z"/>
	<path class="st1" d="M446.9,854.8c0.5-3.9-2.4,6.5-5.3,18.2c-3.6,15.4-6.5,35.9-7.4,53.7c-0.3,5.8-0.7,12.9-0.9,15.7
		c-0.4,4.7-0.5,15.1-0.2,13.9c0.1-0.3,0.6-5.7,1.3-12.1c0.6-6.3,1.4-13.6,1.8-16.2c0.5-2.5,0.9-5.8,1.1-7.2
		c0.2-1.4,1.4-9.8,2.5-18.8c2.3-16.7,2.4-18,5.2-35.7C446,860.6,446.9,855.5,446.9,854.8z"/>
	<path class="st1" d="M376.1,297.6c3.3-0.2,6.3-0.4,6.6-0.5c0.3-0.1,0.5,0,0.5,0.2c0,0.2-1.5,0.7-3.4,1.2c-1.8,0.5-4,1.1-4.8,1.4
		l-1.4,0.7l1.6-0.2c0.9-0.1,3.2-0.3,5.2-0.4c2-0.1,4.2-0.3,5-0.4c2.2-0.4,0.8,0.4-2.2,1.1c-3,0.6-6,1.6-5.9,1.8
		c0.1,0.1,2.3,0,5.1-0.2c4.5-0.4,5-0.5,5.9-1.3c1.9-1.9,5.1-1.3,6,1.1c0.7,1.7,0.5,3.1-0.9,4.3c-0.9,0.8-1.4,1.1-2.5,1.1
		c-0.8-0.1-1.8-0.4-2.2-0.7c-0.6-0.5-0.9-0.5-4.2,0c-4.2,0.7-6.9,1.4-8.9,2.4l-1.4,0.7l1.8-0.3c10.6-1.3,29.4-2.6,23.4-1.6
		c-1.2,0.3-3.6,0.6-5.3,0.9c-3.8,0.6-15.5,3.4-15.3,3.7c0.1,0.1,2.9-0.2,6.2-0.6c3.4-0.4,8.6-0.9,11.5-1.1c3-0.2,6.9-0.5,8.8-0.7
		c6.9-0.6,6.6-0.3-0.5,0.9c-7.1,1.3-15,3.3-10.8,2.9c5.4-0.5,11-0.9,18.6-1.3c4.7-0.2,11.3-0.5,14.8-0.7c12.6-0.6,37-1.2,45.4-1
		c32,0.9,37.4,1.3,51,2.9c7.8,0.9,13.4,1.2,14.2,0.7c0.5-0.3,0.2-0.5-1.6-0.7c-7.5-1.4-28.6-3.5-43.5-4.5
		c-4.1-0.3-16.5-0.4-32.9-0.5c-18.7,0-26.5-0.1-26.8-0.4c-0.8-0.8,20.9-2,37.2-2c23.2,0,51.2,2.1,67.6,5c3.5,0.6,4.1,0.6,4.1,0
		c0-0.7-22.2-4.1-34.8-5.4c-2.2-0.2-4.7-0.5-5.5-0.5l-1.5-0.2l1.3-1.2l1.3-1.1l6,0.6c7.7,0.7,7.1,0.8,6.3-0.5
		c-0.7-1.3-0.7-1.3-6.9-1.8c-2.7-0.3-4.9-0.5-4.9-0.5c-0.1-0.1-0.2-0.6-0.3-1.3l-0.3-1.2l2.8,0.2c9.7,0.6,9,0.6,10.2-0.4
		c0.6-0.5,1.4-0.9,1.9-0.9c0.5,0,0.6-0.1,0.5-0.2c-0.3-0.3-7.5-1.2-14.5-1.8c-3.8-0.4-8.1-0.7-9.7-0.8c-1.6-0.2-2.9-0.5-2.8-0.6
		c0.1-0.5,13-0.4,19.3,0.2c5.7,0.5,14.1,1.5,21.6,2.7c3.1,0.5,6.3,1,7.2,1.1l1.6,0.3l-0.7-0.7c-0.5-0.5-2.4-1.2-7-2.3
		c-3.4-0.7-7.5-1.5-8.8-1.8c-2.2-0.3-5.2-0.9-8.7-1.6c-0.5-0.1-0.7-0.4-0.6-0.5c0.5-0.8,10.4-0.2,18.6,1.3c1.7,0.4,5.9,1.1,9.2,1.6
		c8.8,1.5,13.9,3.2,15.8,5c2.3,2.3,3.7,7.1,3.4,12.9c0,1.8,0,3.3,0.2,3.2c0.1-0.1,0.5-1,0.8-2.1c2-5.8-0.7-15.2-4.9-17.4
		c-2.3-1.2-18.8-4.2-29.9-5.6c-16.7-2-30.2-2.4-69.8-2.3c-27.4,0.1-31.8,0.2-43.6,1.1c-13,1-28,3.2-37.8,5.4c-4.1,1-5.6,1.5-6.4,2.5
		C370,297.8,370.4,297.8,376.1,297.6z M487.3,298.4c6,0.2,6.3,0.2,7.9-0.6c2-1,3.5-0.8,5,0.6c1.4,1.3,1.4,3.5,0.1,5
		c-1.4,1.7-3.3,2-11.5,1.5c-6.7-0.5-17.4-0.4-39.7,0.3c-6.7,0.2-8.9,0.1-8.9-0.2c0-0.3,0.3-0.5,0.5-0.5c0.4,0,2.8-0.3,5.5-0.5
		c2.7-0.3,7.3-0.6,10.1-0.8c2.9-0.3,5.3-0.5,5.3-0.5c0.1-0.1-0.1-0.5-0.5-0.9c-0.5-0.6-1.3-0.8-4.3-1.1c-2.1-0.3-3.9-0.5-3.9-0.5
		c-0.1-0.1,1.5-0.4,3.7-0.5c3.8-0.5,3.9-0.5,5-1.7c3.2-3.7,8.8-0.8,7.3,3.7l-0.4,0.8h9.7c5.3,0,11,0.1,12.5,0.3l2.8,0.2l-0.3-1
		c-0.1-0.6-0.3-1.1-0.4-1.2c0,0-2.9-0.2-6.3-0.5c-8.1-0.5-14.8-1.1-14.8-1.4C471.9,298.4,480.9,298.1,487.3,298.4z M445.6,294.1
		c8.5-0.5,28.3,0.2,29,0.8c0.2,0.2-3.3,0.3-8.1,0.3c-4.7,0-11.5,0.2-15.1,0.4c-8.9,0.5-25.2,1-25.1,0.6
		C426.8,295.5,434.4,294.6,445.6,294.1z M414.2,298.8l1.1,1.1l5.1-0.4c2.8-0.3,5.9-0.4,6.8-0.3c1.5,0.2,1.8,0.1,2.7-0.8
		c1.8-1.8,4.3-1.8,6,0.2c0.7,0.8,1.1,0.9,3.5,1c1.4,0,3.9,0.1,5.2,0.3c2.2,0.2,1.8,0.3-2.5,0.3l-5,0.1l-0.5,1.7
		c-0.5,1.5-0.8,1.9-2.3,2.7c-1.6,0.9-2.4,1-9,1.5c-12.4,0.9-14.8,1-14.4,0.6c0.2-0.3,1.6-0.6,3.1-0.8c2.3-0.3,13.7-1,17.1-1.1
		c1,0,1-0.1,0.4-0.4c-1.1-0.5-2.3-2.1-2.3-3.2v-0.9l-3.7,0.3c-9.2,0.5-9.6,0.6-9.9,1.2c-0.7,2.4-2.3,3.5-4.3,3.2
		c-1.4-0.3-3-1.5-3-2.3c0-0.5,0.1-0.5-4.8-0.1c-3.8,0.4-5.2,0.3-4.2-0.4c0.3-0.2,2.3-0.5,4.6-0.9c4-0.6,4.1-0.7,4.5-1.6
		c0.5-1.4,1.7-2.2,3.5-2.2C412.9,297.7,413.4,298,414.2,298.8z M390,299.1c0-0.4,0.2-0.7,0.4-0.8c0.9-0.5,21.8-1.6,21.2-1.1
		c-0.1,0.1-4.1,0.6-8.9,1.1C389,299.8,390,299.7,390,299.1z"/>
	<path class="st1" d="M402.7,778.9c-1.8,3.5-3.2,6.4-3.1,6.4c0.1,0.1,5.5,0,12.2-0.3c6.6-0.3,15.4-0.5,19.7-0.6
		c4.3-0.2,7.8-0.4,8-0.6c0.7-0.8,5.7-18.3,7.2-25.6c2-9.6,3.9-23.6,4.7-35.3c1.1-15.1,1.5-48.3,0.9-61.3l-0.3-5.2h-2.1h-2.1
		l-0.2,8.4c-0.5,15.4-1.7,30.6-3.5,43.2c-1.4,9.1-2.6,15.7-3.6,18c-0.5,0.9-0.6,1.3-0.5,0.7c1.1-4.1,1.7-7.7,2.5-13.5
		c1.5-10.6,1.6-29,0.3-52.8l-0.2-4.1l-7.1,0.3c-3.9,0.1-8.7,0.4-10.6,0.4c-3.2,0.3-3.6,0.4-3.7,1c-0.1,0.4-0.9,3.6-1.9,7
		c-1,3.5-2,7.7-2.3,9.4c-1,5.5-3.5,16.4-3.9,16.8c-0.2,0.3-0.3,0-0.1-0.5c0.1-0.5,0.5-3.6,0.7-6.9c0.3-3.2,0.8-7.7,1.1-9.8
		c0.7-5.3,0.7-15.7,0-16c-0.7-0.4-10.5,1.2-15.7,2.3c-7.4,1.6-19.6,5.6-25.6,8.2l-1.7,0.7l-2.6,10.5c-1.4,5.7-3.2,12.3-3.8,14.5
		c-2.5,8.7-9.1,25.1-13.8,34.4c-4.7,9.5-13.3,24.6-13.7,24.2c-0.1-0.1,0-0.4,0.2-0.6c0.5-0.7,8-15.8,10.4-20.8
		c4.7-10.3,9.9-25.5,11.7-34c0.8-3.8,4.3-23.8,4.3-24.3c0-0.3-1.5,0.4-3.4,1.3l-3.4,1.7l-0.5,2c-1.3,4.6-5.4,16.7-6.9,20.2
		c-4.3,10.5-8.7,20.1-9.3,20.4c-0.1,0.1,0.8-2.8,2.1-6.5c1.8-5.1,3-9.6,5.2-19.6c1.5-7,2.8-12.9,2.8-12.9c-0.1-0.1-1.6,0.8-3.5,1.8
		c-2.9,1.6-3.5,2.2-3.9,3.2c-0.2,0.6-1.2,3.7-2.2,6.8c-1.5,4.9-4.2,11.6-10.3,26c-2.3,5.3-8,17-9,18.2c-0.5,0.6-2.3,3.8-4.1,7
		c-8.3,15.4-14.4,24.6-24.9,37.1c-2.3,2.9-5.4,6.4-6.9,7.8l-2.5,2.4l4.7-0.3c4.6-0.2,4.7-0.3,5.9-1.4c0.7-0.6,3.3-3.5,5.8-6.4
		c10.3-11.8,11.5-13.4,18.3-22.6c2.2-3,4-5.4,4.1-5.3c0.2,0.2-2.6,5.1-6.2,10.8c-1.6,2.6-4.4,7.3-6.1,10.5c-1.7,3.2-4.3,7.6-5.7,9.6
		c-1.4,2.2-2.4,4.1-2.3,4.1c0.1,0.1,3.7,0,8-0.2c4.4-0.2,13.7-0.6,20.6-0.9c10.2-0.4,12.9-0.6,13.2-1c7-8.8,14.2-19,18-25.8
		c13.2-23.3,17.6-36.6,23.7-71.3c1.4-7.8,2.6-15,2.7-16.1c0.2-1.2,0.4-2.2,0.5-2.3c0.1-0.1,0.2,0.3,0.1,0.8c0,0.5-0.5,3.8-0.8,7.1
		c-0.8,6.9-3.8,26.2-5.4,35.2c-1.7,9.2-3.7,16.8-7,26.7c-5.7,16.6-10.9,27.5-19.5,40.4c-1.9,2.9-3.3,5.2-3.2,5.3
		c0.1,0.1,8.2-0.1,18.1-0.4c9.8-0.4,18.2-0.6,18.5-0.6c0.7,0,7.8-9.2,11.6-15.2c6.1-9.5,8.4-14.1,13.8-28.3c1.1-2.8,2-4.8,2-4.6
		c0,1.5-2.8,11.8-5.1,18.8C408.7,765.9,406.8,770.4,402.7,778.9z"/>
	<path class="st1" d="M266.4,790.5c2.7-1.4,15.9-14.3,21.4-20.9c12.1-14.3,22.7-31.9,29.6-48.7c2.3-5.6,6.8-18.6,8.2-24
		c1.3-4.5,3.1-12.8,3.9-17.3c0.6-4,1.5-15.8,1.3-17.3c-0.3-1.3-0.4-0.9-0.8,2.9c-3.9,36.1-21.5,75-48.1,106.6
		c-4.5,5.4-13.2,14.6-15.7,16.9c-1.1,0.9-2,1.8-2,2C264.2,791,265.5,790.9,266.4,790.5z"/>
	<path class="st1" d="M517.6,346.6c-1.4-1.2-2.4-2-2.5-1.9c-0.2,0.2,2.8,23.4,4.9,37.4c1.6,11.1,3.2,24.7,3.8,34.2
		c0.2,1.8,0.5,3.3,0.6,3.3c0.2,0,0.2-0.4,0.1-0.8c-0.1-0.5-0.3-2.6-0.4-4.8c-0.1-2.2-0.5-6.7-0.7-10.1c-0.6-7.1-1.9-24.8-2.2-30.8
		c-0.1-2.3-0.5-7.8-0.7-12.3c-0.3-4.4-0.5-9-0.5-10.1v-2.1L517.6,346.6z"/>
	<path class="st1" d="M412.8,524.3c-1.4,36.6-1.8,45.2-2.3,54.5c-0.6,10.5-1.5,22.4-1.8,24.8l-0.3,1.5l16.1-0.2
		c8.7-0.1,18.6-0.2,21.8-0.2h5.8l0.3-16.5c0.3-25.6,0.8-55.4,1.6-91c0.4-17.9,0.9-41.8,1.1-52.8c0.2-11.1,0.6-30.7,0.9-43.5
		c0.3-12.8,0.7-31.4,0.9-41.3c0.4-17.3,0.9-32.6,1.3-37.8l0.2-2.4h-1.9c-1.6,0-8.3,0.7-8.5,0.9c0,0-0.6,10.8-1.4,27.1
		c-0.3,6.1-0.7,13.9-0.9,17.1c-0.7,12.1-2.2,32.4-2.3,34.1c-0.1,1-0.6,7.8-1.1,15.1c-1.1,16.1-1.5,21.7-3.4,41.7
		c-1.8,19.2-2.2,22.2-2,15.7c0.2-5.4,1.6-33.9,2.7-53.4c0.8-14.7,1.4-39.6,1.4-58.4c0-12.4-0.5-34.1-0.9-36.9l-0.3-1.6l-1.8,0.3
		c-4.9,0.6-11.5,2.2-17.2,4.1c-6.8,2.3-12.8,4.7-13.5,5.5c-0.5,0.5-4.1,16.4-4.1,17.7c0,0.4-0.2,0.7-0.3,0.8
		c-0.2,0.1-0.3-3.5-0.2-7.9c0.1-5,0.1-8.1-0.2-8.1c-0.3,0-8.2,4.4-8.6,4.8c-0.1,0.1-1.2,6.5-2.5,14.3c-5.1,30.4-9.3,53.9-12.6,71.1
		c-1.3,6.5-3.2,16.9-4.3,23.1c-1.1,6.2-3,16.8-4.2,23.4c-1.4,6.7-2.4,12.7-2.6,13.5c-0.1,0.7-0.3,1.3-0.4,1.2
		c-0.3-0.2,2.1-16.6,5.2-37.6c1.2-7.8,2.9-20.6,3.8-28.5c2-17.6,4.1-35.3,7-57.3c1.3-9.1,2.2-16.7,2.1-16.8
		c-0.2-0.1-1.3,0.6-2.5,1.6l-2.3,1.8l-1,6.8c-4.3,30.2-9.4,68.1-12,89.5c-1.1,8.9-4.6,37.2-7.8,62.9c-3.2,25.7-6.7,54-7.8,62.9
		c-1.8,14.6-3.5,27.5-4.5,34.2c-0.5,3.4-0.6,3.2,1.7,3.1c1.2-0.2,6.9-0.5,12.7-0.6c16.1-0.5,32.5-1.1,34.3-1.1h1.7l0.3-3
		c0.4-4.8,1.4-13.4,4-31.5c4.5-32.5,8-61.8,9.7-81.7c0.9-10.4,2.5-28.2,3.6-39.7c1.1-11.4,2.2-22.8,2.3-25.4
		c0.5-5.6,0.7-7.8,0.9-7.7c0.4,0.4-2,41.5-4,71.3C414,498,413.1,514.4,412.8,524.3z"/>
	<path class="st1" d="M518,566.8c0.4,0,3.5,16.7,4.4,23.8c0.7,5.6,2.3,13.7,2.8,14.2c0.5,0.4,1.9,0.5,5,0.6h3.1l-0.2-1.2
		c-0.3-1.4-2.2-17.8-6.9-60.3c-1.9-16.9-4.7-41.1-6.1-53.8c-3.2-26.7-8.2-72-12.4-109.9c-4.9-44.3-5-44.6-5.9-45.4
		c-1.4-1.2-7.5-4.7-7.8-4.4c-0.4,0.3,0.9,21.3,1.9,32.3c0.9,9.7,2.6,29.2,3.6,41.7c0.9,10.9,4.1,41.8,6.3,61.2
		c1.1,9.6,1.2,10.6,0.9,10.4c-0.3-0.3-3.6-28.8-6-50.3c-3.9-35.5-6-52.1-8.7-66.7c-0.7-4.3-2.3-13.5-3.5-20.3l-2.1-12.4l-3.7-1.4
		c-4.3-1.7-10.2-3.4-10.5-3.1c-0.1,0.1,0,4.9,0.2,10.6c0.3,5.7,0.6,18.1,0.8,27.7c0.2,9.6,0.6,27.9,0.9,40.8
		c0.3,12.9,0.7,32.6,0.9,43.6c0.2,11.1,0.7,34.9,1.1,52.8c0.8,35.6,1.4,65.4,1.6,91l0.3,16.5h5.6h5.6l-0.3-2.6
		c-0.2-2.6-0.3-6.2-0.9-34.9c-0.2-8.7-0.6-23.6-0.9-33.4c-0.3-9.7-0.6-21.6-0.7-26.5c-0.5-20.6-1-33.8-1.4-41.5
		c-1.2-17.2-1.6-25.5-1.6-27.4c0.1-2.3,1.4,11.4,2.7,29c0.5,6.6,1.1,13.5,1.3,15.5c1.1,11,3.2,38.9,4.3,56.1
		c1.3,19.4,2.8,36.7,4.9,54.8c0.5,4.2,0.9,8.5,0.9,9.3v1.5h3.1h3.1l-0.2-7.3c-0.1-4-0.4-15.7-0.5-25.9c-0.5-20.2-0.7-27.8-1.8-41.8
		c-0.4-5-0.9-13.3-1.3-18.4c-0.3-5-0.6-10.6-0.7-12.3c-0.1-1.8-0.1-2.8,0.1-2.5c0.2,0.3,0.5,1.9,0.6,3.6c0.1,1.7,0.7,7.6,1.4,13
		c0.7,5.5,1.8,15.4,2.5,22.2c1.3,12,2.6,21.3,6.2,42.6c1.6,8.9,2.8,17.6,3.5,25.3l0.3,1.9h2.6h2.6l0.3-2.3c0.2-1.4,0-6.5-0.3-11.6
		c-0.4-5.1-0.7-12.4-0.8-16.1c-0.1-3.8-0.3-7.1-0.5-7.5C517.7,567.1,517.8,566.8,518,566.8z"/>
	<path class="st1" d="M535.2,435.2c0.7,11,2.1,22.5,5.2,43.8c1.4,9.6,1.2,8.4,3.2,20.4c0.8,4.9,2.1,12.7,2.8,17.5
		c1.2,7.7,1.4,9.2,1.7,9.2c0.1,0-0.1-1.5-0.4-3.5c-1.3-10.4-2.1-18.6-3.2-34.4c-0.5-6.6-2.1-19.3-4.5-35.7
		c-0.8-5.2-1.5-10.4-1.6-11.4c-0.2-1-0.3-2.1-0.4-2.5c-2.3-15.3-4.7-32.9-5.8-43.8c-0.9-8.6-1.6-12.4-1.2-6c0.2,1.8,0.5,5.7,0.6,8.7
		c0.2,3,1,12,1.8,20C534.4,425.5,535.1,433.4,535.2,435.2z"/>
	<path class="st1" d="M540,307.5c-1.9,0,1.1,0.9,3.2,1.1c0.6,0,0.8-0.2,0.8-0.9c0-0.5-0.2-0.9-0.5-1c-0.4-0.1-0.3-0.4,0.2-0.8
		c1-1.2,1.1-2.7,0.3-4.1c-0.8-1.3-2.8-2.3-4.1-2.2c-0.7,0.1-0.6,0.2,0.5,0.7c1.6,0.6,2.7,2.7,2.3,4.1
		C542.5,305.8,540.9,307.5,540,307.5z"/>
	<path class="st1" d="M519.9,305c-0.3,0.1,2,0.5,4.9,0.8c3,0.4,6.6,0.8,8.1,1.1c1.4,0.3,3.1,0.5,3.6,0.5c0.8,0,0.8,0-0.3-1.2
		c-1.2-1.2-1.4-1.3-6.1-2c-2.7-0.5-5.2-0.8-5.5-0.8c-0.5,0-0.6-0.4-0.6-1.6c0-0.9,0.1-1.6,0.3-1.6c0.1,0,2.8,0.4,5.9,0.8
		c4.9,0.6,5.8,0.6,6,0.3c0.2-0.3,0.3-0.5,0.2-0.6c-0.1-0.2-12.1-2.4-14.4-2.8l-1.8-0.3l0.8,0.8c1.2,1.1,1.6,2.4,1.4,3.8
		C522.1,303.4,520.9,304.7,519.9,305z"/>
	<path class="st1" d="M540.6,560.1c1,11.6,1.1,13,2.5,29.7l1.4,16h2.4c2.2,0,2.4-0.1,2.4-0.7c0-0.4-0.6-4.8-1.4-9.6
		c-0.7-4.9-1.8-11.6-2.3-14.9c-0.5-3.2-1-6.3-1.1-6.7c-1.8-8.7-3.7-20-5-30.5c-0.7-5.4-1.4-9.9-1.4-10c-0.3-0.3-0.3-0.3,0.9,10
		C539.6,548.6,540.4,556.2,540.6,560.1z"/>
	<path class="st1" d="M384,305.8l3.4-0.3v-1.4c-0.1-1.3-0.2-1.4-1-1.2c-2.6,0.5-6.1,1.3-7.3,1.4c-1,0.2-1.4,0.4-1.4,0.9
		C377.8,306.1,378.3,306.2,384,305.8z"/>
	<path class="st1" d="M162,1002.4c-0.1-0.2-0.5-0.2-0.7-0.1c-0.3,0.2-0.2,0.3,0.3,0.3C161.9,1002.5,162.1,1002.5,162,1002.4z"/>
	<path class="st1" d="M443.4,918.1c-0.4,1.3-1.4,13.2-2.2,24.5c-0.2,3.1-0.4,8.5-0.4,12.1c0,8.1,0.6,24.5,1,27.4
		c0.3,2.2,0.3,2.2,0.5-1.8c0.1-2.2,0.4-8.1,0.6-13.2c0.2-5.1,0.5-9.6,0.5-10.3c0.1-0.9,0.3-34.1,0.2-38.4l-0.1-1.6L443.4,918.1z"/>
	<path class="st1" d="M145.9,998.6c2.3,0.6,3.2,0.8,10.5,1.8c6.8,0.9,22.4,2.3,23.8,2.1c0.9-0.1-7-1.5-16.1-2.8
		c-10-1.4-18.3-3.7-29.3-7.8c-9.5-3.6-8.9-3.6-12.6,0c-1.6,1.6-2.6,3.1-3.6,5.1c-1.3,2.7-1.4,3-1.4,6.7v4l1.4,1.2
		c1.1,1.1,1.6,1.3,2.9,1.3c1-0.1,1.3-0.2,0.6-0.3c-2.6-0.4-4.1-3.2-3.1-5.6c0.7-1.5,2.6-2.6,4.2-2.3c0.9,0.2,1,0.1,0.6-0.4
		c-0.6-0.7-2.9-0.6-4.2,0.2c-1.4,0.8-1.4,0.5-0.5-1.4c1.4-2.9,6.1-7.1,8.6-7.8c0.5-0.1,1.9,0.3,3.8,1.2c3.2,1.5,8.6,3.4,11.2,4
		C143.5,998,145,998.4,145.9,998.6z"/>
	<path class="st1" d="M132.4,982.3c0.3,0,0.5-1.6,0.5-5.3c0.4-11.3,2.8-23.2,7.8-38.3c11.9-35.5,27.1-61.7,50.5-86.5
		c8.4-8.9,17.9-17.5,24.7-22.4l4.3-3.2l-1.9-0.1c-2.5-0.2-3.8,0.5-9.5,4.8c-11.5,8.7-22.3,19.5-32.5,33c-21.6,28.7-38,65.8-45,102.4
		c-1.4,7-2.3,13.2-2.2,14C129.4,981.4,131.2,982.3,132.4,982.3z"/>
	<path class="st1" d="M173.5,1015.7c-0.1-0.2-0.5-0.2-0.7-0.1c-0.3,0.2-0.2,0.3,0.3,0.3C173.4,1015.9,173.6,1015.8,173.5,1015.7z"/>
	<path class="st1" d="M141.6,1007.3l1.8,0.2l-0.8-0.6c-1.2-0.9-2.8-0.9-4.5,0.1c-2.2,1.3-2.8,2.4-2.5,4.2c0.4,2.2,1.7,3.6,3.3,3.6
		h1.4l-1.1-0.7c-2.3-1.3-2.4-4.3-0.5-6C139.7,1007.3,140.1,1007.1,141.6,1007.3z"/>
	<path class="st1" d="M161.4,1107.5c-0.9-1.4-2.8-4.8-4.3-7.4c-5.3-9-10.2-19.4-13.9-30c-4.6-13-6-17.1-7.4-22.3
		c-1.5-5.9-1.8-5.6-0.9,1.2c3.8,29.4,19.7,59.4,45.4,85.8c2.5,2.6,4.7,4.8,4.8,4.8c0.1,0-0.8-1.1-2-2.4
		C176.1,1129.2,166.1,1115.5,161.4,1107.5z"/>
	<path class="st1" d="M166.9,1008.8c1.9,0.2,2-0.3,0.2-0.7c-1.7-0.5-3.7,0.2-5,1.6c-0.9,1-1.1,1.5-1.1,2.9c0,2.4,1.2,3.7,3.4,3.7
		c1,0,1-0.1,0.4-0.4c-1.3-0.6-2-1.8-2-3.4c0-1.2,0.2-1.7,1.2-2.6C165,1008.7,165.2,1008.6,166.9,1008.8z"/>
	<path class="st1" d="M397.7,936.2c-6.9,21.5-11.1,41.2-11.9,57.1l-0.2,4.6h2.2h2.2l0.3-4.4c0.7-12.7,3.9-33.4,7-46.3
		c0.5-1.5,0.8-3.3,0.9-4c0.6-3.8,5-19.3,7.2-26c2.4-7.3,6.9-19.5,8.3-22.6c0.3-0.7,0.5-1.4,0.4-1.4
		C413.3,893.2,402.4,922.1,397.7,936.2z"/>
	<path class="st1" d="M417.9,843.8c-0.9,0-18,21.7-24.5,31c-14.2,20.4-24,43.8-28.9,69.3c-1.6,8.5-2.2,14-2.2,22.3
		c0,4.1,0.1,7.2,0.2,7.1c0.2-0.1,0.9-3.2,1.6-7c5.4-26.4,11.9-48.2,20.4-68.3c4.8-11.2,11.5-24.1,16.1-31
		c2.9-4.3,14.4-19.8,16.2-21.8C417.6,844.6,418.1,843.8,417.9,843.8z"/>
	<path class="st1" d="M410.2,826.2h-11.2l-3.5,2.8c-17.2,14-33.6,32.1-46,50.9c-8.1,12.4-14.5,24.7-20.6,39.7
		c-2.3,5.9-4.2,10.5-4.2,10.3c0-0.5,5-14.2,8-21.6c2.3-5.8,7.1-16.2,11.6-25.1c3.2-6.2,9.4-16.4,14.5-23.7
		c5.2-7.5,17.8-21.8,25.7-29.4l4.1-3.9l-14.4,0.1l-14.4,0.1l-7,1.4c-3.9,0.8-9.6,1.9-12.8,2.5c-6.4,1.2-14.8,3.2-20.2,4.9l-3.6,1.2
		l-5,5.7c-2.7,3.2-6.8,8.1-9.1,11.1c-4.5,5.7-15.6,21.6-18.2,26.2c-2.3,4-5.8,9.2-5.8,8.7c0-1.3,8.3-18.8,11.3-23.9
		c2.9-4.9,10.4-16.1,13.6-20.3c1.6-2.2,2.9-4.1,2.8-4.1c-0.5-0.4-18.8,5.9-26.2,8.9c-10.1,4.1-29.1,13.7-34.8,17.6
		c-8.2,5.5-21.8,18.7-26.1,25.2c-2,3.2-9.9,18.9-13.3,26.4c-10.9,24.6-20.4,54.5-22.6,71.5c-0.6,4.1-1.2,3.7,6,4.2
		c5.4,0.5,5.6,0.4,5.6-1.4c0-1.5,2.1-11.4,3.7-17.3c3.2-12.7,8.9-29.2,14-40.8c2.8-6.6,11.2-23.6,12-24.3c0.5-0.4,0.5-0.6-3,7.6
		c-1.6,3.8-3.6,8.6-4.3,10.6c-0.8,2.1-2.2,6-3.2,8.8c-4.5,12.5-7.3,24.3-9.2,39c-0.7,5.5-2,18.3-1.9,18.5c0.3,0.3,15.6,0.8,15.8,0.5
		c0.2-0.2,0.7-2.3,1.4-4.8c3.3-13.3,11.9-39.4,19.6-59.2c6.3-16.1,15.4-35.4,21.9-46c3.4-5.6,14.8-23.1,17.1-26.4
		c3.2-4.7,7.6-10.3,7.8-10.1c0,0.1-0.7,1.4-1.8,3.1c-2.3,3.3-14.1,22.5-17.3,28.3c-5.1,9-12.4,24-17.6,36.5
		c-10.5,25.2-17.4,47.3-21.8,70.1c-1,4.9-1.6,8.8-1.6,8.9c0.1,0,8.7,0.3,19.3,0.5c10.6,0.2,21.6,0.5,24.5,0.5l5.4,0.2l0.6-3.2
		c0.8-4.5,8-29.3,11.5-39.9c3.8-11.5,5.5-16.1,8.8-23.7c2.9-6.5,17-34.4,18.2-36c0.5-0.4-1.4,3.4-3.8,8.7c-6,12.4-11,25.2-15,37.9
		c-3.7,11.6-11.6,45.4-12.8,54.4l-0.3,1.9l4.9,0.1c7.3,0.1,35.5,0.4,38.2,0.5l2.3,0.1l0.3-3.2c1.8-26.8,9.1-54.3,22.1-83.2
		c3.5-7.8,16.7-34.6,18.7-37.9c1.6-2.7,1.5-2.3-0.5,1.6c-4.5,9.2-12.4,25.7-14.2,29.9c-7.3,17-13.3,40.6-16.4,63.7
		c-0.8,6-2.3,23.6-2.3,26.6v2.4h2.7h2.7v-1.4c0-2.7,0.7-13,1.3-17.3c2.3-18.3,7.3-37.8,15-56.9c6.8-17,11.8-27.1,20.5-40.9
		c12.5-20.1,23.8-34.5,37.7-48.4l6-6H410.2z"/>
	<path class="st1" d="M193.1,816.4l0.8,1.4l3.5-3.3c1.9-1.7,3.5-3.3,3.5-3.5c0.2-0.5-2.3-3.7-7.8-10.1c-7-8-6.5-7.4-5.4-6.9
		c0.5,0.3,4.1,3.7,8.1,7.7c4,3.9,7.3,7.1,7.4,7.1c0.4,0,12.1-11.8,13.1-13.1l0.6-1l-3.2-3.9c-1.7-2.1-4.1-5-5.1-6.2
		c-2.1-2.3-9.4-9-10.1-9.3c-0.3-0.1-2.1,1.1-4.1,2.6l-3.7,2.9l4.8,5.7c4.2,5.1,9.7,13.1,9.4,13.5c-0.1,0-4.1-3.7-8.7-8.4l-8.6-8.5
		l-1.4,1.1c-0.7,0.5-3.5,2.7-6.3,4.9c-2.8,2.2-5.1,4-5.1,4c-0.1,0.1,1.4,1.8,3.2,3.9C183.9,803.5,190.9,812.5,193.1,816.4z"/>
	<path class="st1" d="M159.7,862.2c0.3,0,1-0.8,1.7-1.7c2.1-2.7,8.4-9.1,15.4-15.7c8.4-7.8,11.1-11.2,10.8-13.7
		c-0.1-1-0.3-1.2-1.2-1.3c-1.6-0.2-4,1.5-10.5,7.3c-3.2,2.8-6.5,5.7-7.4,6.5c-1,0.8-3.2,2.8-5,4.5c-3.6,3.3-4.3,3.3-1.3,0.1
		c1.7-1.8,1.9-2.3,1.4-2.6c-0.7-0.5-9.9-14.2-11.2-16.4c-1.1-2.1-1.2-2.2,4.1,4.7c6.4,8.3,8.6,11,8.7,10.9c0.1-0.1,2.8-2.7,6-6
		l5.7-5.9l-0.7-0.8c-0.4-0.5-1.4-1.9-2.3-3.2c-0.9-1.3-3.1-4.2-4.9-6.7c-6.8-8.9-8.5-11.8-3.8-6.3c1.3,1.4,3.8,4.3,5.6,6.3
		c1.8,2.1,4.2,4.9,5.4,6.3c1.2,1.4,2.3,2.5,2.4,2.5c0.4,0,5.3-4.1,9.5-8l2.9-2.6l-2.3-2.9c-6.4-8.4-17.2-21.4-17.8-21.5
		c-0.2,0-1,0.5-1.9,1.3l-1.7,1.3l2.3,3c1.3,1.6,2.8,4.1,3.5,5.3c0.6,1.3,2.3,3.9,3.6,5.8c2.8,4,6,9,5.8,9.2c-0.1,0-2.2-2.1-4.5-4.6
		c-2.3-2.6-6-6.4-8.1-8.6c-2.2-2.1-4.4-4.5-5.1-5.3c-0.9-1.1-1.4-1.5-1.8-1.3c-0.5,0.3-7.5,5.6-9.9,7.6l-1.4,1.2l2.1,4.5
		c1.2,2.4,3.1,5.9,4.1,7.6c1.2,1.7,3.1,5,4.2,7.2c1.2,2.2,2.5,4.4,2.9,5c0.4,0.5,0.5,1,0.4,1c-0.5,0-6.7-6.9-9.6-10.8
		c-1.4-1.9-3.6-4.6-5-6.1c-1.3-1.4-2.7-3.2-3.2-3.7l-0.8-1.1l-2.4,1.9c-1.4,1.1-2.5,2-2.6,2.1c-0.5,0.4,7.1,16.1,10,20.6
		c1.3,1.8,3.4,4.9,5,6.8c1.5,1.9,2.6,3.4,2.4,3.4c-0.4,0-8-8.7-10.5-11.9c-2.7-3.4-5.4-7.8-7.5-11.8c-1-2.3-2-4.2-2.1-4.4
		c-0.2-0.6-2.1,0.6-2.1,1.4c0,0.3,0.8,2.8,1.8,5.6c2.9,8,7.9,18.1,12.6,25.2C153.7,856.4,158.9,862.2,159.7,862.2z"/>
	<path class="st1" d="M178.1,960.2c-4.1,18-5.3,23.7-4.9,23.4c0.6-0.4,2.7-6,5.4-14.9c7.7-24.4,11.8-36.2,17.7-50
		c7.8-18.1,17.4-36,30.5-56.5c5.5-8.7,5.4-8.5,5-8.1c-0.5,0.5-8.9,12-12.6,17.4c-2.9,4.1-4.2,5.4-2.1,2.1c0.8-1.2,3.3-5.3,5.8-9.2
		c2.3-3.9,5.9-9.2,7.7-11.8c1.9-2.7,3.3-4.9,3.2-5c-0.6-0.6-20.2,27.5-24.8,35.4c-1,1.9-2,3.3-2,3.2c-0.3-0.2,2.6-5.4,6.4-11.9
		c1.7-2.8,4-6.8,5.1-8.7c3-5.1,18-27.5,21.1-31.4l2.5-3.2l-4,4.1c-2.2,2.3-5.1,5.7-6.6,7.5c-2.9,3.7-4.1,4.5-1.6,1.2
		c2.9-4.1,9.2-13.5,9.1-13.7c-0.2-0.1-3.5,3.4-6,6.5c-0.8,1-1.6,1.7-1.6,1.6c-0.1-0.1,0.9-1.8,2.3-3.8c1.4-2,2.3-3.7,2.3-3.9
		c-0.4-0.3-3.2,0.9-4.8,2.2c-2.8,2-13.1,14.2-19.7,23.2c-20.9,28.9-36.4,62.4-46.5,100.5l-1.9,7l-0.2,8.3c-0.1,7.7,0.2,12.4,0.7,11
		c0.2-0.3,0.8-2.2,1.5-4.1c1.4-3.5,2.3-5.2,1.8-3.4c-0.5,2.8-1.6,9.1-1.8,10.8c-0.3,2.3,0.4,1.9,0.7-0.5c0.2-0.8,0.9-3.3,1.6-5.6
		c0.7-2.3,1.9-6,2.5-8.4c0.6-2.3,1.3-4.1,1.4-4.1c0.1,0.1-0.4,2.3-1,4.8c-0.5,2.6-1.4,6.8-1.6,9.4c-0.3,2.5-0.6,5.2-0.8,6
		c-0.2,1.1-0.1,1.4,0.4,1.4c0.4,0,0.7-0.6,1-1.9c1.6-7.8,14.3-49.1,14.4-47.1c0,0.4-0.3,1.3-0.5,2C182,945,179.7,953.5,178.1,960.2z
		 M208.8,875c2.3-4.1,8.1-14.3,9.2-15.9c0.5-0.8,1.5-2,2.2-2.7l1.2-1.3l-1,1.8c-0.5,1-2.5,4.1-4.3,6.9c-1.8,2.8-4.1,6.7-5.3,8.7
		C208.2,876.9,207,878.5,208.8,875z M207.4,877.8c0.1,0.1-0.4,1-1,1.9c-0.6,1-1.1,1.6-1.1,1.5C205.4,880.8,207.3,877.7,207.4,877.8z
		 M206.7,886.8c0.1,0.2-1.7,3.5-1.9,3.5c-0.1,0-0.2-0.1-0.2-0.1C204.6,889.9,206.5,886.8,206.7,886.8z M203.7,891.9
		c0.3-0.6,0.6-1.2,0.7-1.2c0.4,0,0.2,0.5-0.5,1.4l-0.7,0.9L203.7,891.9z M202.8,893.4c0.2-0.1,0.4-0.1,0.4,0.2
		c0,0.2-0.2,0.5-0.4,0.5c-0.2,0.1-0.4,0.1-0.4-0.1C202.5,893.8,202.7,893.5,202.8,893.4z M202.1,894.9c0.2-0.1,0.4-0.1,0.4,0.2
		c0,0.2-0.2,0.4-0.4,0.5c-0.2,0.1-0.4,0.1-0.4-0.1C201.8,895.2,201.9,895,202.1,894.9z M202,901.6c0.2,0.3-0.3,1.3-5.5,13.1
		c-2,4.3-4.7,10.7-6,14.1c-3.2,7.9-3.1,7.7-3.2,7C187.2,931.9,200.8,900.5,202,901.6z M181.5,937.7c-1.9,4.5-4.2,10.3-5.1,13
		c-2,5.5-2.8,6.9-1.4,2.4c2.4-7.8,5.1-15.8,7.1-20.6c1.2-2.9,3.1-7.8,4.2-10.9c1.2-3.2,3.1-7.6,4.1-9.9c2-4.3,7.1-14.2,7.1-13.7
		c0,0.4-1.9,5.1-4,9.6c-2.3,5-4.9,11.5-7,17.4C185.5,927.5,183.3,933.2,181.5,937.7z"/>
	<path class="st1" d="M217.2,788.6l2.4,3.3l1.2-1.4c0.7-0.7,1.9-2.2,2.7-3.2c0.9-1,2.5-3.1,3.8-4.6l2.3-2.8l-1.4-2
		c-0.8-1.2-2.7-3.6-4.3-5.4c-5-5.9-7.4-8.8-6.6-8.5c1.4,0.7,6.9,5.8,10.5,9.6c4.1,4.4,3.5,4.4,6.1,0.6l1.4-1.9l-3.4-3.4
		c-3.8-3.8-6.9-6.2-10.6-8.3c-1.6-0.9-2.6-1.2-2.9-1c-4.9,3.7-8.2,6.4-8.2,6.6c0,0.2,1,1.1,2.3,2c1.3,1,3.1,2.5,4.1,3.4
		c2.2,2,8.5,9.4,8.5,9.9c0,0.2-0.9-0.5-2.1-1.7c-4.1-4-14.1-11.8-15.1-11.8c-0.3,0-1.7,1-3.2,2.3l-2.8,2.2l2.1,1.8
		C207.4,777.5,214.7,785.1,217.2,788.6z"/>
	<path class="st1" d="M791.7,213.1c-6-1.6-58-15.4-73.4-19.5c-4.2-1.1-16.6-4.4-27.4-7.4c-16.4-4.5-20.9-5.6-27.6-6.7
		c-6.8-1.1-8.6-1.3-12.1-1.2c-3,0.1-4.5,0.4-5.6,0.8l-1.4,0.6l2.2,0.7c5,1.5,19.8,5.4,29.4,7.7c22.4,5.1,32.6,7.5,41.1,9.6
		c4.9,1.2,14.7,3.4,21.8,5c7.1,1.6,16.6,3.9,20.9,5c4.3,1.1,9.4,2.3,11.2,2.6c1.8,0.5,10.1,2.5,18.4,4.7c8.3,2.2,15.2,4,15.4,4
		c0.1,0,0.4-0.5,0.5-1.2c0.2-0.6,0.3-1.2,0.3-1.3c0-0.1-1.8-0.5-3.8-1C799.5,215.2,795,214,791.7,213.1z"/>
	<path class="st1" d="M673,892.2c0.1,0.2,0.3,0.4,0.4,0.4c0.1,0,0.2-0.2,0.2-0.4c0-0.2-0.2-0.4-0.4-0.4
		C672.9,891.8,672.9,892,673,892.2z"/>
	<path class="st1" d="M518.7,860.3c0.1-0.1-0.8-1.8-1.9-3.7c-4.9-8.5-10.3-15.7-20.4-27.3l-2.7-3.2h-2.2h-2.1l4.1,4.2
		c4.9,5,15.8,17.4,19.2,21.7c1.3,1.7,3.1,4.2,4.1,5.7C517.7,859.3,518.6,860.4,518.7,860.3z"/>
	<path class="st1" d="M723.4,961.6c0.2,0.4,1,4.1,1.9,8.1c0.9,4.1,2,8.7,2.4,10.3c0.5,2.1,2,12.2,2.1,14.2c0,0.2,0.9,0.1,2.6-0.1
		l1.6-0.3l-0.7-2.5c-1.8-6.8-9.2-29.5-9.7-30C723.3,961,723.3,961.2,723.4,961.6z"/>
	<path class="st1" d="M509.4,971.5c-0.2,0-0.3,0.5-0.1,1c0.3,1.6,0.9,9.7,0.9,12.7c0,1.5,0.2,4.7,0.4,7c0.2,2.3,0.4,4.7,0.4,5.1
		c0,0.7,0.2,0.8,1.8,0.8h1.7l-0.1-1.2c-0.1-0.6-0.5-3.6-0.9-6.7C512.7,984.6,509.9,971.5,509.4,971.5z"/>
	<path class="st1" d="M680.1,867.6c0.5,0.5,6.3,10,11.5,18.8c6.2,10.7,18.1,32.4,18.1,32.9c0,0.3,1.4,2.8,1.6,2.8
		c0.1,0-1.5-3.6-3.5-8c-4.4-9.6-15-30.9-17.6-35.4c-1.1-1.8-2.4-4.1-3.1-5.2c-3.2-5.6-11.5-16.7-16.8-22.7c-1.5-1.7-4.3-4.9-6.2-7.1
		c-2-2.3-3.5-3.9-3.5-3.7c0,0.2,1.7,2.4,3.8,5.1c3.3,4.1,13.2,18.3,13.2,18.8C677.5,864,679.7,867.4,680.1,867.6z"/>
	<path class="st1" d="M533.5,931.5c7.2,21.9,10.2,37.2,12,59.7c0.5,7.3,0.3,6.7,3.3,6.7c1.4,0,2.8-0.1,3.1-0.3
		c1-0.6-1-16.1-3.7-28.9c-2.8-13.2-10.8-37.1-16-47.4c-5.8-11.7-15.1-29-15.5-28.6c-0.1,0.1,2.3,4.9,5,10.6
		C527.5,914.6,530.2,921.2,533.5,931.5z"/>
	<path class="st1" d="M744.4,986.4c0.1,0.8,0.3,1.4,0.4,1.3c0.1-0.1-0.2-2.4-0.7-5.1c-2.4-13.3-7.8-33.6-11.8-45
		c-8.7-24.8-20.4-47.5-40.4-78.4c-8.8-13.6-13.6-20.2-22.1-30.4c-1.2-1.4-2.7-2.3-4.1-2.3h-1.1l2.1,3.2c1.1,1.7,3,4.4,4.1,5.9
		c15.4,20.3,28,38.3,35.3,50.1c7.3,12,15.9,29.8,22.7,47.1c3.2,8,8.5,23.7,10.5,31.3C740.6,969,743.9,983.4,744.4,986.4z"/>
	<path class="st1" d="M670.9,929.7c1.1,3.1,2.7,7.7,3.5,10.1c1.6,4.6,5.6,19.7,8,30.5c1.5,7.3,2.6,14.5,2.9,20.7l0.3,4.9l1.5-0.2
		l1.4-0.1l-0.1-2c-0.2-3.2-1.8-15.7-2.8-21.5c-3.3-19.3-9-40.2-16.4-60.1c-2.4-6.6-2.8-7.1-6.8-11.8c-2.5-3.2-14.9-17-17-19.1
		l-0.9-0.9l0.6,1.4c5.3,12.1,15.8,42.4,15.2,43.9c-0.1,0.3-0.3,0-0.5-0.6c-0.7-2.7-8-22.3-9.7-26.2c-1.2-2.4-3.3-6.8-4.9-9.6
		c-1.5-2.9-3.3-6.3-4-7.6c-3-5.9-5.3-9.6-6.7-11c-2.1-2-13.3-11.5-15.9-13.5c-2.2-1.7-8.7-5.6-9-5.3c-0.1,0.1,1.5,2.7,3.7,5.9
		c3.7,5.8,14.3,24,14.1,24.3c-0.1,0.1-1.7-2.5-3.5-5.8c-6-10.5-9.8-16-16.8-23.7l-3.5-3.9l-4.6-2.3c-2.6-1.2-6-2.7-7.6-3.4l-3-1.3
		l1.6,1.9c6.8,8,11.9,14.8,17.4,23.2c5.9,8.8,15.1,23.6,18.9,30.3c4,6.9,9.6,17.5,9.3,17.7c-0.1,0.1-1.1-1.4-2.2-3.2
		c-3.4-5.8-25.2-38.4-28.9-43.4c-6.9-9.2-14.3-17.8-22.5-26.2l-4.5-4.5l-6.3-2c-3.5-1.2-7.2-2.3-8.2-2.6l-1.9-0.5l2.3,2.6
		c2.4,2.8,6.2,7.4,7.2,8.9c1.1,1.6,0.6,1.4-0.9-0.3c-0.8-0.9-4.2-4.1-7.5-7.1l-6-5.4l-4.7-1c-2.6-0.5-5.3-1.1-6.1-1.2l-1.4-0.3
		l4.2,4.3c2.3,2.4,5.3,5.8,6.7,7.4c10.2,12.3,13.3,16.1,17,20.9c4.3,5.8,5.3,7.7,2.2,4.1c-3.2-3.7-13.2-14.2-19-20
		c-6.1-6.1-11.3-10.9-16.7-15.2l-3.4-2.8l-3.5-0.4c-2-0.2-5-0.4-6.8-0.3l-3.2,0.1l3.1,2.1c14.4,9.8,31.5,29.8,43.6,51.1
		c1.8,3.2,4.8,8.4,6.5,11.5c2.9,4.9,7.8,14.1,6.9,12.7c-0.2-0.3-2.3-3.8-4.8-7.8c-5.6-9.2-9-14.2-15.5-22.3
		c-9-11.2-20.4-23.7-27.1-29.7c-9.6-8.6-22.2-17.8-24.3-17.8c-1.2,0-1,0.2,4.9,6c13.9,13.9,25.2,28.3,37.7,48.4
		c8.7,13.9,13.7,24,20.5,40.9c7.7,19.1,12.7,38.6,15,56.9c0.5,4.3,1.3,14.6,1.3,17.3v1.4l4.8-0.1l4.8-0.1l-0.1-8.7
		c-0.1-10.3-0.5-16.9-1.5-22.6c-0.6-3.8-3.7-17.4-4.7-20.8c-0.2-0.8-0.2-1.1,0-0.8c0.3,0.2,1.4,3.7,2.5,7.7
		c1.2,4.1,2.7,9.2,3.3,11.4c3.2,9.6,5,19.1,5.8,28.5l0.5,5.7l2.1-0.2c1.2-0.2,2.9-0.3,3.8-0.3h1.6l-0.3-4.1
		c-0.9-15.4-3.2-36.5-5.1-45.3c-1-4.8-2.2-8.6-5.9-19.5c-1.4-4-2.3-7.3-2.3-7.3c0.2,0,0.5,0.5,0.6,1.2c0.9,2.8,6,16.8,7.7,20.8
		c5.5,14.2,9.5,32.5,11,51.3l0.3,2.8h8.1h8.1l-0.2-3.9c-0.3-4.1-2.1-15.8-3.7-22.8c-0.5-2.3-2-8.2-3.4-13.2c-1.4-5-2.5-9.3-2.5-9.6
		c0.1-0.5,7.1,20.2,10.3,30.1c2.2,6.6,4.1,13.9,4.3,16.7l0.3,2.3h8.1c4.5,0,10.5-0.1,13.3-0.3l5.1-0.2V989c0-4-0.2-8.6-0.5-10.8
		c-0.3-2.2-0.7-6.5-1.1-9.6c-0.3-3.1-0.6-6-0.8-6.7c-0.1-0.6,0-0.9,0.2-0.7c0.5,0.5,2.9,9.6,4.1,15.7c0.5,3.1,1.4,7.3,1.9,9.4
		c0.5,2.1,1.2,5.1,1.4,6.8l0.5,3h2.3c1.4,0,3.2-0.1,4.3-0.2l1.9-0.3v-1.4c0-2.5-1.7-17.1-3.1-26.2c-4.3-28.3-6.4-37.5-11.5-51
		c-0.3-0.7-0.3-0.7,0.3,0C666.5,918,668.7,923.4,670.9,929.7z M628.7,884.1c-0.5-1-0.8-1.8-0.8-1.9c0.1-0.1,0.6,0.6,1.2,1.5
		c0.5,1,0.8,1.8,0.8,1.9C629.7,885.7,629.2,885,628.7,884.1z M630.5,886.9c-0.1,0.1-0.3-0.1-0.5-0.5c-0.2-0.4-0.1-0.5,0.2-0.2
		C630.5,886.6,630.6,886.8,630.5,886.9z M645,967.1c0,0.4-0.4-0.3-0.6-1.4c-0.3-1.1-2-6.2-3.8-11.5c-6.3-17.8-20.1-44.6-33.8-65.9
		c-2.2-3.3-5.9-9.1-8.1-12.8c-5-8.1-9.8-15.2-12.4-18.4c-1-1.3-1.8-2.4-1.8-2.6c0-0.6,3.2,2.3,6.7,6.2c3.7,4.1,14.6,17.8,19.7,24.7
		c5.3,7.4,12.4,19.7,17.1,29.6c3.1,6.5,7.2,17.2,9.4,24.3c1.2,3.7,2.8,8.9,3.6,11.6C642.8,956.8,645.2,966.3,645,967.1z
		 M660.8,927.1c-0.1,0.1-0.2-0.1-0.2-0.4c0.1-0.5,0.1-0.5,0.3-0.3C660.9,926.6,660.9,927,660.8,927.1z"/>
	<path class="st1" d="M755,214.2c-0.1-0.2-0.5-0.2-0.7-0.1c-0.3,0.2-0.2,0.3,0.3,0.3C754.9,214.4,755.1,214.3,755,214.2z"/>
	<path class="st1" d="M781.8,224.9c-2.3-1-14.9-4.6-24.2-7c-5.7-1.5-13.7-3.8-17.9-5.1c-4.1-1.3-8.4-2.5-9.5-2.7
		c-1.1-0.3-1.9-0.6-1.9-0.7c0-0.3-0.3-0.4,12.8,2.3c13.2,2.6,13.4,2.7,9.4,1.5c-1.8-0.5-6.1-1.8-9.7-2.9c-3.6-1.1-9.1-2.7-12.3-3.6
		c-3.2-0.8-7-2-8.5-2.5c-1.5-0.5-5.1-1.5-7.9-2.3c-2.9-0.7-10-2.7-15.9-4.3c-5.9-1.5-15.6-4.1-21.6-5.6c-29.4-7.3-34.2-8.5-34.4-8.5
		c-0.1,0-0.2,0.5-0.1,1.2l0.1,1.1l8.5,2.9c4.7,1.5,15.2,4.8,23.4,7.1c19.7,5.8,29.3,8.7,29.8,9.1c0.3,0.3,0.1,0.3-0.4,0.1
		c-1.3-0.5-10.6-3-16.1-4.3c-2.9-0.7-10.1-2.6-16.1-4.1c-9.4-2.5-25.3-6-25.7-5.6c-0.4,0.4,1.6,1.1,8.2,2.7
		c8.2,2.1,23.1,6.7,23.6,7.3c0.3,0.3,0.2,0.4-0.3,0.2c-0.4-0.2-2.8-0.6-5.4-1.2c-2.6-0.5-6.9-1.3-9.5-1.7c-2.6-0.5-4.8-0.9-4.8-0.8
		c-0.1,0.1,1.8,0.8,4.1,1.6c3.5,1.2,15.1,3.8,63.1,13.9c32.3,6.9,59.1,12.4,59.3,12.4C782.4,225.2,782.2,225,781.8,224.9z"/>
	<path class="st1" d="M250.2,1152.5c-0.1-0.3-1-1.6-1.9-3c-1.8-2.7-2.8-4.8-1.4-2.9c0.5,0.6,2,2.5,3.4,4.1l2.5,3.2l4.7,1.9
		c6.5,2.7,17,6.5,23.4,8.4c6.3,2,14.3,4.2,14.5,4.1c0.1-0.1-1.2-1.9-2.7-4.1c-1.6-2.2-3.6-5-4.5-6.5c-1.5-2.4-1.7-2.5-3.6-2.9
		c-1.2-0.3-2.2-0.6-2.3-0.9c-0.2-0.2,0-0.3,0.4-0.2c0.5,0.2,1.4,0.4,2.1,0.5l1.4,0.3l-1.5-2.6c-4-6.8-14.7-28.5-14.7-29.7
		c0-0.3,0.8,0.9,1.7,2.6c6.8,12.2,14,23.5,18.8,29.4c0.7,0.9,1.1,1,7.8,1.8c3.8,0.5,11,1.5,15.9,2.3c4.9,0.7,9,1.3,9.1,1.1
		c0.1-0.1-0.9-2.5-2.2-5.3c-4.7-10.2-7.3-17.7-10.1-28.4c-2.4-9.7-6-29.8-6-33.6c0.1-1.4,0.2-1.1,0.5,1.4
		c2.8,17.9,8.4,35.8,15.8,50.2c3.1,6,8.6,15.7,9.4,16.6c0.6,0.7-0.1,0.6,16,2c8.8,0.8,22.9,1.6,23.2,1.4c0.1-0.1-2-4-4.7-8.7
		c-12.8-23.2-21.7-46-25.7-65.6c-2.2-10.6-3.4-23.8-3.4-35.2c0-3.1-0.1-6.9-0.3-8.5l-0.2-2.7l-2.1,0.1l-2,0.1l-0.3,2.7
		c-0.4,4.4-0.4,19.2,0.1,24.7c1.7,23.1,5.1,37.7,13.1,56c1.5,3.7,3.1,7.3,3.4,8l0.5,1.3l-0.7-0.9c-1.3-1.6-11.4-22-12.8-26
		c-2.5-7.1-7.2-27.4-8.8-38.8c-0.9-6.3-1.5-18.9-1.3-23.8l0.3-3.7l-3.9-0.2c-2.2-0.2-4.1-0.2-4.1,0c-0.5,0.5-1.1,16-1.1,24.7
		c0,6.5,0.2,9.6,1.1,17.1c1.5,12.7,1.2,12.5-1.1-0.6c-0.6-3.4-1.5-8.4-2-11c-1.4-8.1-2.7-17.6-3.1-24.3c-0.3-3.5-0.5-6.4-0.5-6.4
		c-0.1-0.1-5.4-0.4-12-0.7c-6.6-0.3-13.6-0.6-15.7-0.8l-3.9-0.2l-0.3,6.5c-0.2,3.5-0.4,8-0.4,9.9c0,2-0.1,3.5-0.3,3.5
		c-0.4,0-2.3-5.5-3.1-9c-0.5-1.7-1-4.9-1.2-7c-0.3-2.2-0.5-4.1-0.5-4.1c-0.1-0.1-1.3-0.3-2.6-0.4c-4.4-0.3-14.8,1.8-22.5,4.4
		c-4.4,1.5-10.5,4.1-11,4.5c-0.4,0.4,0.4,11,1.1,17.3c1,7.8,3.4,17.9,6.9,29c1.2,3.9,9.3,23.4,10.6,25.7c0.4,0.6,0.5,1.2,0.5,1.2
		c-0.9,0-11.1-20.1-15.2-30.2c-1.7-4-4.9-13.5-6.7-19.9c-1.7-6.1-2.6-10.6-3.3-15.6l-0.6-4.1l-4.1,2.7c-2.3,1.5-5.3,3.7-6.7,4.8
		c-4.6,3.8-12.1,12.2-12.5,14.2c-0.3,0.9,0.7,5.7,2.4,12c1.2,4.2,8,25,8.7,26.3c0.5,1,0.5,1,0,0.5c-1.3-1.2-5.9-12.5-11.1-27.2
		c-0.9-2.3-1.7-4.4-1.8-4.6c-0.2-0.2-0.5,1.1-0.9,2.7c-1.2,5.5-1.1,19.8,0.1,24.3c0.5,1.4,24.9,17.5,26.7,17.5
		c0.3,0,0.5,0.2,0.5,0.4c0,1.3-12.8-4.4-21.2-9.3c-2.3-1.3-4.1-2.3-4.2-2.2c-0.1,0.1,0.4,1.5,1,3.2l1.2,3.1l4.1,2.9
		c7.2,5.2,14.6,9.4,27.6,15.5c6.9,3.2,13,6,13.6,6.2c1.3,0.2,1.8,0.8,0.8,0.8c-1,0-11.5-3.7-16.5-5.7c-11.3-4.7-17.3-7.4-20.8-9.2
		c-2.2-1.1-3.9-1.9-3.9-1.8c0,0.4,4.3,6.5,5,7C220.8,1138.5,251.1,1153.9,250.2,1152.5z"/>
	<path class="st1" d="M502.9,244.7c-0.1-0.9-0.5-3.6-0.7-6.1c-0.9-7.2-1.4-15.2-1.4-25.4c0-6.6-0.1-8.8-0.4-7.6
		c-0.5,3-0.5,36,0,43.3c0.6,8.7,1.4,17,2.3,25c0.8,7.4,0.5,6.9,4.1,6.9h1.8l-0.2-1.4c-0.1-0.7-1.4-8.5-2.8-17.2
		C504.2,253.5,502.9,245.6,502.9,244.7z"/>
	<path class="st1" d="M715.7,830.9c5.2,3.9,11.4,9.4,19.2,17.2c25,25.1,41.6,52.5,54.1,89.3c4.1,12.1,7.3,25.9,9,38.7
		c0.8,5.7,0.9,5.9,1.6,5.7c0.4-0.2,0.9-0.4,1.1-0.5c0.9-0.9-3.2-22-6.9-34.6c-14.3-49.8-42.4-93.7-74.6-116.7
		c-5.4-3.9-5.6-4-7.8-3.6l-1.7,0.3l0.9,0.6C711.2,827.7,713.4,829.3,715.7,830.9z"/>
	<path class="st1" d="M765,978.6c0.7,2,1.4,3.9,1.5,4.1c0.5,1.4,0.8-3.3,0.7-11l-0.2-8.3l-1.9-7c-10.1-38.1-25.6-71.5-46.5-100.5
		c-6.6-9-16.9-21.2-19.7-23.2c-1.6-1.3-4.4-2.4-4.8-2.2c-0.1,0.2,0.9,1.9,2.3,3.9c1.4,2,2.3,3.7,2.3,3.8c0,0.1-0.8-0.6-1.6-1.6
		c-2.5-3.1-5.9-6.6-6-6.5c-0.1,0.2,6.2,9.6,9.1,13.7c2.4,3.3,1.3,2.5-1.6-1.2c-1.4-1.8-4.4-5.2-6.6-7.5l-4-4.1l2.5,3.2
		c3.1,3.9,18.1,26.2,21.1,31.4c1.2,2,3.4,6,5.1,8.7c3.8,6.5,6.7,11.7,6.4,11.9c0,0.1-1-1.4-2-3.2c-4.6-7.9-24.2-36.1-24.8-35.4
		c-0.1,0.1,1.4,2.3,3.2,5c1.8,2.6,5.3,7.9,7.7,11.8c2.4,3.9,5,8,5.8,9.2c2.2,3.3,0.8,2-2.1-2.1c-3.7-5.4-12.2-17-12.6-17.4
		c-0.5-0.4-0.5-0.6,5,8.1c13.1,20.6,22.7,38.4,30.5,56.5c5.9,13.8,10,25.5,17.7,50c2.7,8.8,4.8,14.5,5.4,14.9
		c0.5,0.3-0.7-5.4-4.9-23.4c-1.5-6.7-3.9-15.1-5-18.3c-0.3-0.7-0.5-1.6-0.5-2c0.1-2.1,12.8,39.2,14.4,47.1c0.3,1.3,0.6,1.9,1,1.9
		c0.5,0,0.5-0.3,0.4-1.4c-0.2-0.7-0.5-3.4-0.8-6c-0.3-2.6-1.1-6.8-1.7-9.4c-0.5-2.5-1-4.7-0.9-4.8c0.1-0.1,0.7,1.7,1.4,4.1
		c0.6,2.3,1.8,6.1,2.5,8.4c0.7,2.3,1.4,4.8,1.6,5.6c0.4,2.4,1,2.8,0.7,0.5c-0.2-1.7-1.3-8-1.8-10.8C762.7,973.3,763.6,975,765,978.6
		z M722.5,877.4c-0.1,0-0.9-1.2-1.8-2.6c-0.9-1.4-2.1-3.4-2.6-4.4c-0.5-1-2.4-4-4.1-6.7c-1.7-2.7-3.6-5.7-4.1-6.7l-1-1.8l1.2,1.3
		c1.7,1.9,2.9,3.6,6.6,10.1C721.1,874.4,722.7,877.4,722.5,877.4z M722.7,877.8c0.1-0.1,0.6,0.6,1.2,1.5c1.3,2.2,1,2.4-0.3,0.3
		C723.1,878.7,722.6,877.9,722.7,877.8z M724.2,888.7c-0.5-1-0.8-1.8-0.8-1.9c0.1-0.1,0.6,0.6,1.2,1.5c0.5,1,0.8,1.8,0.8,1.9
		C725.3,890.4,724.8,889.6,724.2,888.7z M726,892c-0.4-0.5-0.5-1.1-0.5-1.2c0.2-0.1,0.5,0.4,0.8,1C727.1,893.2,726.9,893.2,726,892z
		 M727.6,894.2c-0.1,0.1-0.3,0.1-0.4-0.1c-0.2-0.1-0.3-0.4-0.3-0.5c0-0.3,0.2-0.3,0.5,0C727.6,893.8,727.8,894.1,727.6,894.2z
		 M727.7,895c0-0.3,0.2-0.3,0.5,0c0.2,0.3,0.4,0.5,0.2,0.6c-0.1,0.1-0.3,0.1-0.4-0.1C727.8,895.4,727.7,895.1,727.7,895z M742.7,936
		c-0.1,0.1-1.4-2.9-2.9-6.6c-1.4-3.7-4.2-10.4-6.2-14.7c-5.2-11.8-5.7-12.8-5.5-13.1c0.7-0.6,6,10.5,11,22.8
		C741.6,930.8,743.2,935.5,742.7,936z M756,956c-0.1,0-0.4-0.4-0.5-0.8c-0.1-0.5-1-2.7-1.8-5c-0.8-2.3-3-7.9-4.9-12.4
		c-1.9-4.5-4.1-10.2-5.1-12.6c-2.2-5.9-4.8-12.4-7-17.4c-2.1-4.5-4-9.2-4-9.6c0-0.5,5.1,9.4,7.1,13.7c1,2.3,2.9,6.8,4.1,9.9
		c1.2,3.2,3.1,8,4.2,10.9C750.7,938.7,756.4,956,756,956z"/>
	<path class="st1" d="M769,195.1c-6.6-1.5-18.8-4.5-27.4-6.7c-8.6-2.2-28.5-7.2-44.4-11.2c-15.9-4-32.6-8.1-37.2-9.4
		c-4.5-1.2-8.3-2.2-8.5-2.2c-0.9,0.1,4.3,1.7,18.2,5.6c4,1.2,12.7,3.7,19.5,5.7c6.8,2,24,6.9,38.4,11.1c25.6,7.4,30,8.7,48,14.2
		c12.3,3.8,29.1,8.5,30.7,8.6c0.5,0,0.7-0.5,1-1.5c0.3-0.8,0.5-2.1,0.7-2.7c0.2-0.6,0.2-1.3,0-1.4
		C806.8,204.5,786.2,199.1,769,195.1z"/>
	<path class="st1" d="M632.5,130.7c1.3,0.4,8.9,2.8,17,5.4c48.6,15.6,146.4,47.9,158.5,52.4c3.3,1.2,3.2,1.2,3.4,0.2
		c0.3-1.4,0.9-6.9,1.1-10.4l0.3-3.4l-90.1-29.1c-49.6-16.1-90.4-29.1-90.6-29.1c-0.3,0-0.5,0.6-0.5,1.9c0,1.1-0.1,2.3-0.2,2.6
		c-0.2,0.7,0.2,1,3.5,2.2c2,0.8,6.9,2.7,10.9,4.3c11.3,4.7,25.5,10.1,35,13.3c4.8,1.6,12.3,4.3,16.6,5.9c4.3,1.6,8.4,3,9,3.2
		c0.6,0.2,0.9,0.4,0.7,0.5c-0.5,0.1-11.3-3.2-27.4-8.2c-5-1.5-16-4.7-24.3-7c-12.7-3.4-21-5.8-24.6-6.9c-0.5-0.2-0.6,0-0.6,0.7
		C630.3,129.8,630.5,130,632.5,130.7z"/>
	<path class="st1" d="M544.1,253.2c0,0.4,0.1,0.5,0.2,0.5c0.2-0.1,0.2-0.5,0.1-0.7C544.2,252.6,544.2,252.7,544.1,253.2z"/>
	<path class="st1" d="M560.5,156.5c-1.8,0.4-4.8,1.1-6.7,1.7c-3.2,1.1-3.6,1.4-6.4,4c-3.3,3.2-6.2,6.9-8.2,10.4
		c-1.9,3.3-4.1,8.5-4.3,10c-0.1,0.7-0.4,2.1-0.7,3c-2.6,8-2.2,26.6,1.3,50.8c1.7,12.1,4,25.2,4.2,24.8c0.1,0-0.1-2.5-0.4-5.4h-0.1
		c-0.3-3-0.6-6.9-0.7-8.7c-0.1-1.8-0.5-6.7-0.9-10.8c-0.4-4.1-0.8-9.2-0.9-11.2c-0.1-2-0.3-4.2-0.5-5.1c-0.1-0.8-0.1-1.4,0-1.3
		c0.3,0.3,1.2,4.5,3.2,14.4c1.2,6,4.7,19.7,4.7,18.6c0-0.5-0.4-3.2-0.9-6c-1.6-9.6-3.2-25.6-3.6-36.1c-0.5-11.2,1.3-17.8,6.7-25
		c5.4-7.1,10.3-10.8,18.5-13.8c3.1-1.2,3.2-1.3,1.5-1.1c-5.7,0.7-11.1,2.9-15.3,6.1c-1.6,1.4-3,2.3-3.1,2.3
		c-0.3-0.2,4.1-4.3,6.4-6.2c3.9-2.9,7.8-4.8,12-5.8l2.2-0.5l-2.2,0.3c-11.4,1.1-22.6,9.4-26.5,19.4c-0.8,2.1-1.9,6.7-2.6,11
		c-0.1,0.5-0.2-0.4-0.2-1.9c-0.2-5.8,2.3-13.1,6.1-18.8c2.1-3.1,6.9-7.8,10.1-9.9c9.1-5.9,19.7-8,29.7-6c2.3,0.5,2.5,0.5,3-0.1
		c0.3-0.3,0.5-0.6,0.5-0.8c0-0.2-6.9-1.8-10.8-2.5C571.9,155.7,564.3,155.8,560.5,156.5z M536.8,201.9c-0.1,0.8-0.2,0.2-0.2-1.5
		c0-1.7,0.1-2.3,0.2-1.5C536.9,199.6,536.9,201.1,536.8,201.9z"/>
	<path class="st1" d="M561.4,599.3c-0.4-1.3-1.3-6.2-2-11c-1.4-9.1-1.5-9.7-1.8-9.5c-0.2,0.2,0.7,11.5,1.3,15.3
		c0.2,1.4,0.4,4.1,0.4,5.7c0,1.6,0.1,3.7,0.3,4.7l0.2,1.6h1.6c1.5,0,1.6-0.1,1.4-0.8c-0.1-0.5-0.4-1.4-0.5-2.3
		C562.1,602.3,561.7,600.5,561.4,599.3z"/>
	<path class="st1" d="M561.4,407.1c0,0.6,1.5,12.6,2.2,16.9c0.8,5,2.4,17.9,3.8,30.5c1.4,12.1,2.9,24.3,4.3,33.9
		c0.6,4.5,1.6,11.6,2.2,15.7c1.4,10.4,4,27.6,5.2,34.3c0.5,3.1,1.3,6.9,1.4,8.5c0.5,3.9,3.4,17.6,5.1,24.9c0.5,2,1.7,6.9,2.6,10.9
		c1,4.1,1.8,7.2,1.9,7.2c0-0.1-4.6-36.9-10.4-81.7c-11.5-89.5-10.3-82.2-14.2-91.9C563.5,411.1,561.4,406.7,561.4,407.1z"/>
	<path class="st1" d="M513.3,259.9c0.1-0.2-0.4-4.1-1-8.8c-2.2-16.1-2.5-21.1-2.9-40.8c-0.4-19-0.3-21,1.1-29
		c0.4-2.3,0.6-4.1,0.5-4.2c-0.2-0.3-0.5,1-1.6,7.5c-0.6,3.5-1.3,6.9-1.4,7.6c-1.4,5.6-2.3,21.1-1.4,29.5c0.4,4.5,1.6,13.7,2.7,20.1
		C510.6,249.8,513,260.8,513.3,259.9z"/>
	<path class="st1" d="M379.5,285.9c3.4-0.6,3.2-0.3,4.6-5.7c1.4-4.8,3.2-13.8,4.7-22.1c1.4-7.7,3.9-20.2,5.4-26.8
		c0.5-2.1,2.6-11.9,4.7-21.8c2.1-9.9,3.8-18.3,3.9-18.8c0.2-0.7,0.2-0.7,0.3,0c0,0.9-3.1,18.8-5,29c-2.9,15.1-3.9,21.7-5.1,32.3
		c-0.9,8.6-2.2,25.8-2.2,29.3c0,2.3,0.1,2.6,0.6,2.5c0.5-0.2,11.6-1.7,12.4-1.7c0.4,0,1-3,1.6-7.8c1-7.4,4-22,4.7-22.7
		c0.1-0.1,0.2,1.2,0,3c-0.1,1.8-0.3,8.6-0.4,15.1l-0.3,11.8l3.6-0.2c11.5-0.8,15.9-1,30-1.2l15.8-0.3l0.2-2.3
		c0.7-7.2,1.6-43.6,1.9-72.8c0.2-19.9,0.5-25.3,1.4-31.4c1.8-10.4,7.5-23.8,13.2-30.9c2.6-3.2,7.1-7.8,10.5-10.6
		c6.8-5.5,17.6-11.5,26.2-14.3c5.1-1.6,10.3-2.8,10.9-2.4c0.2,0.1-1.8,0.9-4.5,1.8c-5.3,1.7-12,4.9-16.1,7.7
		c-8.1,5.3-17.7,14.3-21.7,20.5c-5,7.4-8.6,16.8-10.4,27.3c-0.7,4.1-0.8,5.5-0.7,22.5c0,10,0.2,24.3,0.4,31.6
		c0.2,7.4,0.5,22.3,0.7,33.2c0.3,10.9,0.5,19.9,0.6,20.1c0.2,0.1,5.6,0.3,12.1,0.4l11.8,0.2l-0.2-1.4c-0.5-3.1-2.1-18.2-2.7-26.2
		c-3-36.2-2.1-59,3.1-78.6c1.5-6,2.7-8.8,6-14.6c4.9-8.4,8.8-13.1,16.6-19.3c4.3-3.5,11.3-7,16.4-8.3c3.2-0.8,4.4-1,9.4-1
		c7.9-0.1,13.6,1.2,17.9,3.9l1.9,1.2l-5.4,0.2c-7.7,0.3-12.8,1.5-18.4,4.6c-11.1,6-18.8,18-22.7,35.3c-3,13.3-3.9,28.5-2.5,41.8
		c0.7,6.6,3.2,23.2,3.4,23.4c0.1,0.1,0.1-1,0-2.5c-0.2-1.4-0.5-7.2-0.6-12.6c-0.7-18.8,0.7-37.6,3.9-50.7
		c5.1-21.7,16.3-34,33.5-36.8c4.5-0.7,4.8-0.6,1.6,0.5c-14.1,5.2-22.2,12.6-28,25.8c-1.5,3.4-3.9,10-4.2,11.9
		c-1.5,8.1-2.1,12-2.2,18.6c-0.1,3.9-0.1,6.6,0,6c0.1-0.5,0.5-3,0.7-5.3c1.1-8.4,3.9-17,8.7-26.4c3-5.8,5.8-9.6,9.4-12.6
		c5-4.3,10.6-7.1,17.4-8.6c2.9-0.6,4.7-0.8,11.4-0.8c7.4,0,8.2,0.1,12.3,1c2.3,0.6,5.1,1.3,6,1.5c1.7,0.5,1.7,0.5,1.9-0.4
		c0.2-0.5,0.2-1,0.1-1c-0.4-0.4-6-1.8-9.1-2.4c-5.2-1.1-15.5-1.4-19.7-0.5c-1.8,0.4-3.3,0.5-3.4,0.5c-0.2-0.2,6.6-1.7,9.6-2.1
		c4.1-0.5,13.6-0.5,18.9,0.2c6,0.7,5.7,0.7,5.5-0.5c-0.1-1-2.1-2.2-7.8-4.7c-1.4-0.6-2.6-1.3-2.5-1.4c0.1-0.1,2,0.5,4.1,1.1
		c2.3,0.6,4.8,1.4,5.7,1.4c1.6,0.3,1.6,0.3,2-0.9c0.3-0.6,0.5-1.4,0.5-1.4c0-0.5-5.6-3.4-10.9-5.8c-9-4.1-18.5-7.1-27.2-8.7
		c-3.9-0.7-6-0.8-13.4-0.9c-4.9,0-10,0.1-11.5,0.3c-4.5,0.5-2.5-0.1,3-0.8c11.3-1.6,18.6-1.3,31.1,1.3c8.6,1.7,17,4.6,26.1,8.9
		c2.1,0.9,3.8,1.6,3.9,1.6c0.2-0.2,1.2-4.2,1.2-4.9c0-0.8-19.2-10.3-30.4-14.9c-9.1-3.8-27.6-9.4-35.6-10.8c-5.1-1-6.6-1.5-3.1-1.3
		c6,0.5,19.7,3.6,27,6c3.8,1.4,15.2,5.6,18.8,7c2.8,1.3,13,5.9,19.2,8.8c2.5,1.2,4.6,2.2,4.7,2.1c0.3-0.4,0.9-4.1,0.6-4.1
		c-0.2,0-1.2-0.5-2.3-1.2c-4.8-2.6-14.1-7-20.2-9.6c-22.5-9.2-31.4-11.7-51.8-14.4c-5.7-0.8-19.2-0.9-25.4-0.3
		c-5.4,0.6-14.4,2.6-20.7,4.7c-7,2.3-12.8,5.1-18.4,9.1c-8.8,6.3-13.2,10.3-18.5,17c-1.5,1.9-3,3.7-3.2,4c-0.5,0.5-0.5,0.5-0.1-0.4
		c1.4-2.8,5.1-7.7,10.3-13.5c2.3-2.6,7.3-7,10.5-9.2c10.9-7.7,27.3-13.6,45.3-16.4c5-0.8,19.1-1.1,24.2-0.5
		c16.9,1.8,33.2,6.5,54.6,15.6c8.7,3.8,12.4,5.2,15.1,6c1.9,0.6,2.1,0.6,2.1,0c0-0.4-1.3-1.4-3.5-2.6c-5-3-19.7-10.3-24.6-12.3
		c-2.3-0.9-4.1-1.8-4.2-2.1c-0.3-0.5,0.4-0.4,7.5,2.4c3.2,1.4,10,4.3,15,6.7c5,2.3,9.4,4.2,9.7,4.2c0.4,0,0.5-0.2,0.5-0.6
		c-0.2-1.2-18.4-10-30.1-14.6C547.9,86,531,81.9,512,80.6c-10.7-0.8-23.9,0.5-36.2,3.4c-13.2,3.2-23.6,8.4-36.9,18.3
		c-4.1,3-13.6,12.4-17.2,16.9c-7.8,9.7-14,21.8-19.2,36.9c-1.4,4.1-1.4,4.1-0.7,3.7c0.3-0.2,0.3-0.1,0.1,0.4
		c-1.8,4.6-6,22.1-8.1,33.5c-0.6,3.4-1.7,8.7-2.3,11.7c-0.6,3.1-1.4,7.4-1.8,9.6c-0.4,2.2-2.3,12.5-4.3,22.9
		c-3.2,15.9-9.2,47.8-9.2,48.5C376,286.6,376.2,286.6,379.5,285.9z M493.5,152.4c-0.9,2.5-3.4,10.7-4.4,14.5
		c-5.3,19.7-8.5,48.4-7.5,67.2c0.3,5.4,0.3,6.4-0.1,4.9c-0.1-0.5-0.5-4.1-0.7-8.1c-0.3-4-0.8-10.2-1.1-13.9
		c-1.2-14.5-0.4-28.7,2.2-39.1c2.2-8.7,5.3-16.6,8.8-22.1C492.5,152.9,493.9,151.1,493.5,152.4z M556.4,147.1
		c-0.5,0.2-0.5,0.2-0.2-0.2c0.3-0.3,0.5-0.4,0.6-0.3C557,146.8,556.8,147,556.4,147.1z M440.7,170.3c1.2-6.9,2.3-11.9,4.2-17.1
		c3.1-9,9-19.4,14.5-25.2c4.1-4.4,11.3-9.6,18.1-13c2.3-1.2,12.1-5.1,12.6-5.1c0.2,0-1.2,0.9-3.1,2c-4.1,2.3-8,5.4-13.4,10.2
		c-8.3,7.3-13.2,13.8-19.1,25.6c-7,14.2-9.8,22.7-12.8,40c-2.3,13.5-2.3,13.9-2.7,18.7c-0.1,2.4-0.3,4.1-0.4,4
		c0-0.2-0.1-5.8-0.1-12.4C438.6,184.9,438.8,181.4,440.7,170.3z"/>
	<path class="st1" d="M708,972.1c0.7,4.9,2.7,20.8,2.7,22.5c0,0.4,0.6,0.4,3.1,0.3c1.7-0.1,3.2-0.3,3.2-0.4c0.6-0.6-3.2-21.3-6-31.8
		c-2.7-10.5-7.8-26.7-9.7-30.7c-0.2-0.4-1-2.3-1.7-4.3c-3.8-9.6-15.1-31.7-18-35c-0.7-0.9-0.8-0.9-0.4-0.2
		c4.8,8.1,10.6,19.9,13,26.3C699.5,932.8,705.1,954.2,708,972.1z"/>
	<path class="st1" d="M591.3,167.2c-1.6,3.3-2.9,6.2-2.9,6.5c0,0.9,4-5.8,6.5-11c2.6-5.5,3.9-8.2,7-15.8c1.6-3.9,2.3-5,2.8-5
		c0.5,0,0.6,0.2,0.5,0.6c-3.7,12.2-5.7,17.9-7.8,22.6c-3.4,7.9-6.6,13.7-8.8,16.6c-1.2,1.4-1.2,1.5-0.6,2.7l0.5,1.3l0.9-1.1
		c1.8-2.2,4.4-6.2,6.7-10c2.6-4.5,2.8-5,5.2-11.6c1.4-3.5,2.1-5,2.5-5.1c0.8-0.2,0.6,0.7-2.2,9.2c-3,9.1-5.2,14-9,19.7l-0.6,1h0.9
		c0.7,0,1.4-0.5,2.9-2.6c3.1-4.1,5.3-7.9,7.7-13c1.6-3.3,2.3-4.6,2.8-4.6c0.5,0,0.6,0.2,0.5,0.8c-0.4,1.1-4,10.6-4.7,12.2
		c-1,2-0.3,1.6,1.3-0.7c3.8-5.9,10-20.2,13.7-31.5c5.5-17.2,7.8-31,6.9-40.9c-0.3-2.8-0.6-5-0.9-5.4c-0.6-1-4.4-3.8-6.5-4.9
		c-2.7-1.4-5.3-2.1-7.8-2.1h-2.4l0.2,7.7c0.3,11.5-1,21.5-4.4,34.7C599.1,148.8,595.9,157.4,591.3,167.2z M613.1,142.4
		c0.6-0.2,0.7,0,0.5,1.8c-0.7,5.4-4.2,16.6-5.3,16.8c-0.3,0.1-0.6,0-0.7-0.2c-0.3-0.4,2.3-10.3,3.8-14.7
		C612.1,143.4,612.6,142.4,613.1,142.4z M609.8,117.4c0.5,0.4,0.5,0.5-0.1,2.6c-0.5,2.2-1,2.8-1.5,2.3c-0.2-0.2-0.3-1.3-0.3-2.3
		C607.9,117.6,608.5,116.7,609.8,117.4z M605.9,133c0.6-3.2,1.1-4.6,1.6-4.6c1.2,0,0,5.7-1.2,5.9C605.7,134.4,605.7,134.2,605.9,133
		z M605.8,148.1c0.1-1,0.8-3.2,1.4-5c0.7-1.8,1.4-4.1,1.7-5.1c0.4-1.4,0.6-1.9,1.1-1.9c0.9,0,0.9-0.1,0,3.4
		c-0.4,1.6-0.9,4.1-1.3,5.4c-0.9,3.7-1.4,4.9-2.3,4.9C605.7,149.8,605.7,149.8,605.8,148.1z"/>
	<path class="st1" d="M580.9,787.2h1.4l-1.1-1.9c-5.4-9.6-9.7-18.3-14.7-29.7c-3.9-8.8-6.8-16.8-9.7-26.9c-1.4-4.5-3.3-10.3-4.6-13
		c-2.2-5-6.9-13.9-9.6-18.2l-1.6-2.5l0.3,1.6c0.5,3.1,2.3,11,3.8,15.9c8.2,27.3,15.2,44.8,23.4,58.4c4.1,6.8,9.6,15.1,10.4,15.8
		C579.3,787,580.2,787.2,580.9,787.2z"/>
	<path class="st1" d="M621.9,788.6h2l-1.7-1.9c-6.9-7.8-10.5-12.4-14.9-19.7c-0.6-1.1-1.2-1.7-1.2-1.5c0,1.1,9.3,17,12.5,21.5
		C619.8,788.6,619.9,788.6,621.9,788.6z"/>
	<path class="st1" d="M599.4,658.4c-0.7-0.7-0.6,1.9,0.7,16.1c0.6,5.9,2.3,15.1,4.3,22.4c1.5,5.4,6,18.4,8.3,24
		c6.9,16.8,17.5,34.4,29.6,48.7c5.4,6.5,18.5,19.3,21.3,20.8c0.8,0.5,2.3,0.6,2.3,0.2c0-0.2-0.9-1.1-2-2
		c-2.5-2.3-11.2-11.5-15.7-16.9c-26.9-31.9-44.2-70.6-48.2-107.5C599.8,661.1,599.4,658.5,599.4,658.4z"/>
	<path class="st1" d="M551.5,757.9c3.8,8.2,5.6,11.2,12.9,20.9c6.1,8.3,5.9,8,7.7,8c0.9,0,1.6-0.1,1.6-0.1c0-0.1-1.5-2.7-3.4-5.9
		c-3.7-6.1-9.4-17-12.4-24c-2-4.7-6-15.4-8.7-23.9c-2.8-8.4-6.8-25.3-8-33.9l-0.8-5.6l-2.8-3.8c-2.7-3.6-7.8-9.6-9.8-11.5l-1-0.9
		l0.3,2.9c0.3,3,1.4,9.5,2.7,15.2c0.4,1.8,0.7,3.7,0.7,4.2c-0.1,2.2-1.3-1.7-4.1-13.3l-3-12.2l-2.3-2c-4.1-3.4-8.7-6.5-12.3-8.3
		c-3.2-1.7-7.8-3.7-8.3-3.7c-0.2,0-0.4,2.8-0.5,6.2c-0.2,3.4-0.5,10.2-0.6,15.1c-0.5,10.4-0.3,25,0.5,32.8c1,10.3,3.8,25.4,6.7,37
		c0.5,1.5,0.7,2.9,0.6,3c-0.3,0.2-2.7-9.9-5-20.5c-4.5-20.9-6.4-37.6-8.2-71c-0.2-3.6-0.3-4.4-0.8-4.6c-1.5-0.5-5.4-1-10-1.4
		l-5.1-0.4l-0.3,5.1c-0.2,2.8-0.3,12.4-0.3,21.1c0,28.3,1.3,48.1,4.1,65.4c1.8,11.2,3.6,18.7,7.1,30.1l1.7,5.6l2.1,0.4
		c1.2,0.2,2.2,0.3,2.3,0.2c0.1-0.1-0.5-2.3-1.4-4.9c-2.6-7.3-4.5-18.1-6.7-37.2c-1.4-11.8-1.4-14.2,0-4.3c0.6,4.1,1.4,9.5,2,11.8
		c1.7,8.3,6.5,21.3,11.3,30.7l1.8,3.7l6,0.4c6,0.5,34.9,1.4,35.1,1.1c0.1-0.1-0.9-1.4-2.2-3c-7.7-9.3-13.3-20.2-17.1-33.2
		c-4-13.4-6-23.6-6.9-34.3c-0.2-2.8-0.5-6-0.6-7.2c-0.1-1.2-0.1-2.1,0-2c0.2,0.2,0.5,1.8,0.6,3.8c1.4,14,4.5,25.3,10.7,39.7
		c4.5,10.5,10.2,19.1,20.6,31.3l4.6,5.2l5.1,0.3c2.9,0.2,5.2,0.2,5.4,0.1c0.1-0.2-0.3-0.8-0.9-1.6c-2.7-3.5-6.5-11.1-8-16.3
		c-0.5-1.4-1.4-4.3-2.3-6.3c-1.7-4.2-4.3-11.7-4.1-11.9C547.9,750.1,549.5,753.6,551.5,757.9z"/>
	<path class="st1" d="M609.8,788.3h2.1l-4.5-6.6c-10.3-15.2-19.5-33.3-27.7-54.3c-1.8-4.6-3.3-8.3-3.4-8.2
		c-0.3,0.3,7.9,24.1,10.8,31.4c4.7,11.6,10.5,23.4,16.4,32.9C606.5,788.2,606.4,788.2,609.8,788.3z"/>
	<path class="st1" d="M572.8,695.8c1.5,7.7,2,7.7,0.6,0c-1.2-7.3-1.5-10.5-2.2-20.4c-0.1-1.3-0.3-5.1-0.4-8.7
		c-0.1-3.4-0.3-6.9-0.4-7.8c-0.2-1.4-0.3-1.4-1.6-1.6c-0.8,0-1.4,0.1-1.5,0.3c-0.1,0.2,0,2.6,0.2,5.4c0.3,5.5,1.6,15.2,3,22
		C571.1,687.3,572.1,692.2,572.8,695.8z"/>
	<path class="st1" d="M591.3,786.5c0.6,0.9,1,1.1,2.3,1.1c0.9,0,1.6-0.1,1.6-0.3c0-0.1-2-3.2-4.5-6.9c-2.4-3.6-5.8-9.1-7.4-12.1
		c-4-7.2-5.5-9.9-5.7-9.7c-0.1,0,1.8,4,4.1,8.7c2.3,4.7,4.1,8.7,4.1,8.7C585.9,776.3,590.6,785.5,591.3,786.5z"/>
	<path class="st1" d="M510,1187.5c-0.2,0.4,0.6,0.5,3.9,0.4l4.1-0.1l2.3-3.4c10.6-15.9,22.4-40.8,27.9-59.3
		c2.3-7.4,6.7-25.1,8.5-33.7c0.7-3.4,1.4-6.9,1.6-7.7c0.2-0.7,0.2-1.3,0-1.2c-0.2,0.1-0.5,1.4-0.9,3c-0.9,4.3-5.1,20.7-6.5,25.5
		c-1.4,4.9-5.8,16.5-6.6,17.8c-0.3,0.5-0.5,0.8-0.4,0.8c0.4,0-4.6,10.5-7.8,16.8c-5.2,9.9-12.1,20.9-21.9,35.2
		C512.1,1184.5,510.2,1187.2,510,1187.5z"/>
	<path class="st1" d="M756.8,1015.6c-0.3,0.2-0.2,0.3,0.3,0.3c0.4,0,0.5-0.1,0.5-0.2C757.4,1015.5,757.1,1015.5,756.8,1015.6z"/>
	<path class="st1" d="M720.6,1111.3c-2.6,8-8.7,23.1-12.6,31c-6.1,12.5-11,21.2-18.2,32.4l-4.6,7.1l3.8-2l3.9-1.9l3.2-5.6
		c3.1-5.5,7.5-14.2,10.3-20.3c4-8.7,15.7-41.6,15.6-43.7C721.9,1108,721.4,1109.3,720.6,1111.3z"/>
	<path class="st1" d="M649.3,1152.1l-0.6,1.8c-0.5,1-0.7,1.9-0.7,2.1c0,0.3,3.1-0.8,4.5-1.6c0.9-0.5,4.1-3.9,3.6-3.9
		c-0.2,0-1.8,0.4-3.5,0.8L649.3,1152.1z"/>
	<path class="st1" d="M623.6,1172.7c0.2,0.2,7.9-2.4,10.5-3.5c1-0.5,1.7-1.1,2.3-2.2c0.6-1,0.7-1.4,0.4-1.4c-0.3,0.1-2.4,0.5-5,1
		c-2.4,0.5-7.9,1.4-12.1,2.2c-9.6,1.8-13.4,2.4-16.4,2.7c-1.3,0.2-2.6,0.5-2.9,0.5c-0.5,0.3-3.1,4.2-4.6,6.9c-0.2,0.5,0.5,0.4,6.8-1
		c4.8-1,14.2-3.2,18.3-4.3c0.4-0.2,1.3-1,2-2c1.4-2.1,2-2.3,1.2-0.5C623.7,1172,623.5,1172.6,623.6,1172.7z"/>
	<path class="st1" d="M707.1,1066.6c-0.7,8.7-4.3,28.3-7.3,39.5c-2.2,8.3-5.7,20.7-6,21.4c-0.2,0.4-0.3,0.6,0,0.6
		c0.2,0,0.9-1.8,1.6-4.1c4.3-14,8.4-28.2,9.9-34.9c1.6-6.7,3.8-18,4.5-22.9c2.4-17.6,2.7-19.7,2.3-25.9l-0.4-4.2h-1.5
		c-0.8,0-1.5,0.1-1.6,0.2c-0.1,0.1-0.1,1.9,0.1,4.1c0.3,3.4-0.4,15.5-1,20.5C707.6,1061.4,707.3,1064,707.1,1066.6z"/>
	<path class="st1" d="M585.8,1126.5c7.9-18.3,11.4-32.9,13.1-56c0.5-5.5,0.5-20.3,0.1-24.7l-0.3-2.7l-2-0.1l-2.1-0.1l-0.2,2.7
		c-0.2,1.5-0.3,5.4-0.3,8.5c0,11.4-1.3,24.5-3.4,35.2c-3.9,19.2-12.8,42.1-24.9,64c-2.3,4.1-4.1,7.7-4.1,7.8
		c0.2,0.1,17-0.5,18.5-0.7c1.3-0.2,1.6-0.5,2.5-1.9c1.4-2.3,7.9-14.9,9-17.4c1.4-3,1.1-1.4-0.4,2.1c-1.2,3.2-2,5-5.7,12.8l-2.1,4.2
		l6-0.1c3.2,0,6,0,6,0.2c0,0.2-11.3,2.4-12.4,2.4c-0.4,0-1.3,1.4-2.4,3.4c-1,1.9-2.4,4.4-3.1,5.5l-1.3,2.1l2.3,0.2l2.3,0.2l-2.6,0.5
		l-2.6,0.5l-2.2,3.2c-1.2,1.8-2.2,3.2-2.2,3.3c0,0.1,2.5-0.2,5.7-0.5c3.2-0.3,6.3-0.6,7.1-0.6c1.4,0,1.5-0.1,4.2-3.7
		c2.2-3,2.6-3.7,2.1-4c-0.5-0.2-0.4-0.2,0.3-0.3c0.5,0,1.7-1.5,5.1-6.6c9.2-14,16.1-27.2,20.4-39.4c3.4-9.4,6.8-22.8,8.4-33.1
		c0.4-2.4,0.5-2.7,0.5-1.4c0,2.1-1,8.9-2.9,19.1c-3.8,20.6-8.2,33.7-17.7,52.3c-1.8,3.4-3.2,6.3-3.2,6.4c0.1,0,1.4-0.3,2.8-0.6
		c1.5-0.4,7-1.7,12.3-2.9c8.4-2,16.1-4.2,22.3-6.6c1.8-0.6,2-0.8,3.3-3.6l1.4-2.9l-1,0.3c-3,0.5-11.7,2-13.3,2.1
		c-1.1,0.1-1.9,0-1.9-0.2c0-0.1,0.4-0.3,0.8-0.3c1.1,0,8.5-2.1,13.4-3.7l3.5-1.2l1.8-4.1c4.9-11.6,8.8-23.6,12.3-37.4
		c1.5-5.9,2.9-11.7,3.2-12.9c0.6-3.1,0.8-2.3,0.4,1.3c-1.8,13.8-6.4,34.1-10.7,47.3c-0.6,2.2-1.2,4-1.1,4.1c0.2,0.2,8.7-2.3,9.2-2.8
		c0.3-0.2,1.6-2.1,3.1-4.2c5.3-7.8,9.9-19.3,11.5-28.5c1.1-6.4,1.1-17.9,0-18.6c-0.2-0.1-0.4,0.1-0.4,0.5c0,1.1-2.3,10.1-5.1,20.8
		c-3.8,13.8-6,20.9-7.3,23.2c-0.6,1.2-0.6,0.9,0.6-3.3c0.5-1.6,2.1-7.9,3.5-14.1c2.5-10.8,4.1-19.7,5.2-30.6l0.5-5l-1.3-2.9
		c-2.5-5.6-5.8-10.7-11-17.2l-2.7-3.4l-0.7,6.5c-1.1,8.2-1.9,13.3-2.4,13.7c-0.3,0.3-0.3,0.2-0.1-0.4c0.2-0.4,0.4-5.7,0.5-11.7
		l0.1-11.1l-2.8-2.6c-1.5-1.5-3.4-3.2-4.3-3.9l-1.4-1.2l-0.4,2.3c-0.3,1.3-0.5,3-0.6,3.8c-0.5,2.4-0.9,1.8-0.9-1.3
		c0-1.5-0.1-3.7-0.3-4.7l-0.2-2l-3.8-2.4c-2.1-1.4-5.2-3.2-6.9-4.1l-3.1-1.5l-4.7,0.1c-2.6,0.1-4.7,0.2-4.8,0.2c0,0.1-0.2,3-0.5,6.5
		c-0.4,6.7-1.6,16.1-3.1,24.3c-0.5,2.6-1.4,7.6-2,11c-1.2,7.3-1.8,10.2-2,10c-0.1-0.1,0.3-4.3,0.9-9.4c0.9-7.6,1.1-10.6,1.1-17.1
		c0-8.7-0.6-24.3-1.1-24.7c-0.1-0.2-2-0.2-4.1,0l-3.9,0.2l0.3,3.7c0.3,4.9-0.4,17.5-1.3,23.8c-1.6,11.4-6.3,31.7-8.8,38.8
		c-1.4,4-11.5,24.3-12.8,26l-0.7,0.9l0.5-1.3C582.8,1133.8,584.3,1130.2,585.8,1126.5z"/>
	<path class="st1" d="M478.1,1187.9v-1.2c0-0.7,0.6-5.7,1.4-11.1c0.8-5.5,1.6-11.5,1.8-13.5c0.5-4.1,2-16.6,2.3-18.6
		c0.2-0.8,0.2-1.2-0.1-0.9c-0.2,0.2-0.9,2.9-1.5,6c-0.6,3.1-1.8,8.3-2.6,11.5c-0.7,3.2-2.2,9.9-3.2,14.7c-1,4.8-2,9.6-2.3,10.6
		c-0.3,1-0.5,2-0.5,2.2c0,0.2,1.1,0.3,2.3,0.3H478.1z"/>
	<path class="st1" d="M465.1,1196.6c-206.1,0-206.6,0-207.2,0.7c-0.5,0.5-0.5,0.7-0.2,0.7c5,0.1,20.7,0.8,25.3,1.3
		c5.1,0.5,20.4,1.1,33.5,1.4c1.5,0,2.7,0.2,2.5,0.4c-0.2,0.1-7,0.4-15.2,0.6c-8.2,0.3-20.3,0.8-26.7,1.3c-6.5,0.5-12.3,0.9-12.8,0.9
		l-1.1,0.1l0.9,0.4c0.5,0.2,11.5,0.4,29.4,0.6c20.1,0.3,30.1,0.4,34.1,0.9c3.1,0.3,8.9,0.7,12.9,0.9c4.1,0.3,7.1,0.6,6.9,0.7
		c-0.3,0.2-6.1,0.4-13.1,0.4c-12.4,0.2-16.9,0.5-40.4,2.6c-5.6,0.5-10.8,0.9-11.7,1c-0.9,0.1,3.4,0.2,9.6,0.4
		c6.1,0.2,14.8,0.5,19.1,0.6c4.3,0.2,12.5,0.5,18.2,0.7c5.7,0.2,12.5,0.5,15.3,0.7c2.8,0.2,8.5,0.5,12.6,0.7c4.1,0.3,7.8,0.5,8,0.7
		c0.3,0.2-6.3,0.4-14.6,0.5c-15.1,0.2-47.9,1.4-52.6,2.1c-1.9,0.2,0.2,0.3,7.6,0.4c5.6,0,13.5,0.2,17.7,0.4
		c4.1,0.3,14.8,0.5,23.6,0.7c20.8,0.5,43.8,1.9,41.3,2.6c-0.6,0.2-8.6,0.4-17.7,0.6c-9.1,0.2-20.2,0.5-24.5,0.8
		c-4.3,0.2-10.6,0.5-13.7,0.6c-4.4,0.2-1.9,0.3,10.6,0.3c15.6,0.1,29.4,0.6,36.3,1.5c1.6,0.2,9.6,0.4,17.9,0.6
		c8.3,0.1,15.1,0.3,15,0.4c-0.4,0.3-9.6,0.9-19,1.2c-5.9,0.2-12.1,0.5-13.9,0.7c-1.8,0.2-7.4,0.6-12.4,0.9
		c-25.4,1.6-28.9,1.5,98.5,1.5c101.9,0,118.7-0.1,113.6-0.4c-3.2-0.3-10.1-0.7-15.2-1.1c-5-0.3-10.6-0.7-12.4-0.9
		c-1.8-0.2-8-0.5-13.9-0.7c-9.5-0.3-18.7-0.9-19-1.2c-0.1-0.1,6.7-0.3,15-0.4c8.3-0.2,16.3-0.5,17.9-0.6c6.9-0.9,20.7-1.4,36.3-1.5
		c12.5,0,15.1-0.1,10.6-0.3c-3.2-0.2-9.4-0.4-13.7-0.6c-4.3-0.3-15.4-0.6-24.5-0.8c-9.1-0.2-17-0.5-17.7-0.6
		c-2.5-0.7,20.5-2.2,41.3-2.6c8.8-0.2,19.5-0.5,23.6-0.7c4.1-0.2,12.1-0.4,17.7-0.4c7.4-0.1,9.5-0.2,7.6-0.4
		c-4.7-0.6-37.4-1.9-52.6-2.1c-8.3-0.1-14.9-0.3-14.6-0.5c0.3-0.2,3.9-0.4,8-0.7c4.1-0.2,9.8-0.5,12.6-0.7c2.8-0.2,9.6-0.5,15.3-0.7
		c5.7-0.2,13.9-0.5,18.2-0.7c4.3-0.2,13-0.4,19.1-0.6c6.1-0.2,10.5-0.3,9.6-0.4c-0.9-0.1-6.1-0.5-11.7-1c-23.5-2.1-28-2.4-40.4-2.6
		c-6.9-0.1-12.8-0.3-13.1-0.4c-0.3-0.1,2.8-0.5,6.9-0.7c4-0.2,9.8-0.6,12.9-0.9c4-0.5,14-0.6,34.1-0.9c17.9-0.2,28.9-0.5,29.4-0.6
		l0.9-0.4l-1.1-0.1c-0.5,0-6.3-0.4-12.8-0.9c-6.4-0.5-18.5-1-26.7-1.3c-8.2-0.2-15.1-0.5-15.2-0.6c-0.2-0.2,1-0.4,2.5-0.4
		c13.2-0.3,28.4-0.9,33.5-1.4c4.7-0.5,20.4-1.2,25.3-1.3c0.4,0,0.4-0.2-0.2-0.7C671.7,1196.6,671.2,1196.6,465.1,1196.6z
		 M357.2,1207c0-0.9,2.4-1.1,13-1.3c8.4-0.1,12.4,0,16.8,0.5c3.2,0.3,11,0.9,17.5,1.3c6.4,0.4,12.2,0.8,12.8,0.8
		c1.9,0.3-7.8,0.2-13.5-0.1c-3.1-0.2-14.2-0.3-24.7-0.3C360.4,1207.8,357.2,1207.7,357.2,1207z M376.5,1215
		c-0.4-0.5,0.3-1.4,1.2-1.6c1-0.3,10.6,0.3,16.9,1l4,0.5l-2.2,0.3C392.9,1215.4,376.8,1215.4,376.5,1215z M414.2,1221.6
		c-3.9,0.1-9.8,0.1-13.2,0c-12.4-0.5-3.3-1.3,14.1-1.2C433.2,1220.4,432.5,1221.3,414.2,1221.6z M480,1228.7
		c-6.6,0.4-23.7,0.4-30.7,0c-11.1-0.6-18.8-1.2-19.7-1.5c-0.6-0.2-0.7-0.4-0.4-0.7c1-1.1,70.4-1.1,71.4,0
		C501.8,1227.4,499.2,1227.7,480,1228.7z M531.2,1221.5c-2.2,0-6.6,0.1-9.8,0.2c-3.2,0.1-8.4,0-11.4-0.2c-3-0.2-6.1-0.3-7-0.4
		c-1.4,0-1.5-0.1-0.7-0.4c1-0.4,22.5-0.5,28.4-0.2c2.3,0.2,4.1,0.5,4.2,0.6C535,1221.4,533.3,1221.5,531.2,1221.5z M553.6,1215
		c-0.3,0.4-16.7,0.4-20,0c-1.9-0.2-1.8-0.2,2-0.6c6.1-0.7,15.9-1.3,16.9-1C553.4,1213.6,554,1214.5,553.6,1215z M572.7,1207.3
		c-0.1,0.2-10.8,0.4-23.7,0.5c-13,0.1-26.6,0.3-30.4,0.4c-3.8,0.2-6.5,0.2-6,0.1c0.5-0.1,6.3-0.5,13-0.9c6.7-0.4,14.4-1,17.3-1.3
		c5.8-0.5,22.3-0.7,26.6-0.2C572.2,1206.3,573.4,1206.8,572.7,1207.3z"/>
	<path class="st1" d="M518.5,1089c1.6-3.8,4.3-12.9,5.5-18.7c0.7-3.4,4.1-24.5,4.1-25.4c0-0.1-1-0.2-2.2-0.2H524l-0.3,1.9
		c-0.1,1.1-0.3,3.2-0.4,5c-0.4,5.2-3.4,28.5-4.1,32.3c-0.5,2-1.2,4.6-1.6,5.8c-1,2.4-1,2.3-0.5,2.3
		C517.1,1092,517.8,1090.6,518.5,1089z"/>
	<path class="st1" d="M763.1,1008c-1.8,0.5-1.7,0.9,0.2,0.7c1.6-0.2,1.9-0.1,2.9,1c1.9,1.9,1.5,4.8-0.8,6c-0.6,0.4-0.6,0.4,0.3,0.4
		c0.5,0,1.4-0.3,2.1-0.5c1.2-0.6,1.4-1.2,1.4-3.2C769.1,1009.5,766.1,1007.2,763.1,1008z"/>
	<path class="st1" d="M558.7,1166.1c-0.3,0.4-1.5,2.4-2.8,4.4c-1.4,2.1-2.4,3.8-2.4,4c0,0.3,14.5-0.3,16.2-0.5
		c1.1-0.3,1.9-1.1,5.5-5.3c2.6-3.2,4-5,3.7-5.1c-0.3-0.1-2.8,0.2-5.7,0.5c-2.8,0.4-7.1,0.8-9.6,1
		C559.8,1165.3,559,1165.5,558.7,1166.1z"/>
	<path class="st1" d="M675.4,1176.5c-3,4.2-5.7,7.9-5.9,8.2c-0.6,0.9-1.9,2.6-2.2,3.2c-0.5,0.7,2.7,0.6,3.4-0.2
		c0.3-0.4,1-1.5,1.6-2.6c0.5-1.1,2.8-5.1,4.9-8.9c2.2-3.9,3.9-7.1,3.8-7.2C681,1168.8,678.4,1172.3,675.4,1176.5z"/>
	<path class="st1" d="M563.5,1176.9c-5.1,0.5-13,1.7-13.1,1.8c-0.9,1.2-3.2,4.2-4.9,6.2c-1.2,1.4-2.2,2.8-2.2,2.9
		c0,0.2,3.2,0.2,7.2,0.1l7.2-0.2l4.1-4.2c2.3-2.4,4.7-5,5.4-5.8l1.3-1.4L563.5,1176.9z"/>
	<path class="st1" d="M458,1019.8c0.3,0.8,0.3,0.8,7,0.8c6.8,0,6.8,0,7-0.8c0.2-0.5,0.6-1.2,1-1.6l0.7-0.8h-8.7h-8.7l0.7,0.8
		C457.4,1018.6,457.9,1019.3,458,1019.8z"/>
	<path class="st1" d="M371.8,1086.5c-0.5-2-1-3.7-1.1-3.8c-0.7-0.8,2.3,12,5.1,21.2c1.8,5.9,8.2,24.7,9.9,29.2
		c6.2,16.3,17.6,36.9,28,50.7l3.1,4.1h3.2c3.2,0,3.2,0,2.7-0.6c-0.3-0.4-3-4.1-6-8c-14.9-19.7-27.5-42.4-34.9-62.5
		C378.3,1107.2,372.7,1090.2,371.8,1086.5z"/>
	<path class="st1" d="M735.1,1025.2c-5.9,0.1-6,0.1-4.3-0.5c1-0.3,3.5-0.9,5.6-1.3c2.1-0.4,5.2-1.2,7-1.6l3.2-0.9l-3.8,0.2
		c-2.1,0.1-6.7,0.5-10.1,0.7c-7.4,0.5-15,0.9-14.7,0.6c0.3-0.3,9.6-1.8,18.2-3c8.7-1.2,21.6-3.7,17.2-3.4l-2.5,0.3l1.2-1.1
		c1.5-1.3,2-3.4,1-5c-1.3-1.8-5.6-3.2-6.8-2.1c-0.3,0.3,0.1,0.4,1.1,0.3c1.8-0.3,3,0.5,3.8,2.1c0.9,1.8,0.4,3.4-1.4,4.9
		c-1.4,1.1-1.4,1.1-7.7,1.3l-6.4,0.2l0.5-1c0.3-0.6,0.7-1.1,1-1.1c1,0,7-1.5,7-1.7c0-1.1-0.6-1.2-4.5-0.8c-3.7,0.4-4,0.4-4.7-0.4
		c-0.9-0.8-3.2-1.8-4.1-1.8c-0.4,0.1-0.1,0.3,0.6,0.5c1.7,0.6,3,2.5,2.7,4.1c-0.4,2.5-3.4,4.1-5.6,2.9c-0.5-0.3-2.3-0.2-5.7,0.2
		c-2.7,0.4-7,0.6-9.6,0.8l-4.6,0.2l-1.3-1.3c-1.4-1.4-1.6-2.8-0.9-4.2c0.3-0.5-0.2-0.6-9.3-0.9c-13.5-0.4-14.4-0.7-2.6-1
		c5.4-0.2,10.7-0.4,11.7-0.5c1.5-0.2,1.7-0.1,1.5,0.5c-0.2,0.4-0.1,0.5,0.5,0.2c0.9-0.5,2.3-0.5,3.3,0.1c2.2,1.1,2.8,4.1,1.2,5.9
		c-0.5,0.5-0.7,0.9-0.5,0.9c0.2,0,3.5-0.4,7.4-0.9c4-0.5,7.2-0.9,7.3-0.9c0.1,0,0-0.4-0.1-0.8c-0.2-0.5-0.3-1.3-0.3-1.7v-1l-3.8-0.2
		c-2.1-0.2-4.7-0.3-5.7-0.3c-1.4,0-2-0.2-2.6-0.8c-1-1-0.7-1.4,0.9-1.4c2.4,0,28.3-3.2,35.8-4.5c7.5-1.3,16.3-3.1,16.1-3.3
		c0-0.1-3.3,0.4-7.3,1c-8.1,1.2-17.6,2.3-25.5,2.9c-4.9,0.4-73.1,0.9-72.1,0.5c0.7-0.3,11.5-0.9,21.8-1.3c16.1-0.6,28.5-1.4,40-2.5
		c5.8-0.6,10.8-1.1,11.1-1.1c0.4,0,0.5-0.1,0.4-0.2c-0.1-0.1-5.2,0.1-11.5,0.4c-22.6,1-52.3,1.7-100.3,2.3
		c-15.4,0.2-40.8,0.5-56.5,0.7c-28.7,0.5-51.8,0.5-102.6,0.5c-50.9,0-73.9-0.1-102.6-0.5c-15.7-0.2-41.1-0.5-56.4-0.7
		c-48-0.6-77.6-1.4-100.3-2.3c-6.2-0.3-11.4-0.5-11.5-0.4c-0.2,0.1,0,0.2,0.4,0.2c0.3,0,5.3,0.5,11.1,1.1c11.5,1.2,23.9,1.9,40,2.5
		c10.3,0.4,21.1,1,21.8,1.3c1,0.4-67.3-0.2-72.1-0.5c-7.9-0.5-17.4-1.7-25.5-2.9c-4-0.6-7.3-1.1-7.3-1c-0.3,0.3,8.6,2.1,16.1,3.3
		c7.5,1.3,33.4,4.5,35.8,4.5c1.6,0,1.9,0.4,0.9,1.4c-0.6,0.6-1.2,0.8-2.6,0.8c-1,0-3.6,0.1-5.7,0.3l-3.8,0.2v1
		c0,0.5-0.1,1.3-0.3,1.7c-0.1,0.4-0.2,0.8-0.1,0.8c0.1,0,3.3,0.5,7.3,0.9c3.9,0.5,7.2,0.9,7.4,0.9c0.2,0-0.1-0.5-0.5-0.9
		c-1.6-1.8-1-4.8,1.2-5.9c1-0.5,2.4-0.5,3.3-0.1c0.5,0.4,0.6,0.3,0.5-0.2c-0.2-0.5,0-0.6,1.5-0.5c1,0.2,6.2,0.4,11.7,0.5
		c11.8,0.3,10.9,0.6-2.6,1c-9.1,0.3-9.6,0.4-9.3,0.9c0.7,1.4,0.5,2.9-0.9,4.2l-1.3,1.3l-4.6-0.2c-2.5-0.2-6.9-0.5-9.6-0.8
		c-3.4-0.4-5.2-0.5-5.7-0.2c-2.2,1.2-5.2-0.4-5.6-2.9c-0.3-1.6,1-3.5,2.7-4.1c0.7-0.3,1-0.5,0.6-0.5c-0.9,0-3.2,1-4.1,1.8
		c-0.7,0.7-1,0.7-4.7,0.4c-3.9-0.4-4.5-0.3-4.5,0.8c0,0.2,6,1.7,7,1.7c0.3,0,0.7,0.5,1,1.1l0.5,1l-6.4-0.2c-6.3-0.2-6.3-0.2-7.7-1.3
		c-1.8-1.4-2.3-3.1-1.4-4.9c0.8-1.6,2-2.3,3.8-2.1c1,0.1,1.4,0,1.1-0.3c-1.2-1.1-5.5,0.3-6.8,2.1c-1,1.5-0.5,3.7,1,5l1.2,1.1
		l-2.5-0.3c-4.4-0.3,8.5,2.3,17.2,3.4c8.6,1.2,17.9,2.7,18.2,3c0.3,0.3-7.3-0.1-14.7-0.6c-3.5-0.3-8-0.6-10.1-0.7l-3.8-0.2l3.2,0.9
		c1.8,0.5,5,1.3,7,1.6c2.1,0.4,4.6,1,5.6,1.3c1.7,0.5,1.5,0.5-4.3,0.5c-3.3-0.1-5.8,0-5.4,0.1c1.1,0.5,34,3.3,58.4,5.1
		c24.3,1.7,57.1,3.6,66.5,3.8c3.4,0.1,6.7,0.2,7.2,0.3c0.9,0.3,10.1,0.6,33.5,1.4c28.6,0.9,170.2,1.2,205.8,0.3
		c19.5-0.5,46-1.4,47.1-1.6c0.5-0.2,3.7-0.3,7.2-0.4c9.5-0.2,42.3-2.1,66.5-3.8c24.4-1.7,57.4-4.6,58.4-5.1
		C740.8,1025.2,738.4,1025.1,735.1,1025.2z M695.5,1015.9c1.6,0,3,0.4,3,0.7c0,0.4-0.7,0.6-2.6,0.9c-1.6,0.3-1.7,0.3-1.7-0.6
		C694.1,1016,694.2,1015.9,695.5,1015.9z M658,1017.9c0-0.8,1.8-2.6,2.9-2.9c2.2-0.4,4.7,1.5,4.7,3.8c0,1.4-1.1,3-2.3,3.4
		c-1.5,0.7-1.5,0.7-3.1-0.1c-0.7-0.4-1.4-1.1-1.8-1.8l-0.5-1.3l-6.7,0.3c-3.7,0.1-8,0.3-9.6,0.5c-2.6,0.2-3,0.1-3-0.4
		c0-0.5,0.7-0.6,6.9-0.6C654.1,1018.8,658,1018.5,658,1017.9z M550.3,1015.4c11.2-0.2,27.1-0.5,35.3-0.6c8.2-0.2,26.2-0.4,39.9-0.5
		c22-0.1,24.4-0.1,21.1,0.4c-2.1,0.3-5.7,0.6-8,0.7l-4.1,0.3l1.2,1.1c1.1,0.9,1.3,1.3,1.3,2.7c0,3.2-3,5-5.8,3.5
		c-0.7-0.4-1.4-1.1-2-2.6c0,0-3.7,0.2-8.1,0.4c-10.7,0.7-10.1,0.7-10.1-0.4v-0.9h7.3c8.7,0,11.1-0.2,11.1-1c0-0.4,0.5-1.1,1-1.6
		l1-1.1l-2.9,0.3c-1.6,0.1-6.4,0.4-10.7,0.6c-7.8,0.4-7.8,0.4-9.6-0.5c-2.3-0.9-4.2-0.8-5.8,0.4c-1,0.7-1.4,0.7-19.9,0.5
		c-22.6-0.2-51.9-0.9-52-1.3C530.1,1015.8,539.1,1015.5,550.3,1015.4z M608.6,1019.8c0,1.4-1.1,3-2.3,3.5c-1.4,0.6-1.8,0.6-2.9,0.2
		c-0.5-0.2-1-0.5-1.3-0.9c-0.4-0.5-1.4-0.5-10.1-0.4l-9.6,0.3l-0.6-1.4l-0.6-1.3h9.7h9.6l0.7-1.4c0.9-1.9,2.9-2.8,4.6-2.3
		C607.4,1016.7,608.6,1018.4,608.6,1019.8z M548.6,1020.4c-0.3-0.5,0.9-0.5,11.5-0.5c11.4,0,11.8,0,12.8-0.7
		c3.8-2.7,8.3,0.7,6.4,4.9c-0.8,1.9-3.8,2.6-5.8,1.4c-0.5-0.4-1.2-1.1-1.5-1.7l-0.5-1.1l-11.4,0.1l-11.4,0.2v-0.9
		C548.8,1021.4,548.7,1020.8,548.6,1020.4z M539.5,1019.1c1.4-1,2.5-1.2,4.1-0.7c2.5,0.8,3.8,3.5,2.6,5.9c-0.9,2-3.8,2.6-6,1.3
		c-0.7-0.4-1.4-1.2-1.6-1.8l-0.4-1l-5.7-0.2c-3.1-0.2-8.4-0.3-11.7-0.3c-3.3,0-6.3-0.1-6.5-0.3c-0.3-0.2-0.5-0.6-0.7-1
		c-0.2-0.8-0.2-0.8,12.4-1C537.7,1019.9,538.6,1019.9,539.5,1019.1z M408.6,1015.5c2-0.5,19.1-0.4,27.6,0
		c13.4,0.6,35.2,0.8,46.2,0.4c14.9-0.5,37-0.8,39-0.5l1.6,0.4l-2.7,0.2c-1.5,0.2-8.8,0.5-16.2,0.6c-22.5,0.6-26.1,0.8-25.5,1.2
		c0.4,0.2,0.8,1,1.2,1.9c0.5,1.3,0.5,1.8,0.2,2.9c-0.9,2.7-4.2,3.7-6.5,1.8c-0.5-0.5-1.1-1.2-1.1-1.4c0-0.7-1.3-0.9-7.2-0.9
		c-6,0-7.2,0.2-7.2,0.9c0,0.3-0.5,0.9-1.1,1.4c-1.4,1.2-3.8,1.3-5.1,0.2c-1.4-1.2-1.9-3-1.2-4.9c0.4-0.9,0.8-1.7,1.2-1.9
		c0.5-0.4-3-0.5-25.5-1.2c-7.4-0.2-14.7-0.4-16.2-0.6C407.4,1015.8,407.3,1015.8,408.6,1015.5z M510.3,1024.7
		c-1.5,1.6-3.5,1.7-5.1,0.4c-0.6-0.5-1.3-1.4-1.4-2.1c-0.4-1.4-0.7-1.7-2.3-1.7c-0.6,0-1.2-0.2-1.2-0.4c0-0.2,0.7-0.4,1.6-0.4
		c1.4,0,1.9-0.2,2.7-1.1c1.4-1.4,3.2-1.7,4.8-0.8C512,1020.1,512.3,1022.8,510.3,1024.7z M487.4,1027l3.1,0.2l-3.8,0.4
		c-5,0.6-25.7,0.9-35,0.5c-4.1-0.2-8.5-0.5-9.7-0.6l-2.3-0.3l3.1-0.3C453,1026.1,476.8,1026.1,487.4,1027z M443.3,1021.7
		c0.2-0.2,1.4-0.4,2.6-0.6c1.9-0.2,2.3-0.1,2.3,0.4c0,0.5-0.5,0.5-2.6,0.5C444,1022,443.1,1021.9,443.3,1021.7z M482,1021.5
		c0-0.5,0.4-0.5,2.3-0.4c3.2,0.4,3.4,0.9,0.4,0.9C482.5,1022,482,1021.9,482,1021.5z M429.7,1020.9c0,0.2-0.5,0.4-1.2,0.4
		c-1.5,0-1.9,0.4-2.3,1.7c-0.4,1.6-2.1,3-3.9,3c-1.2,0-1.6-0.3-2.6-1.3c-1-0.9-1.3-1.4-1.3-2.6c0-3.6,4.1-5.2,6.9-2.6
		c0.8,0.9,1.4,1.1,2.7,1.1C429,1020.6,429.7,1020.8,429.7,1020.9z M416.6,1021.1c-0.2,0.4-0.5,0.8-0.7,1c-0.2,0.2-3.2,0.3-6.5,0.3
		c-3.3,0-8.7,0.1-11.7,0.3l-5.7,0.2l-0.4,1c-0.7,2.1-4.1,3.2-6.2,2v0.1c-2-1.2-2.4-4.2-0.9-6c1.7-2,4.1-2.3,6.2-0.8
		c0.9,0.7,1.8,0.7,13.5,1C416.7,1020.3,416.7,1020.3,416.6,1021.1z M304.7,1014.3c13.7,0.2,31.7,0.4,39.9,0.5
		c8.2,0.2,24.1,0.5,35.3,0.6c11.2,0.1,20.2,0.4,20.1,0.5c-0.2,0.4-29.4,1.1-52,1.3c-18.6,0.2-18.9,0.2-19.9-0.5
		c-1.5-1.2-3.5-1.3-5.8-0.4c-1.9,0.8-1.9,0.8-9.6,0.5c-4.3-0.3-9.1-0.5-10.7-0.6l-2.9-0.3l1,1.1c0.5,0.5,1,1.3,1,1.6
		c0,0.8,2.3,1,11.1,1h7.3v0.9c0,1.1,0.6,1.1-10.1,0.4c-4.4-0.3-8.1-0.4-8.1-0.4c-0.7,1.5-1.3,2.3-2.1,2.6c-1.2,0.6-2.7,0.7-3.7,0.1
		c-1.4-0.7-2-1.8-2-3.6c0-1.4,0.2-1.8,1.3-2.7l1.2-1.1l-4.1-0.3c-2.3-0.1-6-0.4-8-0.7C280.3,1014.2,282.7,1014.2,304.7,1014.3z
		 M381.6,1020.4c-0.1,0.4-0.2,1-0.2,1.5v0.9l-11.4-0.2l-11.4-0.1l-0.5,1.1c-1,2.1-3.9,3-6,1.8c-1.1-0.6-1.8-1.9-1.8-3.4
		c0-3.3,3.9-5.1,6.9-2.9c1,0.7,1.4,0.7,12.8,0.7C380.7,1019.9,381.8,1019.9,381.6,1020.4z M348.9,1019.9l-0.6,1.3l-0.6,1.4l-9.6-0.3
		c-9.2-0.2-9.6-0.2-10.3,0.5c-1,1-2.6,1.2-4.1,0.5c-1.2-0.5-2.3-2.2-2.3-3.5c0-1.4,1.3-3.1,2.7-3.5c1.7-0.5,3.7,0.4,4.6,2.3l0.7,1.4
		h9.6H348.9z M269.2,1015c1.1,0.3,2.9,2.1,2.9,2.9c0,0.6,4,0.9,12.5,0.9c6.2,0,6.9,0.1,6.9,0.6c0,0.4-0.4,0.5-3,0.4
		c-1.6-0.2-6-0.4-9.6-0.5l-6.7-0.3l-0.4,1.1c-0.8,2-3.2,3-5.1,2.1c-1.2-0.5-2.3-2.2-2.3-3.4C264.5,1016.5,267,1014.5,269.2,1015z
		 M234,1016c2-0.2,2-0.2,2,0.8c0,1-0.5,1.1-2.8,0.5C230.9,1016.8,231.2,1016.2,234,1016z M230.5,1021.3c1.7,0.2,4.7,0.4,6.6,0.5
		l3.4,0.3l-1.2-0.9c-2.2-1.9-2.3-4.8-0.5-6.5c2-1.8,4.2-1.5,6.4,0.8c0.8,0.8,1.4,1.1,2.3,1.1c0.7,0,2.7,0.2,4.4,0.4
		c1.7,0.2,4.3,0.5,5.9,0.5c1.5,0.2,2.8,0.4,2.8,0.5c0,0.2-0.7,0.2-1.7,0.2c-0.9-0.1-4.1-0.1-7.2,0.1c-5.3,0.3-5.5,0.3-5.7,1.1
		c-0.3,1.1-1.6,2.3-2.9,2.7c-1.3,0.3,5.7,0.9,16.1,1.4c10.3,0.5,22.4,1.4,23.5,1.8c1.4,0.4-4.5,0.4-16.4,0
		c-13.7-0.5-39-2.9-39.9-3.8C225.9,1021,227.6,1020.9,230.5,1021.3z M307.4,1031.8c-8.7-0.2-19-0.4-23.1-0.7
		c-25-1.4-25.8-1.4-47.1-3.6c-8.8-0.9-10-1.1-10.2-1.8c-0.2-0.4,0.9-0.4,6.6-0.2c6.9,0.3,9.4,0.4,24.7,1.4c25,1.7,36.7,2.3,59.7,3.1
		c6.3,0.2,15,0.5,19.1,0.7c4.1,0.2,13.6,0.5,21.1,0.7c7.4,0.2,13.5,0.5,13.6,0.5C372.2,1032.2,326.7,1032,307.4,1031.8z
		 M394.9,1029.8c-0.2-0.1-8.8-0.3-19.1-0.5c-35-0.7-79.8-2.7-81.9-3.6c-0.6-0.4-0.6-0.4,0.2-0.2c0.5,0.1,6.8,0.4,13.9,0.5
		c7.1,0.2,15.2,0.5,18,0.5c2.8,0.2,17.8,0.4,33.4,0.5c15.6,0.2,33.5,0.5,39.9,0.9c22.5,1,29.2,1.4,28.1,1.6
		C426.3,1029.9,395.5,1030,394.9,1029.8z M507.6,1033.5c-6.7,0-15.2,0.2-18.9,0.5c-9.4,0.5-31.8,0.7-39.3,0.4
		c-14.1-0.7-26.8-1.1-32.6-0.9c-6,0.1-6.1,0.1-2.7-0.3c4.5-0.4,96.8-0.4,102.1,0C519,1033.4,517.3,1033.4,507.6,1033.5z
		 M502.8,1029.7c-1.1-0.3,4.8-0.6,28.1-1.7c6.3-0.4,24.3-0.7,39.9-0.9c15.6-0.2,30.6-0.4,33.4-0.5c2.8-0.1,10.9-0.4,18-0.5
		c7.1-0.2,13.3-0.4,13.9-0.5c0.8-0.2,0.8-0.2,0.2,0.2c-1.9,0.8-42.3,2.7-79.4,3.6C538,1029.8,504.2,1030,502.8,1029.7z M703,1025.6
		c-0.2,0.7-1.4,0.9-10.2,1.8c-21.3,2.2-22.2,2.3-47.1,3.6c-4.1,0.3-14.5,0.5-23.3,0.7c-19.2,0.3-64.6,0.5-64.3,0.2
		c0.1-0.1,6.2-0.4,13.6-0.5c7.5-0.2,17-0.5,21.1-0.7c4.1-0.2,12.8-0.5,19.1-0.7c23-0.7,34.7-1.4,59.7-3.1
		c15.3-1.1,17.9-1.2,24.7-1.4C702.1,1025.2,703.2,1025.3,703,1025.6z M703.8,1021.5c-1,1-26.1,3.2-41.7,3.8c-13,0.5-16.1,0.5-14.6,0
		c1.2-0.4,13.3-1.3,23.5-1.8c10.5-0.5,17.4-1.2,16.1-1.4c-1.3-0.4-2.6-1.6-2.9-2.7c-0.2-0.8-0.4-0.8-5.7-1.1
		c-3.1-0.2-6.3-0.2-7.2-0.1c-1,0-1.7,0-1.7-0.2c0-0.1,1.3-0.3,2.8-0.5c1.5-0.1,4.1-0.4,5.9-0.5c1.7-0.2,3.7-0.4,4.4-0.4
		c0.9,0,1.4-0.3,2.3-1.1c2.2-2.3,4.4-2.6,6.4-0.8c1.8,1.7,1.6,4.6-0.5,6.5l-1.2,0.9l3.4-0.3c1.9-0.1,4.9-0.4,6.6-0.5
		C702.5,1020.9,704.2,1021,703.8,1021.5z"/>
	<path class="st1" d="M579.7,1187c1.4-0.2,1.6-0.4,3-2.3l1.4-2.1l-6.6-0.1l-6.6-0.1l-0.8,1c-0.5,0.5-1.3,1.6-1.9,2.4l-1,1.4l5.4-0.1
		C575.7,1187.2,578.9,1187.1,579.7,1187z"/>
	<path class="st1" d="M593.6,1182.3l-1.4,1.8c-0.7,0.9-1.3,1.8-1.3,1.9c0,0.3,1.7,0,6.4-0.9c3.6-0.7,11.4-2.9,11.2-3.2
		c-0.1,0-3.5,0-7.6,0.2L593.6,1182.3z"/>
	<path class="st1" d="M769.1,1002.4c-0.1-0.2-0.5-0.2-0.7-0.1c-0.3,0.2-0.2,0.3,0.3,0.3C769,1002.5,769.1,1002.5,769.1,1002.4z"/>
	<path class="st1" d="M422,1146c2.1,5.7,4.1,10.3,4.4,10c0.1-0.1-0.4-1.4-0.9-3c-0.8-2.2-7.6-25.3-8.2-28.1
		c-0.4-1.5-2.1-7.9-2.5-9.2c-1.2-3.5-3.5-14.3-5.8-26.4c-2.1-11.7-2.8-17.9-3.4-30.8c-0.2-4.2-0.5-9.1-0.5-10.7l-0.3-3h-2.4h-2.4
		l-0.2,2.1c-0.3,3.5,0.4,15.9,1.2,23c1,8.9,2.5,17.8,4.2,24.7C406.6,1100.5,418.6,1137.4,422,1146z"/>
	<path class="st1" d="M791,1014.1l-1.1,0.7h1.4c1,0,1.5-0.3,2.2-1.1c0.5-0.5,1.1-1.7,1.2-2.5c0.3-1.8-0.4-3-2.5-4.2
		c-1.7-1-3.3-1-4.5-0.1l-0.8,0.6l1.8-0.2c1.5-0.2,1.9,0,2.9,0.8C793.4,1009.8,793.2,1012.8,791,1014.1z"/>
	<path class="st1" d="M805.6,989.9l-1.8-1.2l-8.4,3.2c-11,4.1-19.3,6.3-29.3,7.8c-9,1.3-17,2.7-16.2,2.8c1.2,0.3,15.2-1,23.6-2.1
		c6.1-0.8,8.4-1.2,10.8-1.8c0.9-0.2,2.3-0.5,3.2-0.7c2.6-0.5,8-2.4,11.2-4c1.9-0.9,3.2-1.3,3.8-1.2c2.4,0.6,7.1,4.9,8.6,7.8
		c1,1.9,0.9,2.2-0.5,1.4c-1.4-0.8-3.6-0.9-4.2-0.2c-0.4,0.4-0.3,0.5,0.6,0.4c1.6-0.4,3.5,0.7,4.2,2.3c1.1,2.3-0.5,5.1-3.1,5.6
		c-0.6,0.1-0.4,0.2,0.6,0.3c1.3,0,1.8-0.2,2.9-1.3l1.4-1.2v-4c0-3.7-0.1-4-1.3-6.6C810.2,994,808.1,991.5,805.6,989.9z"/>
	<path class="st1" d="M746.4,1055.2c-1.2,9.2-4.2,23.8-6.5,31.7c-0.6,2.1-1.3,4.3-1.4,5c-1.1,3.9-4.4,15.4-4.9,16.5
		c-0.3,0.7-1.4,4.1-2.7,7.4c-3.2,8.9-6.9,17.6-11.9,28.2c-0.7,1.6-2.5,5.2-3.9,8.1c-1.4,2.9-3.5,6.9-4.8,8.8c-3.9,6.3-1.4,2.9,5.2-7
		c5.3-7.8,7-10.8,9.8-16.6c12.4-25.7,19.3-52.7,22.3-86.7C748,1046.4,747.2,1049.4,746.4,1055.2z"/>
	<path class="st1" d="M298.2,1172.1c-0.2-0.2-1.6-0.5-3.2-0.7c-7.3-1.1-19.4-4.1-28.9-7.3c-3.1-1-5.6-1.7-5.7-1.6
		c-0.2,0.1,6.9,6.5,8,7.3c0.7,0.5,9.1,3,16.3,4.7c4.1,1,17.4,3.9,18.8,4.1c0.2,0-0.8-1.4-2.3-3.2
		C299.9,1173.7,298.5,1172.2,298.2,1172.1z"/>
	<path class="st1" d="M258.8,1164.1l-2.4-3.2l-7-2.8c-6.3-2.6-9.2-3.8-16.4-7.1c-2.1-0.9-2.2-0.9-1.4-0.2c1.1,1.2,11.2,7.8,16.8,11
		c4.1,2.3,11.5,5.5,12.7,5.6C261.2,1167.4,260.2,1165.9,258.8,1164.1z"/>
	<path class="st1" d="M307.1,1170.9c3.4,0.5,23.9,3.2,24.1,3.2c0.1-0.1-0.8-1.8-2-3.9c-1.3-2.1-2.5-4.5-3-5.4
		c-0.5-0.9-1.1-1.8-1.4-1.9c-0.3-0.1-4.3-0.8-9-1.6c-8.5-1.5-21.9-4.1-23-4.6c-0.9-0.3,4.6,6.4,9.2,11.4l2.1,2.3L307.1,1170.9z"/>
	<path class="st1" d="M310.8,1176.8c2.6,2.3,4.4,3.7,5.1,3.8c1.4,0.3,18.8,2.3,20.1,2.3c0.9,0,0.9-0.1-1.6-4l-2.5-4H330
		c-2,0-10.9-0.8-18.4-1.6c-2.5-0.3-4.7-0.5-4.8-0.4C306.7,1173.1,308.5,1174.7,310.8,1176.8z"/>
	<path class="st1" d="M794.4,1047.8c-1.4,5.1-2.8,9.3-7.4,22.3c-3.7,10.6-8.6,21-13.9,30c-1.5,2.6-3.4,6-4.3,7.4
		c-4.6,7.9-13.9,20.6-21.7,29.8c-1.3,1.5-0.2,0.5,2.7-2.3c2.6-2.7,6.5-6.9,8.5-9.2c21-24.3,33.7-50.8,37.1-76.7
		C796.2,1042.2,795.9,1041.9,794.4,1047.8z"/>
	<path class="st1" d="M337.5,1165.2c-2.2-0.4-3.9-0.6-4-0.5c-0.1,0.1,6.6,9.8,10.2,14.9c2.9,4,2.9,4,4.5,4.2
		c2.6,0.3,23.5-0.1,29.3-0.5l5.3-0.4l-2.1-2.8c-1.2-1.5-3.4-4.7-5-7l-2.9-4.3l-4.9-0.3C356.7,1167.7,345.7,1166.7,337.5,1165.2z"/>
</g>
</svg>
