<?xml version="1.0" encoding="utf-8"?>
<!-- Generator: Adobe Illustrator 23.0.0, SVG Export Plug-In . SVG Version: 6.00 Build 0)  -->
<svg version="1.1" id="Layer_1" xmlns="http://www.w3.org/2000/svg" xmlns:xlink="http://www.w3.org/1999/xlink" x="0px" y="0px"
	 viewBox="0 0 64 64" style="enable-background:new 0 0 64 64;" xml:space="preserve">
<style type="text/css">
	.st0{fill:#EBDBB7;}
</style>
<g id="surface65925">
	<path class="st0" d="M59.1,24c-0.5-2.9-3.1-5.1-6-5.7c-4.4-0.9-12.5-1.6-21.3-1.6c-8.8,0-17,0.7-21.4,1.6C7.5,19,4.9,21,4.4,24
		c-0.5,3.3-1.1,8-1.1,14s0.5,10.6,1.2,14c0.5,2.9,3.1,5.1,6,5.7c4.7,0.9,12.6,1.6,21.4,1.6s16.8-0.7,21.4-1.6c2.9-0.7,5.5-2.7,6-5.7
		c0.5-3.3,1.2-8.1,1.3-14C60.4,32,59.7,27.4,59.1,24z M24.6,47.3V28.7L40.8,38L24.6,47.3z"/>
</g>
</svg>
